<svg width="300" height="200" viewBox="0 0 300 200" fill="none" xmlns="http://www.w3.org/2000/svg">
<rect width="300" height="200" rx="10" fill="#8A9AE9"/>
<g clip-path="url(#clip0_2034_51832)">
<path d="M159.808 141.034C159.808 141.034 159.021 156.476 149.434 160.351C140.438 163.71 131.235 166.493 121.883 168.681C121.109 168.681 106.595 133.561 106.595 133.561L131.942 140.032C131.942 140.032 130.248 134.334 136.264 135.879C136.264 135.879 144.652 105.346 152.375 97.052C160.098 88.7578 172.953 87.3936 172.953 87.3936" fill="white"/>
<path d="M121.884 169.261C121.351 169.261 120.673 169.261 106.039 133.766L105.579 132.655L131.168 139.187C131.054 138.61 131.067 138.015 131.207 137.444C131.347 136.872 131.611 136.338 131.979 135.879C132.503 135.433 133.134 135.129 133.811 134.998C134.488 134.867 135.187 134.912 135.84 135.13C137.051 130.82 144.677 104.405 151.928 96.6174C159.723 88.2387 172.372 86.8503 172.905 86.802L173.038 88.0093C172.905 88.0093 160.292 89.4219 152.823 97.4504C145.355 105.479 136.942 135.722 136.857 136.084L136.7 136.652L136.119 136.507C135.029 136.229 133.565 136.048 132.851 136.784C132.136 137.521 132.342 139.32 132.524 139.911L132.826 140.926L107.624 134.491C112.962 147.397 120.722 165.76 122.15 168.078C131.337 165.878 140.384 163.128 149.24 159.844C158.343 156.222 159.215 141.227 159.227 141.083H160.437C160.437 141.722 159.517 156.959 149.688 160.906C140.614 164.296 131.325 167.087 121.884 169.261Z" fill="black"/>
<path d="M212.56 90.8948C212.56 90.8948 226.771 116.176 223.272 145.356C219.774 174.537 218.37 179.825 218.37 179.825H155.692L157.144 160.327C156.225 157.405 160.195 149.461 160.195 149.461C158.803 147.614 159.783 141.01 159.783 141.01C157.52 138.451 156.43 131.352 157.144 125.496" fill="white"/>
<path d="M218.879 180.429H155.087L156.612 160.399C155.825 157.502 158.791 151.115 159.578 149.534C158.476 147.457 159.045 142.567 159.215 141.251C157.036 138.487 155.874 131.521 156.624 125.472L157.835 125.629C157.121 131.436 158.258 138.33 160.328 140.672L160.51 140.889V141.167C160.147 143.582 159.905 147.94 160.8 149.135L161.03 149.437L160.861 149.775C159.784 151.912 157.145 157.973 157.847 160.182V160.303L156.406 179.258H217.947C218.322 177.471 219.799 169.768 222.728 145.32C226.166 116.683 212.233 91.4743 212.088 91.2328L213.141 90.6412C213.286 90.8948 227.413 116.417 223.926 145.465C220.44 174.513 219.084 179.801 219.012 180.018L218.879 180.429Z" fill="black"/>
<path d="M182.516 175.672H95.6646V179.825H182.516V175.672Z" fill="white"/>
<path d="M183.121 180.429H95.0596V175.068H183.121V180.429ZM96.27 179.221H181.911V176.275H96.27V179.221Z" fill="black"/>
<path d="M176.706 163.092C173.6 161.439 170.158 160.515 166.64 160.39C163.122 160.264 159.622 160.941 156.406 162.367C149.851 165.032 144.153 169.437 139.932 175.104L183.291 175.732C183.425 173.231 182.884 170.739 181.726 168.516C180.568 166.293 178.835 164.42 176.706 163.092Z" fill="white"/>
<path d="M183.835 176.287L138.818 175.636L139.423 174.718C139.629 174.392 144.798 166.593 156.176 161.752C159.475 160.271 163.072 159.569 166.687 159.701C170.303 159.833 173.839 160.795 177.02 162.512C179.264 163.897 181.087 165.864 182.294 168.204C183.501 170.544 184.046 173.167 183.872 175.793L183.835 176.287ZM141.106 174.464L182.734 175.068C182.748 172.765 182.171 170.497 181.059 168.479C179.946 166.462 178.335 164.761 176.379 163.538C173.353 161.953 170.007 161.07 166.591 160.952C163.175 160.835 159.776 161.488 156.648 162.862C150.592 165.4 145.254 169.384 141.106 174.464Z" fill="black"/>
<path d="M204.874 84.0614C213.357 85.9274 220.755 91.0666 225.452 98.3559C233.804 110.839 231.129 133.658 230.354 141.058C229.579 148.459 223.091 167.752 223.091 167.752C223.091 167.752 213.662 175.153 196.461 175.611C179.26 176.07 178.945 175.611 178.945 175.611C183.945 170.686 175.011 165.084 169.939 160.762C169.939 160.762 180.543 152.757 190.905 151.574C194.492 151.26 198.051 150.691 201.557 149.872C199.533 142.798 199.267 135.339 200.782 128.14C202.357 120.565 205.346 113.352 209.594 106.88" fill="white"/>
<path d="M184.489 176.372C178.885 176.372 178.679 176.118 178.546 175.937L178.207 175.515L178.594 175.141C179.011 174.789 179.343 174.347 179.565 173.85C179.787 173.353 179.894 172.811 179.877 172.267C179.72 169.285 175.641 166.025 172.046 163.152C171.186 162.476 170.363 161.812 169.625 161.172L169.056 160.689L169.649 160.23C170.097 159.904 180.543 152.105 190.917 150.922C194.263 150.59 197.588 150.079 200.879 149.389C199.001 142.395 198.794 135.059 200.274 127.971C201.88 120.318 204.901 113.031 209.183 106.481L210.175 107.169C205.988 113.585 203.033 120.72 201.46 128.213C199.979 135.309 200.24 142.657 202.223 149.63L202.428 150.222L201.811 150.403C198.269 151.272 194.669 151.881 191.038 152.226C182.371 153.216 173.389 159.168 170.992 160.858C171.561 161.341 172.203 161.824 172.808 162.319C176.597 165.349 180.906 168.79 181.088 172.303C181.133 173.34 180.826 174.361 180.216 175.201C181.826 175.285 185.966 175.358 196.521 175.068C212.136 174.646 221.372 168.331 222.595 167.438C223.248 165.47 229.047 147.928 229.761 141.046L229.833 140.418C230.693 132.293 232.956 110.719 224.991 98.7543C220.38 91.5785 213.123 86.5003 204.789 84.6167L204.97 83.4094C205.479 83.4819 217.571 85.4015 225.972 97.9695C234.215 110.296 231.903 132.185 231.032 140.418L230.971 141.058C230.197 148.435 223.95 167.088 223.708 167.885V168.054L223.563 168.162C223.164 168.476 213.783 175.696 196.618 176.155C190.965 176.372 187.128 176.372 184.489 176.372Z" fill="black"/>
<path d="M210.405 80.6206C210.405 80.6206 219.823 85.8241 218.128 92.1625C216.433 98.5008 195.129 121.923 176.972 113.894C158.815 105.865 161.986 87.0797 161.986 87.0797C161.986 87.0797 171.113 59.5411 210.405 80.6206Z" fill="white"/>
<path d="M184.985 116.176C182.171 116.187 179.386 115.602 176.814 114.461C158.524 106.348 161.454 87.1762 161.49 86.983C162.608 84.0266 164.331 81.3343 166.548 79.0772C168.765 76.8201 171.429 75.0473 174.369 73.8716C183.787 70.1169 196.013 72.2056 210.683 80.0893C211.083 80.3187 220.5 85.6067 218.697 92.3193C217.571 96.5569 208.456 107.688 196.969 113.157C193.251 115.046 189.156 116.078 184.985 116.176ZM184.332 73.268C181.087 73.2302 177.866 73.8122 174.841 74.9824C172.085 76.1051 169.585 77.7728 167.492 79.8851C165.399 81.9974 163.757 84.5104 162.664 87.2728C162.555 87.9368 159.88 105.636 177.311 113.363C182.976 115.874 189.416 115.439 196.497 112.071C207.5 106.831 216.53 95.9533 217.583 92.0054C219.12 86.2345 210.32 81.2604 210.151 81.1396C200.346 75.8999 191.715 73.268 184.332 73.268Z" fill="black"/>
<path d="M75.3047 125.508H126.822L147.17 175.672H95.6648L75.3047 125.508Z" fill="white"/>
<path d="M148.066 176.275H95.2531L74.4209 124.917H127.234L148.066 176.275ZM96.0157 175.068H146.25L126.386 126.124H76.2124L96.0157 175.068Z" fill="black"/>
<path d="M154.796 105.503C154.796 105.503 149.676 119.749 159.444 127.838L154.796 105.503Z" fill="white"/>
<path d="M159.057 128.297C149.083 120.039 154.215 105.443 154.215 105.358L155.353 105.769C155.353 105.902 150.511 119.713 159.82 127.428L159.057 128.297Z" fill="black"/>
<path d="M226.396 113.954C226.396 113.954 218.975 101.603 214.654 107.145C210.333 112.687 202.9 122.84 204.147 137.328C205.394 151.815 202.622 154.29 202.622 154.29C202.622 154.29 191.231 153.675 184.864 155.836C181.116 157.085 177.547 158.818 174.249 160.991C174.249 160.991 180.991 166.762 182.056 169.152C182.69 170.802 182.85 172.596 182.516 174.332C182.516 174.332 211.095 174.054 218.043 167.993C224.991 161.933 229.773 136.784 226.396 113.954Z" fill="#DBE5FB"/>
<path d="M201.46 115.56C201.46 115.56 186.014 122.321 176.766 120.751C167.518 119.182 157.944 108.377 157.944 108.377C157.944 108.377 154.857 111.769 157.944 117.938C159.455 120.761 160.726 123.705 161.745 126.74C161.745 126.74 159.893 127.392 160.716 131.497C161.402 134.567 162.296 137.589 163.391 140.539C162.833 141.07 162.442 141.751 162.266 142.499C162.09 143.247 162.136 144.03 162.398 144.753C163.185 147.53 163.609 148.652 163.609 148.652C163.609 148.652 162.277 149.063 161.345 152.769C160.754 155.251 160.382 157.78 160.231 160.327C160.231 160.327 170.46 153.892 180.071 151.743C186.546 150.356 193.104 149.393 199.705 148.858C198.954 143.07 198.631 137.235 198.736 131.4C199.233 126.058 200.144 120.762 201.46 115.56Z" fill="#DBE5FB"/>
<path d="M169.963 128.852C167.233 128.891 164.504 128.75 161.792 128.43L161.962 127.223C171.343 128.575 196.388 126.148 196.63 126.124L196.751 127.331C195.952 127.416 181.039 128.852 169.963 128.852Z" fill="black"/>
<path d="M165.122 141.143C165.122 141.143 177.965 145.308 187.394 145.344L165.122 141.143Z" fill="white"/>
<path d="M187.406 145.948C177.989 145.948 165.073 141.759 164.94 141.71L165.315 140.563C165.448 140.563 178.195 144.704 187.418 144.741L187.406 145.948Z" fill="black"/>
<path d="M169.407 160.846C165.679 131.158 176.44 113.761 176.549 113.592L177.577 114.232C177.469 114.401 166.937 131.46 170.605 160.689L169.407 160.846Z" fill="black"/>
<path d="M212.487 88.4439C212.487 88.4439 211.071 101.604 192.769 108.377C174.466 115.15 166.138 90.8948 166.138 90.8948C166.138 90.8948 166.84 86.2828 172.977 90.7016C179.114 95.1203 190.323 87.7919 192.781 85.8723C195.238 83.9527 210.32 78.8458 212.487 88.4439Z" fill="#5ED1BC"/>
<path d="M149.749 112.385C149.749 112.385 145.572 124.989 144.798 132.016C144.495 135.478 143.929 138.913 143.103 142.29C143.103 142.29 139.544 138.281 137.051 138.281C134.557 138.281 137.051 145.344 137.051 145.344L142.837 159.24C145.222 159.231 147.543 158.464 149.463 157.051C151.382 155.638 152.801 153.652 153.513 151.381C156.394 143.207 150.208 119.327 149.749 112.385Z" fill="#DBE5FB"/>
<path d="M187.164 43.7132C187.164 43.7132 183.969 39.6204 174.152 42.5059C165.073 45.174 161.793 52.5386 160.328 59.4082C158.864 66.2777 162.011 74.741 160.328 81.0672C158.646 87.3935 158.416 88.0696 158.355 91.269C158.295 94.4684 172.578 87.3814 172.578 87.3814" fill="white"/>
<path d="M159.566 92.6574C159.146 92.6786 158.728 92.5869 158.355 92.3918C158.152 92.2658 157.989 92.0863 157.882 91.8733C157.775 91.6602 157.729 91.4218 157.75 91.1845C157.75 88.0455 158.004 87.3091 159.541 81.6106L159.747 80.8379C160.582 77.723 160.207 74.0649 159.808 70.2015C159.408 66.3381 159.021 62.6559 159.808 59.2151C161.841 49.7739 166.49 44.1116 174.055 41.8781C184.15 38.9202 187.564 43.0855 187.709 43.3028L186.753 44.0392C186.753 44.0392 183.63 40.3328 174.394 43.0371C167.204 45.162 162.943 50.3775 160.994 59.4685C160.292 62.7283 160.679 66.4589 161.055 70.0687C161.454 73.8838 161.866 77.8196 160.97 81.1518L160.764 81.9245C159.263 87.4902 159.069 88.2146 159.009 91.2087C160.219 92.0296 166.828 89.5064 172.324 86.7658L172.869 87.8402C170.351 89.12 162.931 92.6574 159.566 92.6574Z" fill="black"/>
<path d="M163.826 64.7928C164.143 66.1577 164.572 67.4943 165.109 68.789C160.364 78.6648 170.992 87.1521 170.992 87.1521C172.091 88.3256 173.46 89.214 174.981 89.74C176.502 90.266 178.128 90.4137 179.72 90.1703C189.04 89.12 194.403 76.6123 194.403 76.6123C194.79 75.562 195.129 74.5358 195.444 73.5337C195.739 73.8017 196.097 73.9925 196.485 74.0891C198.228 74.4996 200.116 72.8818 200.685 70.4672C201.254 68.0526 200.31 65.7104 198.567 65.2999C198.135 65.178 197.679 65.178 197.247 65.2999C198.603 53.7339 193.773 46.9488 185.748 45.6812" fill="white"/>
<path d="M178.328 90.8465C176.875 90.8805 175.432 90.6076 174.093 90.0458C172.753 89.484 171.548 88.646 170.557 87.5868C169.758 86.9107 160.001 78.4957 164.444 68.7649C163.939 67.519 163.535 66.2352 163.233 64.9256L164.444 64.648C164.739 65.9789 165.144 67.2831 165.654 68.5475L165.763 68.8011L165.642 69.0425C161.151 78.3871 171.259 86.5968 171.356 86.6813L171.453 86.7778C172.485 87.8725 173.771 88.6989 175.197 89.1849C176.623 89.671 178.147 89.8021 179.635 89.5667C188.496 88.5646 193.786 76.4916 193.834 76.3709C194.173 75.4412 194.512 74.4392 194.851 73.3526L195.129 72.4713L195.831 73.0749C196.049 73.2793 196.316 73.4248 196.606 73.4975C197.986 73.8114 199.596 72.3505 200.08 70.2619C200.336 69.2754 200.281 68.2342 199.923 67.2799C199.807 66.9352 199.61 66.6229 199.349 66.3689C199.088 66.1149 198.77 65.9264 198.422 65.819C198.088 65.7487 197.74 65.7696 197.417 65.8794L196.521 66.1571L196.63 65.2275C197.841 54.6394 193.774 47.5525 185.639 46.2727L185.833 45.0654C194.464 46.4297 198.942 53.6977 197.938 64.5635C198.202 64.5516 198.467 64.576 198.724 64.6359C199.265 64.781 199.762 65.0561 200.171 65.437C200.581 65.818 200.89 66.2932 201.073 66.8211C201.524 68.0051 201.6 69.299 201.291 70.5275C200.637 73.2923 198.422 75.1394 196.352 74.6686C196.16 74.6183 195.974 74.5495 195.795 74.4634C195.529 75.2843 195.262 76.057 194.984 76.8056C194.754 77.3609 189.367 89.6754 179.793 90.7499C179.307 90.8113 178.818 90.8435 178.328 90.8465Z" fill="black"/>
<path d="M181.62 78.9062C179.56 79.5939 177.435 80.0712 175.277 80.3309C172.59 80.524 171.646 79.7272 171.646 79.7272" fill="white"/>
<path d="M174.454 80.9948C173.334 81.0992 172.211 80.8318 171.259 80.2342L172.033 79.3046C173.022 79.7931 174.142 79.9538 175.229 79.7634C177.337 79.5124 179.414 79.0473 181.427 78.375L181.814 79.5823C179.698 80.277 177.516 80.7504 175.302 80.9948C175.011 80.9948 174.721 80.9948 174.454 80.9948Z" fill="black"/>
<path d="M174.2 75.9725C174.2 75.9725 172.142 76.1294 171.574 75.1152C171.005 74.1011 173.813 66.8331 173.305 65.4568" fill="white"/>
<path d="M173.885 76.5881C173.348 76.6335 172.808 76.5471 172.313 76.3367C171.817 76.1263 171.38 75.7981 171.041 75.3808C170.677 74.7289 170.98 73.4009 171.815 70.2981C172.263 68.6562 172.929 66.1933 172.735 65.6862L173.873 65.2516C174.188 66.0726 173.74 67.8232 172.989 70.612C172.542 71.9754 172.249 73.3848 172.118 74.8134C172.384 75.2843 173.631 75.3809 174.151 75.3326L174.248 76.5399L173.885 76.5881Z" fill="black"/>
<path d="M177.456 66.9297C177.456 66.9297 177.722 64.0926 180.143 63.8752C181.894 63.8909 183.593 64.4711 184.985 65.5292" fill="white"/>
<path d="M178.062 66.966L176.851 66.8815C176.874 65.9941 177.211 65.1435 177.802 64.4804C178.394 63.8174 179.202 63.3849 180.083 63.2596C182 63.254 183.864 63.8824 185.385 65.0463L184.634 66.0002C183.353 65.0338 181.798 64.497 180.192 64.4669C178.255 64.648 178.074 66.8694 178.062 66.966Z" fill="black"/>
<path d="M184.331 61.0622C184.331 61.0622 182.177 58.6476 180.058 59.8549C178.636 60.695 177.313 61.6912 176.112 62.8249" fill="white"/>
<path d="M176.512 63.187L175.665 62.3298C176.901 61.157 178.27 60.1319 179.744 59.2754C182.25 57.8508 184.658 60.5551 184.767 60.6637L183.859 61.4606C183.859 61.4606 181.983 59.384 180.337 60.3257C178.961 61.1371 177.678 62.0966 176.512 63.187Z" fill="black"/>
<path d="M171.404 64.5513C171.404 64.5513 168.341 61.5813 166.09 64.5513H171.404Z" fill="white"/>
<path d="M170.98 64.986C170.265 64.2656 169.307 63.8354 168.293 63.7787C167.943 63.8215 167.607 63.9398 167.308 64.1253C167.009 64.3109 166.755 64.5594 166.562 64.8532L165.605 64.1168C165.899 63.6858 166.285 63.3248 166.735 63.0597C167.185 62.7947 167.688 62.6321 168.208 62.5835C169.561 62.6135 170.855 63.1426 171.839 64.0685L170.98 64.986Z" fill="black"/>
<path d="M170.968 67.316C170.817 66.8972 170.533 66.5389 170.16 66.295C169.786 66.0511 169.344 65.9348 168.898 65.9638C167.288 66.0483 166.792 68.2457 166.792 68.2457" fill="white"/>
<path d="M167.385 68.3906L166.175 68.1129C166.175 68.0042 166.804 65.4689 168.838 65.3602C169.418 65.3155 169.997 65.4643 170.484 65.7834C170.97 66.1025 171.336 66.5736 171.525 67.1229L170.375 67.5092C170.259 67.2178 170.054 66.97 169.789 66.801C169.524 66.6321 169.212 66.5504 168.898 66.5675C167.809 66.6279 167.385 68.3664 167.385 68.3906Z" fill="black"/>
<path d="M168.973 69.9511C169.462 69.8778 169.778 69.2839 169.679 68.6245C169.58 67.9651 169.103 67.49 168.613 67.5632C168.124 67.6365 167.808 68.2305 167.907 68.8898C168.007 69.5492 168.484 70.0244 168.973 69.9511Z" fill="black"/>
<path d="M179.587 68.3739C180.076 68.3007 180.392 67.7067 180.293 67.0474C180.193 66.388 179.716 65.9128 179.227 65.9861C178.738 66.0594 178.422 66.6533 178.521 67.3127C178.62 67.9721 179.097 68.4472 179.587 68.3739Z" fill="black"/>
<path d="M182.237 50.6069C182.237 50.6069 180.785 52.3816 176.645 52.3816C172.505 52.3816 169.467 56.1123 167.893 58.9132C166.279 61.5378 164.517 64.0691 162.616 66.495" fill="white"/>
<path d="M163.1 66.8572L162.144 66.1208C164.018 63.7153 165.763 61.2127 167.373 58.6234C168.523 56.5589 171.718 51.778 176.633 51.778C180.373 51.778 181.729 50.2447 181.741 50.2206L182.673 50.9933C182.613 51.0778 181.003 52.9853 176.621 52.9853C172.348 52.9853 169.455 57.3437 168.414 59.215C166.786 61.8587 165.012 64.41 163.1 66.8572Z" fill="black"/>
<path d="M209.304 75.2723C205.176 67.5214 202.041 69.3082 200.975 58.37C199.91 47.4318 194.124 42.9527 188.12 44.3894C182.116 45.8261 183.048 52.5629 183.048 52.5629C185.936 54.385 188.278 56.95 189.827 59.9878C192.309 64.9981 193.652 67.7628 193.652 67.7628C193.652 67.7628 196.739 64.648 198.579 65.2396C200.419 65.8312 201.278 67.956 200.697 70.4068C200.116 72.8576 198.276 74.4996 196.497 74.0287C196.109 73.9321 195.751 73.7414 195.456 73.4734C195.577 83.6993 195.177 90.2308 199.16 91.8124C203.142 93.394 213.443 83.0353 209.304 75.2723Z" fill="white"/>
<path d="M200.068 92.6454C199.678 92.6479 199.292 92.574 198.93 92.428C194.96 90.8585 194.924 85.1842 194.863 76.5278C194.863 75.574 194.863 74.572 194.863 73.5337V72.1936L195.892 73.0749C196.11 73.2793 196.376 73.4248 196.667 73.4975C198.047 73.8114 199.656 72.3505 200.141 70.2619C200.625 68.1733 199.874 66.2778 198.434 65.8069C197.308 65.4568 195.045 67.2557 194.125 68.2215L193.519 68.8252L193.144 68.0646C193.144 68.0646 191.8 65.2999 189.319 60.2895C187.828 57.3397 185.576 54.8393 182.795 53.0457L182.54 52.9008V52.6111C182.54 52.5386 181.62 45.3069 188.072 43.7615C189.369 43.4284 190.724 43.3844 192.04 43.6327C193.356 43.881 194.601 44.4155 195.686 45.1982C198.01 46.8643 200.94 50.4862 201.678 58.2733C202.32 65.155 203.808 66.8694 205.866 69.2236C207.459 70.9743 208.825 72.9171 209.933 75.0066C212.463 79.7272 210.006 85.148 206.871 88.6371C204.861 90.762 202.198 92.6454 200.068 92.6454ZM196.061 74.5961C196.061 75.2481 196.061 75.8879 196.061 76.5157C196.061 84.665 196.158 90.0375 199.366 91.3052C200.806 91.8847 203.53 90.4118 205.866 87.8282C208.723 84.6288 210.986 79.7393 208.759 75.562C207.694 73.5522 206.376 71.686 204.837 70.0084C202.719 67.5938 201.036 65.65 200.359 58.382C199.826 52.6473 197.938 48.3131 194.863 46.1641C193.918 45.491 192.836 45.0338 191.693 44.8251C190.551 44.6165 189.377 44.6614 188.254 44.9568C183.412 46.1641 183.509 50.9933 183.606 52.2006C186.477 54.0942 188.801 56.7038 190.348 59.7704L193.822 66.809C194.887 65.8552 197.09 64.1892 198.736 64.7083C200.806 65.3723 201.896 67.8956 201.266 70.5879C200.637 73.2802 198.398 75.1998 196.328 74.7289L196.061 74.5961Z" fill="black"/>
<path d="M147.17 62.7887C147.167 55.9806 145.289 49.3042 141.743 43.4873C138.196 37.6704 133.116 32.9363 127.057 29.801C120.999 26.6657 114.193 25.2497 107.382 25.7073C100.572 26.1648 94.0181 28.4783 88.4354 32.3957C82.8528 36.3131 78.4555 41.6839 75.7231 47.9227C72.9906 54.1614 72.0278 61.0286 72.9396 67.7756C73.8515 74.5227 76.603 80.8905 80.8942 86.185C85.1854 91.4795 90.8515 95.4973 97.2749 97.8005L109.936 110.369L122.55 97.7884C129.763 95.1869 135.998 90.4307 140.403 84.1677C144.809 77.9047 147.172 70.4394 147.17 62.7887Z" fill="white"/>
<path d="M109.936 111.177L96.9962 98.2714C88.6227 95.2366 81.5894 89.3557 77.1318 81.662C72.6742 73.9683 71.0775 64.954 72.6223 56.2027C74.1671 47.4514 78.7546 39.5229 85.5786 33.8103C92.4027 28.0977 101.027 24.9663 109.936 24.9663C118.845 24.9663 127.47 28.0977 134.294 33.8103C141.118 39.5229 145.705 47.4514 147.25 56.2027C148.795 64.954 147.198 73.9683 142.741 81.662C138.283 89.3557 131.25 95.2366 122.876 98.2714L109.936 111.177ZM109.936 26.1711C101.297 26.1661 92.9332 29.2028 86.319 34.7462C79.7049 40.2896 75.2651 47.9837 73.782 56.4724C72.2988 64.9611 73.8677 73.6996 78.2119 81.1476C82.5562 88.5956 89.3971 94.2749 97.5288 97.1848L97.7588 97.3176L109.936 109.511L122.343 97.221C130.475 94.3112 137.316 88.6318 141.66 81.1838C146.005 73.7358 147.573 64.9973 146.09 56.5086C144.607 48.0198 140.167 40.3257 133.553 34.7824C126.939 29.239 118.575 26.2022 109.936 26.2073V26.1711Z" fill="black"/>
<path d="M114.863 49.2186L117.078 56.0399H124.268C125.071 56.0389 125.854 56.2915 126.504 56.7617C127.154 57.2318 127.638 57.8952 127.887 58.6568C128.136 59.4183 128.136 60.2389 127.888 61.0007C127.64 61.7625 127.157 62.4265 126.507 62.8974L120.685 67.1109L122.912 73.9322C123.163 74.6949 123.164 75.5173 122.916 76.2808C122.668 77.0443 122.183 77.7096 121.532 78.1808C120.88 78.652 120.096 78.9048 119.291 78.9028C118.486 78.9008 117.703 78.6441 117.054 78.1697L111.243 73.9563L105.421 78.1697C104.772 78.6392 103.99 78.8918 103.188 78.8913C102.386 78.8908 101.605 78.6373 100.956 78.167C100.307 77.6968 99.8241 77.0339 99.576 76.2732C99.3278 75.5126 99.3273 74.6932 99.5744 73.9322L101.79 67.1109L95.9793 62.8974C95.3298 62.4265 94.8464 61.7625 94.5986 61.0007C94.3508 60.2389 94.3513 59.4183 94.5999 58.6568C94.8486 57.8952 95.3328 57.2318 95.9829 56.7617C96.633 56.2915 97.4157 56.0389 98.2187 56.0399H105.397L107.624 49.2186C107.87 48.4539 108.353 47.7868 109.003 47.3136C109.654 46.8403 110.438 46.5853 111.243 46.5853C112.049 46.5853 112.833 46.8403 113.483 47.3136C114.134 47.7868 114.617 48.4539 114.863 49.2186Z" fill="#512DED"/>
<path d="M119.293 79.5099C118.36 79.5108 117.451 79.2101 116.703 78.6527L111.244 74.7048L105.784 78.6527C105.032 79.181 104.132 79.461 103.212 79.4534C102.292 79.4457 101.397 79.1509 100.653 78.6102C99.9095 78.0695 99.3542 77.3102 99.0652 76.4387C98.7762 75.5672 98.7682 74.6274 99.042 73.7511L101.136 67.3524L95.6769 63.3924C94.9188 62.8502 94.3533 62.0815 94.0624 61.1975C93.7715 60.3135 93.7702 59.3601 94.0587 58.4753C94.3472 57.5905 94.9106 56.8202 95.6672 56.276C96.4239 55.7318 97.3345 55.442 98.2673 55.4484H105.01L107.092 49.0376C107.374 48.1504 107.935 47.3772 108.691 46.8316C109.447 46.2861 110.359 45.9972 111.292 46.0072C112.224 45.9978 113.133 46.2873 113.888 46.8329C114.642 47.3785 115.2 48.1514 115.48 49.0376L117.562 55.4484H124.317C125.246 55.4499 126.15 55.7443 126.902 56.2894C127.653 56.8346 128.212 57.6026 128.499 58.4837C128.787 59.3649 128.787 60.3141 128.501 61.1957C128.215 62.0772 127.657 62.8461 126.907 63.3924L121.448 67.3524L123.53 73.7511C123.828 74.6345 123.834 75.5902 123.547 76.4772C123.259 77.3641 122.693 78.1353 121.932 78.6769C121.165 79.2293 120.24 79.5213 119.293 79.5099ZM111.244 73.2078L117.417 77.6869C117.967 78.0926 118.633 78.3117 119.317 78.3119C120.001 78.3121 120.667 78.0934 121.217 77.688C121.767 77.2826 122.172 76.7119 122.373 76.0597C122.573 75.4076 122.559 74.7084 122.331 74.065L119.971 66.8212L126.144 62.3541C126.692 61.9593 127.101 61.4013 127.311 60.7604C127.521 60.1195 127.521 59.4287 127.313 58.7873C127.104 58.1459 126.697 57.5871 126.15 57.191C125.603 56.7949 124.944 56.5822 124.268 56.5832H116.642L114.221 49.3394C114.022 48.6942 113.618 48.1311 113.07 47.7348C112.522 47.3385 111.86 47.1305 111.183 47.1421C110.506 47.1285 109.843 47.3357 109.294 47.7323C108.746 48.1288 108.342 48.6932 108.145 49.3394L105.784 56.5832H98.1584C97.4813 56.5796 96.8206 56.7905 96.2716 57.1856C95.7225 57.5807 95.3135 58.1396 95.1034 58.7816C94.8933 59.4235 94.8931 60.1154 95.1028 60.7575C95.3125 61.3996 95.7212 61.9587 96.2701 62.3541L102.443 66.8212L100.083 74.065C99.8614 74.709 99.8515 75.4068 100.055 76.0568C100.258 76.7068 100.664 77.2752 101.214 77.6792C101.763 78.0832 102.428 78.3018 103.11 78.3032C103.793 78.3046 104.458 78.0887 105.01 77.6869L111.244 73.2078Z" fill="black"/>
</g>
<defs>
<clipPath id="clip0_2034_51832">
<rect width="160" height="155.429" fill="white" transform="translate(72 25)"/>
</clipPath>
</defs>
</svg>
