<svg width="300" height="200" viewBox="0 0 300 200" fill="none" xmlns="http://www.w3.org/2000/svg">
<rect width="300" height="200" rx="10" fill="#DBE5FB"/>
<g clip-path="url(#clip0_2034_51840)">
<path d="M198.341 143.392L154.662 105.934L152.201 150.949L197.918 162.793L211.458 160.468L217.165 136.358L198.341 143.392Z" fill="black"/>
<path d="M169.757 87.2793C161.053 71.6074 124.151 80.568 124.151 80.568L98.1279 167.08L175.849 166.819L161.414 106.941C161.414 106.941 178.435 102.951 169.757 87.2793Z" fill="black"/>
<path d="M193.355 159.189L195.059 164.893C195.146 165.183 195.314 165.443 195.542 165.643C195.771 165.843 196.051 165.974 196.351 166.022C196.65 166.07 196.957 166.033 197.237 165.914C197.516 165.796 197.757 165.601 197.931 165.353L226.08 125.272C226.259 125.012 226.357 124.704 226.361 124.388C226.366 124.072 226.277 123.761 226.105 123.496C225.934 123.23 225.688 123.021 225.398 122.895C225.108 122.769 224.787 122.731 224.476 122.786L219.503 123.681C218.838 123.796 218.242 124.161 217.837 124.7L193.778 156.852C193.532 157.183 193.366 157.565 193.293 157.971C193.219 158.376 193.241 158.793 193.355 159.189Z" fill="white"/>
<path d="M196.613 166.67H196.252C195.837 166.608 195.448 166.428 195.131 166.153C194.814 165.878 194.582 165.519 194.462 165.117L192.758 159.4C192.611 158.909 192.581 158.39 192.669 157.885C192.758 157.38 192.963 156.903 193.268 156.492L217.327 124.34C217.828 123.681 218.562 123.237 219.378 123.097L224.352 122.215C224.787 122.127 225.239 122.175 225.646 122.353C226.053 122.531 226.396 122.83 226.627 123.209C226.879 123.574 227.015 124.008 227.015 124.452C227.015 124.896 226.879 125.329 226.627 125.695L198.441 165.726C198.234 166.018 197.961 166.257 197.642 166.422C197.324 166.586 196.971 166.671 196.613 166.67ZM193.94 159.014L195.655 164.719C195.708 164.899 195.811 165.06 195.952 165.183C196.093 165.306 196.266 165.387 196.451 165.415C196.635 165.441 196.822 165.417 196.993 165.345C197.164 165.272 197.312 165.155 197.421 165.005L225.583 124.924C225.695 124.762 225.756 124.569 225.756 124.371C225.756 124.173 225.695 123.98 225.583 123.818C225.483 123.647 225.332 123.513 225.151 123.432C224.97 123.352 224.769 123.33 224.576 123.371L219.602 124.265C219.105 124.364 218.662 124.643 218.359 125.048L194.3 157.2C194.112 157.458 193.985 157.755 193.929 158.07C193.873 158.384 193.889 158.707 193.977 159.014H193.94Z" fill="black"/>
<path d="M203.526 138.732L205.428 134.68L210.227 134.829L206.87 140.211L203.526 143.79V138.732Z" fill="white"/>
<path d="M202.904 145.368L202.966 138.471L205.043 134.046L211.334 134.245L207.405 140.534L202.904 145.368ZM204.148 138.868V142.212L206.423 139.726L209.133 135.364L205.826 135.264L204.148 138.868Z" fill="black"/>
<path d="M222.014 132.058C223.342 133.954 224.2 136.138 224.517 138.431C224.835 140.723 224.604 143.059 223.842 145.244C221.355 153.173 212.739 158.567 212.739 158.567H203.526L222.014 132.058Z" fill="white"/>
<path d="M212.913 159.188H202.332L221.964 131.026L222.487 131.66C223.889 133.632 224.799 135.912 225.138 138.308C225.478 140.704 225.238 143.146 224.439 145.43C221.952 153.484 213.423 158.865 213.062 159.101L212.913 159.188ZM204.719 157.946H212.552C213.684 157.2 221.044 152.104 223.245 145.058C223.909 143.101 224.141 141.024 223.927 138.969C223.712 136.913 223.055 134.929 222.002 133.151L204.719 157.946Z" fill="black"/>
<path d="M131.997 61.1428C131.997 61.1428 133.886 72.2163 135.615 75.4227C137.343 78.6292 151.629 85.067 156.664 85.5765C161.7 86.0861 163.142 80.7544 164.274 75.634C165.405 70.5136 165.791 67.854 167.084 61.5654C168.377 55.2767 167.258 52.6793 167.258 52.6793V51.337C168.749 48.2826 169.491 44.9169 169.421 41.5188" fill="white"/>
<path d="M157.323 86.1856H156.602C151.629 85.676 136.995 79.288 135.067 75.7087C133.314 72.4525 131.462 61.7021 131.337 61.2423L132.581 61.031C132.581 61.1429 134.483 72.0424 136.137 75.1245C137.79 78.2067 151.703 84.4332 156.714 84.9427C161.066 85.3902 162.433 80.916 163.639 75.4601C164.273 72.5767 164.659 70.551 165.106 68.2145C165.479 66.313 165.865 64.2375 166.462 61.4039C167.705 55.4508 166.673 52.9155 166.661 52.8906V52.642L166.723 51.0388C168.176 48.0662 168.896 44.7892 168.824 41.4816H170.067C170.132 44.919 169.391 48.3238 167.904 51.4241V52.5178C168.128 53.1516 168.911 55.9479 167.718 61.64C167.133 64.4736 166.748 66.5367 166.387 68.4258C165.94 70.7871 165.542 72.8129 164.908 75.7211C163.95 79.9715 162.558 86.1856 157.323 86.1856Z" fill="black"/>
<path d="M124.872 74.1925L123.629 74.1179C123.629 73.9439 124.661 55.7243 123.48 50.1564C122.298 44.5886 124.076 33.9999 124.151 33.5152V33.279L127.881 30.346C128.826 28.5719 130.09 26.9876 131.611 25.673C134.359 23.2868 142.329 20.7018 148.52 21.0249C151.293 21.1492 156.353 22.3423 164.684 27.3136L164.957 27.4751C166.597 28.4123 168.427 28.9663 170.311 29.0954C172.196 29.2246 174.085 28.9256 175.837 28.2208L176.185 28.0592L176.483 28.2954C176.996 28.715 177.402 29.2504 177.668 29.8575C177.934 30.4646 178.052 31.1261 178.012 31.7877C178.012 35.2924 174.892 40.2015 170.863 43.2091L170.117 42.2149C173.847 39.4558 176.732 34.8823 176.769 31.7752C176.796 31.3641 176.739 30.9518 176.602 30.5631C176.466 30.1744 176.252 29.8173 175.973 29.5133C174.084 30.2283 172.058 30.5123 170.045 30.3445C168.031 30.1768 166.081 29.5616 164.336 28.5439L164.062 28.3824C155.893 23.5478 151.044 22.3796 148.409 22.2677C142.105 21.9819 134.595 24.7533 132.382 26.6051C130.958 27.8395 129.781 29.3323 128.913 31.0047L128.851 31.1414L125.32 33.9875C125.059 35.5658 123.591 44.8621 124.673 49.9203C125.879 55.6248 124.872 73.4344 124.872 74.1925Z" fill="black"/>
<path d="M140.775 55.861C140.563 55.4881 135.577 46.7636 138.288 41.581C139.444 39.4061 141.744 38.2006 145.139 37.9769C151.355 37.5668 164.634 41.3946 165.194 41.5562L164.846 42.799C164.709 42.799 151.256 38.8593 145.226 39.257C142.291 39.4558 140.327 40.4998 139.382 42.2149C136.895 46.8009 141.732 55.2023 141.782 55.2893L140.775 55.861Z" fill="black"/>
<path d="M161.998 48.6775C160.731 48.1471 159.368 47.8847 157.994 47.9069C155.528 47.9521 153.078 48.3241 150.708 49.013L151.218 50.4547C154.127 50.4286 157.035 50.5947 159.922 50.9518C161.849 51.3868 161.998 48.6775 161.998 48.6775Z" fill="black"/>
<path d="M166.487 51.9833C165.778 52.3408 165.193 52.9027 164.808 53.5962C164.422 54.2897 164.253 55.0829 164.323 55.8733C164.693 58.6626 165.512 61.3738 166.748 63.9019C166.998 64.3092 167.109 64.7874 167.061 65.2632C167.014 65.7391 166.812 66.1864 166.487 66.5366C165.84 67.0835 162.061 66.4372 162.061 66.4372" fill="white"/>
<path d="M165.156 67.3818C164.084 67.353 163.016 67.2408 161.961 67.0462L162.16 65.8034C163.457 66.0887 164.792 66.1642 166.114 66.0271C166.313 65.7838 166.431 65.4837 166.449 65.1696C166.494 64.8587 166.428 64.542 166.263 64.2748C164.927 61.6179 164.061 58.7504 163.702 55.7988C163.643 54.9064 163.847 54.0164 164.289 53.2389C164.731 52.4614 165.391 51.8304 166.188 51.4241L166.835 52.4929C166.211 52.7966 165.697 53.2859 165.364 53.8934C165.03 54.5009 164.892 55.1969 164.97 55.8858C165.357 58.5135 166.124 61.0713 167.245 63.4794C167.605 64.0139 167.768 64.6566 167.707 65.298C167.646 65.9394 167.364 66.5397 166.909 66.9965C166.379 67.3033 165.767 67.4379 165.156 67.3818Z" fill="black"/>
<path d="M166.735 49.97C164.97 49.6344 166.014 52.4556 166.014 52.4556L169.147 53.3877L169.421 51.9461C168.734 51.0432 167.802 50.3571 166.735 49.97Z" fill="black"/>
<path d="M163.03 64.6104C162.547 64.464 162.038 64.4271 161.539 64.5023C161.04 64.5775 160.564 64.7631 160.146 65.0453C159.338 65.6295 159.139 64.3742 159.114 63.2806C159.109 63.1028 159.14 62.9259 159.204 62.7602C159.269 62.5945 159.366 62.4435 159.49 62.316C159.614 62.1886 159.762 62.0873 159.926 62.0181C160.09 61.949 160.266 61.9134 160.444 61.9135H162.595" fill="white"/>
<path d="M159.773 65.8158C159.626 65.8155 159.481 65.7815 159.35 65.7164C158.791 65.443 158.529 64.6973 158.492 63.2929C158.48 63.0337 158.523 62.7748 158.617 62.533C158.712 62.2912 158.855 62.0717 159.039 61.8885C159.221 61.6993 159.439 61.5488 159.68 61.4463C159.922 61.3438 160.182 61.2913 160.444 61.292H162.595V62.5348H160.444C160.349 62.5327 160.255 62.5504 160.167 62.5868C160.079 62.6232 160 62.6774 159.934 62.7461C159.867 62.8118 159.814 62.8913 159.779 62.9792C159.745 63.0672 159.73 63.1614 159.735 63.2556C159.723 63.675 159.774 64.0939 159.885 64.4985C160.379 64.191 160.933 63.993 161.51 63.9179C162.087 63.8429 162.673 63.8925 163.229 64.0635L162.831 65.2317C162.442 65.1159 162.032 65.0871 161.63 65.1472C161.228 65.2073 160.845 65.355 160.506 65.5797C160.296 65.7391 160.037 65.8223 159.773 65.8158Z" fill="black"/>
<path d="M155.757 70.9983C155.757 70.9983 158.007 71.396 159.972 71.5451C161.936 71.6943 164.672 71.5451 164.672 71.5451" fill="white"/>
<path d="M162.073 72.2288C161.364 72.2288 160.606 72.2288 159.934 72.1542C157.945 72.0175 155.744 71.6322 155.657 71.6198L155.869 70.377C155.869 70.377 158.107 70.7747 160.021 70.9114C161.936 71.0481 164.609 70.9114 164.634 70.9114V72.1542C164.634 72.1542 163.416 72.2288 162.073 72.2288Z" fill="black"/>
<path d="M150.236 52.9776C152.674 52.3432 155.222 52.2583 157.696 52.729L150.236 52.9776Z" fill="white"/>
<path d="M150.398 53.5866L150.075 52.3438C152.625 51.67 155.294 51.5808 157.883 52.0828L157.547 53.3256C155.174 52.8881 152.733 52.9772 150.398 53.5866Z" fill="black"/>
<path d="M154.551 54.9289C154.657 54.589 154.883 54.2994 155.188 54.1142C155.492 53.9289 155.853 53.8607 156.204 53.9222C156.468 53.9898 156.694 54.1576 156.836 54.3897C156.978 54.6218 157.023 54.8999 156.963 55.165C156.851 55.5876 156.453 55.6248 155.868 55.5751C155.098 55.4633 154.439 55.339 154.551 54.9289Z" fill="black"/>
<path d="M164.659 55.314C165.81 54.732 167.117 54.5318 168.389 54.7423L164.659 55.314Z" fill="white"/>
<path d="M164.945 55.8733L164.398 54.7672C165.693 54.1074 167.169 53.8892 168.6 54.1458L168.203 55.3265C167.086 55.1579 165.945 55.3495 164.945 55.8733Z" fill="black"/>
<path d="M165.902 56.4327C166.011 56.0918 166.24 55.8019 166.547 55.6168C166.853 55.4317 167.216 55.3639 167.569 55.426C167.83 55.4964 168.055 55.6646 168.196 55.8959C168.337 56.1272 168.384 56.4039 168.327 56.6688C168.215 57.0913 167.817 57.1286 167.233 57.0789C166.4 56.9671 165.741 56.8428 165.902 56.4327Z" fill="black"/>
<path d="M128.378 71.9803C105.998 69.7183 109.815 90.3366 109.815 90.3366C109.815 90.3366 94.2237 92.6979 89.1384 117.256C84.5505 139.453 91.7494 167.18 91.7494 167.18H178.783C178.783 167.18 186.38 143.79 177.664 130.852C180.474 117.803 165.716 105.934 165.716 105.934C163.863 92.2008 150.796 74.2546 128.378 71.9803Z" fill="white"/>
<path d="M179.218 167.801H91.3019L91.1776 167.329C91.103 167.055 83.9911 139.216 88.5541 117.132C93.1172 95.0468 106.16 90.6224 109.144 89.7897C108.87 87.6769 108.311 80.5183 112.787 75.6465C116.107 72.0547 121.378 70.5882 128.465 71.3091C150.249 73.5088 164.174 90.5354 166.313 105.549C168.128 107.065 180.822 118.163 178.336 130.666C186.902 143.728 179.703 166.347 179.38 167.304L179.218 167.801ZM92.2469 166.558H178.336C179.293 163.327 184.963 142.783 177.167 131.2L177.018 130.977V130.716C179.716 118.2 165.442 106.543 165.293 106.419L165.107 106.269V106.021C163.142 91.4178 149.59 74.7517 128.329 72.6016C121.652 71.9305 116.728 73.2603 113.694 76.5537C108.92 81.7363 110.424 90.1377 110.449 90.2247L110.561 90.8585L109.927 90.9579C109.778 90.9579 94.6838 93.5927 89.7602 117.393C85.5701 137.626 91.3019 162.83 92.2469 166.558Z" fill="black"/>
<path d="M183.806 121.295L188.978 116.46L193.852 120.065" fill="#4D4D4D"/>
<path d="M205.254 140.994L179.256 110.52L182.986 107.289L209.046 137.762C209.258 138.011 209.418 138.299 209.518 138.61C209.618 138.921 209.656 139.248 209.63 139.574C209.603 139.899 209.513 140.216 209.364 140.507C209.214 140.798 209.009 141.056 208.76 141.267C208.512 141.479 208.225 141.641 207.914 141.742C207.604 141.843 207.276 141.882 206.951 141.856C206.625 141.831 206.308 141.742 206.016 141.594C205.725 141.446 205.466 141.242 205.254 140.994Z" fill="white"/>
<path d="M207.156 142.485H206.932C206.524 142.455 206.125 142.344 205.76 142.158C205.395 141.973 205.071 141.716 204.806 141.404L178.335 110.445L183.073 106.419L209.481 137.365C209.865 137.816 210.112 138.368 210.193 138.955C210.274 139.543 210.185 140.141 209.936 140.679C209.688 141.217 209.291 141.674 208.791 141.994C208.292 142.314 207.712 142.484 207.119 142.485H207.156ZM205.689 140.584C205.841 140.788 206.034 140.959 206.255 141.086C206.476 141.213 206.721 141.294 206.975 141.323C207.228 141.351 207.485 141.328 207.729 141.253C207.973 141.179 208.199 141.055 208.393 140.89C208.588 140.725 208.746 140.521 208.859 140.293C208.971 140.064 209.036 139.814 209.048 139.559C209.06 139.305 209.02 139.05 208.93 138.812C208.839 138.573 208.701 138.356 208.524 138.172L182.923 108.171L180.076 110.582L205.689 140.584Z" fill="black"/>
<path d="M174.481 132.542C176.501 128.634 178.949 124.962 181.78 121.593C185.758 117.206 201.449 117.579 203.874 118.872C206.298 120.164 205.366 122.165 204.446 123.445C204.097 123.829 203.66 124.123 203.173 124.303C202.686 124.482 202.163 124.542 201.648 124.477C201.648 124.477 203.949 129.771 202.581 131.747C201.525 133.017 200.07 133.893 198.453 134.233L196.439 139.03C196.439 139.03 190.359 145.517 182.762 145.182C175.165 144.846 168.314 145.182 168.314 145.182" fill="white"/>
<path d="M183.309 145.841H182.712C175.252 145.517 168.389 145.841 168.327 145.841L168.265 144.598C168.327 144.598 175.19 144.262 182.762 144.598C189.575 144.896 195.195 139.44 195.917 138.719L198.005 133.748L198.329 133.686C199.789 133.352 201.099 132.548 202.059 131.399C202.917 130.156 201.922 126.652 201.089 124.725L200.654 123.719L201.735 123.855C202.139 123.909 202.549 123.867 202.934 123.734C203.318 123.6 203.666 123.377 203.949 123.085C204.237 122.762 204.458 122.384 204.597 121.974C204.736 121.564 204.79 121.13 204.757 120.698C204.656 120.421 204.499 120.167 204.296 119.954C204.093 119.74 203.847 119.57 203.575 119.456C201.362 118.213 185.97 117.927 182.24 122.053C179.446 125.379 177.031 129.005 175.041 132.866L173.922 132.294C175.967 128.338 178.448 124.624 181.32 121.22C185.485 116.61 201.499 116.933 204.16 118.362C204.596 118.559 204.983 118.849 205.295 119.212C205.606 119.575 205.834 120.002 205.963 120.462C206.045 121.065 205.998 121.678 205.824 122.261C205.651 122.844 205.354 123.383 204.956 123.843C204.663 124.202 204.301 124.497 203.89 124.711C203.48 124.925 203.03 125.052 202.568 125.086C203.19 126.763 204.297 130.355 203.091 132.108C202.031 133.448 200.558 134.4 198.901 134.817L196.899 139.515C196.65 139.776 190.844 145.841 183.309 145.841Z" fill="black"/>
<path d="M129.112 97.8183C125.382 95.5936 119.961 94.239 112.949 96.998C108.721 98.5669 105.055 101.356 102.416 105.012C99.7774 108.667 98.2849 113.024 98.1281 117.529C98.1281 117.529 92.4212 165.726 119.153 182.715C148.085 178.663 173.686 168.05 177.18 148.115C178.585 145.629 176.446 140.161 176.098 130.318C169.682 126.018 147.439 137.862 139.681 142.236C139.55 142.308 139.4 142.336 139.252 142.317C139.104 142.298 138.966 142.233 138.857 142.131C138.748 142.03 138.674 141.896 138.646 141.75C138.617 141.603 138.636 141.452 138.698 141.317C139.092 140.555 139.321 139.718 139.37 138.862C139.42 138.005 139.288 137.148 138.984 136.345C137.393 132.381 134.011 133.649 134.011 133.649L134.695 120.574" fill="white"/>
<path d="M119.016 183.361L118.817 183.237C92.0728 166.272 97.5186 117.939 97.5186 117.455C97.7066 112.844 99.249 108.391 101.953 104.651C104.658 100.912 108.404 98.0509 112.725 96.4263C118.805 94.0277 124.424 94.3259 129.423 97.2838L128.789 98.3527C124.138 95.5936 118.842 95.3326 113.185 97.5821C109.091 99.1134 105.539 101.816 102.972 105.352C100.405 108.888 98.9362 113.102 98.7495 117.467C98.6873 118.026 93.4156 165.353 119.289 182.019C139.059 179.223 172.517 171.095 176.57 147.966L176.632 147.754C177.329 146.512 176.993 144.163 176.52 140.869C175.991 137.473 175.647 134.05 175.488 130.616C168.948 126.975 146.718 138.931 139.991 142.734C139.744 142.874 139.458 142.931 139.176 142.898C138.894 142.864 138.63 142.741 138.423 142.546C138.216 142.352 138.076 142.096 138.025 141.817C137.974 141.537 138.014 141.249 138.138 140.994C138.499 140.312 138.709 139.561 138.754 138.791C138.799 138.021 138.678 137.251 138.4 136.532C137.094 133.263 134.57 134.046 134.284 134.183L133.401 134.506L134.122 120.5H135.366L134.719 132.766C135.963 132.629 138.3 132.841 139.556 136.01C139.892 136.889 140.04 137.828 139.991 138.768C139.942 139.708 139.696 140.627 139.27 141.466L139.68 142.125L139.382 141.578C148.321 136.532 169.856 125.272 176.446 129.684L176.707 129.87V130.181C176.852 133.682 177.196 137.172 177.739 140.633C178.249 144.225 178.597 146.636 177.739 148.214C173.462 172.126 139.195 180.403 119.202 183.212L119.016 183.361Z" fill="black"/>
<path d="M137.641 143.169C132.469 147.295 128.353 149.992 124.698 157.772C121.043 165.552 117.872 155.87 120.408 151.906" fill="white"/>
<path d="M121.938 161.326C121.492 161.291 121.063 161.136 120.698 160.878C120.333 160.62 120.044 160.268 119.861 159.859C119.203 158.577 118.859 157.156 118.859 155.715C118.859 154.273 119.203 152.852 119.861 151.57L120.906 152.229C120.372 153.32 120.095 154.519 120.095 155.733C120.095 156.948 120.372 158.147 120.906 159.238C121.092 159.561 121.453 160.096 121.938 160.083C122.162 160.083 123.007 159.859 124.114 157.511C127.458 150.377 131.275 147.382 135.702 143.902L137.231 142.659L138.002 143.628L136.46 144.871C131.996 148.401 128.453 151.172 125.27 158.033C124.263 160.17 123.169 161.276 122.025 161.326H121.938Z" fill="black"/>
<path d="M130.517 134.655C125.656 136.967 123.293 138.384 119.501 138.023L130.517 134.655Z" fill="white"/>
<path d="M120.769 138.744C120.32 138.739 119.872 138.71 119.426 138.657L119.563 137.414C122.684 137.762 124.735 136.768 128.453 134.929L130.256 134.059L130.778 135.19L128.988 136.047C125.705 137.7 123.542 138.744 120.769 138.744Z" fill="black"/>
<path d="M161.414 106.941C157.398 108.432 146.282 100.142 139.618 96.6749C132.954 93.2074 119.501 90.7343 119.501 90.7343" fill="white"/>
<path d="M160.32 107.736C156.863 107.736 151.169 104.268 145.649 100.913C143.348 99.5085 141.173 98.1787 139.332 97.1844C132.83 93.7916 119.514 91.3308 119.439 91.3059L119.663 90.0631C120.21 90.1625 133.339 92.5487 139.954 96.0535C141.832 97.0353 144.02 98.3651 146.345 99.7819C151.816 103.113 158.629 107.239 161.265 106.294L161.688 107.463C161.254 107.642 160.789 107.735 160.32 107.736Z" fill="black"/>
<path d="M135.863 48.4911C135.863 48.4911 128.005 51.536 127.57 46.9873C127.135 42.4386 124.934 34.7207 131.723 32.0735C131.375 27.3011 140.638 22.5909 149.565 26.4187C158.492 30.2466 170.478 32.6328 173.748 32.0735C172.442 35.019 168.774 38.8344 164.075 38.2876C159.375 37.7408 140.053 35.1806 137.965 38.2876C135.876 41.3946 135.863 48.4911 135.863 48.4911Z" fill="#181833"/>
<path d="M134.346 65.0577C132.133 65.4927 129.622 62.1744 128.714 57.6008C127.806 53.0273 128.851 49.013 131.052 48.578C132.655 48.2549 134.421 49.9202 135.615 52.5923" fill="white"/>
<path d="M133.936 65.6543C133.245 65.5841 132.58 65.3559 131.991 64.9874C131.402 64.6189 130.907 64.1199 130.542 63.5291C129.291 61.7898 128.442 59.7948 128.055 57.6878C127.06 52.7166 128.304 48.4537 130.878 47.9442C132.755 47.5713 134.757 49.2491 136.137 52.3189L134.993 52.8284C133.911 50.3428 132.357 48.9136 131.126 49.1621C129.522 49.4853 128.366 52.9651 129.274 57.4517C129.615 59.3647 130.37 61.18 131.487 62.7709C132.382 64.0138 133.364 64.5482 134.172 64.3866L134.409 65.6294C134.252 65.6532 134.094 65.6615 133.936 65.6543Z" fill="black"/>
</g>
<defs>
<clipPath id="clip0_2034_51840">
<rect width="140" height="162.361" fill="white" transform="translate(87 21)"/>
</clipPath>
</defs>
</svg>
