<svg width="300" height="200" viewBox="0 0 300 200" fill="none" xmlns="http://www.w3.org/2000/svg">
<rect width="300" height="200" rx="10" fill="#9AE8DA"/>
<g clip-path="url(#clip0_2034_51838)">
<path d="M219.677 104.238H218.611V114.277H219.677V104.238Z" fill="#512DED"/>
<path d="M219.367 63.7647C218.302 49.6278 215.958 49.234 202.842 47.0197L199.475 46.4449C191.718 45.093 189.15 39.3764 186.444 33.3193C183.428 26.6128 180.317 19.6827 169.577 18.2668C164.164 17.5536 159.678 18.682 156.215 21.6095C149.151 27.5815 148.661 39.1848 148.65 39.3019H147.585C147.585 38.8122 148.086 27.1237 155.512 20.843C159.21 17.7133 164.036 16.4997 169.705 17.2555C181.01 18.7033 184.419 26.2401 187.403 32.8828C190.002 38.6738 192.453 44.1455 199.645 45.4016L203.012 45.9765C216.171 48.1907 219.367 48.7124 220.433 63.6796L219.367 63.7647Z" fill="#512DED"/>
<path d="M82.3766 70.418C81.9184 69.6409 72.1904 50.2559 78.4342 38.3225C80.9382 33.5321 85.6903 30.6366 92.5627 29.7105C97.7517 29.0185 102.664 28.1669 107.416 27.3366C122.066 24.803 133.627 22.791 140.063 27.7624C143.099 30.1043 144.793 33.8621 145.23 39.238L144.165 39.3232C143.749 34.256 142.194 30.8069 139.413 28.6034C133.35 23.9195 121.981 25.8888 107.597 28.3905C102.834 29.2101 97.9115 30.0724 92.6799 30.7643C86.1804 31.6479 81.716 34.3518 79.3825 38.7696C73.3838 50.2133 83.229 69.6941 83.3249 69.8857L82.3766 70.418Z" fill="#512DED"/>
<path d="M161.149 149.353H124.837V154.505H161.149V149.353Z" fill="#CACACA"/>
<path d="M161.149 154.516H124.837V154.675H161.149V154.516Z" fill="#CACACA"/>
<path d="M161.149 154.675H124.837V154.835H161.149V154.675Z" fill="#CBCBCB"/>
<path d="M161.149 154.835H124.837V154.995H161.149V154.835Z" fill="#CCCCCC"/>
<path d="M161.149 154.995H124.837V155.154H161.149V154.995Z" fill="#CDCDCD"/>
<path d="M161.149 155.154H124.837V155.314H161.149V155.154Z" fill="#CECECE"/>
<path d="M161.149 155.314H124.837V155.474H161.149V155.314Z" fill="#CFCFCF"/>
<path d="M161.149 155.474H124.837V155.633H161.149V155.474Z" fill="#D0D0D0"/>
<path d="M161.149 155.633H124.837V155.793H161.149V155.633Z" fill="#D1D1D1"/>
<path d="M161.149 155.793H124.837V155.953H161.149V155.793Z" fill="#D2D2D2"/>
<path d="M161.149 155.953H124.837V156.112H161.149V155.953Z" fill="#D3D3D3"/>
<path d="M161.149 156.112H124.837V156.272H161.149V156.112Z" fill="#D5D5D5"/>
<path d="M161.149 156.283H124.837V156.442H161.149V156.283Z" fill="#D6D6D6"/>
<path d="M161.149 156.442H124.837V156.602H161.149V156.442Z" fill="#D7D7D7"/>
<path d="M161.149 156.602H124.837V156.762H161.149V156.602Z" fill="#D8D8D8"/>
<path d="M161.149 156.762H124.837V156.921H161.149V156.762Z" fill="#D9D9D9"/>
<path d="M161.149 156.922H124.837V157.081H161.149V156.922Z" fill="#DADADA"/>
<path d="M161.149 157.081H124.837V157.241H161.149V157.081Z" fill="#DBDBDB"/>
<path d="M161.149 157.241H124.837V157.401H161.149V157.241Z" fill="#DCDCDC"/>
<path d="M161.149 157.401H124.837V157.56H161.149V157.401Z" fill="#DDDDDD"/>
<path d="M161.149 157.56H124.837V157.72H161.149V157.56Z" fill="#DEDEDE"/>
<path d="M161.149 157.72H124.837V157.88H161.149V157.72Z" fill="#DFDFDF"/>
<path d="M161.149 157.88H124.837V158.039H161.149V157.88Z" fill="#E0E0E0"/>
<path d="M161.149 158.039H124.837V158.199H161.149V158.039Z" fill="#E1E1E1"/>
<path d="M161.149 158.199H124.837V158.359H161.149V158.199Z" fill="#E2E2E2"/>
<path d="M161.149 158.369H124.837V158.529H161.149V158.369Z" fill="#E3E3E3"/>
<path d="M161.149 158.529H124.837V158.689H161.149V158.529Z" fill="#E4E4E4"/>
<path d="M161.149 158.689H124.837V158.848H161.149V158.689Z" fill="#E5E5E5"/>
<path d="M161.149 158.848H124.837V159.008H161.149V158.848Z" fill="#E6E6E6"/>
<path d="M161.149 159.008H124.837V159.168H161.149V159.008Z" fill="#E7E7E7"/>
<path d="M161.149 159.168H124.837V159.327H161.149V159.168Z" fill="#E8E8E8"/>
<path d="M161.149 159.327H124.837V159.487H161.149V159.327Z" fill="#E9E9E9"/>
<path d="M161.149 159.487H124.837V159.87H161.149V159.487Z" fill="#E9E9E9"/>
<path d="M161.149 159.87H124.837V160.253H161.149V159.87Z" fill="#EAEAEA"/>
<path d="M161.149 160.264H124.837V160.647H161.149V160.264Z" fill="#ECECEC"/>
<path d="M161.149 160.647H124.837V161.031H161.149V160.647Z" fill="#EDEDED"/>
<path d="M161.149 161.041H124.837V161.424H161.149V161.041Z" fill="#EEEEEE"/>
<path d="M161.149 161.424H124.837V161.808H161.149V161.424Z" fill="#EFEFEF"/>
<path d="M161.149 161.808H124.837V162.191H161.149V161.808Z" fill="#F1F1F1"/>
<path d="M161.149 162.202H124.837V162.585H161.149V162.202Z" fill="#F2F2F2"/>
<path d="M161.149 162.585H124.837V162.968H161.149V162.585Z" fill="#F3F3F3"/>
<path d="M161.149 162.979H124.837V163.33H161.149V162.979Z" fill="#F4F4F4"/>
<path d="M124.841 163.305L124.835 164.221L126.668 164.232L126.674 163.317L124.841 163.305Z" fill="#E2E4E6"/>
<path d="M126.786 163.319V164.245H126.669L126.68 163.319H126.786Z" fill="#E2E4E6"/>
<path d="M126.904 163.319V164.245H126.787V163.319H126.904Z" fill="#E2E4E6"/>
<path d="M127.021 163.319V164.245H126.904V163.319H127.021Z" fill="#E2E4E6"/>
<path d="M127.138 163.319L127.127 164.245H127.021V163.319H127.138Z" fill="#E2E4E6"/>
<path d="M127.256 163.319L127.245 164.245H127.128L127.139 163.319H127.256Z" fill="#E2E4E6"/>
<path d="M127.362 163.319V164.245H127.245L127.256 163.319H127.362Z" fill="#E2E4E6"/>
<path d="M127.479 163.319V164.245H127.362V163.319H127.479Z" fill="#E1E3E5"/>
<path d="M127.596 163.319V164.245H127.479V163.319H127.596Z" fill="#E1E3E5"/>
<path d="M127.714 163.319L127.703 164.245H127.597V163.319H127.714Z" fill="#E1E3E5"/>
<path d="M127.831 163.319L127.82 164.245H127.703L127.714 163.319H127.831Z" fill="#E1E3E5"/>
<path d="M127.948 163.319L127.937 164.245H127.82L127.831 163.319H127.948Z" fill="#E0E2E4"/>
<path d="M128.054 163.319V164.245H127.938L127.948 163.319H128.054Z" fill="#E0E2E4"/>
<path d="M128.172 163.319V164.245H128.055V163.319H128.172Z" fill="#E0E2E4"/>
<path d="M128.289 163.319V164.245H128.172V163.319H128.289Z" fill="#DFE1E3"/>
<path d="M128.406 163.319L128.395 164.245H128.289V163.319H128.406Z" fill="#DFE1E3"/>
<path d="M128.523 163.319L128.512 164.245H128.396L128.406 163.319H128.523Z" fill="#DEE0E2"/>
<path d="M128.64 163.319L128.63 164.245H128.513L128.523 163.319H128.64Z" fill="#DEE0E2"/>
<path d="M128.757 163.319L128.747 164.245H128.63L128.641 163.319H128.757Z" fill="#DDDFE1"/>
<path d="M128.864 163.319V164.245H128.747L128.758 163.319H128.864Z" fill="#DDDFE1"/>
<path d="M128.981 163.319V164.245H128.864V163.319H128.981Z" fill="#DCDEE0"/>
<path d="M129.098 163.319L129.088 164.245H128.981V163.319H129.098Z" fill="#DBDDDF"/>
<path d="M129.216 163.319L129.205 164.245H129.088L129.099 163.319H129.216Z" fill="#DBDDDF"/>
<path d="M129.333 163.319L129.323 164.245H129.206L129.216 163.319H129.333Z" fill="#DADCDE"/>
<path d="M129.45 163.319L129.44 164.245H129.323L129.333 163.319H129.45Z" fill="#D9DBDD"/>
<path d="M129.557 163.319V164.245H129.44L129.451 163.319H129.557Z" fill="#D8DADC"/>
<path d="M129.674 163.319V164.245H129.557V163.319H129.674Z" fill="#D7D9DB"/>
<path d="M129.791 163.319L129.781 164.245H129.674V163.319H129.791Z" fill="#D6D8DA"/>
<path d="M129.908 163.319L129.898 164.245H129.781L129.791 163.319H129.908Z" fill="#D5D7D9"/>
<path d="M130.026 163.319L130.015 164.245H129.898L129.909 163.319H130.026Z" fill="#D4D6D8"/>
<path d="M130.143 163.319L130.132 164.245H130.015L130.026 163.319H130.143Z" fill="#D3D5D7"/>
<path d="M130.249 163.319V164.245H130.132L130.143 163.319H130.249Z" fill="#D2D4D6"/>
<path d="M130.366 163.319V164.245H130.25V163.319H130.366Z" fill="#D1D3D5"/>
<path d="M130.484 163.319L130.473 164.245H130.367V163.319H130.484Z" fill="#D0D2D4"/>
<path d="M130.601 163.319L130.59 164.245H130.473L130.484 163.319H130.601Z" fill="#CED0D3"/>
<path d="M130.718 163.319L130.707 164.245H130.59L130.601 163.319H130.718Z" fill="#CDCFD1"/>
<path d="M130.825 163.319V164.245H130.708L130.719 163.319H130.825Z" fill="#CCCED0"/>
<path d="M130.942 163.319V164.245H130.825V163.319H130.942Z" fill="#CACCCF"/>
<path d="M131.059 163.319V164.245H130.942V163.319H131.059Z" fill="#C9CBCD"/>
<path d="M131.177 163.319L131.166 164.245H131.06V163.319H131.177Z" fill="#C7C9CC"/>
<path d="M131.294 163.319L131.283 164.245H131.166L131.177 163.319H131.294Z" fill="#C6C8CA"/>
<path d="M131.411 163.319L131.4 164.245H131.283L131.294 163.319H131.411Z" fill="#C4C6C9"/>
<path d="M131.517 163.319V164.245H131.4L131.411 163.319H131.517Z" fill="#C3C5C7"/>
<path d="M131.635 163.319V164.245H131.518V163.319H131.635Z" fill="#C1C3C6"/>
<path d="M131.752 163.319V164.245H131.635V163.319H131.752Z" fill="#BFC1C4"/>
<path d="M131.869 163.319L131.858 164.245H131.752V163.319H131.869Z" fill="#BEC0C2"/>
<path d="M131.986 163.319L131.975 164.245H131.858L131.869 163.319H131.986Z" fill="#BCBEC1"/>
<path d="M132.103 163.319L132.093 164.245H131.976L131.986 163.319H132.103Z" fill="#BABCBF"/>
<path d="M132.21 163.319V164.245H132.093L132.103 163.319H132.21Z" fill="#B8BABD"/>
<path d="M132.327 163.319V164.245H132.21V163.319H132.327Z" fill="#B6B8BB"/>
<path d="M132.444 163.319V164.245H132.327V163.319H132.444Z" fill="#B4B6B9"/>
<path d="M132.561 163.319L132.551 164.245H132.444V163.319H132.561Z" fill="#B2B4B7"/>
<path d="M132.679 163.319L132.668 164.245H132.551L132.562 163.319H132.679Z" fill="#B0B2B5"/>
<path d="M132.796 163.319L132.785 164.245H132.668L132.679 163.319H132.796Z" fill="#AEB0B3"/>
<path d="M132.903 163.319V164.245H132.786L132.796 163.319H132.903Z" fill="#ACAEB1"/>
<path d="M133.095 163.319L133.084 164.245H132.903V163.319H133.095Z" fill="#ACAEB1"/>
<path d="M133.276 163.319L133.265 164.245H133.084L133.095 163.319H133.276Z" fill="#ADAFB2"/>
<path d="M133.457 163.319L133.446 164.245H133.265L133.276 163.319H133.457Z" fill="#AEB0B3"/>
<path d="M133.638 163.319L133.627 164.245H133.446L133.457 163.319H133.638Z" fill="#AFB1B4"/>
<path d="M133.819 163.319L133.809 164.245H133.627L133.638 163.319H133.819Z" fill="#B0B2B5"/>
<path d="M134 163.319L133.99 164.245H133.809L133.819 163.319H134Z" fill="#B1B3B6"/>
<path d="M134.182 163.319L134.171 164.245H133.99L134 163.319H134.182Z" fill="#B2B4B7"/>
<path d="M134.363 163.319V164.245H134.171L134.182 163.319H134.363Z" fill="#B3B5B8"/>
<path d="M134.543 163.319V164.245H134.362V163.319H134.543Z" fill="#B4B6B9"/>
<path d="M134.725 163.319V164.245H134.543V163.319H134.725Z" fill="#B5B7BA"/>
<path d="M134.906 163.319V164.245H134.725V163.319H134.906Z" fill="#B7B8BB"/>
<path d="M135.087 163.319V164.245H134.906V163.319H135.087Z" fill="#B8B9BC"/>
<path d="M135.279 163.319L135.268 164.245H135.087V163.319H135.279Z" fill="#B9BABD"/>
<path d="M135.46 163.319L135.449 164.245H135.268L135.279 163.319H135.46Z" fill="#BABBBE"/>
<path d="M135.641 163.319L135.63 164.245H135.449L135.46 163.319H135.641Z" fill="#BBBCBF"/>
<path d="M135.822 163.319L135.812 164.245H135.63L135.641 163.319H135.822Z" fill="#BCBDC0"/>
<path d="M136.003 163.319L135.993 164.245H135.812L135.822 163.319H136.003Z" fill="#BDBEC1"/>
<path d="M136.184 163.319L136.174 164.245H135.993L136.003 163.319H136.184Z" fill="#BEBFC2"/>
<path d="M136.366 163.319L136.355 164.245H136.174L136.184 163.319H136.366Z" fill="#BFC0C3"/>
<path d="M136.547 163.319V164.245H136.355L136.366 163.319H136.547Z" fill="#C0C1C4"/>
<path d="M136.728 163.319V164.245H136.547V163.319H136.728Z" fill="#C1C2C5"/>
<path d="M136.909 163.319V164.245H136.728V163.319H136.909Z" fill="#C2C3C5"/>
<path d="M137.09 163.319V164.245H136.909V163.319H137.09Z" fill="#C3C4C6"/>
<path d="M137.271 163.319V164.245H137.09V163.319H137.271Z" fill="#C4C5C7"/>
<path d="M137.463 163.319L137.453 164.245H137.271V163.319H137.463Z" fill="#C5C6C8"/>
<path d="M137.644 163.319L137.633 164.245H137.452L137.463 163.319H137.644Z" fill="#C6C7C9"/>
<path d="M137.825 163.319L137.814 164.245H137.633L137.644 163.319H137.825Z" fill="#C7C8CA"/>
<path d="M138.006 163.319L137.996 164.245H137.814L137.825 163.319H138.006Z" fill="#C8C9CB"/>
<path d="M138.187 163.319L138.177 164.245H137.996L138.006 163.319H138.187Z" fill="#C9CACC"/>
<path d="M138.369 163.319V164.245H138.177L138.187 163.319H138.369Z" fill="#CACBCD"/>
<path d="M138.55 163.319L138.539 164.245H138.369V163.319H138.55Z" fill="#CBCCCE"/>
<path d="M138.731 163.319V164.245H138.539L138.55 163.319H138.731Z" fill="#CCCDCF"/>
<path d="M138.912 163.319V164.245H138.731V163.319H138.912Z" fill="#CDCED0"/>
<path d="M139.093 163.319V164.245H138.912V163.319H139.093Z" fill="#CECFD1"/>
<path d="M139.274 163.319V164.245H139.093V163.319H139.274Z" fill="#CFD0D2"/>
<path d="M139.456 163.319V164.245H139.274V163.319H139.456Z" fill="#D1D1D3"/>
<path d="M139.647 163.319L139.637 164.245H139.456V163.319H139.647Z" fill="#D2D2D4"/>
<path d="M139.829 163.319L139.818 164.245H139.637L139.647 163.319H139.829Z" fill="#D3D3D5"/>
<path d="M140.01 163.319L139.999 164.245H139.818L139.829 163.319H140.01Z" fill="#D4D4D6"/>
<path d="M140.191 163.319L140.18 164.245H139.999L140.01 163.319H140.191Z" fill="#D5D5D7"/>
<path d="M140.372 163.319L140.361 164.245H140.18L140.191 163.319H140.372Z" fill="#D6D6D8"/>
<path d="M140.553 163.319V164.245H140.361L140.372 163.319H140.553Z" fill="#D7D7D9"/>
<path d="M140.734 163.319V164.245H140.553V163.319H140.734Z" fill="#D8D8DA"/>
<path d="M140.916 163.319V164.245H140.734V163.319H140.916Z" fill="#D9D9DB"/>
<path d="M141.096 163.319V164.245H140.915V163.319H141.096Z" fill="#DADADC"/>
<path d="M141.277 163.319V164.245H141.096V163.319H141.277Z" fill="#DBDBDC"/>
<path d="M141.469 163.319L141.458 164.245H141.277V163.319H141.469Z" fill="#DCDCDD"/>
<path d="M141.65 163.319L141.64 164.245H141.458L141.469 163.319H141.65Z" fill="#DDDDDE"/>
<path d="M141.831 163.319L141.821 164.245H141.64L141.65 163.319H141.831Z" fill="#DEDEDF"/>
<path d="M142.013 163.319L142.002 164.245H141.821L141.831 163.319H142.013Z" fill="#DFDFE0"/>
<path d="M142.194 163.319L142.183 164.245H142.002L142.013 163.319H142.194Z" fill="#E0E0E1"/>
<path d="M142.375 163.319L142.364 164.245H142.183L142.194 163.319H142.375Z" fill="#E1E1E2"/>
<path d="M142.556 163.319L142.545 164.245H142.364L142.375 163.319H142.556Z" fill="#E2E2E3"/>
<path d="M142.737 163.319V164.245H142.545L142.556 163.319H142.737Z" fill="#E3E3E4"/>
<path d="M142.918 163.319V164.245H142.737V163.319H142.918Z" fill="#E4E4E5"/>
<path d="M143.1 163.319V164.245H142.918V163.319H143.1Z" fill="#E5E5E6"/>
<path d="M143.281 163.319V164.245H143.1V163.319H143.281Z" fill="#E6E6E7"/>
<path d="M143.462 163.319V164.245H143.281V163.319H143.462Z" fill="#E7E7E8"/>
<path d="M143.654 163.319L143.643 164.245H143.462V163.319H143.654Z" fill="#E8E8E9"/>
<path d="M143.835 163.319L143.824 164.245H143.643L143.654 163.319H143.835Z" fill="#E9E9E9"/>
<path d="M144.016 163.319L144.005 164.245H143.824L143.835 163.319H144.016Z" fill="#EAEAEA"/>
<path d="M144.197 163.319L144.187 164.245H144.005L144.016 163.319H144.197Z" fill="#EBEBEB"/>
<path d="M144.378 163.319L144.368 164.245H144.187L144.197 163.319H144.378Z" fill="#ECECEC"/>
<path d="M144.559 163.319L144.549 164.245H144.368L144.378 163.319H144.559Z" fill="#EDEDED"/>
<path d="M144.741 163.319L144.73 164.245H144.549L144.559 163.319H144.741Z" fill="#EEEEEE"/>
<path d="M144.921 163.319V164.245H144.729L144.74 163.319H144.921Z" fill="#EFEFEF"/>
<path d="M145.103 163.319V164.245H144.921V163.319H145.103Z" fill="#EFF0F0"/>
<path d="M145.284 163.319V164.245H145.103V163.319H145.284Z" fill="#F0F0F1"/>
<path d="M145.465 163.319V164.245H145.284V163.319H145.465Z" fill="#F1F1F2"/>
<path d="M145.646 163.319V164.245H145.465V163.319H145.646Z" fill="#F2F2F2"/>
<path d="M145.827 163.319V164.245H145.646V163.319H145.827Z" fill="#F3F3F3"/>
<path d="M146.019 163.319L146.008 164.245H145.827V163.319H146.019Z" fill="#F4F4F4"/>
<path d="M146.456 163.319V164.245H146.008L146.019 163.319H146.456Z" fill="#F4F4F4"/>
<path d="M146.904 163.319L146.893 164.245H146.456V163.319H146.904Z" fill="#F3F3F3"/>
<path d="M147.34 163.319V164.245H146.893L146.903 163.319H147.34Z" fill="#F1F1F1"/>
<path d="M147.788 163.319L147.777 164.245H147.34V163.319H147.788Z" fill="#F0F0F0"/>
<path d="M148.224 163.319V164.245H147.777L147.788 163.319H148.224Z" fill="#EFEFEF"/>
<path d="M148.672 163.319L148.661 164.245H148.225V163.319H148.672Z" fill="#EEEEEE"/>
<path d="M149.109 163.319V164.245H148.662L148.672 163.319H149.109Z" fill="#ECECEC"/>
<path d="M149.556 163.319L149.546 164.245H149.109V163.319H149.556Z" fill="#EBEBEB"/>
<path d="M149.993 163.319V164.245H149.546L149.557 163.319H149.993Z" fill="#EAEAEA"/>
<path d="M150.441 163.319L150.43 164.245H149.993V163.319H150.441Z" fill="#EAEAEA"/>
<path d="M150.878 163.319V164.245H150.43L150.441 163.319H150.878Z" fill="#E9E9E9"/>
<path d="M151.005 163.319L150.994 164.245H150.877V163.319H151.005Z" fill="#E9E9E9"/>
<path d="M151.133 163.319L151.122 164.245H150.995L151.005 163.319H151.133Z" fill="#EAEAEA"/>
<path d="M151.25 163.319V164.245H151.123L151.133 163.319H151.25Z" fill="#ECECEC"/>
<path d="M151.378 163.319V164.245H151.25V163.319H151.378Z" fill="#EDEDED"/>
<path d="M151.506 163.319L151.495 164.245H151.378V163.319H151.506Z" fill="#EEEEEE"/>
<path d="M151.634 163.319L151.623 164.245H151.496L151.506 163.319H151.634Z" fill="#EFEFEF"/>
<path d="M151.751 163.319V164.245H151.624L151.634 163.319H151.751Z" fill="#F1F1F1"/>
<path d="M151.879 163.319V164.245H151.751V163.319H151.879Z" fill="#F2F2F2"/>
<path d="M152.007 163.319L151.996 164.245H151.879V163.319H152.007Z" fill="#F3F3F3"/>
<path d="M152.135 163.319L152.124 164.245H151.997L152.007 163.319H152.135Z" fill="#F4F4F4"/>
<path d="M152.252 163.319V164.245H152.124L152.135 163.319H152.252Z" fill="#F5F5F5"/>
<path d="M152.38 163.319V164.245H152.252V163.319H152.38Z" fill="#F6F6F6"/>
<path d="M152.507 163.319L152.497 164.245H152.38V163.319H152.507Z" fill="#F7F7F7"/>
<path d="M152.635 163.319L152.625 164.245H152.497L152.508 163.319H152.635Z" fill="#F8F8F8"/>
<path d="M152.753 163.319V164.245H152.625L152.636 163.319H152.753Z" fill="#F9F9F9"/>
<path d="M152.881 163.319V164.245H152.753V163.319H152.881Z" fill="#FAFAFA"/>
<path d="M153.008 163.319L152.998 164.245H152.881V163.319H153.008Z" fill="#FBFBFB"/>
<path d="M153.136 163.319L153.126 164.245H152.998L153.009 163.319H153.136Z" fill="#FCFCFC"/>
<path d="M153.254 163.319V164.245H153.126L153.137 163.319H153.254Z" fill="#FDFDFD"/>
<path d="M153.382 163.319V164.245H153.254V163.319H153.382Z" fill="#FEFEFE"/>
<path d="M153.509 163.319L153.498 164.245H153.381V163.319H153.509Z" fill="#FEFEFE"/>
<path d="M153.637 163.319L153.626 164.245H153.499L153.509 163.319H153.637Z" fill="white"/>
<path d="M153.627 163.288L153.622 164.204L161.144 164.251L161.15 163.335L153.627 163.288Z" fill="white"/>
<path d="M91.1455 121.92L107.778 145.574H91.1455V121.92Z" fill="#CACACA"/>
<path d="M91.1455 118.088L110.474 145.574H107.778L91.1455 121.92V118.088Z" fill="#CACACA"/>
<path d="M91.1455 114.255L113.169 145.574H110.474L91.1455 118.087V114.255Z" fill="#CBCBCB"/>
<path d="M91.1455 110.423L115.865 145.574H113.169L91.1455 114.255V110.423Z" fill="#CCCCCC"/>
<path d="M91.1455 106.591L118.561 145.574H115.865L91.1455 110.423V106.591Z" fill="#CDCDCD"/>
<path d="M91.1455 102.769L121.246 145.574H118.561L91.1455 106.591V102.769Z" fill="#CECECE"/>
<path d="M91.1455 98.9366L123.941 145.574H121.246L91.1455 102.769V98.9366Z" fill="#CFCFCF"/>
<path d="M91.1455 95.1044L126.637 145.574H123.941L91.1455 98.9367V95.1044Z" fill="#D0D0D0"/>
<path d="M91.1455 91.2721L129.333 145.574H126.637L91.1455 95.1044V91.2721Z" fill="#D1D1D1"/>
<path d="M91.1455 87.4397L132.029 145.574H129.333L91.1455 91.272V87.4397Z" fill="#D3D3D3"/>
<path d="M91.1455 83.618L134.714 145.574H132.029L91.1455 87.4397V83.618Z" fill="#D4D4D4"/>
<path d="M91.3906 80.1371L137.409 145.574H134.714L91.1455 83.6181V80.1371H91.3906Z" fill="#D5D5D5"/>
<path d="M94.0863 80.1371L140.105 145.574H137.409L91.3906 80.1371H94.0863Z" fill="#D6D6D6"/>
<path d="M96.7821 80.1371L142.801 145.574H140.105L94.0864 80.1371H96.7821Z" fill="#D7D7D7"/>
<path d="M99.4779 80.1371L145.497 145.574H142.801L96.7822 80.1371H99.4779Z" fill="#D8D8D8"/>
<path d="M102.173 80.1371L148.192 145.574H145.496L99.4775 80.1371H102.173Z" fill="#D9D9D9"/>
<path d="M104.869 80.1371L150.877 145.574H148.192L102.173 80.1371H104.869Z" fill="#DADADA"/>
<path d="M107.554 80.1371L153.573 145.574H150.877L104.869 80.1371H107.554Z" fill="#DBDBDB"/>
<path d="M110.25 80.1371L156.269 145.574H153.573L107.554 80.1371H110.25Z" fill="#DCDCDC"/>
<path d="M112.946 80.1371L158.965 145.574H156.269L110.25 80.1371H112.946Z" fill="#DDDDDD"/>
<path d="M115.642 80.1371L161.66 145.574H158.965L112.946 80.1371H115.642Z" fill="#DEDEDE"/>
<path d="M118.337 80.1371L164.345 145.574H161.66L115.641 80.1371H118.337Z" fill="#DFDFDF"/>
<path d="M121.022 80.1371L167.041 145.574H164.345L118.337 80.1371H121.022Z" fill="#E0E0E0"/>
<path d="M123.718 80.1371L169.736 145.574H167.041L121.022 80.1371H123.718Z" fill="#E1E1E1"/>
<path d="M126.413 80.1371L172.432 145.574H169.737L123.718 80.1371H126.413Z" fill="#E2E2E2"/>
<path d="M129.109 80.1371L175.128 145.574H172.432L126.414 80.1371H129.109Z" fill="#E3E3E3"/>
<path d="M131.805 80.1371L177.813 145.574H175.128L129.109 80.1371H131.805Z" fill="#E4E4E4"/>
<path d="M134.49 80.1371L180.509 145.574H177.813L131.805 80.1371H134.49Z" fill="#E5E5E5"/>
<path d="M137.185 80.1371L183.204 145.574H180.509L134.49 80.1371H137.185Z" fill="#E6E6E6"/>
<path d="M139.881 80.1371L185.9 145.574H183.204L137.186 80.1371H139.881Z" fill="#E7E7E7"/>
<path d="M142.577 80.1371L188.596 145.574H185.9L139.881 80.1371H142.577Z" fill="#E8E8E8"/>
<path d="M145.273 80.1371L191.292 145.574H188.596L142.577 80.1371H145.273Z" fill="#E9E9E9"/>
<path d="M147.969 80.1371L193.977 145.574H191.292L145.273 80.1371H147.969Z" fill="#EAEAEA"/>
<path d="M150.653 80.1371L194.85 142.976V145.574H193.976L147.968 80.1371H150.653Z" fill="#EBEBEB"/>
<path d="M153.349 80.1371L194.85 139.144V142.976L150.653 80.1371H153.349Z" fill="#ECECEC"/>
<path d="M156.045 80.1371L194.85 135.312V139.144L153.349 80.1371H156.045Z" fill="#EDEDED"/>
<path d="M158.741 80.1371L194.85 131.49V135.312L156.045 80.1371H158.741Z" fill="#EEEEEE"/>
<path d="M161.436 80.1371L194.85 127.658V131.49L158.741 80.1371H161.436Z" fill="#EFEFEF"/>
<path d="M164.122 80.1371L194.851 123.825V127.658L161.437 80.1371H164.122Z" fill="#F0F0F0"/>
<path d="M194.851 123.825L164.122 80.1371H194.851V123.825Z" fill="#F0F0F0"/>
<path d="M91.1455 149.012L91.5078 150.566H91.1455V149.012Z" fill="#BBBBBB"/>
<path d="M92.0512 145.574L93.2126 150.566H91.5078L91.1455 149.012V145.574H92.0512Z" fill="#BCBCBC"/>
<path d="M93.7561 145.574L94.9175 150.566H93.2127L92.0513 145.574H93.7561Z" fill="#BDBDBD"/>
<path d="M95.45 145.574L96.6114 150.566H94.9173L93.7559 145.574H95.45Z" fill="#BEBEBE"/>
<path d="M97.155 145.574L98.3164 150.566H96.6116L95.4502 145.574H97.155Z" fill="#BFBFBF"/>
<path d="M98.8596 145.574L100.021 150.566H98.3162L97.1548 145.574H98.8596Z" fill="#C0C0C0"/>
<path d="M100.565 145.574L101.726 150.566H100.021L98.8599 145.574H100.565Z" fill="#C1C1C1"/>
<path d="M102.269 145.574L103.42 150.566H101.726L100.564 145.574H102.269Z" fill="#C2C2C2"/>
<path d="M103.963 145.574L105.125 150.566H103.42L102.269 145.574H103.963Z" fill="#C3C3C3"/>
<path d="M105.668 145.574L106.83 150.566H105.125L103.963 145.574H105.668Z" fill="#C4C4C4"/>
<path d="M107.373 145.574L108.535 150.566H106.83L105.668 145.574H107.373Z" fill="#C5C5C5"/>
<path d="M109.078 145.574L110.239 150.566H108.534L107.373 145.574H109.078Z" fill="#C6C6C6"/>
<path d="M110.782 145.574L111.933 150.566H110.239L109.078 145.574H110.782Z" fill="#C7C7C7"/>
<path d="M112.477 145.574L113.638 150.566H111.933L110.783 145.574H112.477Z" fill="#C8C8C8"/>
<path d="M114.181 145.574L115.343 150.566H113.638L112.477 145.574H114.181Z" fill="#C9C9C9"/>
<path d="M115.886 145.574L117.048 150.566H115.343L114.182 145.574H115.886Z" fill="#CACACA"/>
<path d="M117.591 145.574L118.742 150.566H117.048L115.886 145.574H117.591Z" fill="#CBCBCB"/>
<path d="M119.296 145.574L120.447 150.566H118.742L117.591 145.574H119.296Z" fill="#CCCCCC"/>
<path d="M120.99 145.574L122.151 150.566H120.447L119.296 145.574H120.99Z" fill="#CDCDCD"/>
<path d="M122.695 145.574L123.856 150.566H122.152L120.99 145.574H122.695Z" fill="#CECECE"/>
<path d="M124.4 145.574L125.561 150.566H123.856L122.695 145.574H124.4Z" fill="#CFCFCF"/>
<path d="M126.104 145.574L127.255 150.566H125.561L124.399 145.574H126.104Z" fill="#D0D0D0"/>
<path d="M127.799 145.574L128.96 150.566H127.255L126.104 145.574H127.799Z" fill="#D1D1D1"/>
<path d="M129.504 145.574L130.665 150.566H128.96L127.799 145.574H129.504Z" fill="#D2D2D2"/>
<path d="M131.208 145.574L132.37 150.566H130.665L129.503 145.574H131.208Z" fill="#D3D3D3"/>
<path d="M132.913 145.574L134.064 150.566H132.369L131.208 145.574H132.913Z" fill="#D4D4D4"/>
<path d="M134.618 145.574L135.769 150.566H134.064L132.913 145.574H134.618Z" fill="#D5D5D5"/>
<path d="M136.312 145.574L137.473 150.566H135.768L134.618 145.574H136.312Z" fill="#D6D6D6"/>
<path d="M138.017 145.574L139.178 150.566H137.473L136.312 145.574H138.017Z" fill="#D7D7D7"/>
<path d="M139.721 145.574L140.883 150.566H139.178L138.017 145.574H139.721Z" fill="#D8D8D8"/>
<path d="M141.426 145.574L142.577 150.566H140.883L139.722 145.574H141.426Z" fill="#D9D9D9"/>
<path d="M143.131 145.574L144.282 150.566H142.577L141.426 145.574H143.131Z" fill="#DBDBDB"/>
<path d="M144.825 145.574L145.986 150.566H144.282L143.131 145.574H144.825Z" fill="#DCDCDC"/>
<path d="M146.53 145.574L147.691 150.566H145.987L144.825 145.574H146.53Z" fill="#DDDDDD"/>
<path d="M148.235 145.574L149.396 150.566H147.692L146.53 145.574H148.235Z" fill="#DEDEDE"/>
<path d="M149.94 145.574L151.09 150.566H149.396L148.235 145.574H149.94Z" fill="#DFDFDF"/>
<path d="M151.634 145.574L152.795 150.566H151.09L149.939 145.574H151.634Z" fill="#E0E0E0"/>
<path d="M153.339 145.574L154.5 150.566H152.795L151.634 145.574H153.339Z" fill="#E1E1E1"/>
<path d="M155.043 145.574L156.205 150.566H154.5L153.338 145.574H155.043Z" fill="#E2E2E2"/>
<path d="M156.748 145.574L157.899 150.566H156.205L155.043 145.574H156.748Z" fill="#E3E3E3"/>
<path d="M158.453 145.574L159.604 150.566H157.899L156.748 145.574H158.453Z" fill="#E4E4E4"/>
<path d="M160.147 145.574L161.309 150.566H159.604L158.453 145.574H160.147Z" fill="#E5E5E5"/>
<path d="M161.852 145.574L163.013 150.566H161.308L160.147 145.574H161.852Z" fill="#E6E6E6"/>
<path d="M163.557 145.574L164.718 150.566H163.013L161.852 145.574H163.557Z" fill="#E7E7E7"/>
<path d="M165.261 145.574L166.412 150.566H164.718L163.557 145.574H165.261Z" fill="#E8E8E8"/>
<path d="M166.955 145.574L168.117 150.566H166.412L165.261 145.574H166.955Z" fill="#E9E9E9"/>
<path d="M168.66 145.574L169.822 150.566H168.117L166.956 145.574H168.66Z" fill="#EAEAEA"/>
<path d="M170.365 145.574L171.526 150.566H169.822L168.66 145.574H170.365Z" fill="#EBEBEB"/>
<path d="M172.07 145.574L173.231 150.566H171.527L170.365 145.574H172.07Z" fill="#ECECEC"/>
<path d="M173.775 145.574L174.925 150.566H173.231L172.07 145.574H173.775Z" fill="#EDEDED"/>
<path d="M175.469 145.574L176.63 150.566H174.926L173.775 145.574H175.469Z" fill="#EEEEEE"/>
<path d="M177.174 145.574L178.335 150.566H176.63L175.469 145.574H177.174Z" fill="#EFEFEF"/>
<path d="M178.879 145.574L180.04 150.566H178.335L177.174 145.574H178.879Z" fill="#F0F0F0"/>
<path d="M180.583 145.574L181.745 150.566H180.04L178.878 145.574H180.583Z" fill="#F1F1F1"/>
<path d="M182.288 145.574L183.439 150.566H181.745L180.583 145.574H182.288Z" fill="#F2F2F2"/>
<path d="M183.982 145.574L185.144 150.566H183.439L182.288 145.574H183.982Z" fill="#F3F3F3"/>
<path d="M185.687 145.574L186.849 150.566H185.144L183.982 145.574H185.687Z" fill="#F4F4F4"/>
<path d="M187.392 145.574L188.553 150.566H186.848L185.687 145.574H187.392Z" fill="#F5F5F5"/>
<path d="M189.096 145.574L190.247 150.566H188.553L187.392 145.574H189.096Z" fill="#F6F6F6"/>
<path d="M190.801 145.574L191.952 150.566H190.247L189.097 145.574H190.801Z" fill="#F7F7F7"/>
<path d="M192.495 145.574L193.657 150.566H191.952L190.801 145.574H192.495Z" fill="#F8F8F8"/>
<path d="M194.2 145.574L194.85 148.373V150.566H193.657L192.496 145.574H194.2Z" fill="#F9F9F9"/>
<path d="M194.85 148.373L194.2 145.574H194.85V148.373Z" fill="#FAFAFA"/>
<path d="M94.2998 131.352L101.833 142.763H94.2998V131.352Z" fill="#E6E6E7"/>
<path d="M94.2998 121.664L108.215 142.763H101.833L94.2998 131.352V121.664Z" fill="#E6E6E7"/>
<path d="M94.2998 111.988L114.598 142.763H108.215L94.2998 121.664V111.988Z" fill="#E7E7E8"/>
<path d="M94.2998 102.311L120.98 142.763H114.598L94.2998 111.988V102.311Z" fill="#E8E8E9"/>
<path d="M94.2998 92.6348L127.362 142.763H120.98L94.2998 102.311V92.6348Z" fill="#E9E9EA"/>
<path d="M94.5662 83.3521L133.734 142.763H127.362L94.2998 92.6347V83.3521H94.5662Z" fill="#EAEAEB"/>
<path d="M100.949 83.3521L140.116 142.763H133.734L94.5664 83.3521H100.949Z" fill="#EBEBEC"/>
<path d="M107.32 83.3521L146.499 142.763H140.116L100.949 83.3521H107.32Z" fill="#ECECED"/>
<path d="M113.703 83.3521L152.881 142.763H146.499L107.32 83.3521H113.703Z" fill="#EDEDEE"/>
<path d="M120.085 83.3521L159.263 142.763H152.881L113.703 83.3521H120.085Z" fill="#EEEEEF"/>
<path d="M126.467 83.3521L165.646 142.763H159.263L120.085 83.3521H126.467Z" fill="#EFEFF0"/>
<path d="M132.85 83.3521L172.028 142.763H165.646L126.467 83.3521H132.85Z" fill="#F0F0F1"/>
<path d="M139.232 83.3521L178.41 142.763H172.028L132.85 83.3521H139.232Z" fill="#F1F1F2"/>
<path d="M145.614 83.3521L184.793 142.763H178.41L139.232 83.3521H145.614Z" fill="#F3F3F3"/>
<path d="M151.997 83.3521L191.175 142.763H184.793L145.614 83.3521H151.997Z" fill="#F4F4F4"/>
<path d="M158.379 83.3521L191.612 133.757V142.763H191.175L151.997 83.3521H158.379Z" fill="#F5F5F5"/>
<path d="M164.761 83.3521L191.612 124.081V133.757L158.379 83.3521H164.761Z" fill="#F6F6F6"/>
<path d="M171.144 83.3521L191.612 114.394V124.081L164.761 83.3521H171.144Z" fill="#F7F7F7"/>
<path d="M177.526 83.3521L191.612 104.717V114.394L171.144 83.3521H177.526Z" fill="#F8F8F8"/>
<path d="M183.898 83.3521L191.612 95.0406V104.717L177.526 83.3521H183.898Z" fill="#F9F9F9"/>
<path d="M190.28 83.3521L191.612 85.364V95.0406L183.897 83.3521H190.28Z" fill="#FAFAFA"/>
<path d="M191.612 85.364L190.28 83.3521H191.612V85.364Z" fill="#FBFBFB"/>
<path d="M181.287 132.757H180.221V39.8128H108.3V132.757H107.235V38.7483H181.287V132.757Z" fill="black"/>
<path d="M167.648 42.719H111.848V49.021H167.648V42.719Z" fill="#512DED"/>
<path d="M172.947 43.3195L172.194 44.0723L176.714 48.5887L177.468 47.8359L172.947 43.3195Z" fill="black"/>
<path d="M176.695 43.2963L172.174 47.8127L172.928 48.5655L177.448 44.0491L176.695 43.2963Z" fill="black"/>
<path d="M143.067 56.0469H111.848V57.1114H143.067V56.0469Z" fill="black"/>
<path d="M143.067 59.6237H111.848V60.6882H143.067V59.6237Z" fill="black"/>
<path d="M143.067 63.1898H111.848V64.2543H143.067V63.1898Z" fill="black"/>
<path d="M143.067 66.7666H111.848V67.8311H143.067V66.7666Z" fill="black"/>
<path d="M176.918 118.46H147.5V119.525H176.918V118.46Z" fill="black"/>
<path d="M176.918 122.026H147.5V123.091H176.918V122.026Z" fill="black"/>
<path d="M176.918 125.603H147.5V126.668H176.918V125.603Z" fill="black"/>
<path d="M176.918 129.169H147.5V130.234H176.918V129.169Z" fill="black"/>
<path d="M141.448 118.29H111.806V119.354H141.448V118.29Z" fill="black"/>
<path d="M141.448 121.867H111.806V122.931H141.448V121.867Z" fill="black"/>
<path d="M141.448 125.433H111.806V126.497H141.448V125.433Z" fill="black"/>
<path d="M141.448 129.01H111.806V130.074H141.448V129.01Z" fill="black"/>
<path d="M154.639 92.6134H131.507V93.6779H154.639V92.6134Z" fill="black"/>
<path d="M154.639 96.1796H131.507V97.2441H154.639V96.1796Z" fill="black"/>
<path d="M177.121 56.5791H148.118V68.3421H177.121V56.5791Z" fill="#512DED"/>
<path d="M177.121 74.8677H111.827V86.6307H177.121V74.8677Z" fill="#512DED"/>
<path d="M123.601 101.971H111.827V113.734H123.601V101.971Z" fill="#512DED"/>
<path d="M141.437 101.971H129.664V113.734H141.437V101.971Z" fill="#FFDE15"/>
<path d="M159.274 101.971H147.5V113.734H159.274V101.971Z" fill="#FFDE15"/>
<path d="M177.11 101.971H165.336V113.734H177.11V101.971Z" fill="#FFDE15"/>
<path d="M178.687 115.852C178.687 115.852 190.578 123.548 190.578 141.401C190.578 159.253 188.809 166.225 180.264 170.771H111.827C99.8616 170.771 101.3 151.152 101.513 138.59C101.726 126.029 113.532 118.503 113.532 118.503" fill="white"/>
<path d="M180.402 171.293H111.827C110.657 171.328 109.491 171.121 108.406 170.683C107.32 170.245 106.337 169.586 105.519 168.748C100.394 163.511 100.682 151.301 100.916 141.486C100.916 140.421 100.97 139.506 100.98 138.569C101.204 125.859 113.116 118.119 113.244 118.045L113.819 118.95C113.702 119.024 102.259 126.465 102.099 138.58C102.099 139.527 102.099 140.496 102.035 141.507C101.811 151.088 101.524 163.085 106.297 168.003C107.014 168.743 107.879 169.323 108.836 169.706C109.792 170.089 110.819 170.267 111.848 170.228H180.136C188.543 165.704 190.045 158.71 190.045 141.411C190.045 124.113 178.516 116.384 178.399 116.299L178.975 115.416C179.102 115.49 191.111 123.463 191.111 141.411C191.111 158.444 189.64 166.385 180.52 171.218L180.402 171.293Z" fill="black"/>
<path d="M111.838 141.411V171.825H180.275V141.411" fill="white"/>
<path d="M180.807 172.357H111.305V141.411H112.37V171.293H179.742V141.411H180.807V172.357Z" fill="black"/>
<path d="M119.733 100.895C119.733 100.895 111.752 103.195 108.982 111.296C106.212 119.397 124.538 123.357 146.562 123.357C168.586 123.357 182.608 117.459 180.477 110.274C178.346 103.088 175.022 100.895 175.022 100.895" fill="white"/>
<path d="M146.562 123.932C126.786 123.932 112.807 120.909 109.174 115.841C108.677 115.182 108.353 114.409 108.232 113.593C108.111 112.776 108.197 111.943 108.481 111.168C111.283 102.907 119.253 100.523 119.584 100.427L119.882 101.492C119.807 101.492 112.104 103.823 109.493 111.551C109.261 112.166 109.19 112.829 109.285 113.479C109.38 114.129 109.639 114.744 110.037 115.267C113.425 119.887 127.415 122.867 146.562 122.867C162.545 122.867 175.33 119.62 179.113 114.617C179.584 114.048 179.909 113.371 180.057 112.647C180.206 111.924 180.174 111.174 179.965 110.465C177.92 103.589 174.766 101.406 174.734 101.385L175.32 100.502C175.458 100.597 178.815 102.875 180.988 110.167C181.241 111.038 181.276 111.957 181.091 112.844C180.905 113.732 180.504 114.56 179.923 115.256C175.97 120.557 163.173 123.932 146.562 123.932Z" fill="black"/>
<path d="M142.29 62.1893C142.29 62.1893 133.67 55.206 128.438 61.3483C126.938 63.027 125.903 65.0682 125.436 67.2697C124.968 69.4712 125.085 71.7565 125.774 73.8991C125.774 73.8991 119.381 74.1439 118.678 77.7633C118.34 80.1483 118.781 82.5786 119.935 84.6934C118.176 85.8399 116.803 87.4883 115.994 89.4246C115.184 91.3609 114.976 93.4957 115.396 95.5516C116.888 102.758 135.534 107.496 135.534 107.496C135.534 107.496 142.993 104.1 150.771 100.406C158.549 96.7119 142.29 62.1893 142.29 62.1893Z" fill="black"/>
<path d="M129.802 69.6409C130.218 71.1099 140.596 76.39 147.17 75.7513C147.17 75.7513 142.332 81.6488 147.436 88.8024C147.436 88.8024 141.789 94.4124 143.291 101.364C143.899 104.164 154.66 115.075 159.988 112.701C165.315 110.327 171.229 110.136 174.106 103.397C176.982 96.6586 177.462 87.3759 174.212 82.5749C170.962 77.7739 160.893 74.1651 159.732 70.1199C159.732 70.1199 161.128 66.5644 155.896 63.2005C146.594 57.2072 145.017 62.5937 145.017 62.5937C140.969 60.4008 127.81 62.6363 129.802 69.6409Z" fill="black"/>
<path d="M99.1795 70.1731H66.5327V110.678H99.1795V70.1731Z" fill="white"/>
<path d="M99.7017 111.211H66V69.6409H99.7017V111.211ZM67.0655 110.146H98.6362V70.7054H67.0655V110.146Z" fill="black"/>
<path d="M235.467 63.7222H202.82V104.227H235.467V63.7222Z" fill="white"/>
<path d="M236 104.77H202.32V63.2537H236.032L236 104.77ZM203.385 103.706H234.967V64.3182H203.385V103.706Z" fill="black"/>
<path d="M235.467 114.276H202.82V154.782H235.467V114.276Z" fill="white"/>
<path d="M236 155.303H202.32V113.734H236.032L236 155.303ZM203.353 154.239H234.935V114.798H203.385L203.353 154.239Z" fill="black"/>
<path d="M96.942 72.6748H69.0366V78.9768H96.942V72.6748Z" fill="#7194E0"/>
<path d="M233.102 66.8198H205.196V80.7438H233.102V66.8198Z" fill="#7194E0"/>
<path d="M233.102 117.385H205.196V121.302H233.102V117.385Z" fill="#7194E0"/>
<path d="M233.102 138.282H205.196V151.375H233.102V138.282Z" fill="#7194E0"/>
<path d="M233.102 85.2362H205.196V86.3007H233.102V85.2362Z" fill="black"/>
<path d="M233.102 88.8024H205.196V89.8669H233.102V88.8024Z" fill="black"/>
<path d="M233.102 92.3792H205.196V93.4437H233.102V92.3792Z" fill="black"/>
<path d="M233.102 95.9561H205.196V97.0206H233.102V95.9561Z" fill="black"/>
<path d="M233.102 123.655H205.196V124.72H233.102V123.655Z" fill="black"/>
<path d="M233.102 127.221H205.196V128.286H233.102V127.221Z" fill="black"/>
<path d="M233.102 130.798H205.196V131.863H233.102V130.798Z" fill="black"/>
<path d="M233.102 134.364H205.196V135.429H233.102V134.364Z" fill="black"/>
<path d="M176.46 166.215L115.162 168.184V135.578C115.162 135.578 107.874 139.729 107.767 144.828C107.661 149.928 103.303 140.57 104.39 136.557C105.477 132.544 111.848 121.994 117.708 124.177C123.569 126.359 163.695 130.33 171.218 126.54C178.74 122.75 185.996 124.72 185.996 132.246V148.065C185.996 148.065 184.931 135.716 180.754 135.578C176.577 135.439 174.137 145.882 174.808 149.353C175.48 152.823 176.46 166.215 176.46 166.215Z" fill="#CACACA"/>
</g>
<defs>
<clipPath id="clip0_2034_51838">
<rect width="170" height="155.357" fill="white" transform="translate(66 17)"/>
</clipPath>
</defs>
</svg>
