<svg width="300" height="200" viewBox="0 0 300 200" fill="none" xmlns="http://www.w3.org/2000/svg">
<rect width="300" height="200" rx="10" fill="#5ED1BC"/>
<g clip-path="url(#clip0_2034_51834)">
<path d="M77.3361 101.558C77.3361 101.558 82.1564 104.25 82.1564 118.151C82.1564 127.585 78.8036 137.702 78.8036 137.702C78.8036 137.702 87.3436 135.407 92.4391 140.588C97.5346 145.769 99.104 158.711 98.9715 163.433C98.8391 168.155 92.4391 175.458 92.4391 175.458C92.4391 175.458 61.112 174.917 61.112 146.809C61.112 118.702 58.5846 93.4191 77.3361 101.558Z" fill="#512DED"/>
<path d="M224.505 171.756H100.623V171.246H223.995V31.8595H84.7146V86.3718H84.2051V31.3496H224.505V171.756Z" fill="black"/>
<path d="M130.431 17.4998V68.3201H171.093V17.4998H130.431Z" fill="white"/>
<path d="M171.338 68.5852H130.146V17.255H171.318L171.338 68.5852ZM130.676 68.0753H170.828V17.7649H130.676V68.0753Z" fill="#512DED"/>
<path d="M138.992 22.7521H137.973V62.1498H138.992V22.7521Z" fill="black"/>
<path d="M151.262 36.7651H150.243V62.1498H151.262V36.7651Z" fill="black"/>
<path d="M157.234 28.4838H156.724V62.1498H157.234V28.4838Z" fill="#512DED"/>
<path d="M163.715 46.913H162.696V62.1499H163.715V46.913Z" fill="black"/>
<path d="M144.872 41.7013H144.362V62.1498H144.872V41.7013Z" fill="#512DED"/>
<path d="M146.869 68.8402H129.912V49.0751H130.931V67.8203H146.869V68.8402Z" fill="black"/>
<path d="M171.593 36.7651H170.574V18.0199H154.645V17H171.593V36.7651Z" fill="black"/>
<path d="M94.3248 74.939L92.4395 82.0985L98.3604 90.9816H112.679L112.159 83.9444" fill="white"/>
<path d="M113.229 91.4915H98.0853L91.8892 82.1903L93.8356 74.8064L94.814 75.0716L92.9898 81.9965L98.6356 90.4717H112.129L111.65 83.9853L112.669 83.9139L113.229 91.4915Z" fill="black"/>
<path d="M99.3285 175.009C96.1285 175.009 62.7937 174.071 61.7542 140.078C61.1428 120.242 62.8651 96.9071 66.7886 92.1953C70.4777 87.769 78.7427 88.1872 80.2305 88.2993C82.1261 86.7287 87.1502 84.434 87.3643 84.332L87.7923 85.2601C87.7413 85.2601 82.3605 87.7384 80.7503 89.207L80.5872 89.36H80.3528C80.2713 89.36 71.1809 88.5237 67.5733 92.8786C63.9657 97.2334 62.1823 120.854 62.7733 140.078C63.7924 174.55 99.0839 174.04 99.461 174.03L132.184 166.707H132.266C132.358 166.707 141.529 167.452 142.763 161.934C143.527 158.548 145.117 151.48 140.724 127.677C138.951 117.998 134.61 98.9366 132.113 96.5705C129.616 94.2044 121.046 91.8485 120.903 91.8281L120.689 91.7669L120.587 91.5731C120.587 91.5731 118.498 87.8812 115.603 88.0546L115.553 87.0347C118.742 86.8307 120.862 90.0943 121.372 90.8898C122.737 91.2672 130.146 93.3579 132.765 95.826C135.894 98.7938 140.592 121.557 141.672 127.442C146.064 151.45 144.444 158.65 143.71 162.118C142.324 168.237 133.234 167.768 132.205 167.686L99.5731 175.009H99.3285Z" fill="black"/>
<path d="M99.3999 143.393C99.3999 143.393 104.495 150.675 102.304 162.526L100.083 174.366C100.083 174.366 121.3 172.979 129.912 168.676C138.523 164.372 136.831 155.907 135.751 151.287C134.965 148.193 133.829 145.2 132.368 142.363C132.368 142.363 124.531 144.984 99.3999 143.393Z" fill="white"/>
<path d="M99.4606 174.917L101.805 162.424C103.945 150.95 99.0326 143.76 98.9816 143.689L98.3804 142.822L99.3995 142.883C124.062 144.443 132.092 141.914 132.164 141.863L132.571 141.73L132.775 142.108C134.271 144.978 135.424 148.014 136.209 151.154C137.137 155.152 139.267 164.494 130.095 169.114C121.494 173.418 100.948 174.805 100.072 174.856L99.4606 174.917ZM100.347 143.964C101.631 146.249 104.627 152.888 102.803 162.617L100.704 173.836C104.342 173.551 122.105 172.031 129.677 168.237C138.186 163.984 136.209 155.499 135.251 151.429C134.517 148.51 133.461 145.681 132.102 142.995C130.207 143.474 121.718 145.249 100.347 143.964Z" fill="black"/>
<path d="M100.368 146.708C100.368 146.606 97.1677 136.621 86.9257 135.489C76.4698 134.316 71.5475 135.948 71.5067 135.968L71.1704 134.999C71.3742 134.928 76.3271 133.276 87.0378 134.479C97.9626 135.703 101.305 146.32 101.305 146.432L100.368 146.708Z" fill="black"/>
<path d="M86.4675 134.959C86.4675 134.734 86.1822 112.521 84.2255 106.055C83.0062 102.189 80.4851 98.8663 77.0918 96.6522L77.5911 95.7649C81.237 98.0854 83.939 101.628 85.214 105.76C87.2522 112.368 87.4866 134.031 87.4968 134.948L86.4675 134.959Z" fill="black"/>
<path d="M129.606 106.361C129.606 106.361 134.518 124.056 134.701 128.799C134.701 128.799 131.328 133.572 132.398 142.332" fill="white"/>
<path d="M131.868 142.434C130.849 134.275 133.581 129.584 134.161 128.686C133.907 123.801 129.158 106.678 129.066 106.504L130.085 106.229C130.289 106.953 135.017 124.036 135.181 128.809V128.982L135.079 129.125C135.079 129.125 131.828 133.857 132.867 142.302L131.868 142.434Z" fill="black"/>
<path d="M175.221 138.732C175.221 138.732 174.558 151.776 166.487 155.05C158.909 157.883 151.158 160.23 143.282 162.077C142.63 162.077 130.421 132.419 130.421 132.419L151.761 137.886C151.761 137.886 150.324 133.072 155.399 134.367C155.399 134.367 162.451 108.585 168.963 101.578C175.475 94.5715 186.288 93.4191 186.288 93.4191" fill="white"/>
<path d="M143.282 162.567C142.844 162.567 142.263 162.567 129.952 132.592L129.565 131.654L151.109 137.172C151.012 136.684 151.023 136.182 151.141 135.699C151.259 135.216 151.481 134.765 151.792 134.377C152.233 134 152.764 133.744 153.334 133.633C153.904 133.522 154.492 133.561 155.042 133.745C156.062 130.104 162.482 107.789 168.586 101.211C175.149 94.133 185.799 92.9602 186.247 92.9092L186.349 93.9291C186.247 93.9291 175.628 95.1121 169.33 101.904C163.032 108.697 155.96 134.224 155.888 134.54L155.756 135.02L155.277 134.897C154.349 134.653 153.127 134.51 152.525 135.132C151.924 135.754 152.097 137.274 152.25 137.773L152.495 138.63L131.277 133.194C135.771 144.086 142.314 159.609 143.506 161.567C151.239 159.702 158.855 157.379 166.314 154.612C173.977 151.552 174.711 138.885 174.721 138.763L175.74 138.814C175.74 139.354 174.966 152.215 166.691 155.56C159.051 158.409 151.231 160.75 143.282 162.567Z" fill="black"/>
<path d="M219.623 96.3767C219.623 96.3767 231.597 117.733 228.642 142.383C225.687 167.034 224.566 171.501 224.566 171.501H171.746L172.999 155.03C172.214 152.562 175.567 145.851 175.567 145.851C174.395 144.29 175.221 138.712 175.221 138.712C173.315 136.539 172.398 130.553 172.999 125.596" fill="white"/>
<path d="M224.922 172.011H171.216L172.49 155.091C171.837 152.643 174.334 147.248 174.997 145.912C174.059 144.158 174.538 140.027 174.691 138.916C172.857 136.57 171.878 130.695 172.5 125.586L173.519 125.708C172.908 130.624 173.876 136.448 175.608 138.426L175.771 138.599V138.834C175.466 140.874 175.262 144.566 176.026 145.575L176.209 145.83L176.077 146.106C175.17 147.921 172.948 153.041 173.539 154.907V154.999V155.101L172.327 171.021H224.148C224.464 169.512 225.697 162.995 228.173 142.353C231.068 118.141 219.328 96.8663 219.216 96.6521L220.102 96.1523C220.224 96.3767 232.117 117.937 229.182 142.475C226.247 167.013 225.106 171.48 225.045 171.664L224.922 172.011Z" fill="black"/>
<path d="M194.339 167.992H121.219V171.501H194.339V167.992Z" fill="white"/>
<path d="M194.849 172.011H120.699V167.482H194.849V172.011ZM121.718 170.991H193.829V168.502H121.718V170.991Z" fill="black"/>
<path d="M189.448 157.304C186.832 155.911 183.933 155.133 180.972 155.029C178.011 154.925 175.064 155.497 172.357 156.702C166.838 158.957 162.038 162.677 158.477 167.462L194.991 167.992C195.105 165.878 194.651 163.771 193.676 161.892C192.701 160.012 191.241 158.428 189.448 157.304Z" fill="white"/>
<path d="M195.45 168.512L157.55 167.962L158.049 167.187C161.654 162.306 166.534 158.516 172.153 156.233C174.933 154.982 177.963 154.389 181.008 154.501C184.053 154.612 187.032 155.425 189.713 156.876C191.603 158.044 193.14 159.705 194.158 161.682C195.176 163.659 195.637 165.875 195.491 168.094L195.45 168.512ZM159.476 166.972L194.513 167.482C194.531 165.537 194.05 163.62 193.115 161.914C192.179 160.208 190.822 158.772 189.172 157.743C186.625 156.402 183.809 155.654 180.932 155.555C178.056 155.456 175.194 156.009 172.561 157.171C167.459 159.309 162.964 162.676 159.476 166.972Z" fill="black"/>
<path d="M213.162 90.6145C220.304 92.1908 226.533 96.5321 230.487 102.69C237.508 113.235 235.266 132.511 234.563 138.753C233.86 144.994 228.448 161.312 228.448 161.312C228.448 161.312 220.51 167.564 206.028 167.951C191.547 168.339 191.282 167.951 191.282 167.951C195.491 163.78 187.97 159.058 183.689 155.407C183.689 155.407 192.627 148.635 201.34 147.636C204.363 147.375 207.364 146.897 210.319 146.208C208.608 140.233 208.385 133.931 209.666 127.85C210.993 121.448 213.51 115.352 217.085 109.88" fill="white"/>
<path d="M196 168.625C191.282 168.625 191.109 168.41 190.986 168.257L190.711 167.9L191.037 167.574C191.383 167.275 191.66 166.904 191.846 166.486C192.033 166.068 192.126 165.614 192.118 165.157C191.985 162.638 188.551 159.884 185.524 157.457C184.8 156.886 184.107 156.325 183.486 155.784L183.007 155.376L183.506 154.989C183.873 154.713 192.678 148.125 201.412 147.126C204.228 146.84 207.028 146.408 209.799 145.83C208.218 139.923 208.04 133.727 209.279 127.738C210.63 121.271 213.17 115.112 216.77 109.574L217.605 110.165C214.079 115.585 211.588 121.613 210.258 127.942C209.016 133.937 209.236 140.143 210.9 146.034L211.083 146.534L210.563 146.687C207.576 147.391 204.541 147.875 201.483 148.135C194.186 148.972 186.625 154 184.607 155.427L186.125 156.661C189.325 159.221 192.953 162.128 193.106 165.096C193.145 165.973 192.883 166.837 192.362 167.543C193.718 167.615 197.213 167.676 206.089 167.431C219.246 167.074 227.022 161.74 228.051 160.986C228.601 159.323 233.483 144.494 234.084 138.691L234.145 138.161C234.859 131.297 236.775 113.072 230.069 102.965C226.169 96.9499 220.077 92.6946 213.091 91.104L213.244 90.0841C213.672 90.1453 223.852 91.7669 230.925 102.384C237.855 112.797 235.919 131.287 235.185 138.243L235.134 138.783C234.482 145.014 229.223 160.772 229.019 161.445V161.587L228.907 161.679C228.571 161.944 220.663 168.043 206.222 168.431C201.483 168.574 198.222 168.625 196 168.625Z" fill="black"/>
<path d="M217.84 87.6976C217.84 87.6976 225.779 92.0933 224.352 97.4476C222.925 102.802 204.989 122.588 189.702 115.805C174.416 109.023 177.096 93.1438 177.096 93.1438C177.096 93.1438 184.739 69.8906 217.84 87.6976Z" fill="white"/>
<path d="M196.388 117.733C194.018 117.743 191.673 117.249 189.509 116.285C174.11 109.431 176.576 93.2355 176.597 93.0723C177.539 90.5738 178.991 88.2989 180.859 86.3922C182.728 84.4854 184.972 82.9885 187.45 81.9965C195.379 78.8247 205.672 80.589 218.023 87.2488C218.37 87.4426 226.298 91.9096 224.78 97.5801C223.822 101.16 216.158 110.563 206.487 115.183C203.354 116.78 199.902 117.652 196.388 117.733ZM195.837 81.4865C193.106 81.4546 190.394 81.9462 187.848 82.9348C185.527 83.8861 183.423 85.2958 181.66 87.0797C179.896 88.8636 178.511 90.985 177.585 93.3171C177.504 93.878 175.251 108.829 189.926 115.357C194.696 117.478 200.118 117.111 206.079 114.265C215.333 109.839 222.935 100.65 223.822 97.315C225.126 92.44 217.707 88.2279 217.565 88.1361C209.351 83.7099 202.074 81.4865 195.868 81.4865H195.837Z" fill="black"/>
<path d="M202.971 56.4283C202.971 56.4283 200.831 52.6037 192.29 53.7868C184.403 54.8882 180.754 60.6301 178.675 66.1579C176.596 71.6856 178.145 79.1714 175.934 84.2504C173.722 89.3294 173.468 89.8597 173.009 92.5216C172.551 95.1834 185.34 91.0529 185.34 91.0529" fill="white"/>
<path d="M174.731 93.9189C174.079 93.9809 173.423 93.8268 172.866 93.4803C172.718 93.3608 172.605 93.2018 172.542 93.0215C172.479 92.8412 172.468 92.6468 172.51 92.4604C172.958 89.8394 173.213 89.2478 175.21 84.6788L175.475 84.0669C176.566 81.5682 176.698 78.4678 176.851 75.1838C177.004 71.8998 177.147 68.7892 178.196 66.0049C181.06 58.3661 185.656 54.2152 192.219 53.3075C201.004 52.0837 203.327 56.0306 203.429 56.1937L202.543 56.7037C202.543 56.7037 200.403 53.2055 192.352 54.3172C186.105 55.1841 181.896 59.0086 179.103 66.3619C178.084 68.9932 177.972 72.165 177.829 75.2348C177.687 78.3046 177.534 81.8028 176.362 84.4748L176.097 85.0868C174.151 89.5538 173.896 90.1351 173.468 92.6338C174.344 93.4599 180.194 92.1851 185.136 90.5941L185.452 91.6139C183.496 92.1851 177.86 93.9189 174.731 93.9189Z" fill="black"/>
<path d="M180.907 71.1145C180.998 72.2939 181.185 73.4639 181.468 74.6126C176.281 82.2719 184.067 90.696 184.067 90.696C184.834 91.8129 185.864 92.7248 187.064 93.3523C188.265 93.9798 189.601 94.3038 190.956 94.2962C198.854 94.592 204.887 84.8114 204.887 84.8114C205.335 83.9853 205.743 83.1694 206.13 82.3739C206.342 82.6335 206.616 82.8366 206.925 82.9654C208.331 83.5263 210.105 82.3841 210.889 80.4157C211.674 78.4474 211.175 76.3974 209.779 75.8365C209.422 75.6971 209.034 75.6583 208.657 75.7243C211.246 66.2293 208.066 59.9469 201.524 57.8867" fill="white"/>
<path d="M191.292 94.8163H190.925C189.492 94.8202 188.08 94.4749 186.811 93.8103C185.541 93.1458 184.452 92.1819 183.638 91.002C183.058 90.3391 175.995 82.0985 180.917 74.5208C180.654 73.4179 180.477 72.296 180.387 71.1654L181.407 71.0839C181.49 72.2333 181.674 73.3731 181.957 74.4902L182.018 74.7146L181.886 74.9084C176.974 82.1495 184.352 90.2779 184.433 90.3595L184.494 90.441C185.214 91.4874 186.18 92.3406 187.307 92.9257C188.433 93.5108 189.686 93.8098 190.956 93.7964H191.292C198.65 93.7964 204.387 84.6176 204.448 84.5462C204.846 83.8017 205.254 83.0164 205.671 82.1495L206.008 81.4458L206.517 82.0373C206.675 82.2395 206.882 82.3976 207.119 82.4962C207.411 82.592 207.721 82.616 208.025 82.5663C208.328 82.5166 208.615 82.3947 208.861 82.2107C209.571 81.724 210.112 81.0292 210.41 80.2219C211.083 78.5493 210.706 76.7543 209.585 76.3056C209.316 76.2006 209.023 76.1723 208.739 76.224L207.964 76.3566L208.168 75.5917C210.532 66.9024 208.005 60.467 201.401 58.3762L201.707 57.4073C208.729 59.6205 211.541 66.2497 209.33 75.1939C209.546 75.223 209.758 75.2777 209.962 75.3571C211.623 76.02 212.255 78.4167 211.358 80.5993C210.977 81.6022 210.298 82.4639 209.412 83.0674C209.03 83.3423 208.588 83.5196 208.122 83.5836C207.657 83.6476 207.183 83.5964 206.741 83.4345C206.582 83.3769 206.431 83.2979 206.293 83.1999C205.967 83.8527 205.651 84.4646 205.335 85.0561C205.07 85.5151 199.22 94.8163 191.292 94.8163Z" fill="black"/>
<path d="M193.952 85.1378C192.149 85.4496 190.319 85.5794 188.49 85.5254C186.237 85.352 185.544 84.5769 185.544 84.5769" fill="white"/>
<path d="M189.437 86.0658C189.101 86.0658 188.765 86.0658 188.418 86.0658C186.033 85.8822 185.218 85.0459 185.126 84.9439L185.891 84.2606C186.655 84.7938 187.569 85.0689 188.5 85.0459C190.288 85.097 192.077 84.9706 193.84 84.6686L194.013 85.6884C192.499 85.9265 190.97 86.0526 189.437 86.0658Z" fill="black"/>
<path d="M188.143 81.7518C188.143 81.7518 186.411 81.6192 186.105 80.7319C185.799 79.8446 189.01 74.0925 188.745 72.9197" fill="white"/>
<path d="M188.102 82.2617C187.898 82.2617 186.064 82.068 185.585 80.8951C185.361 80.3036 185.779 79.2327 186.859 76.7442C187.465 75.5626 187.917 74.3082 188.204 73.0115L189.223 72.7871C189.386 73.501 188.795 74.9084 187.817 77.1522C187.273 78.2372 186.853 79.3798 186.563 80.5585C186.716 80.9359 187.582 81.2011 188.204 81.2419L188.102 82.2617Z" fill="black"/>
<path d="M191.985 74.6025C191.985 74.6025 192.515 72.2567 194.594 72.3893C196.066 72.6291 197.42 73.3457 198.446 74.4291" fill="white"/>
<path d="M198.079 74.735C197.134 73.7619 195.901 73.1184 194.563 72.8992C192.963 72.7972 192.525 74.633 192.525 74.7146L191.506 74.4902C191.634 73.7529 192.02 73.0854 192.595 72.607C193.17 72.1286 193.897 71.8707 194.645 71.8794C196.241 72.1101 197.715 72.8674 198.833 74.0313L198.079 74.735Z" fill="black"/>
<path d="M198.426 70.5637C198.426 70.5637 196.938 68.2384 195.022 68.9727C193.737 69.4968 192.514 70.1603 191.374 70.9513" fill="white"/>
<path d="M191.69 71.3695L191.099 70.5332C192.274 69.7119 193.539 69.0275 194.869 68.4934C197.132 67.6265 198.803 70.1762 198.874 70.2884L198.018 70.8391C198.018 70.8391 196.734 68.881 195.226 69.4521C193.979 69.9561 192.793 70.5993 191.69 71.3695Z" fill="black"/>
<path d="M187.215 71.859C187.215 71.859 185.035 68.9931 182.792 71.1757L187.215 71.859Z" fill="white"/>
<path d="M186.839 72.165C186.317 71.4951 185.572 71.0354 184.739 70.8698C184.445 70.8617 184.152 70.9177 183.881 71.0339C183.61 71.1501 183.367 71.3238 183.17 71.5429L182.467 70.8086C182.768 70.4892 183.133 70.2382 183.54 70.0728C183.946 69.9074 184.383 69.8314 184.821 69.8499C185.942 70.0358 186.951 70.6409 187.644 71.5429L186.839 72.165Z" fill="black"/>
<path d="M186.533 74.1129C186.457 73.7444 186.265 73.4101 185.984 73.1601C185.703 72.9101 185.348 72.7578 184.974 72.7259C183.629 72.5933 182.936 74.3781 182.936 74.3781" fill="white"/>
<path d="M183.415 74.5616L182.467 74.1843C182.467 74.1027 183.333 72.0425 185.025 72.2159C185.514 72.2547 185.978 72.4518 186.345 72.7775C186.713 73.1031 186.965 73.5396 187.063 74.0211L186.044 74.2047C185.994 73.942 185.857 73.7037 185.656 73.528C185.454 73.3523 185.2 73.2494 184.933 73.2358C183.985 73.1542 183.415 74.5412 183.415 74.5616Z" fill="black"/>
<path d="M185.544 75.1634C185.961 75.1634 186.298 74.7068 186.298 74.1435C186.298 73.5803 185.961 73.1237 185.544 73.1237C185.128 73.1237 184.79 73.5803 184.79 74.1435C184.79 74.7068 185.128 75.1634 185.544 75.1634Z" fill="black"/>
<path d="M196.316 75.2451C196.733 75.2451 197.07 74.7885 197.07 74.2252C197.07 73.6619 196.733 73.2053 196.316 73.2053C195.9 73.2053 195.562 73.6619 195.562 74.2252C195.562 74.7885 195.9 75.2451 196.316 75.2451Z" fill="black"/>
<path d="M198.008 61.5685C198.008 61.5685 196.581 62.8739 193.127 62.3538C189.672 61.8336 186.686 64.5669 185.035 66.7086C183.358 68.6963 181.571 70.5894 179.685 72.3791" fill="white"/>
<path d="M180.082 72.7565L179.379 72.012C181.243 70.2404 183.009 68.3678 184.668 66.4027C185.881 64.8219 189.162 61.232 193.249 61.8439C196.367 62.3232 197.702 61.2014 197.713 61.1912L198.395 61.9459C198.324 62.0071 196.744 63.4043 193.096 62.8536C189.448 62.3028 186.584 65.597 185.473 67.0248C183.782 69.0324 181.982 70.9458 180.082 72.7565Z" fill="black"/>
<path d="M104.087 125.616H147.45L164.581 167.992H121.218L104.087 125.616Z" fill="white"/>
<path d="M165.336 168.502H120.872L120.74 168.186L103.323 125.107H147.787L147.919 125.433L165.336 168.502ZM121.514 167.482H163.776L147.063 126.126H104.842L121.514 167.482Z" fill="black"/>
<path d="M171.002 108.717C171.002 108.717 166.691 120.752 174.915 127.585L171.002 108.717Z" fill="white"/>
<path d="M174.589 127.972C166.181 120.997 170.512 108.666 170.512 108.595L171.47 108.942C171.47 109.054 167.394 120.721 175.231 127.238L174.589 127.972Z" fill="black"/>
<path d="M129.606 122.312C129.606 122.312 128.159 122.802 120.179 123.332C112.2 123.862 92.4393 122.832 92.4393 122.832C92.4393 122.832 91.4202 105.219 84.4597 99.518C77.4993 93.8169 74.3809 92.8888 74.3809 92.8888L82.1565 91.716C82.1565 91.716 84.8164 87.922 88.8826 88.6563C92.9489 89.3907 101.112 97.8352 109.153 97.6006C117.193 97.3661 114.085 88.5747 114.085 88.5747C114.085 88.5747 117.784 90.2473 118.029 92.9296C118.273 95.6119 121.912 93.6945 125.55 95.0815C129.188 96.4686 130.421 97.8556 130.421 97.8556C130.421 97.8556 125.377 99.2528 126.07 103.975C126.763 108.697 129.321 114.194 129.606 122.312Z" fill="#512DED"/>
<path d="M111.456 104.25C109.642 96.805 108.592 95.8668 108.592 95.8668C109.126 94.9267 109.589 93.9483 109.978 92.9397C110.834 90.9 110.997 83.9445 110.997 83.9445C110.997 83.9445 117.224 85.9842 119.15 89.2478C121.076 92.5114 122.951 101.486 122.951 101.486C122.951 101.486 114.218 97.9065 111.456 104.25Z" fill="white"/>
<path d="M111.313 105.841L110.956 104.373C109.265 97.417 108.276 96.2748 108.235 96.2136L107.919 95.928L108.164 95.5813C108.667 94.6574 109.112 93.7037 109.499 92.7256C110.314 90.7675 110.447 83.9853 110.447 83.9241V83.2306L111.099 83.4448C111.364 83.5366 117.54 85.6171 119.568 88.9623C121.596 92.3075 123.359 100.946 123.43 101.313L123.624 102.241L122.737 101.884C122.401 101.751 114.431 98.6205 111.904 104.434L111.313 105.841ZM109.204 95.8362C109.611 96.4787 110.447 98.2329 111.629 102.863C114.391 98.7837 120.077 100.008 122.268 100.67C121.749 98.3451 120.23 92.0525 118.722 89.513C117.214 86.9735 113.066 85.2907 111.456 84.6686C111.395 86.5146 111.17 91.3794 110.437 93.1336C109.856 94.5614 109.428 95.4181 109.204 95.8362Z" fill="black"/>
<path d="M110.895 102.465C110.895 102.465 107.614 94.2145 99.4712 97.7535C91.3286 101.292 88.8827 101.435 88.8827 101.435C88.8827 101.435 85.6827 87.5241 87.5782 84.7909C89.282 82.5359 91.1486 80.4089 93.1629 78.4269C94.4746 82.1244 96.4577 85.5475 99.0126 88.5236C103.313 93.5924 109.978 92.4807 110.895 102.465Z" fill="white"/>
<path d="M111.72 105.913L110.416 102.659C109.521 100.563 107.9 98.8605 105.85 97.8657C104.852 97.4968 103.788 97.3381 102.725 97.3995C101.663 97.4609 100.624 97.7412 99.6747 98.2227C91.5219 101.751 89.0149 101.935 88.913 101.945H88.4748L88.3831 101.517C88.0468 100.079 85.1933 87.3101 87.1602 84.4748C88.8782 82.191 90.7654 80.0398 92.806 78.0394L93.4073 77.4479L93.6518 78.2536C94.9541 81.875 96.9015 85.2302 99.3996 88.1565C100.771 89.6467 102.401 90.8767 104.21 91.7873C107.44 93.6537 110.773 95.571 111.405 102.384L111.72 105.913ZM92.9588 79.3958C91.1655 81.1776 89.5066 83.09 87.9958 85.1173C86.5997 87.1571 88.3525 96.7745 89.2697 100.895C90.2888 100.701 93.1525 99.9667 99.2671 97.315C100.343 96.7771 101.519 96.4676 102.72 96.4062C103.922 96.3448 105.123 96.5327 106.248 96.9581C107.722 97.6014 109.001 98.6214 109.957 99.9157C108.938 95.7342 106.462 94.3268 103.7 92.7766C101.782 91.8118 100.055 90.5054 98.6046 88.9215C96.2028 86.0851 94.2943 82.8651 92.9588 79.3958Z" fill="black"/>
<path d="M119.109 163.484L118.09 163.413C118.09 163.117 120.129 134.581 115.96 121.292C111.792 108.003 109.489 98.9978 109.469 98.9162L110.488 98.6613C110.488 98.753 112.791 107.616 116.969 120.986C121.148 134.357 119.14 163.189 119.109 163.484Z" fill="black"/>
<path d="M100.857 82.2924C102.233 85.0562 106.391 86.5146 109.458 86.3719C112.526 86.2291 115.767 82.2924 117.693 77.8355C119.619 73.3787 117.917 67.9122 117.917 67.9122C117.917 67.9122 120.455 52.9914 111.802 47.9124C106.564 44.8528 96.2713 44.8528 91.6649 51.2168C90.3216 53.1312 89.4387 55.3304 89.0851 57.6427C88.7316 59.955 88.9169 62.3178 89.6267 64.5466" fill="white"/>
<path d="M109.01 86.8818C105.769 86.8818 101.795 85.3112 100.399 82.5167L101.306 82.0578C102.58 84.5973 106.513 86.0047 109.458 85.8517C112.047 85.7293 115.176 82.4147 117.244 77.6213C119.058 73.3888 117.469 68.1059 117.448 68.0549V67.9427V67.8203C117.448 67.6673 119.823 53.1852 111.537 48.3408C106.615 45.4647 96.5872 45.2811 92.0726 51.5126C90.7882 53.363 89.9433 55.4828 89.6025 57.7099C89.2616 59.937 89.4337 62.2126 90.1057 64.363L89.158 64.7097C88.3968 62.4102 88.1846 59.9642 88.5386 57.5679C88.8925 55.1716 89.8028 52.8916 91.1962 50.9108C96.0369 44.2103 106.758 44.3938 112.006 47.4637C120.577 52.4712 118.661 66.3313 118.416 67.8611C118.661 68.7076 119.976 73.7458 118.131 78.0599C116.429 82.0272 113.137 86.7186 109.469 86.9022L109.01 86.8818Z" fill="black"/>
<path d="M91.4711 65.7499C91.4711 65.7499 88.7806 63.2105 87.7819 65.0564C86.7832 66.9024 89.6265 74.9798 91.7055 76.3668C93.7845 77.7539 94.5488 77.3867 94.5488 77.3867C94.5488 77.3867 97.6061 85.0765 105.117 83.3734" fill="white"/>
<path d="M102.997 84.1076C97.6062 84.1076 94.9158 79.3244 94.2432 77.9272C93.2118 77.827 92.2314 77.4303 91.4203 76.7849C89.3209 75.3775 86.1413 67.0248 87.3439 64.8116C87.4656 64.5745 87.6401 64.3684 87.8539 64.2093C88.0676 64.0502 88.315 63.9422 88.577 63.8938C89.9834 63.6694 91.6343 65.1992 91.8381 65.3726L91.1349 66.1171C90.5009 65.4475 89.6546 65.0186 88.74 64.9034C88.6301 64.9223 88.5267 64.9686 88.4394 65.0382C88.3521 65.1077 88.2837 65.1981 88.2407 65.3012C87.3643 66.9228 90.1057 74.6738 92.0012 75.9385C93.7031 77.0705 94.3655 76.8971 94.3757 76.8869L94.8649 76.6422L95.0381 77.1827C95.1502 77.4785 97.9833 84.4442 105.015 82.8532L105.239 83.8731C104.503 84.0369 103.751 84.1156 102.997 84.1076Z" fill="black"/>
<path d="M111.018 62.7719C111.018 62.7719 110.447 65.9437 110.793 66.9227C111.14 67.9018 112.984 71.7059 112.638 73.2664C112.291 74.8268 110.274 75.7446 109.346 74.8879C108.419 74.0313 107.909 74.021 107.308 74.1638" fill="white"/>
<path d="M110.253 75.7243C109.79 75.74 109.339 75.5713 109 75.2552C108.174 74.4902 107.828 74.5616 107.379 74.6636L107.166 73.6438C107.624 73.529 108.105 73.5478 108.553 73.6977C109 73.8477 109.396 74.1227 109.693 74.4902C109.839 74.5936 110.009 74.6589 110.187 74.6803C110.365 74.7017 110.545 74.6784 110.712 74.6126C111.055 74.5056 111.365 74.3141 111.614 74.0557C111.864 73.7973 112.044 73.4803 112.139 73.1338C112.373 72.0527 111.232 69.3195 110.681 68.0344L110.304 67.1064C109.937 66.0865 110.416 63.241 110.518 62.6903L111.537 62.8739C111.253 64.1483 111.17 65.4595 111.293 66.7596C111.354 66.9534 111.486 67.2593 111.65 67.6367C112.567 69.8396 113.433 72.0935 113.148 73.3888C113.014 73.9111 112.749 74.3904 112.378 74.7814C112.007 75.1723 111.542 75.4618 111.028 75.6223C110.776 75.6922 110.515 75.7265 110.253 75.7243Z" fill="black"/>
<path d="M104.22 77.7947C104.22 77.7947 111.15 79.4673 114.085 77.3867L104.22 77.7947Z" fill="white"/>
<path d="M109.54 78.9369C107.708 78.9115 105.885 78.6962 104.098 78.2943L104.332 77.2745C104.403 77.2745 111.079 78.8757 113.789 76.9481L114.38 77.7844C112.914 78.6341 111.231 79.0347 109.54 78.9369Z" fill="black"/>
<path d="M100.388 65.7499C100.388 65.7499 103.7 63.7102 105.117 65.9437L100.388 65.7499Z" fill="white"/>
<path d="M104.669 66.2089C104.495 65.9335 103.976 65.1074 102.314 65.495C101.727 65.6404 101.164 65.8706 100.643 66.1783L100.103 65.3216C100.734 64.9385 101.422 64.6595 102.141 64.4955C102.764 64.2766 103.442 64.2733 104.066 64.4859C104.691 64.6986 105.226 65.115 105.586 65.6683L104.669 66.2089Z" fill="black"/>
<path d="M112.271 66.3618C112.271 66.3618 114.91 64.0773 116.459 66.1375L112.271 66.3618Z" fill="white"/>
<path d="M112.597 66.7494L111.935 65.9743C112.814 65.21 113.939 64.7867 115.104 64.781C115.452 64.8205 115.788 64.9315 116.092 65.107C116.395 65.2825 116.659 65.5187 116.867 65.8009L116.052 66.4128C115.936 66.2405 115.786 66.0944 115.61 65.9837C115.435 65.8731 115.238 65.8004 115.033 65.7703C114.134 65.8128 113.276 66.1578 112.597 66.7494Z" fill="black"/>
<path d="M102.284 66.9432C102.689 66.9432 103.017 66.4957 103.017 65.9437C103.017 65.3917 102.689 64.9442 102.284 64.9442C101.878 64.9442 101.55 65.3917 101.55 65.9437C101.55 66.4957 101.878 66.9432 102.284 66.9432Z" fill="black"/>
<path d="M113.759 67.188C114.091 67.188 114.36 66.8181 114.36 66.3619C114.36 65.9056 114.091 65.5358 113.759 65.5358C113.427 65.5358 113.158 65.9056 113.158 66.3619C113.158 66.8181 113.427 67.188 113.759 67.188Z" fill="black"/>
<path d="M107.501 63.8223C105.692 62.8064 103.612 62.3787 101.55 62.5985L107.501 63.8223Z" fill="white"/>
<path d="M107.236 64.2609C105.526 63.3021 103.563 62.8893 101.611 63.0779L101.458 62.058C103.634 61.8384 105.824 62.3017 107.726 63.3839L107.236 64.2609Z" fill="black"/>
<path d="M112.465 63.8224C112.903 63.4513 113.428 63.197 113.991 63.0829C114.554 62.9688 115.137 62.9987 115.685 63.1697" fill="white"/>
<path d="M112.821 64.1998L112.118 63.4553C112.624 63.0214 113.231 62.7227 113.883 62.5872C114.536 62.4517 115.212 62.4837 115.848 62.6802L115.553 63.7001C115.092 63.5495 114.601 63.5163 114.124 63.6036C113.647 63.6908 113.199 63.8958 112.821 64.1998Z" fill="black"/>
<path d="M104.22 50.2886C106.462 51.4411 105.942 56.2855 103.741 58.2844C101.54 60.2834 98.8596 58.366 97.6265 60.1304C95.9016 62.5023 94.6712 65.1972 94.0087 68.0548L91.8584 67.1981C91.8836 66.5513 91.6651 65.9186 91.246 65.4256C90.8269 64.9325 90.238 64.6151 89.596 64.5362C87.2521 64.2099 83.3999 55.8265 91.1654 47.3616C98.931 38.8966 113.229 44.4447 115.685 48.2897C117.87 52.0301 119.063 56.2677 119.15 60.5995C119.221 63.9753 118.263 63.4246 118.263 63.4246C116.337 60.9834 114.243 58.6797 111.996 56.5302C109.693 54.5925 109.621 57.3665 110.386 58.57C110.841 59.2913 111.356 59.9735 111.924 60.6097C110.492 60.8991 109.003 60.7022 107.695 60.0502C106.386 59.3982 105.332 58.3283 104.699 57.0096" fill="white"/>
<path d="M94.4059 68.7688L91.3486 67.5347V67.1574C91.3751 66.6375 91.202 66.1272 90.8648 65.7309C90.5275 65.3347 90.0517 65.0824 89.5347 65.0258C88.4544 64.8728 87.3334 63.5776 86.6608 61.7316C85.9882 59.8856 84.5105 53.848 90.7372 46.9945C94.7219 42.6702 100.001 42.1399 103.731 42.4662C109.489 42.966 114.615 45.7196 116.072 47.9939C118.302 51.8122 119.519 56.1373 119.608 60.5588C119.608 62.4353 119.394 63.4654 118.803 63.8224C118.675 63.8977 118.529 63.9374 118.38 63.9374C118.232 63.9374 118.086 63.8977 117.957 63.8224L117.815 63.7C115.908 61.2895 113.838 59.0132 111.619 56.8872C110.926 56.2957 110.599 56.3059 110.599 56.3569C110.365 56.5507 110.385 57.6011 110.803 58.2845C111.238 59.0068 111.736 59.6894 112.291 60.3242L112.852 60.9565L112.036 61.1605C110.631 61.4425 109.172 61.2891 107.856 60.7206C106.54 60.1521 105.428 59.1955 104.668 57.9785C104.487 58.2068 104.29 58.4216 104.077 58.621C103.543 59.0654 102.925 59.3959 102.259 59.5924C101.593 59.7888 100.894 59.8469 100.205 59.7633C99.0938 59.7633 98.4517 59.7633 98.0339 60.3854C96.3376 62.7173 95.128 65.3673 94.4773 68.1772L94.4059 68.7688ZM92.3677 66.8412L93.6416 67.3511C94.3824 64.6575 95.5934 62.1163 97.2186 59.8449C97.9626 58.7638 99.1244 58.774 100.276 58.825C100.836 58.9009 101.406 58.8623 101.95 58.7116C102.495 58.5608 103.004 58.301 103.445 57.9479C104.095 57.2658 104.586 56.4488 104.884 55.555C105.181 54.6612 105.278 53.7127 105.168 52.7771C105.15 52.3726 105.039 51.9778 104.842 51.6238C104.646 51.2698 104.37 50.9663 104.036 50.7374L104.505 49.8297C104.987 50.1201 105.391 50.5234 105.682 51.005C105.973 51.4865 106.143 52.0317 106.177 52.5936C106.349 54.1371 106.054 55.6967 105.331 57.0708C105.87 58.0929 106.689 58.9394 107.693 59.5105C108.697 60.0815 109.844 60.3532 110.997 60.2936C110.633 59.8352 110.293 59.3586 109.978 58.8658C109.438 58.0091 109.163 56.3161 109.978 55.6226C110.375 55.2758 111.109 55.0922 112.362 56.1427C114.558 58.2131 116.601 60.4388 118.477 62.8025C118.692 62.0929 118.769 61.3483 118.701 60.6098C118.616 56.3721 117.452 52.2263 115.318 48.5651C113.993 46.5253 109.03 43.9654 103.761 43.4657C100.245 43.1597 95.3027 43.6391 91.6034 47.6676C85.713 54.0928 87.1092 59.7735 87.6799 61.3645C88.2506 62.9555 89.1576 63.9142 89.7181 63.9957C90.4238 64.0797 91.0766 64.412 91.5601 64.9332C92.0436 65.4544 92.3262 66.1307 92.3575 66.8412H92.3677Z" fill="black"/>
<path d="M231.282 115.846C231.282 115.846 225.035 105.413 221.386 110.104C217.738 114.796 211.501 123.363 212.541 135.601C213.58 147.839 211.256 149.879 211.256 149.879C211.256 149.879 201.667 149.359 196.306 151.185C193.155 152.241 190.155 153.701 187.379 155.529C187.379 155.529 193.055 160.415 193.952 162.434C194.486 163.828 194.62 165.343 194.339 166.809C194.339 166.809 218.4 166.575 224.25 161.455C230.1 156.335 234.145 135.142 231.282 115.846Z" fill="#DBE5FB"/>
<path d="M210.288 117.213C210.288 117.213 197.284 122.924 189.488 121.588C181.692 120.252 173.641 111.145 173.641 111.145C173.641 111.145 171.043 114.01 173.641 119.222C174.917 121.603 175.991 124.086 176.852 126.647C176.852 126.647 175.292 127.208 175.985 130.675C176.565 133.269 177.317 135.821 178.237 138.314C177.768 138.762 177.439 139.337 177.291 139.969C177.142 140.601 177.181 141.263 177.402 141.873C178.064 144.219 178.421 145.168 178.421 145.168C178.421 145.168 177.29 145.514 176.515 148.645C176.018 150.742 175.701 152.878 175.567 155.03C175.567 155.03 184.189 149.594 192.27 147.778C197.722 146.608 203.243 145.794 208.8 145.341C208.174 140.448 207.905 135.516 207.995 130.583C208.414 126.074 209.181 121.604 210.288 117.213Z" fill="#DBE5FB"/>
<path d="M183.771 128.442C181.473 128.474 179.175 128.355 176.892 128.085L177.035 127.065C184.933 128.197 206.008 126.157 206.222 126.137L206.324 127.156C205.651 127.228 193.096 128.442 183.771 128.442Z" fill="black"/>
<path d="M179.685 138.824C179.685 138.824 190.507 142.342 198.446 142.363L179.685 138.824Z" fill="white"/>
<path d="M198.426 142.873C190.497 142.873 179.623 139.344 179.511 139.303L179.827 138.283C179.929 138.283 190.66 141.781 198.426 141.802V142.873Z" fill="black"/>
<path d="M183.302 155.458C180.163 130.389 189.223 115.683 189.315 115.55L190.181 116.091C190.089 116.234 181.223 130.644 184.311 155.336L183.302 155.458Z" fill="black"/>
<path d="M219.572 94.3064C219.572 94.3064 218.38 105.413 202.971 111.145C187.562 116.876 180.551 96.3767 180.551 96.3767C180.551 96.3767 181.142 92.4706 186.309 96.2136C191.476 99.9565 200.912 93.7455 202.981 92.1341C205.05 90.5227 217.789 86.1984 219.572 94.3064Z" fill="#512DED"/>
<path d="M217.452 85.5151C214.986 78.5188 212.123 79.6304 212.642 70.319C213.162 61.0076 208.872 56.5813 203.695 57.0606C198.518 57.54 198.446 63.2513 198.446 63.2513C200.629 65.1616 202.253 67.629 203.144 70.3904C204.581 74.8778 205.356 77.3561 205.356 77.3561C205.356 77.3561 208.321 75.143 209.779 75.8671C211.236 76.5912 211.674 78.478 210.889 80.4463C210.105 82.4147 208.332 83.557 206.925 82.996C206.616 82.8673 206.343 82.6641 206.13 82.4045C204.948 90.9612 203.797 96.3666 206.915 98.1819C210.033 99.9973 219.929 92.5522 217.452 85.5151Z" fill="white"/>
<path d="M208.097 98.9468C207.596 98.9566 207.101 98.8372 206.66 98.6C203.603 96.7846 204.245 92.0218 205.274 84.8113C205.386 84.0056 205.508 83.1693 205.621 82.3024L205.784 81.1704L206.517 82.0373C206.675 82.2395 206.882 82.3976 207.119 82.4962C207.411 82.592 207.721 82.616 208.025 82.5663C208.328 82.5166 208.615 82.3946 208.861 82.2106C209.571 81.724 210.112 81.0292 210.41 80.2219C211.073 78.5799 210.685 76.8563 209.544 76.2852C208.698 75.867 206.711 76.9481 205.661 77.7334L205.091 78.1617L204.877 77.4784L202.665 70.5127C201.785 67.8673 200.22 65.5025 198.13 63.6591L197.937 63.5062V63.2614C197.937 63.19 198.079 57.0402 203.654 56.5608C204.768 56.4492 205.894 56.5842 206.95 56.956C208.007 57.3279 208.969 57.9276 209.768 58.7128C211.491 60.3955 213.478 63.8121 213.111 70.3801C212.785 76.2138 213.814 77.8252 215.231 80.0587C216.338 81.719 217.235 83.5108 217.901 85.3926C219.409 89.6557 216.688 93.878 213.641 96.3971C211.98 97.8045 209.809 98.9468 208.097 98.9468ZM206.507 83.3325C206.436 83.8832 206.354 84.4238 206.283 84.9541C205.264 91.7566 204.663 96.2543 207.18 97.7127C208.301 98.3756 210.767 97.4883 213.029 95.6118C215.812 93.3069 218.308 89.4925 216.973 85.7292C216.337 83.9272 215.474 82.2137 214.405 80.6298C212.948 78.3351 211.796 76.5503 212.133 70.3597C212.408 65.5051 211.328 61.6398 209.075 59.4675C208.373 58.783 207.528 58.2612 206.602 57.9387C205.676 57.6163 204.69 57.501 203.715 57.6011C199.567 57.9581 199.017 62.0273 198.945 63.0676C201.097 64.9986 202.707 67.46 203.613 70.2067C204.632 73.3581 205.294 75.5101 205.651 76.5197C206.67 75.867 208.708 74.735 210.013 75.3877C211.654 76.1934 212.235 78.4473 211.368 80.6094C210.988 81.6124 210.308 82.474 209.422 83.0775C209.041 83.3525 208.598 83.5297 208.132 83.5938C207.667 83.6578 207.193 83.6066 206.752 83.4447L206.507 83.3325Z" fill="black"/>
<path d="M166.752 114.531C166.752 114.531 163.236 125.178 162.584 131.114C162.322 134.038 161.845 136.939 161.157 139.793C161.157 139.793 158.161 136.407 156.062 136.407C153.963 136.407 156.062 142.363 156.062 142.363L160.933 154.112C162.928 154.084 164.864 153.428 166.465 152.236C168.066 151.044 169.251 149.377 169.85 147.472C172.347 140.588 167.14 120.385 166.752 114.531Z" fill="#DBE5FB"/>
</g>
<defs>
<clipPath id="clip0_2034_51834">
<rect width="175" height="158.458" fill="white" transform="translate(61 17)"/>
</clipPath>
</defs>
</svg>
