<svg width="300" height="200" viewBox="0 0 300 200" fill="none" xmlns="http://www.w3.org/2000/svg">
<rect width="300" height="200" rx="10" fill="#8A9AE9"/>
<g clip-path="url(#clip0_1711_52205)">
<path d="M160.519 156.394C160.519 156.394 157.053 165.967 145.547 163.018C136.232 160.619 126.434 152.897 122.688 138.857" fill="white"/>
<path d="M149.713 164.18C148.25 164.168 146.795 163.971 145.381 163.593C134.13 160.708 125.401 151.506 122.063 138.972L123.337 138.653C126.574 150.727 134.945 159.585 145.751 162.355C156.556 165.124 159.831 156.509 159.958 156.139L161.156 156.573C160.22 158.837 158.632 160.771 156.594 162.126C154.555 163.481 152.16 164.196 149.713 164.18Z" fill="black"/>
<path d="M146.885 130.051C149.994 122.891 162.57 108.047 162.57 108.047C162.589 106.616 162.928 105.207 163.56 103.924C164.193 102.641 165.104 101.516 166.227 100.631C170.152 97.3385 183.62 90.8676 183.62 90.8676" fill="white"/>
<path d="M147.471 130.306L146.312 129.808C149.255 122.98 160.404 109.63 161.921 107.817C161.988 106.336 162.371 104.887 163.043 103.566C163.716 102.245 164.662 101.084 165.82 100.159C169.757 96.8535 182.792 90.5739 183.34 90.3059L183.888 91.4546C183.761 91.4546 170.458 97.9256 166.635 101.142C165.586 101.959 164.733 103.001 164.138 104.192C163.543 105.382 163.22 106.69 163.195 108.021V108.277L163.029 108.481C162.927 108.608 150.504 123.312 147.471 130.306Z" fill="black"/>
<path d="M224.395 58.1169C224.395 58.1169 229.352 59.8655 234.869 70.4335C239.813 79.8911 241.049 100.121 229.772 112.144C222.025 120.453 214.036 81.9332 214.036 81.9332L224.395 58.1169Z" fill="black"/>
<path d="M227.593 113.982C227.305 113.981 227.018 113.943 226.74 113.867C219.859 111.94 214.112 85.1369 213.475 82.0992V81.895L224.077 57.3512L224.637 57.5427C224.854 57.6192 229.9 59.4954 235.468 70.1655C240.565 79.8401 241.61 100.529 230.371 112.603C230.03 113.015 229.606 113.35 229.128 113.587C228.65 113.825 228.127 113.959 227.593 113.982ZM214.762 82.0737C216.482 90.2805 221.923 111.225 227.084 112.706C227.511 112.797 227.956 112.761 228.364 112.602C228.771 112.443 229.123 112.169 229.377 111.812C240.246 100.159 239.189 80.1847 234.308 70.8292C230.04 62.6607 226.103 59.8783 224.714 59.087L214.762 82.0737Z" fill="black"/>
<path d="M171.426 76.3811C178.703 75.9146 185.94 74.9552 193.087 73.5094L213.73 76.445C213.73 76.445 207.906 84.7283 204.326 88.9147C200.745 93.1011 181.543 96.9683 181.543 96.9683C181.543 96.9683 180.269 94.8496 177.351 90.7143C174.38 86.4134 172.36 81.5268 171.426 76.3811Z" fill="black"/>
<path d="M179.122 54.5688C179.122 54.5688 180.651 50.3442 180.218 48.9657C176.523 37.3511 189.303 23.9624 209.091 28.5445C219.476 30.9822 228.332 44.7028 225.886 53.9179C225.694 54.6326 213.781 63.8477 213.717 63.8349C211.933 75.3219 193.495 82.4949 191.877 82.597C181.224 83.2096 176.739 76.8025 176.739 63.8349C176.917 60.6193 177.727 57.4703 179.122 54.5688Z" fill="white"/>
<path d="M190.488 83.3245C187.006 83.5297 183.584 82.3458 180.97 80.0315C177.695 76.9301 176.103 71.6461 176.103 63.886C176.291 60.5721 177.118 57.326 178.536 54.3263C179.135 52.6543 179.81 49.9612 179.607 49.1571C178.847 46.5353 178.801 43.7577 179.473 41.112C180.145 38.4663 181.511 36.0486 183.429 34.1092C189.227 27.8424 198.898 25.5451 209.27 27.9828C214.66 29.2592 219.986 33.5221 223.516 39.4698C226.561 44.5751 227.67 49.9485 226.536 54.1986C226.281 55.1686 216.189 62.916 214.342 64.2944C212.29 75.8579 193.789 83.2351 191.941 83.3372C191.419 83.3117 190.947 83.3245 190.488 83.3245ZM201.294 28.3019C194.438 28.3019 188.411 30.6248 184.385 34.9771C182.624 36.7538 181.369 38.97 180.751 41.3959C180.132 43.8219 180.173 46.3693 180.868 48.7742C181.352 50.2803 180.04 54.0455 179.772 54.773C178.423 57.6161 177.631 60.6925 177.44 63.8349C177.44 71.2249 178.906 76.2025 181.913 79.0488C184.245 81.2568 187.519 82.214 191.903 81.9588C193.585 81.8567 211.462 74.5433 213.157 63.7328L213.271 62.9798L213.679 63.1202C215.361 61.8438 224.523 54.7092 225.351 53.6626C226.357 49.757 225.351 44.7283 222.446 40.0186C219.094 34.4155 214.074 30.3568 209.003 29.1698C206.474 28.5868 203.888 28.2956 201.294 28.3019Z" fill="black"/>
<path d="M153.995 169.949C153.358 144.422 159.703 127 159.703 127C159.703 127 168.979 106.132 173.273 102.188C177.568 98.2446 187.838 94.0583 187.838 94.0583L180.817 77.2618C180.817 77.2618 190.819 76.547 199.063 75.7047C207.308 74.8623 219.451 67.4596 219.451 67.4596C224.548 74.8751 222.509 83.9625 222.509 83.9625C226.332 81.2439 230.269 85.0729 231.581 90.3442C230.804 91.9906 239.94 95.6026 243.635 102.188C247.33 108.774 249.357 115.756 247.993 119.917C247.438 121.547 246.467 123.003 245.177 124.141C245.249 132.532 244.291 140.899 242.323 149.055C238.984 164.014 237.111 170.064 237.111 170.064L153.995 169.949Z" fill="white"/>
<path d="M237.532 170.587H153.37V169.962C152.733 144.665 159.053 126.962 159.117 126.783C159.512 125.89 168.508 105.711 172.853 101.716C176.676 98.2447 184.741 94.6838 187.022 93.7138L179.887 76.6237L180.779 76.5599C180.868 76.5599 190.858 75.8324 199 75.0028C207.142 74.1732 218.941 66.9236 219.056 66.847L219.578 66.528L219.922 67.0257C222.898 71.6713 224.097 77.2377 223.299 82.699C224.384 82.2715 225.591 82.2715 226.676 82.699C229.135 83.5925 231.224 86.4387 232.155 90.1145V90.3315L232.053 90.5485C232.954 91.5317 233.983 92.3901 235.111 93.1011C237.978 95.156 241.915 97.9767 244.03 101.857C248.07 109.042 249.764 116.037 248.439 120.095C247.877 121.741 246.919 123.223 245.649 124.409C245.667 132.751 244.704 141.066 242.782 149.183C239.469 163.988 237.57 170.179 237.557 170.242L237.532 170.587ZM154.606 169.311H236.589C237.073 167.651 238.857 161.334 241.686 148.813C243.617 140.707 244.567 132.398 244.515 124.065V123.746L244.757 123.542C245.95 122.47 246.853 121.113 247.381 119.598C248.656 115.858 246.948 109.259 243.075 102.38C241.023 98.7553 237.226 95.9984 234.448 94.0328C232.116 92.3609 230.626 91.3015 230.906 90.2039C230.078 87.0769 228.268 84.588 226.281 83.8222C225.713 83.61 225.099 83.549 224.501 83.6452C223.902 83.7414 223.339 83.9915 222.866 84.371L221.515 85.3538L221.872 83.7201C221.872 83.6308 223.707 75.207 219.234 68.2127C216.788 69.6677 206.569 75.4878 199.165 76.2408C192.425 76.93 184.41 77.5171 181.785 77.7341L188.717 94.3264L188.118 94.5689C188.016 94.5689 177.924 98.7553 173.745 102.584C169.566 106.413 160.378 127.039 160.289 127.268C160.2 127.498 154.148 144.601 154.606 169.311Z" fill="black"/>
<path d="M204.9 118.104C202.76 120.778 201.631 124.123 201.714 127.549L204.9 118.104Z" fill="white"/>
<path d="M202.351 127.549H201.077C200.986 123.96 202.179 120.456 204.441 117.67L205.371 118.538C203.349 121.099 202.281 124.285 202.351 127.549Z" fill="black"/>
<path d="M240.526 119.802C239.426 117.99 237.966 116.423 236.236 115.198C234.507 113.973 232.546 113.116 230.473 112.68C227.067 111.956 223.537 112.071 220.185 113.016C216.833 113.961 213.761 115.707 211.232 118.104" fill="white"/>
<path d="M239.966 120.095C238.899 118.372 237.496 116.881 235.841 115.712C234.186 114.543 232.312 113.72 230.333 113.293C227.03 112.596 223.607 112.711 220.358 113.629C217.109 114.547 214.131 116.241 211.679 118.564L210.799 117.645C213.401 115.177 216.563 113.379 220.012 112.405C223.461 111.431 227.095 111.311 230.601 112.055C232.765 112.508 234.812 113.404 236.614 114.686C238.417 115.969 239.935 117.611 241.075 119.508L239.966 120.095Z" fill="black"/>
<path d="M192.03 142.712C192.03 142.712 196.732 133.357 199.344 130.051C202.992 125.766 206.967 121.772 211.233 118.104" fill="white"/>
<path d="M192.603 143.005L191.469 142.431C191.66 142.035 196.222 132.974 198.834 129.668C202.516 125.353 206.525 121.329 210.824 117.632L211.653 118.602C207.416 122.244 203.467 126.208 199.841 130.459C197.305 133.663 192.654 142.903 192.603 143.005Z" fill="black"/>
<path d="M240.526 130.051C238.22 135.947 234.053 145.163 228.307 152.412C222.378 159.747 215.525 166.281 207.919 171.851" fill="white"/>
<path d="M208.251 172.374L207.524 171.327C215.08 165.782 221.897 159.293 227.81 152.016C233.404 144.958 237.494 136.05 239.94 129.821L241.125 130.293C238.577 136.598 234.499 145.609 228.804 152.808C222.819 160.186 215.911 166.762 208.251 172.374Z" fill="black"/>
<path d="M181.747 69.974H181.658C179.658 69.974 178.511 67.6256 178.473 67.5235L179.619 66.9619C179.849 67.4469 180.677 68.685 181.684 68.6977C182.491 68.718 183.285 68.4958 183.964 68.0596L184.729 69.0806C183.847 69.6713 182.808 69.9826 181.747 69.974Z" fill="black"/>
<path d="M181.377 50.2419C181.377 50.2419 173.121 57.2745 172.942 59.7251C172.764 62.1756 179.046 61.563 179.046 61.563" fill="white"/>
<path d="M177.453 62.2777C175.95 62.2777 173.835 62.0862 172.866 61.1417C172.669 60.9549 172.516 60.726 172.419 60.4719C172.322 60.2178 172.283 59.9451 172.306 59.674C172.497 57.1213 179.556 50.9567 180.97 49.7441L181.786 50.7269C178.677 53.3817 173.694 58.1807 173.58 59.7633C173.571 59.8505 173.582 59.9387 173.613 60.0207C173.644 60.1027 173.694 60.1763 173.758 60.2356C174.574 61.0269 177.39 61.0779 178.982 60.9376L179.097 62.2139C178.551 62.2661 178.002 62.2874 177.453 62.2777Z" fill="black"/>
<path d="M187.405 53.7646C187.405 53.7646 187.405 51.5055 186.016 50.7269C185.585 50.5136 185.1 50.4337 184.623 50.4973C184.147 50.561 183.7 50.7653 183.34 51.0843" fill="white"/>
<path d="M188.042 53.7774H186.768C186.768 53.2541 186.602 51.7991 185.71 51.3141C185.393 51.1687 185.042 51.1167 184.696 51.1642C184.351 51.2117 184.026 51.3566 183.76 51.5821L182.907 50.6376C183.364 50.2267 183.936 49.9641 184.545 49.8843C185.155 49.8046 185.774 49.9115 186.322 50.1909C188.08 51.1226 188.042 53.6625 188.042 53.7774Z" fill="black"/>
<path d="M209.092 28.5954C219.477 31.0332 237.01 44.8303 220.216 68.6849C220.216 68.6849 215.527 66.1322 213.717 63.8859C222.777 57.1724 216.597 42.852 208.518 55.9982C196.592 50.4589 211.143 40.0696 206.161 36.8532C193.572 28.7358 181.951 37.3765 181.951 37.3765C181.951 37.3765 189.303 23.9623 209.092 28.5954Z" fill="black"/>
<path d="M220.407 69.5273L219.91 69.2465C219.706 69.1444 215.081 66.6173 213.22 64.2816L212.813 63.7583L213.335 63.3754C214.846 62.3468 216.03 60.9049 216.746 59.2214C217.462 57.5378 217.68 55.6836 217.374 53.8795C217.295 53.2851 217.044 52.7268 216.653 52.2733C216.261 51.8197 215.746 51.4908 215.17 51.3268C213.424 51.0588 211.194 52.8839 209.054 56.3556L208.761 56.8406L208.251 56.6108C207.181 56.2158 206.202 55.6086 205.373 54.8257C204.543 54.0428 203.879 53.1002 203.422 52.0543C202.339 49.106 203.817 45.9407 205.116 43.12C206.416 40.2993 207.27 38.321 205.817 37.3766C193.725 29.5909 182.41 37.7977 182.295 37.8743L179.938 39.6229L181.352 37.0702C181.429 36.9298 189.214 23.2859 209.232 27.9828C215.603 29.4761 223.414 34.6069 226.485 42.6988C229.428 50.4334 227.428 59.5464 220.725 69.055L220.407 69.5273ZM214.647 63.9625C216.282 65.4472 218.087 66.7325 220.025 67.7915C226.294 58.6912 228.065 50.3823 225.3 43.0817C222.407 35.4238 214.8 30.5354 208.939 29.157C194.923 25.8768 187.379 31.7097 184.232 35.2323C187.705 33.4194 191.594 32.559 195.506 32.7383C199.418 32.9176 203.213 34.1304 206.505 36.2534C208.964 37.8488 207.601 40.7716 206.276 43.605C205.078 46.1577 203.728 49.0805 204.607 51.531C205.326 53.1531 206.64 54.4369 208.276 55.1175C211.449 50.1909 214.061 49.7697 215.361 50.0122C216.194 50.2075 216.949 50.6491 217.528 51.2795C218.108 51.9099 218.485 52.7001 218.61 53.5476C218.983 55.481 218.809 57.4801 218.109 59.3201C217.409 61.16 216.21 62.7678 214.647 63.9625Z" fill="black"/>
<path d="M190.998 50.242C189.843 48.6435 188.159 47.5081 186.245 47.0384C185.508 46.8225 184.729 46.7874 183.975 46.9363C183.221 47.0851 182.514 47.4134 181.913 47.8936" fill="white"/>
<path d="M191.418 49.9994C190.349 48.4585 188.805 47.3108 187.022 46.732C185.366 46.2342 182.894 46.1959 181.569 47.5616C181.148 47.9956 181.824 48.672 182.244 48.2381C182.309 48.1564 182.392 48.0909 182.486 48.0466C182.764 47.8638 183.063 47.7179 183.378 47.6127C184.531 47.2717 185.761 47.303 186.895 47.702C187.913 48.055 188.84 48.6305 189.609 49.3868C189.971 49.7196 190.3 50.0873 190.59 50.4844C190.934 50.9822 191.763 50.4844 191.418 49.9994Z" fill="black"/>
<path d="M187.71 58.4105H187.226C183.404 57.951 181.327 57.0575 181.034 53.5859L182.308 53.4711C182.512 55.8706 183.582 56.7002 187.405 57.1341C187.686 57.1865 187.975 57.1748 188.25 57.0996C188.526 57.0245 188.782 56.8879 188.997 56.7002C189.817 55.6463 190.233 54.3333 190.17 52.9988V52.7053L191.163 51.8246L191.227 51.1099C189.604 50.4482 187.945 49.8772 186.258 49.3996C184.614 48.9755 182.892 48.9536 181.237 49.3358L180.753 49.4123L180.549 48.136L181.021 48.0594C182.858 47.6486 184.766 47.6793 186.589 48.1488C188.479 48.6851 190.334 49.3373 192.145 50.1016L192.578 50.2802L192.387 52.4245L191.444 53.2669C191.459 54.8672 190.893 56.4185 189.851 57.6319C189.265 58.159 188.498 58.438 187.71 58.4105Z" fill="black"/>
<path d="M153.192 142.253C151.764 136.47 148.755 131.202 144.502 127.039C143.24 125.843 141.913 124.718 140.526 123.669" fill="white"/>
<path d="M152.568 142.355C151.163 136.695 148.222 131.535 144.069 127.447C142.794 126.273 141.52 125.15 140.144 124.103L140.921 123.095C142.32 124.161 143.66 125.303 144.935 126.515C149.323 130.758 152.416 136.163 153.855 142.099L152.568 142.355Z" fill="black"/>
<path d="M188.551 80.6186L192.501 96.3046L204.874 111.021C204.874 111.021 210.519 105.188 217.055 103.427C223.592 101.665 236.462 101.295 236.462 101.295L219.693 86.6301L218.279 73.5094C218.279 73.5094 205.689 84.9198 188.551 80.6186Z" fill="#DBE5FB"/>
<path d="M194.133 94.4157L193.916 93.1394C213.284 89.7826 217.795 85.3282 217.833 85.2899L218.763 86.1706C218.572 86.3748 214.036 90.9441 194.133 94.4157Z" fill="black"/>
<path d="M187.022 98.7808L200.121 112.157C196.049 115.075 192.843 119.045 190.845 123.644C188.297 129.579 190.845 140.912 190.845 140.912L169.591 120.734C170.873 116.088 173.078 111.749 176.073 107.977C179.068 104.205 182.792 101.077 187.022 98.7808Z" fill="#DBE5FB"/>
<path d="M153.128 169.004C153.128 169.004 182.321 178.653 193.113 177.032C199 176.152 210.786 171.493 211.232 167.256" fill="white"/>
<path d="M190.297 177.862C178.039 177.862 154.033 169.974 152.938 169.604L153.333 168.392C153.626 168.494 182.512 177.99 193.024 176.407C199.395 175.45 210.226 170.753 210.608 167.192L211.882 167.332C211.36 172.31 198.401 176.892 193.228 177.671C192.257 177.805 191.278 177.869 190.297 177.862Z" fill="black"/>
<path d="M200.835 143.746C200.835 143.746 189.915 140.006 165.157 146.758C159.232 148.379 153.906 153.357 153.906 153.357" fill="white"/>
<path d="M154.377 153.842L153.511 152.91C153.727 152.706 159.015 147.804 164.979 146.158C189.622 139.432 200.555 142.993 201.001 143.159L200.593 144.358C200.478 144.358 189.507 140.785 165.323 147.383C159.665 148.928 154.428 153.842 154.377 153.842Z" fill="black"/>
<path d="M141.597 129.004C141.597 129.004 140.87 133.816 135.366 138.819C129.861 143.822 127.657 142.252 127.657 142.252C127.657 142.252 134.512 158.679 143.317 159.202C152.122 159.725 153.128 147.268 153.128 147.268C153.128 147.268 151.969 141.959 149.395 147C146.821 152.042 149.051 134.084 141.597 129.004Z" fill="#DBE5FB"/>
<path d="M104.811 149.796L144.184 130.013L113.195 116.088L62.6597 130.855L104.811 149.796Z" fill="#512DED"/>
<path d="M104.823 150.498L60.812 130.727L113.233 115.411L145.674 129.987L104.823 150.498ZM64.4945 130.982L104.798 149.094L142.68 130.038L113.144 116.828L64.4945 130.982Z" fill="black"/>
<path d="M61.2578 130.064L113.195 116.088L102.134 67.8425L50.7583 73.2414L61.2578 130.064Z" fill="white"/>
<path d="M60.748 130.868L50.0063 72.6798L102.618 67.1533L113.946 116.547L60.748 130.868ZM51.5099 73.803L61.7036 129.272L112.379 115.641L101.586 68.5445L51.5099 73.803Z" fill="black"/>
<path d="M141.915 124.728C141.915 124.728 136.08 114.952 126.803 118.104C117.527 121.257 115.743 117.109 114.762 119.84C113.781 122.571 119.094 125.469 123.388 124.026C127.682 122.584 136.13 125.545 136.13 125.545" fill="white"/>
<path d="M135.863 126.158C135.786 126.158 127.619 123.286 123.592 124.639C122.137 125.09 120.591 125.16 119.101 124.843C117.611 124.526 116.227 123.832 115.08 122.827C114.632 122.44 114.307 121.931 114.144 121.362C113.981 120.793 113.988 120.189 114.163 119.623C114.775 117.926 115.883 118.143 117.17 118.347C118.788 118.666 121.515 119.189 126.599 117.466C136.245 114.186 142.399 124.256 142.463 124.358L141.367 125.009C141.138 124.626 135.672 115.73 127.007 118.628C121.604 120.465 118.674 119.904 116.928 119.547C115.654 119.291 115.654 119.317 115.361 119.968C115.28 120.309 115.297 120.666 115.41 120.998C115.522 121.33 115.726 121.623 115.998 121.844C116.97 122.684 118.141 123.262 119.398 123.523C120.655 123.785 121.959 123.721 123.184 123.337C127.631 121.844 135.927 124.741 136.283 124.856L135.863 126.158Z" fill="black"/>
<path d="M159.627 158.13C157.397 152.757 154.53 153.025 154.53 153.025C154.53 153.025 143.929 153.178 141.877 153.242C139.826 153.305 135.774 153.918 131.747 158.832C129.27 162.028 127.829 165.908 127.619 169.949H131.747L141.062 170.587L140.692 171.672L145.165 171.812L149.663 167.332L154.632 169.515C154.632 169.515 161.857 163.491 159.627 158.13Z" fill="white"/>
<path d="M145.458 172.489L139.851 172.323L140.234 171.2L131.735 170.625H127.02V169.987C127.235 165.811 128.725 161.801 131.289 158.5C134.347 154.786 137.915 152.821 141.89 152.693C143.929 152.616 154.454 152.463 154.556 152.463C154.658 152.463 157.83 152.208 160.213 157.951C162.596 163.695 155.397 169.859 155.116 170.115L154.811 170.383L149.867 168.2L145.458 172.489ZM141.635 171.098L144.961 171.2L149.574 166.605L154.568 168.8C155.843 167.626 160.838 162.648 159.054 158.373C157.066 153.586 154.645 153.65 154.619 153.663C154.594 153.676 143.98 153.816 141.941 153.88C138.348 154.007 135.099 155.807 132.283 159.24C130.031 162.147 128.668 165.645 128.358 169.311H131.798L141.992 170L141.635 171.098Z" fill="black"/>
<path d="M137.265 158.832C135.631 159.876 134.348 161.388 133.582 163.172C132.703 165.724 131.786 169.987 131.786 169.987" fill="white"/>
<path d="M132.397 170.128L131.123 169.847C131.123 169.681 132.066 165.571 132.945 162.967C133.752 161.037 135.131 159.402 136.895 158.283L137.558 159.368C136.056 160.344 134.869 161.737 134.143 163.376C133.327 165.916 132.41 170.076 132.397 170.128Z" fill="black"/>
<path d="M142.68 158.832C140.297 160.37 138.436 162.595 137.341 165.214C135.94 169.196 136.335 170.319 136.335 170.319" fill="white"/>
<path d="M135.735 170.434C135.659 170.23 135.328 168.966 136.742 164.971C137.881 162.205 139.837 159.854 142.348 158.232L143.024 159.317C140.759 160.789 138.985 162.905 137.927 165.392C136.653 168.928 136.933 170.013 136.933 170.025L135.735 170.434Z" fill="black"/>
<path d="M146.566 161.206C144.846 162.482 141.1 170.625 141.1 170.625L146.566 161.206Z" fill="white"/>
<path d="M141.686 170.893L140.526 170.357C140.921 169.515 144.349 162.048 146.184 160.695L146.948 161.717C145.776 162.597 143.164 167.69 141.686 170.893Z" fill="black"/>
<path d="M49.7773 27.6637H77.1091L88.5133 86.5408L62.5577 92.2715L49.7773 27.6637Z" fill="white"/>
<path d="M62.0479 93.0372L49 27.0255H77.6952L89.316 87.013L62.0479 93.0372ZM50.58 28.3018L63.08 91.5057L87.787 86.0557L76.5994 28.3018H50.58Z" fill="black"/>
<path d="M88.3604 42.15L115.488 41.014L126.892 97.9766L100.695 102.214L88.3604 42.15Z" fill="white"/>
<path d="M100.198 102.942L87.583 41.5246L115.998 40.3376L127.644 98.4872L100.198 102.942ZM89.163 42.801L101.23 101.512L126.115 97.4534L114.94 41.6778L89.163 42.801Z" fill="black"/>
<path d="M184.448 54.2615C185.016 54.2157 185.413 53.3812 185.334 52.3975C185.255 51.4138 184.73 50.6535 184.162 50.6993C183.594 50.7451 183.197 51.5796 183.276 52.5633C183.355 53.547 183.88 54.3073 184.448 54.2615Z" fill="black"/>
<path d="M52.7588 31.046L55.4983 42.5585L76.7649 41.0141L74.9173 31.046H52.7588Z" fill="#181833"/>
<path d="M130.294 66.7832L157.269 65.0857L162.838 92.8586L136.882 98.5893L130.294 66.7832Z" fill="white"/>
<path d="M136.386 99.3551L129.518 66.1706L157.792 64.3965L163.59 93.3309L136.386 99.3551ZM131.059 67.3703L137.43 97.8235L162.137 92.3736L156.76 65.7749L131.059 67.3703Z" fill="black"/>
<path d="M133.276 70.1654L136.016 81.6779L157.27 80.1335L155.091 68.4679L133.276 70.1654Z" fill="#181833"/>
<path d="M91.8516 45.1111L95.19 59.9037L116.877 57.7723L114.061 43.873L91.8516 45.1111Z" fill="#181833"/>
<path d="M204.543 164.55C204.543 164.55 230.422 149.438 234.003 135.437C237.583 121.436 232.372 115.756 220.993 122.827C209.614 129.898 206.161 148.034 206.161 148.034C206.161 148.034 186.5 145.584 176.74 149.796C166.979 154.008 162.838 154.658 162.838 154.658C162.838 154.658 164.877 164.793 162.838 165.916C160.799 167.039 191.52 173.574 204.543 164.55Z" fill="#DBE5FB"/>
</g>
<defs>
<clipPath id="clip0_1711_52205">
<rect width="200" height="150.862" fill="white" transform="translate(49 27)"/>
</clipPath>
</defs>
</svg>
