<svg width="300" height="200" viewBox="0 0 300 200" fill="none" xmlns="http://www.w3.org/2000/svg">
<rect width="300" height="200" rx="10" fill="#9AE8DA"/>
<g clip-path="url(#clip0_1711_52154)">
<path d="M224.587 153.32C224.587 153.32 212.763 130.173 206.438 122.305C200.114 114.437 193.247 107.569 193.247 107.569C193.247 107.569 195.428 103.452 194.573 102.869C193.717 102.285 191.348 103.484 191.348 103.484C191.348 103.484 188.489 100.138 180.745 98.4603C173.002 96.7824 162.879 95.6986 162.879 95.6986L166.009 85.4645C166.009 85.4645 162.576 84.1514 156.534 86.4129C150.491 88.6744 145.284 99.6692 145.284 99.6692C142.285 94.3642 138.259 89.7089 133.439 85.9752C125.633 80.0453 117.649 84.933 117.649 84.933L117.367 95.0003C117.367 95.0003 104.625 95.3859 99.4278 96.3656C94.2307 97.3452 89.6597 98.5958 89.6597 98.5958C89.6597 98.5958 87.3324 95.1567 84.2747 96.6574C81.217 98.1581 84.3269 102.775 84.3269 102.775C84.3269 102.775 79.2654 109.288 70.0504 124.191C67.2223 128.777 65.1455 136.26 63.6323 144.43" fill="white"/>
<path d="M223.929 153.653C223.804 153.424 212.064 130.486 205.865 122.764C199.666 115.041 192.788 108.173 192.715 108.111L192.329 107.725L192.59 107.246C193.263 106.071 193.749 104.798 194.03 103.473C193.207 103.53 192.405 103.764 191.682 104.161L191.16 104.432L190.785 103.984C190.785 103.984 187.946 100.795 180.589 99.2107C172.97 97.5537 162.9 96.4699 162.847 96.4595L161.95 96.3656L165.154 86.0169C162.345 85.6376 159.486 86.0229 156.878 87.132C151.19 89.2164 146.098 99.8986 146.045 100.003L145.398 101.358L144.71 100.034C141.756 94.8307 137.802 90.2618 133.073 86.5901C131.011 85.0106 128.538 84.0559 125.947 83.8398C123.357 83.6236 120.76 84.1551 118.463 85.3708L118.171 95.7091H117.472C117.346 95.7091 104.729 96.0946 99.6574 97.0639C94.5856 98.0331 89.9833 99.2733 89.9311 99.2837L89.4197 99.4296L89.1275 98.9815C89.044 98.8668 87.103 96.1051 84.6922 97.2932C84.4771 97.3883 84.2869 97.5319 84.1366 97.7127C83.9863 97.8935 83.88 98.1066 83.826 98.3353C83.4712 99.6485 84.5774 101.702 85.0262 102.379L85.3288 102.817L85.0053 103.244C84.9531 103.306 79.8499 109.903 70.7706 124.588C68.2868 128.61 66.1579 135.332 64.4464 144.576L62.9854 144.305C64.7282 134.926 66.9302 127.985 69.5078 123.816C77.3662 111.091 82.2711 104.401 83.513 102.744C82.9703 101.816 81.9267 99.711 82.3963 97.9497C82.5085 97.5256 82.7137 97.1316 82.997 96.7963C83.2804 96.4611 83.6349 96.1929 84.0348 96.0113C86.6125 94.7294 88.9188 96.4177 90.0355 97.7725C91.3504 97.4182 95.1908 96.449 99.4279 95.6882C103.978 94.8128 114.038 94.4168 116.783 94.323L117.054 84.5474L117.399 84.3391C117.482 84.3391 125.904 79.295 134.023 85.4542C138.56 88.9646 142.412 93.2778 145.388 98.179C146.974 95.1671 151.347 87.6948 156.408 85.798C162.67 83.4636 166.27 84.7559 166.417 84.8497L167.064 85.0998L163.933 95.1359C166.583 95.4485 174.63 96.4386 180.985 97.8143C187.341 99.1899 190.534 101.681 191.588 102.66C192.506 102.264 194.145 101.701 195.074 102.327C195.408 102.556 196.399 103.233 194.239 107.538C195.773 109.09 201.669 115.166 207.106 121.92C213.368 129.767 224.848 152.142 225.328 153.06L223.929 153.653Z" fill="black"/>
<path d="M218.555 171.631L233.259 170.745C233.259 170.745 233.896 150.152 219.202 147.255C204.508 144.357 194.604 166.67 194.604 166.67L211.75 169.369L218.555 171.631Z" fill="#2D2A54"/>
<path d="M218.461 172.371L211.521 170.078L193.529 167.254L193.926 166.368C194.343 165.44 204.226 143.524 219.338 146.567C234.449 149.61 234.011 170.599 233.948 170.808V171.485L218.461 172.371ZM195.7 166.118L211.865 168.661L218.649 170.901L232.476 170.099C232.414 166.587 231.433 150.485 219.014 148.036C206.595 145.587 197.714 162.053 195.7 166.097V166.118Z" fill="black"/>
<path d="M95.9424 150.84C95.9424 150.84 93.0308 149.558 89.3886 153.57C85.7465 157.582 82.8974 169.505 82.8974 169.505H55.7117C55.169 167.681 53.0296 154.373 57.6736 147.317C61.4738 141.494 66.3382 136.439 72.0127 132.414" fill="white"/>
<path d="M83.492 170.245H55.1583L55.0018 169.713C54.4904 168.035 52.1528 154.362 57.089 146.911C60.9549 140.991 65.9132 135.859 71.6994 131.789L72.5029 133.039C66.9246 137.017 62.1364 141.996 58.383 147.724C54.2086 154.091 55.7532 165.836 56.3793 168.765H82.4067C83.0329 166.295 85.6105 156.707 88.9188 153.07C92.874 148.724 96.224 150.1 96.3283 150.162L95.7335 151.517C95.6395 151.517 93.2079 150.558 90.0145 154.06C86.5393 157.885 83.7529 169.557 83.7529 169.692L83.492 170.245Z" fill="black"/>
<path d="M213.462 168.682H104.103V172.819H213.462V168.682Z" fill="black"/>
<path d="M92.8424 149.923C92.8424 149.923 88.5115 148.453 81.0915 146.65C73.6715 144.847 77.8146 141.627 79.2339 140.397" fill="white"/>
<path d="M92.634 150.621C92.634 150.621 88.2509 149.151 80.9457 147.369C78.034 146.661 76.4686 145.639 76.1347 144.243C75.7172 142.429 77.6166 140.835 78.6289 139.98L78.7854 139.855L79.7455 140.981L79.589 141.116C78.8689 141.721 77.3661 142.982 77.5853 143.909C77.6896 144.347 78.3054 145.191 81.2901 145.921C88.6683 147.713 93.0619 149.193 93.114 149.203L92.634 150.621Z" fill="black"/>
<path d="M94.5332 159.073L105.627 141.273L104.124 118.23" fill="white"/>
<path d="M95.1597 159.469L93.897 158.687L104.865 141.075L103.383 118.282L104.865 118.189L106.378 141.46L95.1597 159.469Z" fill="black"/>
<path d="M103.07 115.74C103.07 115.74 96.2659 109.07 92.7803 108.319C89.6905 107.849 86.5633 107.672 83.4401 107.788L72.7432 124.244C77.3195 124.56 81.7336 126.066 85.5481 128.61C88.1113 130.468 90.7959 132.153 93.5838 133.654L103.07 115.74Z" fill="#181833"/>
<path d="M90.0981 135.384L89.4198 134.978C85.7914 132.829 82.0344 130.904 78.1698 129.215C72.3987 126.724 68.7252 128.047 68.6939 128.058L68.1616 126.672C68.3286 126.609 72.3882 125.109 78.7542 127.86C82.4404 129.466 86.0295 131.286 89.5032 133.31L101.682 110.122C100.451 108.549 94.7839 102.421 83.0225 105.537L82.6468 104.098C96.871 100.347 103.112 109.559 103.174 109.653L103.414 110.018L90.0981 135.384Z" fill="black"/>
<path d="M175.747 106.933C175.747 106.933 170.633 109.945 154.363 111.008C149.652 111.264 144.928 111.219 140.222 110.873C140.087 109.351 139.888 107.809 139.607 106.277C137.52 94.917 123.671 85.9856 121.625 87.4134C119.58 88.8411 120.467 97.5849 120.467 97.5849L97.7271 99.9194C97.7271 99.9194 104.677 102.796 107.986 105.245C110.125 106.839 110.96 112.717 111.116 115.343C111.544 141.137 109.259 148.193 109.259 148.193C109.259 148.193 116.564 149.797 120.916 151.319C125.268 152.841 128.597 159.844 128.597 159.844L176.988 156.061C176.988 156.061 181.33 141.616 182.509 134.29C183.688 126.964 175.747 106.933 175.747 106.933Z" fill="#DBE5FB"/>
<path d="M110.577 134.864L105.055 140.821L106.142 141.827L111.665 135.869L110.577 134.864Z" fill="black"/>
<path d="M129.411 147.536C115.844 147.536 108.601 142.888 108.257 142.659L109.081 141.418C109.165 141.481 118.474 147.421 135.359 145.764L135.505 147.234C133.48 147.438 131.446 147.539 129.411 147.536Z" fill="black"/>
<path d="M94.1998 152.778C94.1998 152.778 102.945 150.266 105.126 150.569C107.307 150.871 114.091 154.612 117.848 160.261C121.605 165.909 120.436 172.683 120.436 172.683L114.915 171.37L102.027 170.589L102.298 171.787L97.5393 171.443L93.2396 166.232L85.4857 171.443L71.585 170.662C71.585 170.662 76.5629 157.27 83.7012 153.414C87.4165 151.272 91.3484 149.529 95.4312 148.213L94.1998 152.778Z" fill="#2D2A54"/>
<path d="M121.03 173.59L114.769 172.089L103.018 171.391L103.289 172.59L97.2049 172.162L93.1245 167.202L85.7358 172.121L70.5723 171.277L70.9271 170.328C71.1358 169.776 76.0929 156.634 83.3981 152.684C87.1602 150.552 91.1376 148.823 95.2638 147.526L96.5162 147.192L95.2951 151.715C97.8728 151.006 103.425 149.579 105.262 149.829C107.714 150.173 114.654 153.997 118.494 159.844C122.335 165.691 121.239 172.517 121.197 172.809L121.03 173.59ZM101.087 169.786L114.957 170.63L119.768 171.766C120.133 167.908 119.244 164.034 117.232 160.719C113.569 155.217 106.931 151.611 105.032 151.34C103.529 151.142 97.8624 152.538 94.4081 153.539L93.1453 153.904L94.3559 149.402C90.8067 150.665 87.3655 152.212 84.066 154.029C78.3367 157.155 73.9431 166.868 72.6595 169.953L85.287 170.651L93.3958 165.263L97.9146 170.766L101.358 171.016L101.087 169.786Z" fill="black"/>
<path d="M110.292 158.948C111.911 160.237 113.11 161.978 113.735 163.95C114.393 166.806 114.915 171.37 114.915 171.37" fill="#FFDE15"/>
<path d="M114.174 171.454C114.174 171.454 113.652 166.889 113.016 164.158C112.441 162.361 111.353 160.771 109.885 159.583L110.782 158.406C112.547 159.79 113.843 161.682 114.497 163.825C115.155 166.681 115.666 171.12 115.698 171.329L114.174 171.454Z" fill="black"/>
<path d="M103.675 158.406C106.042 160.301 107.781 162.865 108.664 165.763C109.707 170.13 109.196 171.214 109.196 171.214" fill="#FFDE15"/>
<path d="M109.853 171.537L108.528 170.881C108.528 170.881 108.872 169.745 107.944 165.941C107.1 163.206 105.457 160.785 103.227 158.989L104.134 157.812C106.625 159.813 108.445 162.525 109.352 165.586C110.438 169.89 110.01 171.235 109.853 171.537Z" fill="black"/>
<path d="M97.2466 160.021C98.9372 161.584 102.037 170.589 102.037 170.589L97.2466 160.021Z" fill="#FFDE15"/>
<path d="M101.337 170.828C100.158 167.41 97.8831 161.605 96.7456 160.574L97.7892 159.479C99.5633 161.115 102.444 169.411 102.767 170.349L101.337 170.828Z" fill="black"/>
<path d="M226.945 104.682H140.389L126.906 168.682H213.462L226.945 104.682Z" fill="white"/>
<path d="M214.057 169.421H126.029L139.836 103.932H227.905L214.057 169.421ZM127.824 167.931H212.857L226.027 105.401H140.995L127.824 167.931Z" fill="black"/>
<path d="M170.549 43.0797C171.415 49.3327 172.803 56.7946 170.549 60.5985L170.309 62.2868C170.309 62.2868 171.134 65.726 168.556 73.3964C165.978 81.0667 166.177 81.7337 162.743 87.3718C159.31 93.0099 152.651 95.6257 147.089 94.1875C141.527 92.7493 129.348 83.5262 128.002 79.2325C126.655 74.9387 127.073 58.5872 127.073 58.5872" fill="white"/>
<path d="M150.157 95.313C149.052 95.3192 147.951 95.1826 146.88 94.9066C141.245 93.458 128.774 84.141 127.261 79.4617C125.852 75.1055 126.29 59.275 126.311 58.6184H127.793C127.793 58.7747 127.344 74.8553 128.68 78.9823C129.922 82.8279 141.725 92.0198 147.246 93.4371C152.766 94.8545 158.944 92.1031 162.117 86.9548C164.109 83.9238 165.606 80.5961 166.552 77.096C166.907 76.0538 167.324 74.7094 167.857 73.1253C170.309 65.8302 169.589 62.4535 169.579 62.4223V62.2868L169.933 60.2024C171.833 57.003 170.914 50.6562 170.1 45.0598L169.829 43.1735L171.301 42.9755L171.572 44.8409C172.407 50.6249 173.356 57.1594 171.28 60.8278L171.081 62.2555C171.217 63.0267 171.624 66.6326 169.286 73.6151C168.754 75.1992 168.337 76.4811 167.992 77.5753C167.001 81.1838 165.452 84.6156 163.401 87.7469C162.007 90.0174 160.064 91.9008 157.749 93.2232C155.434 94.5455 152.823 95.2643 150.157 95.313Z" fill="black"/>
<path d="M126.238 71.8643C127.209 77.0752 133.627 67.0912 133.627 67.0912C133.627 67.0912 138.552 63.6833 135.432 55.5336C132.312 47.3839 143.103 44.372 143.103 44.372C152.589 42.2877 160.739 51.0001 160.739 51.0001C160.739 51.0001 167.721 45.237 171.321 46.2062L171.854 47.561C172.772 33.7106 161.919 29.2606 149.009 29.0105C136.1 28.7603 125.487 32.2829 124.6 40.1512C123.712 48.0196 123.013 54.4914 126.238 71.8643Z" fill="black"/>
<path d="M162.294 61.1613C161.389 62.0372 160.685 63.1 160.233 64.2753C159.78 65.4506 159.59 66.7103 159.675 67.9666C159.946 72.3125 162.305 73.4901 161.679 75.6162C161.053 77.7422 158.444 78.6593 155.803 75.9809" fill="white"/>
<path d="M159.059 78.3882C158.334 78.3498 157.625 78.1635 156.976 77.8409C156.326 77.5183 155.749 77.0661 155.281 76.5124L156.325 75.4702C156.7 75.955 157.194 76.3358 157.758 76.5765C158.323 76.8173 158.939 76.91 159.55 76.8459C159.888 76.753 160.197 76.5718 160.442 76.3209C160.688 76.07 160.862 75.7585 160.948 75.4181C161.167 74.699 160.948 74.1362 160.384 73.0524C159.541 71.4988 159.043 69.7819 158.923 68.0187C158.831 66.6483 159.041 65.2744 159.539 63.994C160.036 62.7136 160.81 61.5581 161.804 60.6089L162.764 61.7344C161.948 62.5421 161.319 63.5188 160.922 64.5957C160.526 65.6726 160.37 66.8233 160.468 67.9666C160.574 69.5335 161.019 71.0588 161.772 72.4375C162.11 72.9363 162.343 73.498 162.458 74.089C162.573 74.68 162.567 75.288 162.44 75.8767C162.28 76.4661 161.967 77.003 161.533 77.433C161.099 77.863 160.559 78.1709 159.967 78.3257C159.668 78.3841 159.363 78.4051 159.059 78.3882Z" fill="black"/>
<path d="M146.473 58.9623C146.473 58.9623 152.39 56.8779 155.803 58.9623H146.473Z" fill="white"/>
<path d="M146.964 60.3587L145.972 57.5657C146.651 57.326 152.683 55.3146 156.586 57.7012L155.031 60.2337C152.724 58.8163 148.425 59.8481 146.964 60.3587Z" fill="black"/>
<path d="M163.202 60.3483C163.202 60.3483 164.809 57.7012 170.507 58.7434L163.202 60.3483Z" fill="white"/>
<path d="M164.444 61.1612L161.929 59.6292C162.148 59.2645 164.267 56.138 170.81 57.326L170.278 60.2441C165.78 59.3896 164.496 61.0882 164.444 61.1612Z" fill="black"/>
<path d="M144.939 64.3503C144.939 64.3503 151.89 62.5786 154.332 64.3503H144.939Z" fill="white"/>
<path d="M145.117 65.0693L144.751 63.6312C145.503 63.4436 152.119 61.8386 154.728 63.7562L153.852 64.9442C152.119 63.6728 146.964 64.6003 145.117 65.0693Z" fill="black"/>
<path d="M163.202 65.6217C163.202 65.6217 166.333 63.85 169.078 64.4857L163.202 65.6217Z" fill="white"/>
<path d="M163.599 66.2678L162.868 64.9755C163.004 64.9026 166.249 63.0787 169.276 63.7666L168.942 65.2048C166.458 64.6524 163.599 66.2469 163.599 66.2678Z" fill="black"/>
<path d="M151.67 67.8207C152.454 67.8207 153.09 67.1861 153.09 66.4033C153.09 65.6205 152.454 64.986 151.67 64.986C150.886 64.986 150.251 65.6205 150.251 66.4033C150.251 67.1861 150.886 67.8207 151.67 67.8207Z" fill="black"/>
<path d="M167.665 67.1566C167.808 66.4689 167.457 65.815 166.881 65.696C166.305 65.5769 165.723 66.0378 165.58 66.7254C165.438 67.413 165.789 68.067 166.365 68.186C166.94 68.3051 167.523 67.8442 167.665 67.1566Z" fill="black"/>
<path d="M131.362 58.9623C138.939 58.0348 138.313 75.4599 144.125 78.6697C149.938 81.8796 155.323 76.0331 157.89 79.7119C157.89 79.7119 161.021 76.9501 163.86 79.4096C163.86 79.4096 166.333 80.1705 167.314 77.1794C168.295 74.1884 166.938 83.5783 166.636 90.863C166.333 98.1478 149.396 104.026 144.125 97.658C138.855 91.2903 124.6 90.3629 127 67.8C133.084 71.0932 131.54 67.8208 131.362 58.9623Z" fill="black"/>
<path d="M124.662 52.084C120.425 52.4592 122.46 67.185 127.615 68.644L131.414 60.6089C132.364 55.8671 128.909 51.7088 124.662 52.084Z" fill="white"/>
<path d="M128.012 69.5298L127.417 69.3631C123.316 68.1959 121.26 60.39 121.688 55.7315C122.032 52.1152 123.66 51.4274 124.6 51.344C125.664 51.2561 126.733 51.4187 127.723 51.8187C128.713 52.2187 129.594 52.845 130.298 53.6472C131.136 54.606 131.739 55.7463 132.06 56.9781C132.38 58.21 132.409 59.4994 132.145 60.7444L132.093 60.9215L128.012 69.5298ZM125.194 52.8552H124.735C123.921 52.9281 123.347 54.0641 123.17 55.9087C122.773 60.1712 124.641 66.2574 127.24 67.7165L130.705 60.4213C130.907 59.4139 130.876 58.3736 130.614 57.38C130.351 56.3865 129.865 55.4661 129.191 54.6894C128.698 54.1089 128.086 53.6403 127.397 53.315C126.708 52.9897 125.957 52.8151 125.194 52.8031V52.8552Z" fill="black"/>
</g>
<defs>
<clipPath id="clip0_1711_52154">
<rect width="180" height="144.59" fill="white" transform="translate(54 29)"/>
</clipPath>
</defs>
</svg>
