<svg width="300" height="200" viewBox="0 0 300 200" fill="none" xmlns="http://www.w3.org/2000/svg">
<rect width="300" height="200" rx="10" fill="#DBE5FB"/>
<path d="M189.994 39.7168L208.222 40.3839C208.096 43.649 207.032 46.8157 205.148 49.5298C203.265 52.2438 200.636 54.3982 197.557 55.7516C194.478 57.1051 191.07 57.6044 187.714 57.1936C184.358 56.7827 181.187 55.478 178.555 53.4254C175.923 51.3729 173.934 48.6533 172.811 45.5712C171.688 42.4892 171.476 39.1661 172.197 35.9739C172.918 32.7816 174.545 29.8462 176.895 27.496C179.245 25.1459 182.226 23.4737 185.504 22.6666L189.994 39.7168Z" fill="white"/>
<path d="M189.959 59.9905H189.185C183.906 59.7636 178.929 57.4496 175.338 53.5521C171.747 49.6546 169.833 44.4892 170.012 39.1799C170.196 34.8499 171.764 30.695 174.482 27.3309C177.2 23.9667 180.924 21.5723 185.102 20.5025L187.092 20L191.6 37.9474L210 38.649L209.925 40.7158C209.704 45.8886 207.511 50.7774 203.8 54.3681C200.09 57.9587 195.147 59.9755 189.996 60L189.959 59.9905ZM184.111 25.1292C180.73 26.4736 177.912 28.9459 176.13 32.1313C174.347 35.3168 173.709 39.0215 174.321 42.6241C174.934 46.2268 176.76 49.508 179.494 51.9174C182.228 54.3268 185.703 55.7177 189.336 55.8568C193.179 55.9827 196.937 54.7089 199.92 52.27C202.902 49.831 204.908 46.3911 205.567 42.5836L188.336 41.9199L184.111 25.1292Z" fill="#512DED"/>
<path d="M189.556 39.5555L193.783 22.6666C196.668 23.3391 199.336 24.6955 201.546 26.6139C203.756 28.5323 205.439 30.9526 206.445 33.6572L189.556 39.5555Z" fill="white"/>
<path d="M187.778 42.2222L193.118 20.8889L194.643 21.2414C197.829 21.9898 200.772 23.4943 203.206 25.619C205.64 27.7436 207.488 30.4215 208.584 33.4107L209.111 34.8298L187.778 42.2222ZM195.4 24.5991L192.207 37.4733L205.055 33.0211C204.113 31.0688 202.773 29.3209 201.115 27.8825C199.453 26.4418 197.51 25.338 195.4 24.6362V24.5991Z" fill="black"/>
<path d="M190 57.3334C200.064 57.3334 208.222 49.374 208.222 39.5556C208.222 29.7372 200.064 21.7778 190 21.7778C179.936 21.7778 171.778 29.7372 171.778 39.5556C171.778 49.374 179.936 57.3334 190 57.3334Z" fill="white"/>
<path d="M183.333 178.821L110.444 179.111V108.29L183.333 108V178.821Z" fill="white"/>
<path d="M109.556 180V107.404L183.333 107.111V179.707L109.556 180ZM110.58 108.436V178.968L182.309 178.675V108.143L110.58 108.436Z" fill="black"/>
<path d="M193.277 139.879C182.86 135.796 175.217 144.478 175.217 144.478L156.476 146.42C156.476 146.42 157.357 154.557 167.035 161.531C172.613 165.658 179.445 167.777 186.402 167.537C186.402 167.537 201.194 167.584 200.172 148.157C199.906 143.117 196.847 105.341 189.612 94.3322C182.377 83.3233 172.613 84.0084 172.613 84.0084L117.307 89.6395C115.07 89.7265 112.875 90.2668 110.857 91.2273C108.838 92.1877 107.04 93.5479 105.573 95.2238C100.242 101.033 94.2091 114.989 91.1692 131.066C89.3379 140.716 89.6611 150.647 92.1162 160.16C92.1162 160.16 104.541 171.423 116.824 161.23C129.107 151.038 126.379 144.468 126.379 144.468H108.386C108.386 144.468 105.356 139.729 97.3438 139.334" fill="white"/>
<path d="M185.318 168.444C178.728 168.325 172.34 166.156 167.041 162.238C157.297 155.152 156.322 146.987 156.284 146.647L156.228 146.126L175.271 144.139C176.387 142.966 183.908 135.625 193.747 139.513L193.368 140.459C183.435 136.533 175.98 144.868 175.905 144.953L175.772 145.104L157.391 146.997C157.779 148.889 159.652 155.511 167.646 161.358C173.131 165.419 179.821 167.518 186.642 167.319C190.067 167.142 193.301 165.687 195.705 163.241C198.855 159.92 200.274 154.906 199.934 148.321C199.934 147.914 197.171 106.135 189.471 94.3185C182.508 83.6277 173.038 84.1481 172.944 84.167L117.715 89.8435C115.552 89.9438 113.432 90.4799 111.481 91.4195C109.531 92.3592 107.79 93.6831 106.363 95.3119C100.687 101.575 94.9257 115.993 92.0971 131.188C90.3417 140.782 90.6643 150.641 93.0432 160.1C94.3392 161.235 105.616 170.507 116.94 161.046C127.223 152.456 126.731 146.476 126.4 145.067H108.51L108.359 144.83C108.359 144.783 105.351 140.26 97.7355 139.892V138.86C104.972 139.21 108.265 143.023 109.012 144.035H127.128L127.261 144.357C127.374 144.641 129.985 151.462 117.573 161.841C105.162 172.219 92.3431 160.895 92.2107 160.753L92.1066 160.658V160.516C89.664 150.854 89.3413 140.778 91.1606 130.979C93.9986 115.615 99.8545 100.998 105.672 94.5929C107.185 92.8449 109.042 91.4277 111.127 90.4298C113.212 89.4319 115.481 88.8749 117.791 88.7934L172.963 83.1168C173.379 83.1168 183.132 82.5113 190.436 93.7319C198.278 105.757 201.04 147.829 201.059 148.245C201.419 155.124 199.905 160.403 196.547 163.932C193.97 166.578 190.483 168.145 186.793 168.312C186.304 168.384 185.812 168.428 185.318 168.444Z" fill="black"/>
<path d="M122.144 86.6667C122.144 86.6667 133.573 86.3308 134.953 82.72C136.333 79.1092 145.208 79.641 149.301 82.524C153.393 85.4071 165.28 81.4697 172.505 80.3128C179.73 79.1558 147.334 42.4691 147.334 42.4691L126.451 40.4445C126.451 40.4445 119.813 45.2122 120.242 55.6808C120.671 66.1494 122.144 86.6667 122.144 86.6667Z" fill="black"/>
<path d="M121.247 87.5555V87.0629C121.247 86.8544 119.762 66.1043 119.355 55.5776C118.91 44.7952 125.589 39.8682 125.873 39.6692L126.024 39.5555H126.223L147.583 41.6305L147.715 41.7821C150.657 45.1078 176.322 74.4233 174.335 79.9851C174.232 80.277 174.049 80.5336 173.806 80.7249C173.563 80.9162 173.271 81.0342 172.963 81.0652C171.072 81.359 168.943 81.8422 166.654 82.3443C159.928 83.8414 152.303 85.5374 149.049 83.2255C145.658 81.1321 141.583 80.4519 137.697 81.3305C137.186 81.4384 136.704 81.6582 136.287 81.9744C135.87 82.2905 135.528 82.6951 135.285 83.1592C133.809 87.0344 123.044 87.4703 121.814 87.5082L121.247 87.5555ZM126.27 40.6167C125.324 41.4031 119.941 46.1975 120.329 55.5398C120.717 65.1379 121.975 83.2634 122.221 86.4944C125.664 86.3333 133.27 85.4426 134.273 82.837C134.56 82.2168 134.987 81.672 135.52 81.246C136.054 80.82 136.68 80.5245 137.347 80.383C139.429 79.8889 141.587 79.8128 143.698 80.1592C145.809 80.5056 147.83 81.2676 149.645 82.4012C152.483 84.4573 159.918 82.8086 166.436 81.359C168.735 80.8473 170.911 80.3641 172.803 80.0609C172.927 80.0587 173.048 80.0185 173.15 79.9457C173.251 79.8729 173.328 79.771 173.37 79.6535C174.713 75.8635 158.433 55.5208 147.081 42.6349L126.27 40.6167Z" fill="black"/>
<path d="M133.556 71.1232L146.352 68L153.111 90.6546L140.315 93.7778L133.556 71.1232Z" fill="white"/>
<path d="M139.573 94.6666L132.667 70.5555L146.205 67.1111L153.111 91.2222L139.573 94.6666ZM133.904 71.2977L140.243 93.4202L151.779 90.48L145.449 68.3576L133.904 71.2977Z" fill="black"/>
<path d="M123.564 59.8224C120.291 48.7065 122.02 38.8866 130.037 36.4174C138.055 33.9482 146.127 42.7748 149.392 53.8908C152.656 65.0067 147.764 75.1294 142.447 76.539C135.65 78.3364 124.609 73.2751 123.564 59.8224Z" fill="white"/>
<path d="M139.699 76.8886C136.358 76.8327 133.114 75.764 130.401 73.8256C125.952 70.6684 123.22 65.5697 122.717 59.4626C119.055 47.3049 121.768 37.9275 129.728 35.562C138.741 32.8666 147.013 42.6963 150.229 53.3084C152.127 59.5191 151.548 66.22 148.73 71.215C147.118 74.0424 144.992 75.9273 142.744 76.5304C141.748 76.7752 140.725 76.8955 139.699 76.8886ZM132.773 36.1369C131.841 36.1395 130.914 36.276 130.022 36.5421C122.688 38.7381 120.212 47.6348 123.722 59.2176V59.3212C124.187 65.155 126.768 70.0087 130.98 72.9868C134.5 75.4749 138.902 76.4456 142.469 75.522C144.414 75.0225 146.359 73.2696 147.81 70.7061C150.495 65.9938 151.026 59.5568 149.224 53.6005C146.51 44.5907 140.059 36.1369 132.773 36.1369Z" fill="black"/>
<path d="M133.556 68C133.556 68 139.491 66.8669 143.333 64.4445L133.556 68Z" fill="white"/>
<path d="M133.737 68L133.556 66.9677C133.613 66.9677 139.775 65.8495 143.708 63.5555L144.222 64.454C140.137 66.8435 133.994 67.9522 133.737 68Z" fill="black"/>
<path d="M129.111 51.1111C129.111 51.1111 124.879 52.3009 123.778 55.5555L129.111 51.1111Z" fill="white"/>
<path d="M124.642 55.5555L123.778 55.2496C124.824 52.2413 128.696 51.1621 128.86 51.1111L129.111 51.9609C129.111 51.9609 125.541 53.0061 124.642 55.5555Z" fill="black"/>
<path d="M135.333 49.3333C135.333 49.3333 139.754 47.6962 143.333 48.8656L135.333 49.3333Z" fill="white"/>
<path d="M135.702 49.3333L135.333 48.402C135.518 48.3462 139.79 46.8561 143.333 47.9643L143.013 48.8956C139.8 47.9085 135.751 49.324 135.702 49.3333Z" fill="black"/>
<path d="M129.068 57.3267C129.523 57.176 129.724 56.5497 129.517 55.9278C129.31 55.3058 128.774 54.9238 128.319 55.0745C127.864 55.2252 127.663 55.8516 127.87 56.4735C128.076 57.0955 128.613 57.4775 129.068 57.3267Z" fill="black"/>
<path d="M140.958 53.5466C141.413 53.3959 141.614 52.7695 141.407 52.1476C141.201 51.5256 140.664 51.1436 140.209 51.2944C139.754 51.4451 139.553 52.0715 139.76 52.6934C139.967 53.3153 140.503 53.6973 140.958 53.5466Z" fill="black"/>
<path d="M125.556 56.4445C125.556 56.4445 128.194 54.1088 130 53.7778L125.556 56.4445Z" fill="white"/>
<path d="M126.182 57.3334L125.556 56.5674C125.651 56.4634 128.078 54.1277 129.826 53.7778L130 54.7897C128.765 55.0828 126.825 56.7093 126.182 57.3334Z" fill="black"/>
<path d="M138 52C138 52 141.559 50.2321 143.333 51.6826L138 52Z" fill="white"/>
<path d="M138.214 52L138 51.3554C138.14 51.3554 141.537 50.8629 143.333 51.2764L142.998 51.8844C141.76 51.6108 139.145 51.8966 138.214 52Z" fill="black"/>
<path d="M132.667 52C132.667 52 133.285 57.9584 133.242 59.5199C133.199 61.0813 134.264 62.3362 136.222 61.522" fill="white"/>
<path d="M135.724 62.666C135.206 62.6789 134.698 62.513 134.273 62.1923C133.934 61.9125 133.666 61.5456 133.493 61.1252C133.319 60.7047 133.245 60.244 133.278 59.7849C133.278 58.2456 132.676 52.1776 132.667 52.1184L133.652 52C133.652 52.2467 134.318 58.1963 134.273 59.8243C134.248 60.107 134.288 60.392 134.39 60.6538C134.492 60.9155 134.652 61.1458 134.857 61.3241C135.15 61.4934 135.478 61.5819 135.81 61.5819C136.143 61.5819 136.471 61.4934 136.764 61.3241L137.111 62.3108C136.672 62.5193 136.202 62.6397 135.724 62.666Z" fill="black"/>
<path d="M129.111 38.6889C129.111 38.6889 127.747 43.0375 125.411 45.2352C123.074 47.4328 120.25 51.1268 122.063 60.1046C123.875 69.0824 126.946 84.9057 122.063 86.6452C117.179 88.3846 112.83 88.0947 113.126 81.6232C113.421 75.1517 119.344 73.7116 118.257 65.3136C117.17 56.9156 117.303 42.9252 122.587 39.5399C127.871 36.1545 129.111 38.6889 129.111 38.6889Z" fill="white"/>
<path d="M117.183 88.4398C116.098 88.4867 115.026 88.177 114.131 87.5576C112.727 86.5236 112.086 84.6168 112.246 81.8658C112.388 78.8681 113.631 76.876 114.837 74.9407C116.42 72.4174 117.909 70.0363 117.325 65.407C116.382 57.8179 116.09 42.5164 121.828 38.7693C124.24 37.1945 126.172 36.6064 127.604 37.0143C127.902 37.0865 128.182 37.2198 128.427 37.4059C128.672 37.592 128.876 37.8268 129.026 38.0957L129.111 38.276L129.045 38.4752C128.989 38.6554 127.632 43.0286 125.276 45.3433C122.921 47.658 120.443 51.4431 122.111 59.9523C124.721 73.2332 126.482 85.7552 121.781 87.4627C120.316 88.0545 118.76 88.3851 117.183 88.4398ZM126.605 37.944C125.738 37.944 124.391 38.3139 122.337 39.6515C117.409 42.8674 117.211 56.7269 118.286 65.2647C118.917 70.264 117.259 72.9107 115.657 75.4815C114.46 77.3787 113.339 79.1811 113.217 81.9037C113.113 84.2658 113.622 85.8785 114.724 86.6944C116.034 87.643 118.333 87.5956 121.319 86.4857C125.832 84.835 122.441 67.5129 120.99 60.142C119.218 51.092 121.932 47.0793 124.447 44.5939C126.332 42.7535 127.585 39.329 127.896 38.3898C127.7 38.1902 127.451 38.0518 127.18 37.9914C126.994 37.9517 126.804 37.9358 126.614 37.944H126.605Z" fill="black"/>
<path d="M143.816 86.7532C143.816 86.7532 144.759 81.306 148.125 78.7213C151.491 76.1367 157.469 71.6992 161.702 72.5515C164.429 73.2072 166.968 74.4661 169.125 76.2321C171.282 77.9981 173 80.2246 174.148 82.7419C176.59 88.4763 163.248 103.252 159.807 106.689C156.507 109.978 148.351 112.711 143.571 112.424C138.79 112.137 123.271 109.848 120.225 103.54C117.18 97.2308 116.595 91.4964 119.226 86.4012C121.856 81.306 130.286 73.5613 143.816 86.7532Z" fill="white"/>
<path d="M143.881 113.333H143.109C137.953 113.012 122.524 110.614 119.391 103.977C116.127 97.0662 115.797 91.2033 118.394 86.0389C119.137 84.5756 121.978 79.7322 127.633 78.8164C132.384 78.0517 137.587 80.3365 143.09 85.6141C143.523 83.8675 144.718 80.1193 147.38 78.0611C152 74.4357 157.268 70.8386 161.342 71.6789C164.142 72.358 166.749 73.673 168.962 75.5226C171.176 77.3723 172.936 79.7072 174.109 82.3474C177.035 89.3528 159.865 107.131 159.686 107.31C156.591 110.454 148.999 113.333 143.881 113.333ZM129.449 79.7134C128.894 79.71 128.34 79.7543 127.793 79.8455C122.618 80.6763 119.993 85.1609 119.325 86.511C116.889 91.3543 117.218 96.8963 120.332 103.505C123.314 109.812 139.148 112.002 143.194 112.276C147.992 112.578 155.942 109.698 158.999 106.611C162.574 102.957 175.482 88.2198 173.206 82.7629C172.096 80.269 170.43 78.0641 168.337 76.3176C166.245 74.5712 163.781 73.3298 161.135 72.6891C156.986 71.8394 150.692 76.7677 147.964 78.8731C144.812 81.3467 143.862 86.6904 143.852 86.7376L143.683 87.6817L142.987 86.9831C138.179 82.1303 133.654 79.7134 129.449 79.7134Z" fill="black"/>
<path d="M124.667 38.3863C124.667 38.3863 129.556 37.7087 132.429 40.7202C135.302 43.7318 144.435 46.9221 147.184 52.5123C149.933 58.1025 164.174 65.9702 166.724 70.9204C169.274 75.8706 170.453 78.1105 170.453 78.1105L172.717 80.4444C172.717 80.4444 177.721 79.3715 173.887 72.3791C170.054 65.3867 160.569 53.7075 157.886 48.3244C155.204 42.9412 146.537 26.6319 124.667 38.3863Z" fill="white"/>
<path d="M172.838 80.4445L170.286 77.7916C170.286 77.7916 169.101 75.5699 166.531 70.6297C165.355 68.3611 161.323 65.2489 157.424 62.2397C152.98 58.8181 148.393 55.2747 146.912 52.2843C145.221 48.8721 141.035 46.3879 137.356 44.2037C135.506 43.226 133.78 42.0366 132.215 40.6602C129.549 37.8948 124.905 38.4854 124.867 38.4948L122 38.8791L124.504 37.5386C132.148 33.4796 138.933 32.3547 144.772 34.1826C153.2 36.8262 157.261 44.9911 158.59 47.6722C159.918 50.3532 162.957 54.5622 166.235 59.0431C169.276 63.0838 172.102 67.2766 174.701 71.6046C176.22 74.3606 176.612 76.5917 175.829 78.2415C175.574 78.7677 175.203 79.2322 174.744 79.6016C174.285 79.9711 173.748 80.2365 173.172 80.3789L172.838 80.4445ZM171.175 77.2573L173.172 79.3008C173.537 79.171 173.871 78.9716 174.157 78.7142C174.442 78.4567 174.673 78.1463 174.835 77.8009C175.446 76.4792 175.074 74.5012 173.745 72.092C171.164 67.7992 168.357 63.6408 165.336 59.6337C162.087 55.1153 159.01 50.8407 157.691 48.1128C156.411 45.5348 152.503 37.6699 144.495 35.1576C139.44 33.5639 133.563 34.342 127.007 37.4449C129.243 37.533 131.366 38.4276 132.97 39.9572C134.476 41.2622 136.13 42.3916 137.901 43.3225C141.723 45.5911 146.052 48.1596 147.877 51.8343C149.254 54.6466 153.754 58.0869 158.102 61.4429C162.269 64.6583 166.215 67.6955 167.496 70.1703C169.77 74.6137 170.965 76.8635 171.175 77.2573Z" fill="black"/>
<path d="M171.778 148.458C171.778 153.612 171.264 157.778 162.921 157.778C154.579 157.778 141.556 149.735 141.556 144.58C141.556 144.59 171.778 143.304 171.778 148.458Z" fill="white"/>
<path d="M162.712 158.667C154.405 158.667 141.556 149.893 141.556 144.224V143.713H142.043C143.054 143.664 166.955 142.603 171.075 146.739C171.291 146.937 171.465 147.179 171.586 147.452C171.707 147.724 171.773 148.02 171.778 148.321C171.778 153.97 171.094 158.667 162.712 158.667ZM142.614 144.735C143.382 149.883 155.248 157.606 162.712 157.606C170.176 157.606 170.757 153.921 170.757 148.301C170.751 148.146 170.714 147.994 170.648 147.855C170.582 147.716 170.488 147.593 170.373 147.495C167.292 144.401 149.779 144.44 142.614 144.735Z" fill="black"/>
<path d="M112.307 147.158C112.003 151.763 112.165 155.557 118.957 155.98C125.749 156.404 136.807 149.847 137.111 145.224C137.102 145.197 112.592 142.554 112.307 147.158Z" fill="white"/>
<path d="M120.037 156.889H119.386C116.122 156.664 114.037 155.586 113.027 153.588C112.084 151.747 112.159 149.396 112.32 146.938C112.342 146.643 112.424 146.356 112.561 146.096C112.697 145.836 112.885 145.609 113.112 145.43C117.037 142.021 136.698 144.284 137.509 144.382L138 144.441V144.95C137.849 147.428 135.292 150.474 131.151 153.099C127.358 155.469 123.188 156.889 120.037 156.889ZM123.914 144.607C119.348 144.607 115.188 144.999 113.763 146.233C113.646 146.322 113.548 146.434 113.475 146.564C113.402 146.694 113.356 146.838 113.339 146.987C113.197 149.289 113.14 151.483 113.942 153.069C114.744 154.656 116.537 155.606 119.452 155.802C122.367 155.998 126.735 154.617 130.585 152.168C134.075 149.955 136.424 147.398 136.868 145.361C133.868 145.018 128.66 144.607 123.914 144.607Z" fill="black"/>
<path d="M131.586 82.3127C131.586 82.3127 121.86 81.8901 122.002 91.2432C122.143 100.596 124.718 106.663 134.963 108.456C145.207 110.25 159.102 106.578 164.875 95.3844C170.648 84.1908 169.856 81.7117 166.451 78.8851C163.045 76.0586 155.451 76.0679 153.084 79.9838C150.716 83.8997 138.538 91.2525 138.538 91.2525L131.586 82.3127Z" fill="#5ED1BC"/>
<path d="M149.869 92.8888C146.166 90.2447 142.697 87.2891 139.499 84.0544C134.644 79.068 131.457 79.4067 125.669 80.0277L125.556 79.0116C131.212 78.4 134.983 77.9955 140.234 83.3394C143.38 86.5311 146.796 89.446 150.445 92.0515L149.869 92.8888Z" fill="black"/>
<path d="M175.333 140.889H108.667V144.444H175.333V140.889Z" fill="white"/>
<path d="M176.222 145.333H107.778V140.889H176.194L176.222 145.333ZM108.847 144.332H175.191V141.917H108.847V144.332Z" fill="black"/>
<path d="M98.8887 100.889H149.363L159.333 140.889H108.859L98.8887 100.889Z" fill="white"/>
<path d="M159.333 141.778H108.155L98 100H149.179L159.333 141.778ZM108.955 140.72H158.016L148.369 101.048H99.2988L108.955 140.72Z" fill="black"/>
</svg>
