<svg width="300" height="200" viewBox="0 0 300 200" fill="none" xmlns="http://www.w3.org/2000/svg">
<rect width="300" height="200" rx="10" fill="#8A9AE9"/>
<g clip-path="url(#clip0_2034_51836)">
<path d="M79.0904 69.114C79.0904 69.114 75.6022 71.3629 73.2788 80.5043C71.2042 88.6854 73.934 104.47 84.7442 111.667C92.2118 116.645 91.3504 85.5309 91.3504 85.5309L79.0904 69.114Z" fill="black"/>
<path d="M86.273 112.512C85.6605 112.485 85.0703 112.273 84.5804 111.904C73.7885 104.719 70.8767 88.7219 72.9877 80.4132C75.3111 71.2596 78.781 68.9378 78.9266 68.8648L79.1693 68.7129L91.6477 85.458V85.5553C91.6477 86.5278 92.2543 109.503 87.3346 112.238C87.0098 112.418 86.6443 112.513 86.273 112.512ZM79.0358 69.5456C78.2411 70.2203 75.4931 73.0162 73.5762 80.5773C71.5075 88.722 74.3526 104.385 84.9141 111.418C85.7209 111.952 86.4185 112.025 87.0434 111.697C91.496 109.229 91.0835 87.3058 91.0471 85.6586L79.0358 69.5456Z" fill="black"/>
<path d="M129.119 93.8275L88.1714 103.789V158.012H153.9L129.119 93.8275Z" fill="white"/>
<path d="M154.343 158.322H87.8862V103.552L129.325 93.475L129.422 93.7242L154.343 158.322ZM88.4746 157.714H153.457L128.931 94.18L88.4929 104.033L88.4746 157.714Z" fill="black"/>
<path d="M92.1328 97.0671C78.338 102.009 71.659 106.233 76.1602 112.208C56.748 132.265 55.3164 145.819 55.3164 145.819L66.8849 155.131L81.8201 145.844L90.5677 127.196" fill="white"/>
<path d="M66.8667 155.508L55.001 145.953V145.789C55.001 145.649 56.6268 132.004 75.7538 112.183C74.5406 110.494 74.1766 108.919 74.6376 107.382C75.6749 103.905 80.7039 100.836 92.0176 96.7815L92.2238 97.3528C81.2681 101.279 76.1845 104.33 75.2382 107.552C74.8196 108.962 75.2018 110.421 76.409 112.025L76.5667 112.232L76.3847 112.42C58.3799 131.013 55.8867 144.105 55.644 145.692L66.9152 154.76L81.5653 145.607L90.2765 127.038L90.8225 127.3L82.0385 146.032L81.9596 146.075L66.8667 155.508Z" fill="black"/>
<path d="M109.779 122.814C109.779 122.814 105.606 124.181 98.5689 115.617C88.5474 103.407 82.9057 102.3 77.8161 103.826C77.4461 100.927 76.6028 90.9525 87.8558 87.8284C94.1041 86.09 101.02 83.2212 112.831 82.8322C124.642 82.4432 132.316 89.2263 132.316 92.3566C132.316 95.4868 122.561 99.7171 117.939 103.777C112.515 108.542 111.387 118.158 109.779 122.814Z" fill="#5ED1BC"/>
<path d="M109.052 123.203C107.481 123.203 103.72 122.364 98.3388 115.806C88.5963 103.947 83.1245 102.549 77.9014 104.118L77.5617 104.215L77.5132 103.862C76.9065 98.9999 77.4161 90.4116 87.7713 87.5366C88.9845 87.2084 90.1493 86.8376 91.4111 86.4547C96.9375 84.7589 103.198 82.8444 112.813 82.5283C120.972 82.2609 127.214 85.3972 130.332 88.4241C131.782 89.822 132.613 91.2564 132.613 92.3566C132.613 94.4657 128.974 96.7632 124.727 99.4193C122.419 100.786 120.213 102.32 118.127 104.008C114.075 107.57 112.479 113.812 111.199 118.833C110.811 120.352 110.441 121.787 110.053 122.917L110.004 123.057L109.865 123.106C109.6 123.176 109.326 123.208 109.052 123.203ZM81.2136 102.987C85.3872 102.987 90.7074 105.528 98.8059 115.423C104.872 122.82 108.779 122.674 109.549 122.552C109.907 121.483 110.241 120.182 110.623 118.681C111.836 113.855 113.547 107.236 117.739 103.552C119.846 101.842 122.076 100.29 124.412 98.9088C128.143 96.5565 132.007 94.1314 132.007 92.3566C132.007 91.4327 131.224 90.1259 129.914 88.8617C126.881 85.9199 120.814 82.8748 112.831 83.1361C103.301 83.4461 97.0588 85.3546 91.5991 87.0322C90.3313 87.4211 89.1301 87.7919 87.9593 88.1202C78.2532 90.8067 77.5799 98.7142 78.1016 103.431C79.1142 103.143 80.161 102.994 81.2136 102.987Z" fill="black"/>
<path d="M66.697 146.111C77.0097 141.857 81.8021 145.819 81.8021 145.819C84.0163 145.43 88.0443 144.519 90.9622 148.688C90.9622 148.688 90.7863 154.225 88.5357 154.298C88.0201 154.298 82.5119 157.897 81.9113 157.945C72.3265 158.225 56.2266 158.267 55.1832 155.933C53.3087 151.758 54.801 146.5 57.0395 141.583" fill="white"/>
<path d="M73.0965 158.359C64.6037 158.359 55.7226 157.897 54.8976 156.031C53.2718 152.384 53.8663 147.771 56.7539 141.443L57.3059 141.699C54.5336 147.777 53.927 152.396 55.4497 155.8C56.1655 157.386 66.2962 158.085 81.8987 157.623C83.0596 157.068 84.1859 156.443 85.2716 155.751C87.5343 154.408 88.238 154.013 88.5231 154.007C90.1064 153.952 90.5978 150.317 90.6646 148.792C87.9832 145.035 84.3253 145.692 82.1353 146.081L81.7289 146.154L81.6197 146.063C81.5711 146.026 76.8516 142.264 66.824 146.403L66.5935 145.838C76.2389 141.857 81.0858 144.914 81.8927 145.509H82.0261C84.3738 145.09 88.3108 144.385 91.2226 148.549L91.2773 148.634V148.737C91.2773 149.345 91.0164 154.554 88.5413 154.639C87.5239 155.139 86.5337 155.693 85.5749 156.298C83.3 157.653 82.2688 158.243 81.9351 158.255C79.3084 158.292 76.2328 158.359 73.0965 158.359Z" fill="black"/>
<path d="M118.661 158.486C118.539 157.969 106.922 106.719 100.802 100.89C94.6807 95.0613 90.4282 94.6602 90.3857 94.6602L90.4343 94.0524C90.6163 94.0524 94.9597 94.4778 101.22 100.447C107.481 106.415 118.77 156.237 119.249 158.352L118.661 158.486Z" fill="black"/>
<path d="M91.3379 91.8522L91.5866 94.6117C91.5866 94.6117 97.9501 96.9456 100.686 100.361C102.374 102.498 103.725 104.882 104.69 107.43L110.095 96.6113L108.275 81.1487" fill="white"/>
<path d="M104.63 108.214L104.393 107.534C103.439 105.018 102.107 102.663 100.444 100.55C97.7989 97.2433 91.5445 94.9215 91.4838 94.8972L91.3019 94.8304L91.041 91.8825L91.6476 91.8278L91.8782 94.3988C92.964 94.8121 98.3994 97.0124 100.923 100.167C102.487 102.149 103.767 104.34 104.727 106.677L109.792 96.5383L107.972 81.1668L108.579 81.0939L110.399 96.6477L104.63 108.214Z" fill="black"/>
<path d="M80.4428 143.881C77.9302 140.807 74.4464 138.685 70.5669 137.863L80.4428 143.881Z" fill="white"/>
<path d="M80.2002 144.057C77.7189 141.053 74.2993 138.976 70.4941 138.161L70.6155 137.553C74.5737 138.374 78.1269 140.541 80.6734 143.686L80.2002 144.057Z" fill="black"/>
<path d="M90.9618 148.172C83.3243 148.172 77.1367 152.493 77.1367 157.818H104.781C104.781 152.493 98.5932 148.172 90.9618 148.172Z" fill="white"/>
<path d="M105.084 158.122H76.8335V157.818C76.8335 152.347 83.1728 147.868 90.9619 147.868C98.751 147.868 105.084 152.329 105.084 157.818V158.122ZM77.4522 157.514H104.472C104.241 152.505 98.2657 148.476 90.9619 148.476C83.6581 148.476 77.6828 152.53 77.4522 157.514Z" fill="black"/>
<path d="M77.0458 152.998C77.0105 152.618 77.0721 152.236 77.225 151.888C77.3778 151.539 77.6168 151.235 77.9194 151.004C78.4994 150.609 79.1441 150.319 79.8242 150.147C79.8242 150.147 79.715 147.965 81.45 147.175C81.8549 146.999 82.2916 146.908 82.733 146.908C83.1744 146.908 83.6111 146.999 84.016 147.175C84.2375 146.622 84.599 146.136 85.0649 145.765C85.5308 145.394 86.085 145.151 86.6731 145.06C88.6143 144.865 89.4393 145.43 89.4393 145.43C90.3535 144.928 91.3987 144.716 92.436 144.823C94.3773 144.92 96.0212 146.275 96.8948 148.469C97.7683 150.664 97.6167 153.077 97.1314 153.849C96.6461 154.62 94.7776 154.39 94.4743 153.849C94.2401 153.451 93.9454 153.092 93.6008 152.785C93.476 153.109 93.2574 153.388 92.9731 153.586C92.6888 153.784 92.3517 153.893 92.0053 153.897C91.2258 153.823 90.4854 153.521 89.8761 153.028C89.8235 153.364 89.662 153.674 89.4164 153.909C89.1708 154.144 88.8548 154.291 88.5172 154.329C87.3039 154.481 85.5204 153.362 85.5204 153.362C85.5204 153.362 85.757 154.724 84.6954 155.113C83.6338 155.502 80.6795 153.654 79.4663 153.946" fill="white"/>
<path d="M84.3436 155.435C83.5327 155.354 82.739 155.149 81.9899 154.827C81.0739 154.493 80.0426 154.11 79.5634 154.219L79.4238 153.612C80.1093 153.448 81.1345 153.83 82.2204 154.219C83.1364 154.56 84.1798 154.943 84.6469 154.785C85.4598 154.487 85.2535 153.387 85.2535 153.375L85.1383 152.706L85.7449 153.065C85.7449 153.065 87.4556 154.122 88.5476 153.982C88.8198 153.958 89.0758 153.842 89.274 153.653C89.4722 153.464 89.601 153.214 89.6395 152.943L89.7123 152.39L90.1369 152.749C90.693 153.202 91.3704 153.481 92.0842 153.551C92.3685 153.55 92.6457 153.462 92.878 153.297C93.1102 153.133 93.2864 152.901 93.3824 152.633L93.5341 152.226L93.8677 152.511C94.2373 152.843 94.5526 153.231 94.8019 153.66C95.1082 153.907 95.496 154.028 95.8878 154.001C96.079 154.03 96.2747 154.014 96.4583 153.953C96.6419 153.891 96.8082 153.787 96.9433 153.648C97.3862 152.937 97.5014 150.609 96.6764 148.536C95.8514 146.464 94.2863 145.181 92.4907 145.09C91.5133 145.012 90.5346 145.224 89.6759 145.698L89.506 145.813L89.3362 145.698C89.3362 145.698 88.5475 145.206 86.7701 145.382C86.2324 145.459 85.7246 145.677 85.2984 146.014C84.8722 146.352 84.5428 146.796 84.3436 147.303L84.2283 147.613L83.925 147.467C83.5608 147.31 83.1687 147.229 82.7724 147.229C82.3762 147.229 81.984 147.31 81.6198 147.467C80.0972 148.16 80.17 150.062 80.17 150.147V150.402L79.9152 150.457C79.2657 150.62 78.6497 150.896 78.0953 151.272C77.8393 151.47 77.6373 151.73 77.508 152.028C77.3787 152.325 77.3261 152.65 77.3552 152.973L76.7486 153.04C76.703 152.607 76.7714 152.169 76.947 151.77C77.1226 151.371 77.3992 151.026 77.7495 150.767C78.2971 150.399 78.8961 150.114 79.5269 149.922C79.5269 149.284 79.7696 147.619 81.3468 146.883C82.1457 146.528 83.0487 146.487 83.8765 146.768C84.1352 146.223 84.5262 145.751 85.0136 145.396C85.5011 145.042 86.0696 144.815 86.667 144.738C87.6077 144.595 88.5695 144.708 89.4514 145.066C90.3877 144.588 91.437 144.378 92.4846 144.458C94.5229 144.561 96.2881 145.99 97.2042 148.287C98.0656 150.445 98.011 152.998 97.4225 153.946C97.2351 154.179 96.9912 154.36 96.714 154.472C96.4368 154.584 96.1356 154.622 95.8392 154.584C95.5406 154.604 95.2413 154.556 94.9638 154.443C94.6864 154.331 94.4381 154.157 94.2377 153.934C94.0891 153.674 93.9099 153.433 93.7039 153.217C93.5339 153.508 93.2875 153.748 92.9914 153.91C92.6952 154.072 92.3605 154.149 92.0235 154.134C91.3259 154.083 90.6541 153.849 90.0763 153.454C89.9503 153.756 89.7452 154.019 89.4826 154.215C89.22 154.411 88.9096 154.532 88.584 154.566C87.6297 154.57 86.6923 154.313 85.8723 153.824C85.8656 154.151 85.763 154.468 85.5774 154.736C85.3918 155.004 85.1315 155.211 84.8289 155.332C84.6749 155.396 84.5103 155.431 84.3436 155.435Z" fill="black"/>
<path d="M89.4395 145.43C89.4395 145.43 91.866 146.834 93.6009 152.724L89.4395 145.43Z" fill="white"/>
<path d="M93.3096 152.84C91.6353 147.144 89.3058 145.704 89.2876 145.692L89.5909 145.169C89.694 145.224 92.1327 146.701 93.8919 152.663L93.3096 152.84Z" fill="black"/>
<path d="M89.8762 152.998C89.8762 152.998 87.5528 148.871 84.0161 147.175L89.8762 152.998Z" fill="white"/>
<path d="M89.6092 153.137C89.6092 153.101 87.2919 149.077 83.8887 147.442L84.1496 146.895C87.7287 148.615 90.0399 152.669 90.137 152.84L89.6092 153.137Z" fill="black"/>
<path d="M79.8242 150.147C79.8242 150.147 81.4014 149.649 85.5205 153.332L79.8242 150.147Z" fill="white"/>
<path d="M85.3144 153.563C81.4623 150.111 79.9214 150.433 79.9093 150.439L79.7334 149.831C79.9154 149.776 81.5958 149.387 85.7208 153.083L85.3144 153.563Z" fill="black"/>
<path d="M108.512 64.1604C108.42 63.0489 108.245 61.9457 107.99 60.86C105.624 50.8798 95.9787 42.3766 81.6137 49.5609C74.0672 53.3354 72.581 60.7871 74.9408 70.7734C75.0728 71.3341 75.2389 71.8862 75.4382 72.4266L75.1895 72.5421C73.5759 73.4417 73.4121 76.2193 74.8195 78.7539C76.2269 81.2885 78.6655 82.6135 80.2792 81.72L80.4005 81.641C83.8583 90.1138 93.3824 94.5509 100.674 92.8186C108.876 90.8675 113.777 80.3038 111.417 70.3297C110.909 68.0858 109.917 65.9804 108.512 64.1604Z" fill="white"/>
<path d="M97.5076 93.475C91.0227 93.475 83.4156 89.4513 80.2368 82.0725C79.7614 82.2572 79.2494 82.328 78.7418 82.2795C78.2342 82.231 77.7449 82.0643 77.3129 81.7929C76.1379 81.1087 75.1776 80.1086 74.5406 78.9058C73.0543 76.2254 73.2727 73.2532 75.0319 72.2747C74.8662 71.8066 74.7265 71.3298 74.6134 70.8463C72.0291 59.9057 74.2615 52.8855 81.438 49.2995C87.6802 46.1753 93.5706 45.7499 98.5267 48.0839C103.246 50.2963 106.886 55.0554 108.233 60.8478C108.49 61.917 108.666 63.004 108.761 64.0996C110.161 65.936 111.152 68.0523 111.666 70.3053C112.818 75.1494 112.317 80.2406 110.241 84.7651C108.16 89.1596 104.684 92.2229 100.705 93.165C99.6543 93.3906 98.5816 93.4946 97.5076 93.475ZM80.5219 81.1851L80.6615 81.5255C84.1618 90.1017 93.789 94.1375 100.589 92.5208C104.387 91.6212 107.717 88.6794 109.689 84.4551C111.707 80.054 112.196 75.1025 111.078 70.3904C110.577 68.193 109.604 66.1314 108.227 64.3488L108.172 64.2759V64.1847C108.082 63.0894 107.909 62.0024 107.657 60.9329C106.334 55.3532 102.803 50.7461 98.2659 48.6066C93.5038 46.3759 87.7773 46.7832 81.711 49.8222C74.8257 53.2685 72.6964 60.0941 75.2018 70.6882C75.3347 71.2381 75.4987 71.78 75.6932 72.3111L75.7963 72.5846L75.5233 72.694C75.4483 72.7235 75.3753 72.758 75.3049 72.7974C73.843 73.6118 73.7277 76.2132 75.0502 78.5958C75.6342 79.6974 76.512 80.6149 77.5859 81.2459C77.9545 81.4897 78.3791 81.6355 78.8195 81.6696C79.2599 81.7036 79.7018 81.6247 80.1034 81.4404L80.5219 81.1851Z" fill="black"/>
<path d="M96.531 81.9692C95.9668 81.9692 95.6392 81.9267 95.6089 81.9267L95.6878 81.3189C97.0782 81.4261 98.4767 81.2987 99.825 80.942C101.24 80.5857 102.475 79.7204 103.295 78.5107L103.817 78.8207C102.919 80.1751 101.546 81.1424 99.9706 81.5316C98.8453 81.8132 97.6907 81.9601 96.531 81.9692Z" fill="black"/>
<path d="M98.0779 77.9942C97.6321 77.9787 97.1925 77.884 96.7797 77.7146C96.1731 77.5018 95.8395 77.3742 95.2814 77.903L94.8628 77.4593C95.1339 77.1813 95.4895 77.0012 95.8737 76.9473C96.2579 76.8934 96.6491 76.9687 96.986 77.1615C97.2898 77.3052 97.6195 77.3857 97.9552 77.3983C98.2909 77.4108 98.6257 77.3551 98.9393 77.2344C99.2586 77.1303 99.5529 76.961 99.8035 76.7371C100.054 76.5132 100.256 76.2396 100.395 75.9337C100.487 75.6598 100.672 75.4274 100.919 75.2782C101.166 75.1289 101.458 75.0726 101.742 75.1192L101.657 75.727C101.238 75.6723 101.16 75.8121 100.923 76.2315C100.654 76.7589 100.247 77.2034 99.7464 77.518C99.2455 77.8326 98.669 78.0055 98.0779 78.0185V77.9942Z" fill="black"/>
<path d="M96.5005 69.114C96.5005 69.114 99.9401 72.8703 100.522 74.7241C100.684 75.2335 100.654 75.7849 100.437 76.2734C100.22 76.7619 99.8317 77.1536 99.3456 77.3741" fill="white"/>
<path d="M99.4728 77.6537L99.2241 77.1006C99.6427 76.9097 99.9769 76.5717 100.164 76.1506C100.35 75.7295 100.376 75.2544 100.237 74.8153C99.6791 73.0466 96.3123 69.345 96.2759 69.345L96.7248 68.9377C96.8643 69.0897 100.213 72.7609 100.813 74.6512C101.006 75.2289 100.975 75.858 100.727 76.4141C100.479 76.9701 100.031 77.4125 99.4728 77.6537Z" fill="black"/>
<path d="M88.2141 71.6911C88.2141 71.6911 88.0139 70.1716 89.3607 69.8981C90.7074 69.6246 91.1806 71.1562 91.1806 71.1562" fill="black"/>
<path d="M103.762 67.0414C103.762 67.0414 103.155 65.6374 102.13 66.0325C101.105 66.4276 101.524 67.9653 101.524 67.9653" fill="black"/>
<path d="M107.966 60.8478C105.606 50.8676 95.9607 42.3766 81.5957 49.5608C74.0492 53.3353 72.563 60.7931 74.9228 70.7733C75.0547 71.3301 75.2209 71.8782 75.4202 72.4144C75.4202 72.4144 75.8509 73.2471 77.5131 73.2897C79.1753 73.3322 74.6073 62.6591 77.7618 59.1885C80.9163 55.7179 90.2644 55.0493 90.2644 55.0493C90.2644 55.0493 97.2104 49.9985 102.033 52.3507C106.856 54.7029 107.966 60.8478 107.966 60.8478Z" fill="black"/>
<path d="M77.5249 73.5935C75.705 73.5449 75.1894 72.5967 75.1712 72.5542C74.9579 71.995 74.7816 71.4225 74.6434 70.8401C72.0591 59.8996 74.2915 52.8794 81.468 49.2934C87.7102 46.1692 93.6006 45.7438 98.5628 48.0777C102.603 49.968 105.842 53.7243 107.547 58.4105C107.864 59.1968 108.107 60.0106 108.275 60.8417L107.668 60.9633C107.523 60.3554 107.353 59.7477 107.165 59.1946C106.473 57.2374 104.945 54.1497 101.899 52.6667C97.301 50.4239 90.5068 55.2924 90.4401 55.341L90.3673 55.3897H90.3127C90.2217 55.3897 81.0494 56.0887 78.0163 59.4316C76.1964 61.4131 77.1002 66.0142 77.7493 69.3814C78.2043 71.7701 78.4106 72.9432 78.0041 73.4233C77.9413 73.4847 77.8659 73.5318 77.7832 73.5612C77.7004 73.5906 77.6123 73.6016 77.5249 73.5935ZM75.705 72.3111C75.705 72.3111 76.0993 72.9493 77.5249 72.9857C77.7615 72.7487 77.4096 70.9253 77.1245 69.4604C76.4572 65.9716 75.5352 61.1882 77.5431 58.9818C80.6187 55.6024 89.1479 54.8366 90.161 54.7272C90.9557 54.1619 97.4406 49.7431 102.172 52.0467C102.853 52.3748 103.493 52.7829 104.077 53.2623C102.545 51.2572 100.562 49.6431 98.2899 48.5518C93.5278 46.3212 87.8012 46.7284 81.7288 49.7674C74.8436 53.2137 72.7143 60.0394 75.2197 70.6335C75.3498 71.1802 75.5139 71.7181 75.7111 72.2442L75.705 72.3111Z" fill="black"/>
<path d="M82.9058 68.0443C83.9667 66.5296 85.4626 65.3742 87.1946 64.7317C90.0033 63.741 91.3804 64.6406 91.3804 64.6406" fill="white"/>
<path d="M83.1 68.1416C83.9449 66.9068 85.1 65.9172 86.4486 65.2727C87.5585 64.7003 88.799 64.4299 90.0459 64.4887C90.4698 64.5057 90.8844 64.6178 91.2592 64.8169C91.5079 64.9749 91.7323 64.5798 91.4897 64.4218C91.071 64.1949 90.6064 64.066 90.1309 64.0449C88.8619 63.9667 87.5941 64.2158 86.4486 64.7682C84.9317 65.4462 83.6335 66.5344 82.6996 67.9106C82.5419 68.1598 82.9362 68.3908 83.0939 68.1416H83.1Z" fill="black"/>
<path d="M105.436 61.0423C103.911 60.4049 102.216 60.3021 100.625 60.7506C98.199 61.5468 97.7622 63.0663 97.7622 63.0663" fill="white"/>
<path d="M105.551 60.8478C103.879 60.0963 101.982 60.0201 100.256 60.6351C99.2 61.0363 97.8958 61.8507 97.5439 62.9995C97.5278 63.0575 97.5354 63.1196 97.565 63.172C97.5946 63.2244 97.6437 63.2629 97.7016 63.279C97.7596 63.2952 97.8215 63.2876 97.8739 63.2579C97.9262 63.2283 97.9646 63.1791 97.9807 63.121C98.2901 62.0999 99.5519 61.3706 100.498 61.0302C102.086 60.4971 103.816 60.5729 105.351 61.2429C105.618 61.3584 105.849 60.9694 105.582 60.8478H105.551Z" fill="black"/>
<path d="M85.4116 78.0732C84.6045 78.0914 83.8124 77.8531 83.1488 77.3924C81.6141 76.3045 81.2258 74.2744 81.1409 73.6544L79.7032 73.0101L79.2725 71.1867L79.4848 71.0773C79.5273 71.0773 83.5189 69.0533 86.9827 67.7526C89.3943 66.8638 91.9415 66.4011 94.511 66.385H95.1723C95.997 66.2992 96.7852 65.9997 97.4593 65.5159C99.3599 64.4089 101.4 63.5626 103.526 62.9995C108.573 61.5469 110.52 61.2247 110.599 61.2065L110.878 61.1639L111.193 62.5011L110.544 63.5344C110.714 64.513 111.466 69.3451 109.562 70.4087C106.844 71.9282 103.046 73.8185 101.445 72.7306C100.322 71.8914 99.3429 70.8753 98.5451 69.7219L99.0486 69.3754C99.8048 70.4663 100.731 71.4287 101.791 72.2261C102.458 72.6819 104.302 72.6515 109.264 69.8799C110.641 69.108 110.205 65.0175 109.926 63.5283V63.4128L110.569 62.3917L110.441 61.8629C109.744 61.9967 107.681 62.4707 103.72 63.583C101.647 64.126 99.6558 64.9436 97.799 66.0142C97.0417 66.5465 96.1597 66.8731 95.239 66.9624H94.5717C92.0665 66.9775 89.583 67.4279 87.2315 68.2935C84.259 69.4119 80.8801 71.053 80.0126 71.4845L80.2613 72.5482L81.7475 73.2168V73.393C81.7475 73.393 81.972 75.7635 83.5249 76.8636C84.0107 77.1696 84.5587 77.3628 85.1286 77.4291C85.6986 77.4953 86.2762 77.433 86.8189 77.2466C91.672 75.9702 94.0015 74.8153 94.0015 71.7763H94.6081C94.6081 75.1982 92.036 76.4929 86.9706 77.8179C86.4647 77.9726 85.9403 78.0585 85.4116 78.0732Z" fill="black"/>
<path d="M95.4876 80.1335C95.6597 80.5793 95.7137 81.062 95.6447 81.5348C95.5756 82.0077 95.3856 82.4546 95.0933 82.8322" fill="white"/>
<path d="M95.342 83.0086L94.8506 82.656C95.1106 82.3225 95.2806 81.9277 95.3444 81.5094C95.4081 81.0911 95.3634 80.6633 95.2146 80.2673L95.7605 80.006C95.9592 80.4994 96.0251 81.0364 95.9516 81.5633C95.8782 82.0902 95.6679 82.5886 95.342 83.0086Z" fill="black"/>
<path d="M111.915 40.5H251.148C251.771 40.5015 252.369 40.75 252.809 41.1917C253.25 41.6335 253.499 42.2325 253.5 42.8578V137.438C253.5 137.452 253.496 137.503 253.412 137.591C253.327 137.681 253.179 137.786 252.96 137.884C252.521 138.08 251.881 138.214 251.149 138.214H111.915C111.18 138.214 110.54 138.08 110.102 137.884C109.617 137.667 109.564 137.47 109.564 137.438V42.8567C109.564 42.2314 109.812 41.6318 110.253 41.1899C110.694 40.7481 111.292 40.5 111.915 40.5Z" fill="#CACACA" stroke="black"/>
<path d="M202.867 152.603C200.301 150.056 198.767 145.917 198.767 141.461V94.9519C198.767 94.8527 198.748 94.7544 198.711 94.6625C198.673 94.5707 198.618 94.4873 198.548 94.4172C198.478 94.347 198.395 94.2916 198.303 94.254C198.211 94.2164 198.113 94.1975 198.014 94.1983H165.044C164.844 94.1983 164.653 94.2777 164.512 94.419C164.371 94.5603 164.292 94.7521 164.292 94.9519V141.461C164.292 145.898 162.763 150.056 160.191 152.603L156.157 156.59H206.907L202.867 152.603Z" fill="white"/>
<path d="M207.647 156.894H155.417L159.978 152.384C162.49 149.898 163.988 145.819 163.988 141.443V94.952C163.988 94.6715 164.099 94.4025 164.297 94.2041C164.495 94.0058 164.764 93.8944 165.044 93.8944H198.014C198.295 93.8944 198.564 94.0056 198.763 94.2038C198.962 94.4019 199.074 94.6709 199.076 94.952V141.461C199.076 145.819 200.574 149.898 203.079 152.402L207.647 156.894ZM156.891 156.286H206.179L202.667 152.815C200.046 150.22 198.481 145.977 198.481 141.461V94.952C198.48 94.8321 198.431 94.7177 198.346 94.6335C198.261 94.5494 198.146 94.5022 198.026 94.5022H165.044C164.925 94.5022 164.81 94.5496 164.726 94.634C164.642 94.7183 164.595 94.8327 164.595 94.952V141.461C164.595 145.977 163.03 150.22 160.403 152.815L156.891 156.286Z" fill="black"/>
<path d="M206.907 156.59H156.157V157.878H206.907V156.59Z" fill="#CACACA"/>
</g>
<defs>
<clipPath id="clip0_2034_51836">
<rect width="200" height="118.486" fill="white" transform="translate(54 40)"/>
</clipPath>
</defs>
</svg>
