<svg width="400" height="385" viewBox="0 0 400 385" fill="none" xmlns="http://www.w3.org/2000/svg">
<g clip-path="url(#clip0_696_49371)">
<path d="M219.519 290.085C219.519 290.085 217.552 328.689 193.584 338.378C171.094 346.776 148.089 353.732 124.709 359.204C122.772 359.204 86.488 271.402 86.488 271.402L149.856 287.58C149.856 287.58 145.62 273.334 160.66 277.198C160.66 277.198 181.631 200.865 200.938 180.13C220.245 159.395 252.383 155.984 252.383 155.984" fill="white"/>
<path d="M124.709 360.652C123.377 360.652 121.683 360.653 85.0963 271.916L83.9463 269.139L147.92 285.468C147.634 284.025 147.668 282.538 148.018 281.109C148.368 279.681 149.027 278.346 149.947 277.198C151.258 276.081 152.835 275.322 154.527 274.994C156.219 274.667 157.966 274.781 159.601 275.326C162.627 264.551 181.692 198.511 199.819 179.044C219.307 158.097 250.931 154.626 252.262 154.505L252.595 157.523C252.262 157.523 220.729 161.055 202.058 181.126C183.386 201.198 162.355 276.805 162.143 277.711L161.749 279.129L160.297 278.767C157.573 278.073 153.911 277.62 152.126 279.461C150.341 281.302 150.855 285.799 151.309 287.278L152.066 289.814L89.0605 273.726C102.406 305.992 121.804 351.9 125.375 357.695C148.343 352.194 170.959 345.32 193.1 337.11C215.857 328.055 218.036 290.568 218.066 290.206H221.093C221.093 291.806 218.793 329.896 194.22 339.766C171.534 348.24 148.313 355.217 124.709 360.652Z" fill="black"/>
<path d="M351.4 164.737C351.4 164.737 386.927 227.939 378.181 300.891C369.436 373.842 365.925 387.062 365.925 387.062H209.23L212.861 338.317C210.561 331.013 220.487 311.153 220.487 311.153C217.007 306.535 219.458 290.025 219.458 290.025C213.799 283.626 211.076 265.879 212.861 251.24" fill="white"/>
<path d="M367.196 388.571H207.717L211.53 338.498C209.563 331.255 216.977 315.288 218.944 311.334C216.19 306.143 217.612 293.919 218.036 290.629C212.589 283.717 209.684 266.302 211.56 251.18L214.586 251.572C212.801 266.09 215.645 283.324 220.82 289.18L221.274 289.723V290.418C220.366 296.454 219.761 307.35 222 310.338L222.575 311.093L222.152 311.938C219.458 317.28 212.861 332.432 214.616 337.955V338.257L211.015 385.644H364.866C365.804 381.177 369.496 361.92 376.82 300.8C385.414 229.207 350.583 166.186 350.22 165.582L352.852 164.103C353.215 164.737 388.531 228.543 379.816 301.163C371.1 373.782 367.711 387.002 367.529 387.545L367.196 388.571Z" fill="black"/>
<path d="M276.29 376.679H59.1617V387.062H276.29V376.679Z" fill="white"/>
<path d="M277.803 388.571H57.6487V375.17H277.803V388.571ZM60.6749 385.553H274.777V378.189H60.6749V385.553Z" fill="black"/>
<path d="M261.764 345.229C254 341.098 245.394 338.788 236.6 338.474C227.806 338.16 219.056 339.851 211.015 343.418C194.627 350.08 180.383 361.093 169.829 375.261L278.227 376.83C278.561 370.577 277.211 364.348 274.316 358.791C271.421 353.233 267.087 348.551 261.764 345.229Z" fill="white"/>
<path d="M279.588 378.219L167.045 376.589L168.558 374.295C169.072 373.48 181.994 353.982 210.44 341.879C218.688 338.177 227.681 336.423 236.719 336.753C245.757 337.083 254.597 339.488 262.551 343.78C268.16 347.241 272.718 352.161 275.735 358.01C278.753 363.859 280.116 370.418 279.679 376.981L279.588 378.219ZM172.764 373.661L276.835 375.17C276.869 369.414 275.427 363.744 272.647 358.699C269.866 353.654 265.839 349.402 260.947 346.346C253.382 342.384 245.018 340.174 236.477 339.881C227.937 339.589 219.441 341.221 211.621 344.656C196.479 350.999 183.135 360.96 172.764 373.661Z" fill="black"/>
<path d="M332.184 147.653C353.392 152.318 371.888 165.166 383.629 183.39C404.509 214.599 397.821 271.644 395.885 290.146C393.948 308.648 377.728 356.88 377.728 356.88C377.728 356.88 354.154 375.382 311.152 376.529C268.15 377.675 267.363 376.529 267.363 376.529C279.861 364.214 257.528 350.209 244.848 339.404C244.848 339.404 271.357 319.393 297.262 316.435C306.229 315.65 315.128 314.228 323.892 312.179C318.832 294.495 318.167 275.848 321.955 257.85C325.892 238.912 333.365 220.881 343.986 204.699" fill="white"/>
<path d="M281.223 378.43C267.211 378.43 266.697 377.796 266.364 377.344L265.517 376.287L266.485 375.351C267.527 374.472 268.356 373.369 268.912 372.125C269.467 370.881 269.734 369.529 269.693 368.168C269.3 360.713 259.101 352.564 250.114 345.38C247.965 343.69 245.907 342.03 244.061 340.43L242.639 339.223L244.122 338.076C245.241 337.261 271.357 317.763 297.292 314.805C305.657 313.976 313.971 312.697 322.197 310.972C317.503 293.487 316.985 275.148 320.684 257.428C324.7 238.296 332.253 220.077 342.957 203.703L345.438 205.423C334.97 221.461 327.582 239.3 323.65 258.031C319.946 275.772 320.6 294.142 325.556 311.575L326.071 313.055L324.527 313.507C315.673 315.679 306.671 317.203 297.594 318.065C275.927 320.54 253.473 335.42 247.481 339.645C248.903 340.853 250.507 342.06 252.02 343.297C261.492 350.873 272.265 359.475 272.719 368.259C272.832 370.849 272.065 373.402 270.54 375.502C274.565 375.714 284.915 375.895 311.303 375.17C350.341 374.114 373.43 358.328 376.487 356.095C378.121 351.175 392.616 307.32 394.402 290.116L394.583 288.546C396.732 268.233 402.391 214.297 382.479 184.386C370.95 166.446 352.808 153.751 331.972 149.042L332.426 146.024C333.697 146.205 363.928 151.004 384.93 182.424C405.538 213.24 399.758 267.961 397.579 288.546L397.428 290.146C395.491 308.587 379.876 355.22 379.271 357.212V357.634L378.908 357.906C377.909 358.691 354.456 376.74 311.545 377.887C297.413 378.43 287.82 378.43 281.223 378.43Z" fill="black"/>
<path d="M346.013 139.052C346.013 139.052 369.557 152.06 365.32 167.906C361.083 183.752 307.823 242.306 262.43 222.235C217.037 202.163 224.966 155.199 224.966 155.199C224.966 155.199 247.783 86.3526 346.013 139.052Z" fill="white"/>
<path d="M282.463 227.939C275.427 227.967 268.465 226.506 262.037 223.653C216.311 203.37 223.635 155.441 223.725 154.958C226.521 147.567 230.827 140.836 236.37 135.193C241.913 129.55 248.572 125.118 255.924 122.179C279.468 112.792 310.032 118.014 346.709 137.723C347.708 138.297 371.251 151.517 366.742 168.298C363.928 178.892 341.141 206.721 312.423 220.394C303.129 225.116 292.891 227.695 282.463 227.939ZM280.829 120.67C272.719 120.576 264.666 122.031 257.104 124.956C250.213 127.763 243.963 131.932 238.731 137.213C233.499 142.494 229.393 148.776 226.661 155.682C226.388 157.342 219.701 201.59 263.277 220.907C277.44 227.185 293.539 226.098 311.242 217.677C338.75 204.578 361.326 177.383 363.958 167.514C367.802 153.086 345.801 140.651 345.378 140.349C320.866 127.25 299.289 120.67 280.829 120.67Z" fill="black"/>
<path d="M8.26147 251.271H137.056L187.926 376.679H59.1618L8.26147 251.271Z" fill="white"/>
<path d="M190.165 378.189H58.133L6.05249 249.792H138.085L190.165 378.189ZM60.0395 375.17H185.626L135.966 252.81H10.5313L60.0395 375.17Z" fill="black"/>
<path d="M206.99 201.258C206.99 201.258 194.19 236.873 218.611 257.096L206.99 201.258Z" fill="white"/>
<path d="M217.643 258.243C192.707 237.598 205.538 201.107 205.538 200.896L208.382 201.922C208.382 202.254 196.278 236.783 219.549 256.07L217.643 258.243Z" fill="black"/>
<path d="M385.989 222.386C385.989 222.386 367.439 191.509 356.635 205.363C345.832 219.217 327.251 244.6 330.368 280.819C333.485 317.039 326.555 323.226 326.555 323.226C326.555 323.226 298.079 321.687 282.161 327.089C272.789 330.213 263.867 334.546 255.621 339.977C255.621 339.977 272.477 354.405 275.14 360.381C276.726 364.506 277.125 368.991 276.29 373.329C276.29 373.329 347.738 372.635 365.108 357.483C382.479 342.332 394.432 279.461 385.989 222.386Z" fill="#DBE5FB"/>
<path d="M323.65 226.4C323.65 226.4 285.036 243.302 261.916 239.379C238.796 235.455 214.859 208.441 214.859 208.441C214.859 208.441 207.142 216.923 214.859 232.346C218.636 239.403 221.815 246.763 224.361 254.349C224.361 254.349 219.731 255.979 221.789 266.241C223.505 273.918 225.739 281.471 228.476 288.848C227.083 290.174 226.106 291.876 225.665 293.747C225.224 295.617 225.339 297.575 225.995 299.382C227.962 306.324 229.021 309.131 229.021 309.131C229.021 309.131 225.692 310.157 223.362 319.423C221.885 325.629 220.954 331.951 220.578 338.317C220.578 338.317 246.149 322.23 270.177 316.857C286.364 313.391 302.76 310.982 319.262 309.644C317.385 295.175 316.576 280.587 316.841 266C318.082 252.644 320.359 239.405 323.65 226.4Z" fill="#DBE5FB"/>
<path d="M244.908 259.631C238.084 259.728 231.26 259.375 224.482 258.575L224.905 255.556C248.358 258.937 310.97 252.87 311.575 252.81L311.878 255.828C309.88 256.039 272.598 259.631 244.908 259.631Z" fill="black"/>
<path d="M232.804 290.357C232.804 290.357 264.911 300.77 288.485 300.861L232.804 290.357Z" fill="white"/>
<path d="M288.516 302.37C264.972 302.37 232.683 291.896 232.35 291.776L233.288 288.908C233.621 288.908 265.487 299.261 288.546 299.351L288.516 302.37Z" fill="black"/>
<path d="M243.517 339.615C234.196 265.396 261.099 221.903 261.371 221.48L263.943 223.08C263.671 223.503 237.343 266.151 246.512 339.223L243.517 339.615Z" fill="black"/>
<path d="M351.218 158.61C351.218 158.61 347.677 191.509 301.922 208.441C256.166 225.374 235.346 164.737 235.346 164.737C235.346 164.737 237.101 153.207 252.444 164.254C267.786 175.301 295.809 156.98 301.952 152.181C308.095 147.382 345.801 134.615 351.218 158.61Z" fill="#512DED"/>
<path d="M194.371 218.462C194.371 218.462 183.931 249.973 181.994 267.539C181.238 276.196 179.822 284.783 177.757 293.225C177.757 293.225 168.861 283.204 162.627 283.204C156.393 283.204 162.627 300.861 162.627 300.861L177.092 335.601C183.056 335.577 188.858 333.66 193.657 330.127C198.456 326.595 202.002 321.63 203.783 315.952C210.985 295.518 195.521 235.817 194.371 218.462Z" fill="#DBE5FB"/>
<path d="M287.91 46.783C287.91 46.783 279.921 36.5511 255.379 43.7647C232.683 50.4351 224.482 68.8465 220.82 86.0204C217.158 103.194 225.027 124.352 220.82 140.168C216.614 155.984 216.039 157.674 215.887 165.672C215.736 173.671 251.445 155.954 251.445 155.954" fill="white"/>
<path d="M218.914 169.143C217.863 169.196 216.818 168.967 215.887 168.479C215.381 168.164 214.971 167.716 214.704 167.183C214.437 166.65 214.323 166.055 214.374 165.461C214.374 157.614 215.01 155.773 218.853 141.526L219.367 139.595C221.456 131.808 220.517 122.662 219.519 113.004C218.52 103.345 217.552 94.1396 219.519 85.5376C224.603 61.9348 236.223 47.779 255.137 42.1952C280.375 34.8004 288.909 45.2136 289.272 45.7569L286.881 47.598C286.881 47.598 279.074 38.3319 255.984 45.0928C238.009 50.4049 227.357 63.4438 222.484 86.1713C220.729 94.3206 221.698 103.647 222.636 112.672C223.634 122.209 224.663 132.049 222.424 140.379L221.909 142.311C218.157 156.225 217.673 158.036 217.522 165.522C220.548 167.574 237.071 161.266 250.809 154.414L252.171 157.101C245.877 160.3 227.326 169.143 218.914 169.143Z" fill="black"/>
<path d="M229.566 99.4821C230.359 102.894 231.431 106.236 232.773 109.473C220.911 134.162 247.481 155.38 247.481 155.38C250.227 158.314 253.65 160.535 257.452 161.85C261.255 163.165 265.321 163.534 269.299 162.926C292.601 160.3 306.007 129.031 306.007 129.031C306.975 126.405 307.823 123.839 308.609 121.334C309.349 122.004 310.243 122.481 311.212 122.723C315.57 123.749 320.29 119.704 321.713 113.668C323.135 107.631 320.775 101.776 316.417 100.75C315.339 100.445 314.197 100.445 313.118 100.75C316.508 71.8347 304.433 54.8721 284.37 51.7029" fill="white"/>
<path d="M265.819 164.616C262.188 164.701 258.58 164.019 255.231 162.615C251.883 161.21 248.87 159.115 246.391 156.467C244.394 154.777 220.003 133.739 231.109 109.412C229.848 106.297 228.836 103.088 228.083 99.8141L231.109 99.1199C231.847 102.447 232.859 105.708 234.135 108.869L234.408 109.503L234.105 110.106C222.878 133.468 248.147 153.992 248.389 154.203L248.631 154.445C251.213 157.181 254.427 159.247 257.992 160.462C261.557 161.677 265.366 162.005 269.088 161.417C291.239 158.912 304.464 128.729 304.585 128.427C305.432 126.103 306.279 123.598 307.127 120.882L307.823 118.678L309.578 120.187C310.123 120.698 310.789 121.062 311.515 121.244C314.965 122.028 318.989 118.376 320.2 113.155C320.839 110.688 320.702 108.086 319.806 105.7C319.516 104.838 319.024 104.057 318.372 103.422C317.719 102.787 316.925 102.316 316.054 102.048C315.218 101.872 314.351 101.924 313.542 102.198L311.303 102.893L311.575 100.569C314.601 74.0985 304.433 56.3812 284.098 53.1818L284.582 50.1636C306.158 53.5742 317.355 71.7442 314.844 98.9086C315.504 98.879 316.166 98.9399 316.811 99.0897C318.162 99.4525 319.404 100.14 320.428 101.093C321.451 102.045 322.225 103.233 322.681 104.553C323.811 107.513 324.001 110.747 323.226 113.819C321.592 120.731 316.054 125.349 310.879 124.171C310.4 124.046 309.933 123.874 309.487 123.658C308.821 125.711 308.156 127.643 307.46 129.514C306.885 130.902 293.418 161.689 269.481 164.375C268.266 164.528 267.044 164.609 265.819 164.616Z" fill="black"/>
<path d="M274.05 134.766C268.899 136.485 263.586 137.678 258.193 138.327C251.475 138.81 249.115 136.818 249.115 136.818" fill="white"/>
<path d="M256.136 139.987C253.335 140.248 250.527 139.58 248.146 138.086L250.083 135.761C252.556 136.983 255.355 137.385 258.072 136.908C263.342 136.281 268.534 135.118 273.566 133.438L274.535 136.456C269.245 138.192 263.789 139.376 258.254 139.987C257.528 139.987 256.801 139.987 256.136 139.987Z" fill="black"/>
<path d="M255.5 127.431C255.5 127.431 250.356 127.824 248.933 125.288C247.511 122.753 254.532 104.583 253.261 101.142" fill="white"/>
<path d="M254.713 128.97C253.371 129.084 252.021 128.868 250.782 128.342C249.542 127.816 248.451 126.995 247.602 125.952C246.694 124.322 247.45 121.002 249.539 113.245C250.658 109.141 252.323 102.983 251.838 101.716L254.683 100.629C255.47 102.681 254.35 107.058 252.474 114.03C251.354 117.439 250.624 120.962 250.295 124.534C250.961 125.711 254.078 125.952 255.379 125.831L255.621 128.85L254.713 128.97Z" fill="black"/>
<path d="M263.641 104.824C263.641 104.824 264.306 97.7315 270.359 97.1882C274.735 97.2274 278.982 98.6779 282.463 101.323" fill="white"/>
<path d="M265.154 104.915L262.127 104.704C262.184 102.485 263.026 100.359 264.505 98.7011C265.985 97.0434 268.005 95.9621 270.207 95.6489C274.999 95.6351 279.661 97.206 283.462 100.116L281.586 102.5C278.383 100.084 274.495 98.7425 270.48 98.6672C265.638 99.1199 265.184 104.674 265.154 104.915Z" fill="black"/>
<path d="M280.829 90.1554C280.829 90.1554 275.442 84.1188 270.147 87.1371C266.591 89.2374 263.282 91.7279 260.281 94.5621" fill="white"/>
<path d="M261.28 95.4676L259.162 93.3246C262.252 90.3925 265.674 87.8299 269.36 85.6885C275.624 82.1269 281.646 88.8877 281.919 89.1594L279.649 91.1515C279.649 91.1515 274.958 85.9601 270.843 88.3144C267.402 90.3427 264.196 92.7415 261.28 95.4676Z" fill="black"/>
<path d="M248.51 98.8785C248.51 98.8785 240.854 91.4535 235.225 98.8785H248.51Z" fill="white"/>
<path d="M247.45 99.9649C245.663 98.1638 243.269 97.0883 240.732 96.9467C239.858 97.0536 239.019 97.3493 238.271 97.8132C237.524 98.2772 236.887 98.8983 236.405 99.633L234.014 97.7919C234.749 96.7144 235.713 95.8119 236.837 95.1492C237.962 94.4866 239.22 94.0801 240.521 93.9586C243.903 94.0337 247.137 95.3563 249.599 97.671L247.45 99.9649Z" fill="black"/>
<path d="M247.42 105.79C247.042 104.743 246.333 103.847 245.399 103.238C244.466 102.628 243.359 102.337 242.245 102.41C238.221 102.621 236.98 108.114 236.98 108.114" fill="white"/>
<path d="M238.463 108.476L235.437 107.782C235.437 107.511 237.01 101.172 242.094 100.901C243.545 100.789 244.992 101.161 246.208 101.959C247.425 102.756 248.34 103.934 248.812 105.307L245.937 106.273C245.647 105.544 245.134 104.925 244.472 104.503C243.809 104.08 243.031 103.876 242.245 103.919C239.522 104.07 238.463 108.416 238.463 108.476Z" fill="black"/>
<path d="M242.432 112.378C243.655 112.195 244.445 110.71 244.197 109.061C243.949 107.413 242.756 106.225 241.533 106.408C240.31 106.591 239.52 108.076 239.768 109.725C240.016 111.373 241.209 112.561 242.432 112.378Z" fill="black"/>
<path d="M268.967 108.435C270.19 108.252 270.98 106.767 270.732 105.118C270.484 103.47 269.291 102.282 268.068 102.465C266.845 102.649 266.055 104.133 266.303 105.782C266.551 107.43 267.744 108.618 268.967 108.435Z" fill="black"/>
<path d="M275.594 64.0175C275.594 64.0175 271.962 68.4542 261.613 68.4542C251.263 68.4542 243.668 77.7808 239.734 84.7831C235.698 91.3447 231.293 97.673 226.54 103.738" fill="white"/>
<path d="M227.75 104.643L225.359 102.802C230.045 96.7883 234.409 90.5317 238.432 84.0585C241.307 78.8973 249.296 66.945 261.583 66.945C270.934 66.945 274.323 63.1119 274.353 63.0515L276.683 64.9832C276.532 65.1945 272.507 69.9633 261.552 69.9633C250.87 69.9633 243.637 80.8593 241.035 85.5376C236.965 92.1468 232.53 98.5251 227.75 104.643Z" fill="black"/>
<path d="M343.259 125.681C332.94 106.303 325.102 110.77 322.439 83.4249C319.776 56.0794 305.311 44.8816 290.301 48.4733C275.291 52.0651 277.622 68.907 277.622 68.907C284.841 73.4624 290.695 79.8748 294.568 87.4693C300.772 99.9951 304.131 106.907 304.131 106.907C304.131 106.907 311.848 99.1199 316.447 100.599C321.047 102.078 323.196 107.39 321.743 113.517C320.291 119.644 315.691 123.749 311.242 122.572C310.273 122.33 309.379 121.853 308.64 121.183C308.942 146.748 307.944 163.077 317.9 167.031C327.856 170.985 353.609 145.088 343.259 125.681Z" fill="white"/>
<path d="M320.17 169.114C319.195 169.12 318.228 168.935 317.325 168.57C307.399 164.646 307.308 150.461 307.157 128.82C307.157 126.435 307.157 123.93 307.157 121.334V117.984L309.729 120.187C310.274 120.698 310.941 121.062 311.666 121.244C315.116 122.028 319.141 118.376 320.351 113.155C321.562 107.933 319.685 103.194 316.084 102.017C313.27 101.142 307.611 105.639 305.311 108.054L303.798 109.563L302.86 107.662C302.86 107.662 299.501 100.75 293.297 88.2239C289.57 80.8493 283.94 74.5984 276.986 70.1143L276.351 69.7521V69.0278C276.351 68.8467 274.051 50.7672 290.18 46.9038C293.423 46.071 296.809 45.961 300.099 46.5818C303.389 47.2026 306.501 48.5389 309.215 50.4956C315.025 54.6608 322.348 63.7156 324.194 83.1834C325.798 100.388 329.52 104.674 334.665 110.559C338.646 114.936 342.062 119.793 344.833 125.017C351.158 136.818 345.014 150.37 337.177 159.093C332.153 164.405 325.496 169.114 320.17 169.114ZM310.153 123.99C310.153 125.62 310.153 127.22 310.153 128.789C310.153 149.163 310.395 162.594 318.414 165.763C322.016 167.212 328.824 163.53 334.665 157.07C341.807 149.072 347.466 136.848 341.898 126.405C339.234 121.38 335.939 116.715 332.093 112.521C326.797 106.485 322.591 101.625 320.896 83.4552C319.564 69.1184 314.843 58.2828 307.157 52.9103C304.794 51.2275 302.089 50.0845 299.233 49.5629C296.377 49.0412 293.441 49.1537 290.634 49.8921C278.529 52.9103 278.771 64.9834 279.014 68.0017C286.191 72.7355 292.002 79.2595 295.869 86.9261L304.554 104.523C307.217 102.138 312.725 97.973 316.841 99.2708C322.015 100.931 324.739 107.239 323.166 113.97C321.592 120.701 315.993 125.5 310.819 124.322L310.153 123.99Z" fill="black"/>
<path d="M187.926 94.4717C187.917 77.4516 183.223 60.7606 174.356 46.2183C165.49 31.6761 152.791 19.8407 137.643 12.0026C122.496 4.16438 105.481 0.624348 88.4554 1.76819C71.4292 2.91204 55.0447 8.69587 41.088 18.4893C27.1313 28.2828 16.1382 41.7099 9.30702 57.3067C2.47586 72.9036 0.0688741 90.0716 2.34851 106.939C4.62815 123.807 11.5069 139.726 22.2349 152.963C32.9628 166.199 47.1281 176.243 63.1866 182.001L94.8404 213.422L126.373 181.971C144.408 175.467 159.993 163.577 171.008 147.919C182.022 132.262 187.93 113.599 187.926 94.4717Z" fill="white"/>
<path d="M94.8404 215.444L62.4906 183.178C41.5569 175.591 23.9734 160.889 12.8294 141.655C1.68544 122.421 -2.3062 99.885 1.55578 78.0067C5.41777 56.1285 16.8864 36.3073 33.9466 22.0257C51.0069 7.74414 72.5674 -0.0842285 94.8404 -0.0842285C117.113 -0.0842285 138.674 7.74414 155.734 22.0257C172.794 36.3073 184.263 56.1285 188.125 78.0067C191.987 99.885 187.995 122.421 176.851 141.655C165.707 160.889 148.124 175.591 127.19 183.178L94.8404 215.444ZM94.8404 2.92777C73.2423 2.91517 52.3329 10.5071 35.7976 24.3655C19.2624 38.2239 8.16271 57.4591 4.45488 78.681C0.747063 99.9028 4.66915 121.749 15.5299 140.369C26.3906 158.989 43.4928 173.187 63.8221 180.462L64.3971 180.794L94.8404 211.279L125.859 180.553C146.188 173.278 163.29 159.079 174.151 140.459C185.012 121.839 188.934 99.9933 185.226 78.7714C181.518 57.5496 170.418 38.3144 153.883 24.4559C137.348 10.5975 116.438 3.00562 94.8404 3.01823V2.92777Z" fill="black"/>
<path d="M107.157 60.5464L112.695 77.5996H130.67C132.678 77.5971 134.635 78.2287 136.26 79.4041C137.885 80.5794 139.096 82.238 139.717 84.1419C140.339 86.0457 140.34 88.0971 139.721 90.0017C139.101 91.9063 137.893 93.5662 136.269 94.7434L121.713 105.277L127.281 122.33C127.907 124.237 127.91 126.293 127.29 128.202C126.67 130.111 125.458 131.774 123.829 132.952C122.201 134.13 120.239 134.762 118.227 134.757C116.215 134.752 114.257 134.11 112.634 132.924L98.1086 122.391L83.5527 132.924C81.9293 134.098 79.9753 134.729 77.9703 134.728C75.9652 134.727 74.012 134.093 72.39 132.917C70.768 131.742 69.5605 130.085 68.9401 128.183C68.3198 126.281 68.3185 124.233 68.9363 122.33L74.4742 105.277L59.9486 94.7434C58.3247 93.5662 57.1163 91.9063 56.4968 90.0017C55.8772 88.0971 55.8784 86.0457 56.5001 84.1419C57.1218 82.238 58.3322 80.5794 59.9575 79.4041C61.5828 78.2287 63.5395 77.5971 65.547 77.5996H83.4922L89.0604 60.5464C89.6751 58.6347 90.8826 56.967 92.5088 55.7839C94.135 54.6008 96.0958 53.9633 98.1086 53.9633C100.122 53.9633 102.082 54.6008 103.709 55.7839C105.335 56.967 106.542 58.6347 107.157 60.5464Z" fill="#512DED"/>
<path d="M118.233 136.275C115.899 136.277 113.627 135.525 111.757 134.132L98.1087 124.262L84.4607 134.132C82.5792 135.452 80.3302 136.152 78.0295 136.133C75.7288 136.114 73.4919 135.377 71.6327 134.025C69.7734 132.674 68.3851 130.775 67.6628 128.597C66.9404 126.418 66.9201 124.068 67.6049 121.878L72.8402 105.881L59.1921 95.9809C57.2968 94.6255 55.8831 92.7037 55.1558 90.4937C54.4284 88.2837 54.4252 85.9002 55.1465 83.6882C55.8678 81.4762 57.2762 79.5505 59.1678 78.19C61.0594 76.8295 63.336 76.1049 65.6681 76.1208H82.5239L87.7289 60.0938C88.4352 57.876 89.8366 55.9428 91.727 54.579C93.6174 53.2152 95.8968 52.4928 98.2297 52.518C100.559 52.4945 102.834 53.2181 104.719 54.5822C106.604 55.9462 108 57.8785 108.7 60.0938L113.905 76.1208H130.791C133.114 76.1247 135.376 76.8606 137.254 78.2235C139.132 79.5864 140.53 81.5064 141.248 83.7092C141.966 85.9121 141.968 88.2851 141.253 90.4891C140.538 92.693 139.143 94.6151 137.267 95.9809L123.619 105.881L128.824 121.878C129.571 124.086 129.585 126.475 128.866 128.693C128.147 130.91 126.732 132.838 124.83 134.192C122.911 135.573 120.599 136.303 118.233 136.275ZM98.1087 120.519L113.542 131.717C114.917 132.732 116.582 133.279 118.291 133.28C120.001 133.28 121.666 132.733 123.042 131.72C124.417 130.706 125.43 129.28 125.931 127.649C126.433 126.019 126.397 124.271 125.828 122.662L119.927 104.553L135.361 93.3852C136.731 92.3981 137.752 91.0031 138.277 89.4009C138.802 87.7986 138.803 86.0716 138.282 84.4682C137.761 82.8648 136.743 81.4676 135.375 80.4774C134.008 79.4873 132.36 78.9554 130.67 78.958H111.605L105.553 60.8484C105.055 59.2355 104.045 57.8276 102.675 56.8368C101.305 55.8461 99.6493 55.3261 97.9574 55.3551C96.2643 55.3212 94.6064 55.8391 93.2355 56.8306C91.8645 57.822 90.8555 59.2329 90.3617 60.8484L84.4607 78.958H65.3957C63.7031 78.949 62.0513 79.4762 60.6787 80.464C59.306 81.4518 58.2834 82.8489 57.7582 84.4538C57.2331 86.0588 57.2326 87.7885 57.7568 89.3937C58.281 90.9989 59.3028 92.3966 60.6749 93.3852L76.1084 104.553L70.2073 122.662C69.6531 124.272 69.6285 126.017 70.1369 127.642C70.6452 129.267 71.6602 130.688 73.0341 131.698C74.408 132.708 76.0691 133.254 77.7758 133.258C79.4826 133.261 81.1459 132.722 82.5239 131.717L98.1087 120.519Z" fill="black"/>
</g>
<defs>
<clipPath id="clip0_696_49371">
<rect width="400" height="388.571" fill="white"/>
</clipPath>
</defs>
</svg>
