<svg width="36" height="36" viewBox="0 0 36 36" fill="none" xmlns="http://www.w3.org/2000/svg">
<path d="M19.425 18.9725H21.1875C21.2375 18.32 21.3437 17.8362 21.5062 17.5212C21.6687 17.2062 22.075 16.7675 22.725 16.205C23.4 15.62 23.8687 15.1081 24.1312 14.6694C24.3937 14.2306 24.525 13.7187 24.525 13.1337C24.525 12.0987 24.1312 11.255 23.3438 10.6025C22.5563 9.95 21.525 9.62375 20.25 9.62375C19.3 9.62375 18.45 9.85438 17.7 10.3156C16.95 10.7769 16.4 11.4238 16.05 12.2563L17.7375 12.8975C18.0125 12.335 18.3562 11.9075 18.7687 11.615C19.1812 11.3225 19.675 11.1762 20.25 11.1762C21 11.1762 21.6062 11.3675 22.0687 11.75C22.5312 12.1325 22.7625 12.6162 22.7625 13.2012C22.7625 13.6512 22.65 14.045 22.425 14.3825C22.2 14.72 21.8 15.08 21.225 15.4625C20.425 16.115 19.925 16.6381 19.725 17.0319C19.525 17.4256 19.425 18.0725 19.425 18.9725ZM20.3625 23.225C20.7875 23.225 21.15 23.09 21.45 22.82C21.75 22.55 21.9 22.2238 21.9 21.8413C21.9 21.4588 21.75 21.1325 21.45 20.8625C21.15 20.5925 20.7875 20.4575 20.3625 20.4575C19.9375 20.4575 19.575 20.5925 19.275 20.8625C18.975 21.1325 18.825 21.4588 18.825 21.8413C18.825 22.2238 18.975 22.55 19.275 22.82C19.575 23.09 19.9375 23.225 20.3625 23.225ZM7.5 27.95V5H33V27.95H7.5ZM9.75 25.925H30.75V7.025H9.75V25.925ZM3 32V9.05H5.25V29.975H28.5V32H3ZM9.75 25.925V7.025V25.925Z" fill="#3F3B76"/>
</svg>
