<svg width="37" height="36" viewBox="0 0 37 36" fill="none" xmlns="http://www.w3.org/2000/svg">
<mask id="mask0_2807_51962" style="mask-type:alpha" maskUnits="userSpaceOnUse" x="19" y="13" width="18" height="16">
<path fill-rule="evenodd" clip-rule="evenodd" d="M24.3012 17.8209L28.7646 13.3575C29.2319 12.8822 29.9892 12.8822 30.4645 13.3495C30.7546 13.6395 30.8754 14.0504 30.7948 14.4532L30.0295 18.1431H34.5814C36.3136 18.1431 37.4818 19.9156 36.805 21.5108L34.1786 27.6418C33.9208 28.23 33.3407 28.6167 32.6962 28.6167H25.4453C24.559 28.6167 23.8339 27.8916 23.8339 27.0054V18.9568C23.8339 18.5298 24.0031 18.119 24.3012 17.8209ZM22.2226 27.0054C22.2226 27.8916 21.4975 28.6167 20.6113 28.6167C19.7251 28.6167 19 27.8916 19 27.0054V20.5601C19 19.6739 19.7251 18.9488 20.6113 18.9488C21.4975 18.9488 22.2226 19.6739 22.2226 20.5601V27.0054Z" fill="black"/>
</mask>
<g mask="url(#mask0_2807_51962)">
<rect x="18.2578" y="10.9338" width="21.4842" height="21.4842" fill="#00983D"/>
</g>
<mask id="mask1_2807_51962" style="mask-type:alpha" maskUnits="userSpaceOnUse" x="0" y="7" width="18" height="16">
<path fill-rule="evenodd" clip-rule="evenodd" d="M12.6895 17.7983L8.23316 22.2627C7.76577 22.7381 7.00828 22.7381 6.53283 22.2708C6.24273 21.9807 6.12185 21.5697 6.20244 21.1667L6.96799 17.476H2.41497C0.6824 17.476 -0.486074 15.7031 0.198893 14.1075L2.82595 7.97507C3.07576 7.38681 3.65597 7 4.30064 7H11.5452C12.4316 7 13.1569 7.72526 13.1569 8.61169V16.6621C13.1569 17.0892 12.9876 17.5002 12.6895 17.7983ZM14.7766 8.61169C14.7766 7.72526 15.5019 7 16.3883 7C17.2747 7 18 7.72526 18 8.61169V15.0584C18 15.9449 17.2747 16.6701 16.3883 16.6701C15.5019 16.6701 14.7766 15.9449 14.7766 15.0584V8.61169Z" fill="black"/>
</mask>
<g mask="url(#mask1_2807_51962)">
<rect x="-0.744141" y="4.93335" width="21.4892" height="21.4892" fill="#D63131"/>
</g>
</svg>
