<svg width="36" height="36" viewBox="0 0 36 36" fill="none" xmlns="http://www.w3.org/2000/svg">
<path d="M13.5475 18.025H26.385V16.075H13.5475V18.025ZM13.5475 20.95H20.86V19H13.5475V20.95ZM13.5475 15.1H26.385V13.15H13.5475V15.1ZM10.85 28.1C10.33 28.1 9.875 27.905 9.485 27.515C9.095 27.125 8.9 26.67 8.9 26.15V7.95C8.9 7.43 9.095 6.975 9.485 6.585C9.875 6.195 10.33 6 10.85 6H29.05C29.57 6 30.025 6.195 30.415 6.585C30.805 6.975 31 7.43 31 7.95V26.15C31 26.67 30.805 27.125 30.415 27.515C30.025 27.905 29.57 28.1 29.05 28.1H10.85ZM10.85 26.15H29.05V7.95H10.85V26.15ZM10.85 7.95V26.15V7.95ZM6.95 32C6.43 32 5.975 31.805 5.585 31.415C5.195 31.025 5 30.57 5 30.05V9.9H6.95V30.05H27.1V32H6.95Z" fill="#2680B6"/>
</svg>
