<svg width="27" height="27" viewBox="0 0 27 27" fill="none" xmlns="http://www.w3.org/2000/svg">
<path d="M9.64687 12.6562H20.7563V10.9688H9.64687V12.6562ZM9.64687 15.1875H15.975V13.5H9.64687V15.1875ZM9.64687 10.125H20.7563V8.4375H9.64687V10.125ZM7.3125 21.375C6.8625 21.375 6.46875 21.2062 6.13125 20.8687C5.79375 20.5312 5.625 20.1375 5.625 19.6875V3.9375C5.625 3.4875 5.79375 3.09375 6.13125 2.75625C6.46875 2.41875 6.8625 2.25 7.3125 2.25H23.0625C23.5125 2.25 23.9062 2.41875 24.2437 2.75625C24.5812 3.09375 24.75 3.4875 24.75 3.9375V19.6875C24.75 20.1375 24.5812 20.5312 24.2437 20.8687C23.9062 21.2062 23.5125 21.375 23.0625 21.375H7.3125ZM7.3125 19.6875H23.0625V3.9375H7.3125V19.6875ZM7.3125 3.9375V19.6875V3.9375ZM3.9375 24.75C3.4875 24.75 3.09375 24.5812 2.75625 24.2437C2.41875 23.9062 2.25 23.5125 2.25 23.0625V5.625H3.9375V23.0625H21.375V24.75H3.9375Z" fill="black"/>
</svg>
