<svg width="35" height="25" viewBox="0 0 35 25" fill="none" xmlns="http://www.w3.org/2000/svg">
<path d="M13.65 18.3638L25.025 11.9911L13.65 5.61848V18.3638ZM2.625 24.1331C1.925 24.1331 1.3125 23.9068 0.7875 23.4543C0.2625 23.0018 0 22.4739 0 21.8706L0 2.26247C0 1.65915 0.2625 1.13124 0.7875 0.678742C1.3125 0.226247 1.925 0 2.625 0L32.375 0C33.075 0 33.6875 0.226247 34.2125 0.678742C34.7375 1.13124 35 1.65915 35 2.26247V21.8706C35 22.4739 34.7375 23.0018 34.2125 23.4543C33.6875 23.9068 33.075 24.1331 32.375 24.1331H2.625ZM2.625 21.8706V2.26247V21.8706ZM2.625 21.8706H32.375V2.26247H2.625V21.8706Z" fill="black"/>
</svg>
