<svg width="48" height="48" viewBox="0 0 48 48" fill="none" xmlns="http://www.w3.org/2000/svg">
<path d="M24.2 35.65C24.7333 35.65 25.1833 35.4667 25.55 35.1C25.9167 34.7333 26.1 34.2833 26.1 33.75C26.1 33.2167 25.9167 32.7667 25.55 32.4C25.1833 32.0333 24.7333 31.85 24.2 31.85C23.6667 31.85 23.2167 32.0333 22.85 32.4C22.4833 32.7667 22.3 33.2167 22.3 33.75C22.3 34.2833 22.4833 34.7333 22.85 35.1C23.2167 35.4667 23.6667 35.65 24.2 35.65ZM22.45 28.35H25.4C25.4 27.4833 25.5083 26.6917 25.725 25.975C25.9417 25.2583 26.6167 24.4333 27.75 23.5C28.7833 22.6333 29.5167 21.7833 29.95 20.95C30.3833 20.1167 30.6 19.2 30.6 18.2C30.6 16.4333 30.025 15.0167 28.875 13.95C27.725 12.8833 26.2 12.35 24.3 12.35C22.6667 12.35 21.225 12.7583 19.975 13.575C18.725 14.3917 17.8167 15.5167 17.25 16.95L19.9 17.95C20.2667 17.0167 20.8167 16.2917 21.55 15.775C22.2833 15.2583 23.15 15 24.15 15C25.2833 15 26.2 15.3083 26.9 15.925C27.6 16.5417 27.95 17.3333 27.95 18.3C27.95 19.0333 27.7333 19.725 27.3 20.375C26.8667 21.025 26.2333 21.7 25.4 22.4C24.4 23.2667 23.6583 24.125 23.175 24.975C22.6917 25.825 22.45 26.95 22.45 28.35ZM24 44C21.2 44 18.5833 43.4917 16.15 42.475C13.7167 41.4583 11.6 40.05 9.8 38.25C8 36.45 6.58333 34.3333 5.55 31.9C4.51667 29.4667 4 26.8333 4 24C4 21.2 4.51667 18.5833 5.55 16.15C6.58333 13.7167 8 11.6 9.8 9.8C11.6 8 13.7167 6.58333 16.15 5.55C18.5833 4.51667 21.2 4 24 4C26.7667 4 29.3667 4.51667 31.8 5.55C34.2333 6.58333 36.35 8 38.15 9.8C39.95 11.6 41.375 13.7167 42.425 16.15C43.475 18.5833 44 21.2 44 24C44 26.8333 43.475 29.4667 42.425 31.9C41.375 34.3333 39.95 36.45 38.15 38.25C36.35 40.05 34.2333 41.4583 31.8 42.475C29.3667 43.4917 26.7667 44 24 44ZM24 41C28.7 41 32.7083 39.3333 36.025 36C39.3417 32.6667 41 28.6667 41 24C41 19.3333 39.3417 15.3333 36.025 12C32.7083 8.66667 28.7 7 24 7C19.2333 7 15.2083 8.66667 11.925 12C8.64167 15.3333 7 19.3333 7 24C7 28.6667 8.64167 32.6667 11.925 36C15.2083 39.3333 19.2333 41 24 41Z" fill="black"/>
</svg>
