<svg width="22" height="22" viewBox="0 0 22 22" fill="none" xmlns="http://www.w3.org/2000/svg">
<mask id="mask0_1737_51544" style="mask-type:alpha" maskUnits="userSpaceOnUse" x="3" y="4" width="16" height="14">
<path d="M4.77458 11.9165H15.0137L10.5404 16.3898C10.1829 16.7473 10.1829 17.334 10.5404 17.6915C10.8979 18.049 11.4754 18.049 11.8329 17.6915L17.8737 11.6507C18.2312 11.2932 18.2312 10.7157 17.8737 10.3582L11.8421 4.30815C11.6708 4.1365 11.4383 4.04004 11.1958 4.04004C10.9534 4.04004 10.7208 4.1365 10.5496 4.30815C10.1921 4.66565 10.1921 5.24315 10.5496 5.60065L15.0137 10.0832H4.77458C4.27041 10.0832 3.85791 10.4957 3.85791 10.9998C3.85791 11.504 4.27041 11.9165 4.77458 11.9165Z" fill="black"/>
</mask>
<g mask="url(#mask0_1737_51544)">
<rect width="22" height="22" fill="#512DED"/>
</g>
</svg>
