<svg width="30" height="30" viewBox="0 0 30 30" fill="none" xmlns="http://www.w3.org/2000/svg">
<mask id="mask0_2488_51949" style="mask-type:alpha" maskUnits="userSpaceOnUse" x="6" y="6" width="18" height="18">
<path d="M22.8749 7.13738C22.6414 6.90332 22.3243 6.77178 21.9937 6.77178C21.663 6.77178 21.3459 6.90332 21.1124 7.13738L14.9999 13.2374L8.8874 7.12488C8.65386 6.89082 8.3368 6.75928 8.00615 6.75928C7.67551 6.75928 7.35844 6.89082 7.1249 7.12488C6.6374 7.61238 6.6374 8.39988 7.1249 8.88738L13.2374 14.9999L7.1249 21.1124C6.6374 21.5999 6.6374 22.3874 7.1249 22.8749C7.6124 23.3624 8.3999 23.3624 8.8874 22.8749L14.9999 16.7624L21.1124 22.8749C21.5999 23.3624 22.3874 23.3624 22.8749 22.8749C23.3624 22.3874 23.3624 21.5999 22.8749 21.1124L16.7624 14.9999L22.8749 8.88738C23.3499 8.41238 23.3499 7.61238 22.8749 7.13738Z" fill="black"/>
</mask>
<g mask="url(#mask0_2488_51949)">
<rect width="30" height="30" fill="white"/>
</g>
</svg>
