<svg width="35" height="36" viewBox="0 0 35 36" fill="none" xmlns="http://www.w3.org/2000/svg">
<path d="M17.5002 0.737061C19.0708 0.736967 20.5818 1.28592 21.7234 2.27131C22.865 3.2567 23.5506 4.60382 23.6395 6.03632L23.6489 6.35434H33.5815C33.941 6.35445 34.2871 6.47921 34.5498 6.70343C34.8125 6.92765 34.9722 7.23461 34.9967 7.56229C35.0212 7.88996 34.9086 8.21391 34.6818 8.46869C34.4549 8.72347 34.1306 8.89007 33.7745 8.93484L33.5815 8.94694H32.0755L29.6539 31.4506C29.5326 32.5726 28.9787 33.6185 28.0911 34.4018C27.2036 35.1851 26.0402 35.6547 24.8087 35.7267L24.4757 35.7371H10.5247C9.29018 35.737 8.09587 35.3359 7.15523 34.6055C6.2146 33.875 5.58894 32.8628 5.39007 31.7497L5.34655 31.4489L2.92301 8.94694H1.41894C1.07605 8.94692 0.744768 8.83348 0.486353 8.62759C0.227939 8.42169 0.0598759 8.13728 0.0132434 7.82694L0 7.65064C1.44597e-05 7.33739 0.12419 7.03474 0.349564 6.79866C0.574937 6.56258 0.886261 6.40905 1.22596 6.36644L1.41894 6.35434H11.3515C11.3515 4.86455 11.9993 3.43577 13.1524 2.38232C14.3055 1.32888 15.8695 0.737061 17.5002 0.737061ZM29.2244 8.94694H5.77413L8.17118 31.1948C8.22426 31.6913 8.46372 32.1556 8.84891 32.5091C9.23411 32.8626 9.74131 33.0834 10.2845 33.1341L10.5247 33.1445H24.4757C25.6109 33.1445 26.5738 32.4099 26.7933 31.4126L26.8311 31.1948L29.2244 8.94694ZM20.8111 13.7C21.154 13.7 21.4852 13.8135 21.7437 14.0194C22.0021 14.2253 22.1701 14.5097 22.2168 14.82L22.23 14.9963V27.0951C22.2299 27.4235 22.0933 27.7397 21.8479 27.9797C21.6025 28.2197 21.2665 28.3656 20.9078 28.388C20.5491 28.4104 20.1945 28.3075 19.9156 28.1003C19.6367 27.893 19.4544 27.5968 19.4054 27.2714L19.3921 27.0951V14.9963C19.3921 14.6525 19.5416 14.3228 19.8077 14.0797C20.0738 13.8366 20.4347 13.7 20.8111 13.7ZM14.1894 13.7C14.5323 13.7 14.8635 13.8135 15.1219 14.0194C15.3804 14.2253 15.5484 14.5097 15.5951 14.82L15.6083 14.9963V27.0951C15.6082 27.4235 15.4716 27.7397 15.2262 27.9797C14.9808 28.2197 14.6448 28.3656 14.2861 28.388C13.9274 28.4104 13.5728 28.3075 13.2939 28.1003C13.015 27.893 12.8327 27.5968 12.7837 27.2714L12.7704 27.0951V14.9963C12.7704 14.6525 12.9199 14.3228 13.186 14.0797C13.4521 13.8366 13.813 13.7 14.1894 13.7ZM17.5002 3.32965C16.6693 3.32968 15.8688 3.61513 15.2576 4.12935C14.6463 4.64356 14.2691 5.34894 14.2007 6.10546L14.1894 6.35434H20.8111C20.8111 5.55215 20.4622 4.7828 19.8413 4.21556C19.2204 3.64833 18.3783 3.32965 17.5002 3.32965Z" fill="#F4F4F4"/>
</svg>
