<svg width="42" height="42" viewBox="0 0 42 42" fill="none" xmlns="http://www.w3.org/2000/svg">
<mask id="mask0_2545_51884" style="mask-type:alpha" maskUnits="userSpaceOnUse" x="5" y="5" width="32" height="32">
<path fill-rule="evenodd" clip-rule="evenodd" d="M8.75 5.25H33.25C35.175 5.25 36.75 6.825 36.75 8.75V33.25C36.75 35.175 35.175 36.75 33.25 36.75H8.75C6.825 36.75 5.25 35.175 5.25 33.25V28C5.25 27.0375 6.0375 26.25 7 26.25C7.9625 26.25 8.75 27.0375 8.75 28V31.5C8.75 32.4625 9.5375 33.25 10.5 33.25H31.5C32.4625 33.25 33.25 32.4625 33.25 31.5V10.5C33.25 9.5375 32.4625 8.75 31.5 8.75H10.5C9.5375 8.75 8.75 9.5375 8.75 10.5V14C8.75 14.9625 7.9625 15.75 7 15.75C6.0375 15.75 5.25 14.9625 5.25 14V8.75C5.25 6.825 6.8075 5.25 8.75 5.25ZM27.6325 22.225L21.35 28.5075C20.6675 29.19 19.565 29.19 18.8825 28.5075C18.2175 27.8425 18.2 26.7225 18.8825 26.04L22.1725 22.75H7C6.0375 22.75 5.25 21.9625 5.25 21C5.25 20.0375 6.0375 19.25 7 19.25H22.1725L18.8825 15.9425C18.2 15.26 18.2 14.1575 18.8825 13.475C19.2095 13.1473 19.6533 12.9632 20.1162 12.9632C20.5792 12.9632 21.023 13.1473 21.35 13.475L27.6325 19.7575C28.315 20.44 28.315 21.5425 27.6325 22.225Z" fill="black"/>
</mask>
<g mask="url(#mask0_2545_51884)">
<rect width="42" height="42" fill="black"/>
</g>
</svg>
