<svg width="30" height="30" viewBox="0 0 30 30" fill="none" xmlns="http://www.w3.org/2000/svg">
<mask id="mask0_2800_51897" style="mask-type:alpha" maskUnits="userSpaceOnUse" x="6" y="6" width="18" height="18">
<path d="M22.8754 7.13751C22.6419 6.90344 22.3248 6.7719 21.9941 6.7719C21.6635 6.7719 21.3464 6.90344 21.1129 7.13751L15.0004 13.2375L8.88789 7.12501C8.65435 6.89094 8.33729 6.7594 8.00664 6.7594C7.67599 6.7594 7.35893 6.89094 7.12539 7.12501C6.63789 7.61251 6.63789 8.40001 7.12539 8.88751L13.2379 15L7.12539 21.1125C6.63789 21.6 6.63789 22.3875 7.12539 22.875C7.61289 23.3625 8.40039 23.3625 8.88789 22.875L15.0004 16.7625L21.1129 22.875C21.6004 23.3625 22.3879 23.3625 22.8754 22.875C23.3629 22.3875 23.3629 21.6 22.8754 21.1125L16.7629 15L22.8754 8.88751C23.3504 8.41251 23.3504 7.61251 22.8754 7.13751Z" fill="black"/>
</mask>
<g mask="url(#mask0_2800_51897)">
<rect width="30" height="30" fill="#EF3B3B"/>
</g>
</svg>
