<svg width="32" height="32" viewBox="0 0 32 32" fill="none" xmlns="http://www.w3.org/2000/svg">
<g clip-path="url(#clip0_1693_50971)">
<path d="M28.0007 13.3333H16.8673C15.774 10.2267 12.814 8 9.33398 8C4.92065 8 1.33398 11.5867 1.33398 16C1.33398 20.4133 4.92065 24 9.33398 24C12.814 24 15.774 21.7733 16.8673 18.6667H17.334L20.0007 21.3333L22.6673 18.6667L25.334 21.3333L30.6673 15.9467L28.0007 13.3333ZM9.33398 20C7.13398 20 5.33398 18.2 5.33398 16C5.33398 13.8 7.13398 12 9.33398 12C11.534 12 13.334 13.8 13.334 16C13.334 18.2 11.534 20 9.33398 20Z" fill="black"/>
</g>
<defs>
<clipPath id="clip0_1693_50971">
<rect width="32" height="32" fill="black"/>
</clipPath>
</defs>
</svg>
