<svg width="189" height="182" viewBox="0 0 189 182" fill="none" xmlns="http://www.w3.org/2000/svg">
<rect x="90.6934" y="11.2862" width="113" height="113" rx="22.5" transform="rotate(45 90.6934 11.2862)" stroke="#AEACAC" stroke-width="15"/>
<rect x="97.5098" y="10.6066" width="113" height="113" rx="22.5" transform="rotate(45 97.5098 10.6066)" stroke="#C4C4C4" stroke-width="15"/>
<path d="M121.793 106.793L109.879 94.8378C112.141 95.616 114.227 96.5356 116.136 97.526C119.566 99.33 121.722 102.902 121.793 106.793ZM126 121.013L121.015 126L111.788 116.803H65.2273V106.97C65.2273 103.009 67.3838 99.3653 70.9192 97.5614C75.4798 95.2269 81.0657 93.2461 87.4293 92.4325L56 60.9874L60.9848 56L126 121.013ZM104.717 109.729L94.1111 99.1177C93.899 99.1177 93.7222 99.1177 93.5101 99.1177C85.1313 99.1177 78.3434 101.7 74.1364 103.858C73.0051 104.423 72.298 105.626 72.298 106.97V109.729H104.717ZM93.5101 67.2835C97.399 67.2835 100.581 70.4669 100.581 74.3578C100.581 77.3997 98.6717 79.9818 95.9848 80.9722L101.217 86.2072C105.106 83.6958 107.652 79.3098 107.652 74.3578C107.652 66.5407 101.323 60.2092 93.5101 60.2092C88.5606 60.2092 84.1768 62.7559 81.6667 66.6468L86.899 71.8818C87.8889 69.1935 90.4697 67.2835 93.5101 67.2835Z" fill="#686868"/>
</svg>
