<svg width="312" height="269" viewBox="0 0 312 269" fill="none" xmlns="http://www.w3.org/2000/svg">
<rect x="117.201" width="100" height="100" rx="20" transform="rotate(20 117.201 0)" fill="#512DED"/>
<rect x="181.871" y="139.981" width="100" height="100" rx="20" transform="rotate(20 181.871 139.981)" fill="#5ED1BC"/>
<rect x="217.889" y="38.4744" width="100" height="100" rx="20" transform="rotate(20 217.889 38.4744)" fill="url(#paint0_linear_2340_51880)"/>
<path d="M59.7188 141.375C59.7188 145.531 58.6406 149.266 56.4844 152.578C54.3594 155.891 51.2344 158.484 47.1094 160.359C42.9844 162.234 38.0938 163.172 32.4375 163.172C25.6562 163.172 20.0625 161.891 15.6562 159.328C12.5312 157.484 9.98438 155.031 8.01562 151.969C6.07812 148.875 5.10938 145.875 5.10938 142.969C5.10938 141.281 5.6875 139.844 6.84375 138.656C8.03125 137.438 9.53125 136.828 11.3438 136.828C12.8125 136.828 14.0469 137.297 15.0469 138.234C16.0781 139.172 16.9531 140.562 17.6719 142.406C18.5469 144.594 19.4844 146.422 20.4844 147.891C21.5156 149.359 22.9531 150.578 24.7969 151.547C26.6406 152.484 29.0625 152.953 32.0625 152.953C36.1875 152.953 39.5312 152 42.0938 150.094C44.6875 148.156 45.9844 145.75 45.9844 142.875C45.9844 140.594 45.2812 138.75 43.875 137.344C42.5 135.906 40.7031 134.812 38.4844 134.062C36.2969 133.312 33.3594 132.516 29.6719 131.672C24.7344 130.516 20.5938 129.172 17.25 127.641C13.9375 126.078 11.2969 123.969 9.32812 121.312C7.39062 118.625 6.42188 115.297 6.42188 111.328C6.42188 107.547 7.45312 104.188 9.51562 101.25C11.5781 98.3125 14.5625 96.0625 18.4688 94.5C22.375 92.9062 26.9688 92.1094 32.25 92.1094C36.4688 92.1094 40.1094 92.6406 43.1719 93.7031C46.2656 94.7344 48.8281 96.125 50.8594 97.875C52.8906 99.5938 54.375 101.406 55.3125 103.312C56.25 105.219 56.7188 107.078 56.7188 108.891C56.7188 110.547 56.125 112.047 54.9375 113.391C53.7812 114.703 52.3281 115.359 50.5781 115.359C48.9844 115.359 47.7656 114.969 46.9219 114.188C46.1094 113.375 45.2188 112.062 44.25 110.25C43 107.656 41.5 105.641 39.75 104.203C38 102.734 35.1875 102 31.3125 102C27.7188 102 24.8125 102.797 22.5938 104.391C20.4062 105.953 19.3125 107.844 19.3125 110.062C19.3125 111.438 19.6875 112.625 20.4375 113.625C21.1875 114.625 22.2188 115.484 23.5312 116.203C24.8438 116.922 26.1719 117.484 27.5156 117.891C28.8594 118.297 31.0781 118.891 34.1719 119.672C38.0469 120.578 41.5469 121.578 44.6719 122.672C47.8281 123.766 50.5 125.094 52.6875 126.656C54.9062 128.219 56.625 130.203 57.8438 132.609C59.0938 134.984 59.7188 137.906 59.7188 141.375ZM82.2656 118.219V119.766C84.5156 116.797 86.9688 114.625 89.625 113.25C92.3125 111.844 95.3906 111.141 98.8594 111.141C102.234 111.141 105.25 111.875 107.906 113.344C110.562 114.812 112.547 116.891 113.859 119.578C114.703 121.141 115.25 122.828 115.5 124.641C115.75 126.453 115.875 128.766 115.875 131.578V155.391C115.875 157.953 115.281 159.891 114.094 161.203C112.938 162.516 111.422 163.172 109.547 163.172C107.641 163.172 106.094 162.5 104.906 161.156C103.719 159.812 103.125 157.891 103.125 155.391V134.062C103.125 129.844 102.531 126.625 101.344 124.406C100.188 122.156 97.8594 121.031 94.3594 121.031C92.0781 121.031 90 121.719 88.125 123.094C86.25 124.438 84.875 126.297 84 128.672C83.375 130.578 83.0625 134.141 83.0625 139.359V155.391C83.0625 157.984 82.4531 159.938 81.2344 161.25C80.0469 162.531 78.5 163.172 76.5938 163.172C74.75 163.172 73.2344 162.5 72.0469 161.156C70.8594 159.812 70.2656 157.891 70.2656 155.391V118.406C70.2656 115.969 70.7969 114.156 71.8594 112.969C72.9219 111.75 74.375 111.141 76.2188 111.141C77.3438 111.141 78.3594 111.406 79.2656 111.938C80.1719 112.469 80.8906 113.266 81.4219 114.328C81.9844 115.391 82.2656 116.688 82.2656 118.219ZM176.578 137.156C176.578 140.969 175.984 144.484 174.797 147.703C173.609 150.922 171.891 153.688 169.641 156C167.391 158.312 164.703 160.094 161.578 161.344C158.453 162.562 154.938 163.172 151.031 163.172C147.156 163.172 143.672 162.547 140.578 161.297C137.484 160.047 134.797 158.266 132.516 155.953C130.266 153.609 128.547 150.859 127.359 147.703C126.203 144.516 125.625 141 125.625 137.156C125.625 133.281 126.219 129.734 127.406 126.516C128.594 123.297 130.297 120.547 132.516 118.266C134.734 115.984 137.422 114.234 140.578 113.016C143.734 111.766 147.219 111.141 151.031 111.141C154.906 111.141 158.422 111.766 161.578 113.016C164.734 114.266 167.438 116.047 169.688 118.359C171.938 120.672 173.641 123.422 174.797 126.609C175.984 129.797 176.578 133.312 176.578 137.156ZM163.734 137.156C163.734 131.938 162.578 127.875 160.266 124.969C157.984 122.062 154.906 120.609 151.031 120.609C148.531 120.609 146.328 121.266 144.422 122.578C142.516 123.859 141.047 125.766 140.016 128.297C138.984 130.828 138.469 133.781 138.469 137.156C138.469 140.5 138.969 143.422 139.969 145.922C141 148.422 142.453 150.344 144.328 151.688C146.234 153 148.469 153.656 151.031 153.656C154.906 153.656 157.984 152.203 160.266 149.297C162.578 146.359 163.734 142.312 163.734 137.156ZM229.266 138.094V155.109C229.266 157.797 228.656 159.812 227.438 161.156C226.219 162.5 224.609 163.172 222.609 163.172C220.672 163.172 219.094 162.5 217.875 161.156C216.688 159.812 216.094 157.797 216.094 155.109V134.719C216.094 131.5 215.984 129 215.766 127.219C215.547 125.438 214.953 123.984 213.984 122.859C213.016 121.703 211.484 121.125 209.391 121.125C205.203 121.125 202.438 122.562 201.094 125.438C199.781 128.312 199.125 132.438 199.125 137.812V155.109C199.125 157.766 198.516 159.781 197.297 161.156C196.109 162.5 194.531 163.172 192.562 163.172C190.625 163.172 189.031 162.5 187.781 161.156C186.562 159.781 185.953 157.766 185.953 155.109V118.5C185.953 116.094 186.5 114.266 187.594 113.016C188.719 111.766 190.188 111.141 192 111.141C193.75 111.141 195.203 111.734 196.359 112.922C197.547 114.078 198.141 115.688 198.141 117.75V118.969C200.359 116.312 202.734 114.359 205.266 113.109C207.797 111.859 210.609 111.234 213.703 111.234C216.922 111.234 219.688 111.875 222 113.156C224.312 114.438 226.219 116.375 227.719 118.969C229.875 116.344 232.188 114.406 234.656 113.156C237.125 111.875 239.859 111.234 242.859 111.234C246.359 111.234 249.375 111.922 251.906 113.297C254.438 114.672 256.328 116.641 257.578 119.203C258.672 121.516 259.219 125.156 259.219 130.125V155.109C259.219 157.797 258.609 159.812 257.391 161.156C256.172 162.5 254.562 163.172 252.562 163.172C250.625 163.172 249.031 162.5 247.781 161.156C246.562 159.781 245.953 157.766 245.953 155.109V133.594C245.953 130.844 245.828 128.641 245.578 126.984C245.359 125.328 244.734 123.938 243.703 122.812C242.672 121.688 241.109 121.125 239.016 121.125C237.328 121.125 235.719 121.625 234.188 122.625C232.688 123.625 231.516 124.969 230.672 126.656C229.734 128.812 229.266 132.625 229.266 138.094Z" fill="white"/>
<defs>
<linearGradient id="paint0_linear_2340_51880" x1="267.889" y1="38.4744" x2="267.889" y2="138.474" gradientUnits="userSpaceOnUse">
<stop stop-color="#512DED"/>
<stop offset="1" stop-color="#5ED1BC"/>
</linearGradient>
</defs>
</svg>
