<svg width="23" height="23" viewBox="0 0 23 23" fill="none" xmlns="http://www.w3.org/2000/svg">
<mask id="mask0_2365_51889" style="mask-type:alpha" maskUnits="userSpaceOnUse" x="0" y="0" width="23" height="23">
<path fill-rule="evenodd" clip-rule="evenodd" d="M23 1.54233V8.30296C23 8.6608 22.7188 8.94196 22.361 8.94196H15.6004C15.0253 8.94196 14.7441 8.25184 15.1531 7.84288L17.8241 5.17185C16.201 3.56157 13.9645 2.55195 11.498 2.55195C6.52655 2.55195 2.47528 6.64155 2.55196 11.6258C2.62864 16.3799 6.62879 20.3801 11.3702 20.444C15.9838 20.5079 19.8306 17.0573 20.3801 12.597C20.4568 11.9708 20.9935 11.498 21.6325 11.498C22.3993 11.498 23 12.1625 22.9105 12.9293C22.2076 18.6037 17.364 23 11.498 23C4.71178 23 -0.694168 17.1212 0.0726332 10.1944C0.660514 4.83957 5.06962 0.532703 10.4245 0.0470621C14.0284 -0.272439 17.3257 1.05668 19.6389 3.36987L21.9137 1.09502C22.3099 0.686063 23 0.967224 23 1.54233ZM10.22 12.0475V7.34446C10.22 6.82048 10.6545 6.38595 11.1785 6.38595C11.7025 6.38595 12.137 6.82048 12.1498 7.33168V11.6769L15.8176 13.8623C16.2777 14.1306 16.4183 14.7185 16.1499 15.1786C15.8815 15.6259 15.2936 15.7793 14.8336 15.5109L10.8462 13.1466C10.4628 12.9165 10.22 12.4948 10.22 12.0475Z" fill="black"/>
</mask>
<g mask="url(#mask0_2365_51889)">
<rect x="-3.83594" y="-3.83594" width="30.6721" height="30.6721" fill="black"/>
</g>
</svg>
