<svg width="1000" height="1000" viewBox="0 0 1000 1000" fill="none" xmlns="http://www.w3.org/2000/svg">
<g clip-path="url(#clip0_1_1055)">
<path d="M1000 0H0V1000H1000V0Z" fill="#D82435"/>
<path opacity="0.15" d="M625.9 290L655 213.4L742.8 197" stroke="#262626" stroke-width="14" stroke-miterlimit="10" stroke-linecap="round" stroke-linejoin="round"/>
<path opacity="0.15" d="M261.4 684.2H771.8" stroke="#262626" stroke-width="8" stroke-miterlimit="10" stroke-linecap="round" stroke-linejoin="round"/>
<g opacity="0.6">
<path opacity="0.15" d="M700.6 684.201H561.1L518.9 380.101H742.8L700.6 684.201Z" stroke="#262626" stroke-width="8" stroke-miterlimit="10" stroke-linecap="round" stroke-linejoin="round"/>
<path opacity="0.15" d="M771.8 380.101H488.4V368.301C488.4 345.301 507.1 326.601 530.1 326.601H730C753 326.601 771.7 345.301 771.7 368.301V380.101H771.8Z" stroke="#262626" stroke-width="8" stroke-miterlimit="10" stroke-linecap="round" stroke-linejoin="round"/>
<path opacity="0.15" d="M731.1 326.6H529.1V325.7C529.1 305.9 545.1 289.9 564.9 289.9H695.4C715.2 289.9 731.2 305.9 731.2 325.7V326.6H731.1Z" fill="white"/>
<path opacity="0.15" d="M731.1 326.6H529.1V325.7C529.1 305.9 545.1 289.9 564.9 289.9H695.4C715.2 289.9 731.2 305.9 731.2 325.7V326.6H731.1Z" stroke="#262626" stroke-width="8" stroke-miterlimit="10" stroke-linecap="round" stroke-linejoin="round"/>
<path opacity="0.15" d="M717.2 564.601L730.6 467.601H531.1L544.5 564.601H717.2Z" fill="white"/>
<path opacity="0.15" d="M717.2 564.601L730.6 467.601H531.1L544.5 564.601H717.2Z" stroke="#262626" stroke-width="8" stroke-miterlimit="10" stroke-linecap="round" stroke-linejoin="round"/>
</g>
<g opacity="0.6">
<path opacity="0.6" d="M301 516.1H305.6" stroke="#DF5E4C" stroke-width="3" stroke-miterlimit="10" stroke-linecap="round" stroke-linejoin="round"/>
<path opacity="0.6" d="M303.301 513.8V518.4" stroke="#DF5E4C" stroke-width="3" stroke-miterlimit="10" stroke-linecap="round" stroke-linejoin="round"/>
</g>
<g opacity="0.67">
<path opacity="0.67" d="M771.801 535.5H776.401" stroke="#DF5E4C" stroke-width="3" stroke-miterlimit="10" stroke-linecap="round" stroke-linejoin="round"/>
<path opacity="0.67" d="M774.102 533.2V537.8" stroke="#DF5E4C" stroke-width="3" stroke-miterlimit="10" stroke-linecap="round" stroke-linejoin="round"/>
</g>
<path d="M252.699 516.1H242.699" stroke="#F7931E" stroke-width="4" stroke-miterlimit="10" stroke-linecap="round" stroke-linejoin="round"/>
<path d="M247.699 511.1V521.1" stroke="#F7931E" stroke-width="4" stroke-miterlimit="10" stroke-linecap="round" stroke-linejoin="round"/>
<g opacity="0.7">
<path opacity="0.7" d="M747.9 500H737.6" stroke="#F7931E" stroke-width="4" stroke-miterlimit="10" stroke-linecap="round" stroke-linejoin="round"/>
<path opacity="0.7" d="M742.799 494.8V505.2" stroke="#F7931E" stroke-width="4" stroke-miterlimit="10" stroke-linecap="round" stroke-linejoin="round"/>
</g>
<g opacity="0.4">
<path opacity="0.4" d="M288.5 604.5H298.5" stroke="#622F2F" stroke-width="5" stroke-miterlimit="10" stroke-linecap="round" stroke-linejoin="round"/>
<path opacity="0.4" d="M293.5 599.5V609.5" stroke="#622F2F" stroke-width="5" stroke-miterlimit="10" stroke-linecap="round" stroke-linejoin="round"/>
</g>
<g opacity="0.6">
<path opacity="0.6" d="M670.4 604.5H677.8" stroke="#8DC838" stroke-width="3" stroke-miterlimit="10" stroke-linecap="round"/>
<path opacity="0.6" d="M674.1 600.8V608.2" stroke="#8DC838" stroke-width="3" stroke-miterlimit="10" stroke-linecap="round"/>
</g>
<path d="M742.8 575.4C745.451 575.4 747.6 573.251 747.6 570.6C747.6 567.949 745.451 565.8 742.8 565.8C740.149 565.8 738 567.949 738 570.6C738 573.251 740.149 575.4 742.8 575.4Z" stroke="#8DC838" stroke-width="4" stroke-miterlimit="10"/>
<path opacity="0.8" d="M278.4 558.9C280.499 558.9 282.2 557.198 282.2 555.1C282.2 553.001 280.499 551.3 278.4 551.3C276.301 551.3 274.6 553.001 274.6 555.1C274.6 557.198 276.301 558.9 278.4 558.9Z" stroke="#8DC838" stroke-width="4" stroke-miterlimit="10"/>
<path opacity="0.74" d="M730.601 634.7C732.424 634.7 733.901 633.222 733.901 631.4C733.901 629.577 732.424 628.1 730.601 628.1C728.778 628.1 727.301 629.577 727.301 631.4C727.301 633.222 728.778 634.7 730.601 634.7Z" stroke="#622F2F" stroke-width="3" stroke-miterlimit="10" stroke-linecap="round" stroke-linejoin="round"/>
<path d="M586.4 683.999H413.6C377.9 683.999 349 655.199 349 619.499V619.399C349 613.099 354.1 607.899 360.5 607.899H639.6C645.9 607.899 651.1 613.099 651.1 619.499V619.399C651 655.099 622.1 683.999 586.4 683.999Z" fill="#FFAA2B"/>
<g opacity="0.25">
<path opacity="0.62" d="M414 619.499C414 613.099 419.1 607.899 425.5 607.899H360.5C354.2 607.899 349 613.099 349 619.399V619.499C349 655.199 377.9 683.999 413.6 683.999H478.6C442.9 683.999 414 655.199 414 619.499Z" fill="#491200"/>
<path opacity="0.25" d="M349.199 620.1H650.699C649.599 614.1 644.999 609.5 639.499 609.5H360.499C354.999 609.4 350.399 614 349.199 620.1Z" fill="#EAA772"/>
</g>
<path d="M586.4 683.999H413.6C377.9 683.999 349 655.199 349 619.499V619.399C349 613.099 354.1 607.899 360.5 607.899H639.6C645.9 607.899 651.1 613.099 651.1 619.499V619.399C651 655.099 622.1 683.999 586.4 683.999Z" stroke="#442F2F" stroke-width="8" stroke-miterlimit="10" stroke-linecap="round" stroke-linejoin="round"/>
<path d="M512.1 380.2H487.2C410.7 380.2 349.1 422.9 349.1 474.4V474.3C349.1 485.4 362 494.2 378.4 494.2H621C637.4 494.2 651.1 485.4 651.1 474.3C651 422.9 588.6 380.2 512.1 380.2Z" fill="#EAA772"/>
<path d="M512.1 380.2H487.2C410.7 380.2 349.1 422.9 349.1 474.4V474.3C349.1 485.4 362 494.2 378.4 494.2H621C637.4 494.2 651.1 485.4 651.1 474.3C651 422.9 588.6 380.2 512.1 380.2Z" fill="#FFAA2B"/>
<g opacity="0.3">
<path opacity="0.62" d="M532.4 381.3C525.8 380.6 519 380.3 512 380.3H487.1C410.6 380.3 349 423 349 474.5C349 485.5 361.9 494.3 378.3 494.3H417.6V477.4C426.9 426.2 467.7 387.9 532.4 381.3Z" fill="#491200"/>
</g>
<path d="M512.1 380.2H487.2C410.7 380.2 349.1 422.9 349.1 474.4V474.3C349.1 485.4 362 494.2 378.4 494.2H621C637.4 494.2 651.1 485.4 651.1 474.3C651 422.9 588.6 380.2 512.1 380.2Z" stroke="#442F2F" stroke-width="8" stroke-miterlimit="10" stroke-linecap="round" stroke-linejoin="round"/>
<path d="M657.1 575.3C657.1 593.3 642.5 607.9 624.5 607.9H375.6C357.6 607.9 343 593.3 343 575.3C343 557.3 357.6 542.7 375.6 542.7H624.5C642.5 542.7 657.1 557.3 657.1 575.3Z" fill="#5B3E40"/>
<g opacity="0.6">
<path opacity="0.6" d="M359.9 585.401C361.17 585.401 362.2 584.371 362.2 583.101C362.2 581.831 361.17 580.801 359.9 580.801C358.63 580.801 357.6 581.831 357.6 583.101C357.6 584.371 358.63 585.401 359.9 585.401Z" fill="#442F2F"/>
<path opacity="0.6" d="M375.4 595.701C376.67 595.701 377.7 594.671 377.7 593.401C377.7 592.13 376.67 591.101 375.4 591.101C374.13 591.101 373.1 592.13 373.1 593.401C373.1 594.671 374.13 595.701 375.4 595.701Z" fill="#442F2F"/>
<path opacity="0.6" d="M365.599 595.701C366.869 595.701 367.899 594.671 367.899 593.401C367.899 592.13 366.869 591.101 365.599 591.101C364.329 591.101 363.299 592.13 363.299 593.401C363.299 594.671 364.329 595.701 365.599 595.701Z" fill="#442F2F"/>
<path opacity="0.6" d="M359.9 577.5C361.17 577.5 362.2 576.471 362.2 575.2C362.2 573.93 361.17 572.9 359.9 572.9C358.63 572.9 357.6 573.93 357.6 575.2C357.6 576.471 358.63 577.5 359.9 577.5Z" fill="#442F2F"/>
<path opacity="0.6" d="M373.099 583.101C374.369 583.101 375.399 582.071 375.399 580.801C375.399 579.531 374.369 578.501 373.099 578.501C371.829 578.501 370.799 579.531 370.799 580.801C370.799 582.071 371.829 583.101 373.099 583.101Z" fill="#442F2F"/>
<path opacity="0.6" d="M409.099 590C410.369 590 411.399 588.971 411.399 587.7C411.399 586.43 410.369 585.4 409.099 585.4C407.829 585.4 406.799 586.43 406.799 587.7C406.799 588.971 407.829 590 409.099 590Z" fill="#442F2F"/>
<path opacity="0.6" d="M451.4 585.401C452.67 585.401 453.7 584.371 453.7 583.101C453.7 581.831 452.67 580.801 451.4 580.801C450.13 580.801 449.1 581.831 449.1 583.101C449.1 584.371 450.13 585.401 451.4 585.401Z" fill="#442F2F"/>
<path opacity="0.6" d="M611.599 595.701C612.869 595.701 613.899 594.671 613.899 593.401C613.899 592.13 612.869 591.101 611.599 591.101C610.329 591.101 609.299 592.13 609.299 593.401C609.299 594.671 610.329 595.701 611.599 595.701Z" fill="#442F2F"/>
<path opacity="0.6" d="M597.4 595.701C598.67 595.701 599.7 594.671 599.7 593.401C599.7 592.13 598.67 591.101 597.4 591.101C596.13 591.101 595.1 592.13 595.1 593.401C595.1 594.671 596.13 595.701 597.4 595.701Z" fill="#442F2F"/>
<path opacity="0.6" d="M588.599 595.701C589.869 595.701 590.899 594.671 590.899 593.401C590.899 592.13 589.869 591.101 588.599 591.101C587.329 591.101 586.299 592.13 586.299 593.401C586.299 594.671 587.329 595.701 588.599 595.701Z" fill="#442F2F"/>
<path opacity="0.6" d="M593.2 590C594.47 590 595.5 588.971 595.5 587.7C595.5 586.43 594.47 585.4 593.2 585.4C591.93 585.4 590.9 586.43 590.9 587.7C590.9 588.971 591.93 590 593.2 590Z" fill="#442F2F"/>
<path opacity="0.6" d="M635.499 577.5C636.769 577.5 637.799 576.471 637.799 575.2C637.799 573.93 636.769 572.9 635.499 572.9C634.229 572.9 633.199 573.93 633.199 575.2C633.199 576.471 634.229 577.5 635.499 577.5Z" fill="#442F2F"/>
<path opacity="0.6" d="M633.2 590C634.47 590 635.5 588.971 635.5 587.7C635.5 586.43 634.47 585.4 633.2 585.4C631.93 585.4 630.9 586.43 630.9 587.7C630.9 588.971 631.93 590 633.2 590Z" fill="#442F2F"/>
<path opacity="0.6" d="M613.9 575.201C615.17 575.201 616.2 574.171 616.2 572.901C616.2 571.63 615.17 570.601 613.9 570.601C612.63 570.601 611.6 571.63 611.6 572.901C611.6 574.171 612.63 575.201 613.9 575.201Z" fill="#442F2F"/>
<path opacity="0.6" d="M531.599 595.701C532.869 595.701 533.899 594.671 533.899 593.401C533.899 592.13 532.869 591.101 531.599 591.101C530.329 591.101 529.299 592.13 529.299 593.401C529.299 594.671 530.329 595.701 531.599 595.701Z" fill="#442F2F"/>
<path opacity="0.6" d="M511.099 595.701C512.369 595.701 513.399 594.671 513.399 593.401C513.399 592.13 512.369 591.101 511.099 591.101C509.829 591.101 508.799 592.13 508.799 593.401C508.799 594.671 509.829 595.701 511.099 595.701Z" fill="#442F2F"/>
<path opacity="0.6" d="M519.2 595.701C520.47 595.701 521.5 594.671 521.5 593.401C521.5 592.13 520.47 591.101 519.2 591.101C517.93 591.101 516.9 592.13 516.9 593.401C516.9 594.671 517.93 595.701 519.2 595.701Z" fill="#442F2F"/>
<path opacity="0.6" d="M488.4 595.701C489.67 595.701 490.7 594.671 490.7 593.401C490.7 592.13 489.67 591.101 488.4 591.101C487.13 591.101 486.1 592.13 486.1 593.401C486.1 594.671 487.13 595.701 488.4 595.701Z" fill="#442F2F"/>
<path opacity="0.6" d="M478.599 592.201C479.869 592.201 480.899 591.171 480.899 589.901C480.899 588.63 479.869 587.601 478.599 587.601C477.329 587.601 476.299 588.63 476.299 589.901C476.299 591.171 477.329 592.201 478.599 592.201Z" fill="#442F2F"/>
<path opacity="0.6" d="M448.2 594.5C449.47 594.5 450.5 593.471 450.5 592.2C450.5 590.93 449.47 589.9 448.2 589.9C446.93 589.9 445.9 590.93 445.9 592.2C445.9 593.471 446.93 594.5 448.2 594.5Z" fill="#442F2F"/>
</g>
<g opacity="0.15">
<path d="M406.3 590.3V560.3C406.3 550.6 414.2 542.7 423.9 542.7H375.5C357.5 542.7 342.9 557.3 342.9 575.3C342.9 593.3 357.5 607.9 375.5 607.9H424C414.2 607.9 406.3 600 406.3 590.3Z" fill="#3E0004"/>
<path opacity="0.15" d="M624.4 547.7H375.6C357.6 547.7 343 562.3 343 580.3C343 580.8 343 581.2 343 581.7C350.3 579.9 360 578.2 369.6 578.2C379.4 578.2 383.9 579.9 389.2 581.9C394.8 584 401.1 586.3 413 586.3C424.9 586.3 431.2 583.9 436.8 581.9C442.1 579.9 446.6 578.2 456.4 578.2C466.2 578.2 470.7 579.9 476 581.9C481.6 584 487.9 586.3 499.8 586.3C511.7 586.3 518 583.9 523.6 581.8C528.9 579.8 533.4 578.1 543.2 578.1C553 578.1 557.5 579.8 562.8 581.8C568.4 583.9 574.7 586.3 586.6 586.3C598.5 586.3 604.8 583.9 610.4 581.8C615.7 579.8 620.2 578.1 630 578.1C639.7 578.1 644.2 579.8 649.4 581.8C651.6 582.6 654.1 583.6 657 584.3C657.2 583 657.3 581.6 657.3 580.2C657.1 562.3 642.5 547.7 624.4 547.7Z" fill="#5B3E40"/>
</g>
<path d="M657.1 575.3C657.1 593.3 642.5 607.9 624.5 607.9H375.6C357.6 607.9 343 593.3 343 575.3C343 557.3 357.6 542.7 375.6 542.7H624.5C642.5 542.7 657.1 557.3 657.1 575.3Z" stroke="#442F2F" stroke-width="8" stroke-miterlimit="10" stroke-linecap="round" stroke-linejoin="round"/>
<path d="M651 535.4C651 539.4 647.8 542.6 643.8 542.6H356.2C352.2 542.6 349 539.4 349 535.4V518.5C349 514.5 352.2 511.3 356.2 511.3H643.7C647.7 511.3 650.9 514.5 650.9 518.5V535.4H651Z" fill="#D83634"/>
<path d="M651 535.4C651 539.4 647.8 542.6 643.8 542.6H356.2C352.2 542.6 349 539.4 349 535.4V518.5C349 514.5 352.2 511.3 356.2 511.3H643.7C647.7 511.3 650.9 514.5 650.9 518.5V535.4H651Z" fill="#D83634"/>
<path opacity="0.3" d="M403.9 535.4V518.5C403.9 514.5 407.1 511.3 411.1 511.3H356.2C352.2 511.3 349 514.5 349 518.5V535.4C349 539.4 352.2 542.6 356.2 542.6H411.1C407.1 542.7 403.9 539.4 403.9 535.4Z" fill="#D83634"/>
<path opacity="0.2" d="M543.399 511.2H520.699V542.6H543.399V511.2Z" fill="white"/>
<path opacity="0.2" d="M557 511.2H550.4V542.6H557V511.2Z" fill="white"/>
<path d="M651 535.4C651 539.4 647.8 542.6 643.8 542.6H356.2C352.2 542.6 349 539.4 349 535.4V518.5C349 514.5 352.2 511.3 356.2 511.3H643.7C647.7 511.3 650.9 514.5 650.9 518.5V535.4H651Z" stroke="#442F2F" stroke-width="8" stroke-miterlimit="10" stroke-linecap="round" stroke-linejoin="round"/>
<path d="M326.5 533.2C337.8 509.7 366 494.3 397.4 494.3H602.7C634.1 494.3 662.2 509.8 673.6 533.2C651.9 533.2 651.9 513.9 630.2 513.9C608.5 513.9 608.5 533.2 586.8 533.2C565.1 533.2 565.1 513.9 543.4 513.9C521.7 513.9 521.7 533.2 500 533.2C478.3 533.2 478.3 513.9 456.6 513.9C434.9 513.9 434.9 533.2 413.2 533.2C391.5 533.2 391.5 513.9 369.8 513.9C348.1 513.9 348.2 533.2 326.5 533.2Z" fill="#8DC838"/>
<path d="M634.1 500C622.1 493.9 617.5 494.2 602.6 494.2H419H414H397.3C365.9 494.2 337.8 509.7 326.4 533.1C348.1 533.1 348.1 513.8 369.8 513.8C383.7 513.8 394.8 525.4 402.3 531.1L404.7 528.4C409.2 523.3 412.7 517.4 415.1 511.1C417.7 504.5 424 500.1 431.1 500.1L634.1 500Z" fill="#73B727"/>
<path d="M326.5 533.2C337.8 509.7 366 494.3 397.4 494.3H602.7C634.1 494.3 662.2 509.8 673.6 533.2C651.9 533.2 651.9 513.9 630.2 513.9C608.5 513.9 608.5 533.2 586.8 533.2C565.1 533.2 565.1 513.9 543.4 513.9C521.7 513.9 521.7 533.2 500 533.2C478.3 533.2 478.3 513.9 456.6 513.9C434.9 513.9 434.9 533.2 413.2 533.2C391.5 533.2 391.5 513.9 369.8 513.9C348.1 513.9 348.2 533.2 326.5 533.2Z" stroke="#442F2F" stroke-width="8" stroke-miterlimit="10" stroke-linecap="round" stroke-linejoin="round"/>
<path d="M328.601 564.6C327.601 569.2 332.801 573.1 338.101 571.7C346.401 569.5 358.001 567.1 369.601 567.1C391.301 567.1 391.301 575.2 413.001 575.2C434.701 575.2 434.701 567.1 456.401 567.1C478.101 567.1 478.101 575.2 499.801 575.2C521.501 575.2 521.501 567.1 543.201 567.1C564.901 567.1 564.901 575.2 586.601 575.2C608.301 575.2 608.301 567.1 629.901 567.1C647.401 567.1 650.501 572.4 662.701 574.4C667.801 575.3 672.401 571.4 671.401 567.1L670.501 565.2C664.001 551.5 648.201 542.5 630.701 542.5H368.101C350.901 542.7 335.401 551.3 328.601 564.6Z" fill="#FBB03B"/>
<path d="M656.001 549.7C648.801 545.3 640.001 542.7 630.601 542.7H418.501H411.101H404.701H368.101C350.901 542.7 335.301 551.3 328.601 564.7C327.601 569.3 332.801 573.2 338.101 571.8C346.401 569.6 358.001 567.2 369.601 567.2C380.201 567.2 385.601 569.1 390.901 571.1L392.901 569.5C395.701 567.3 398.901 563.5 401.601 559.8C406.301 553.4 413.801 549.7 421.701 549.7H656.001Z" fill="#F99A29"/>
<path d="M328.601 564.6C327.601 569.2 332.801 573.1 338.101 571.7C346.401 569.5 358.001 567.1 369.601 567.1C391.301 567.1 391.301 575.2 413.001 575.2C434.701 575.2 434.701 567.1 456.401 567.1C478.101 567.1 478.101 575.2 499.801 575.2C521.501 575.2 521.501 567.1 543.201 567.1C564.901 567.1 564.901 575.2 586.601 575.2C608.301 575.2 608.301 567.1 629.901 567.1C647.401 567.1 650.501 572.4 662.701 574.4C667.801 575.3 672.401 571.4 671.401 567.1L670.501 565.2C664.001 551.5 648.201 542.5 630.701 542.5H368.101C350.901 542.7 335.401 551.3 328.601 564.6Z" stroke="#442F2F" stroke-width="8" stroke-miterlimit="10" stroke-linecap="round" stroke-linejoin="round"/>
<path d="M417.601 654.999C411.401 654.999 406.301 649.999 406.301 643.699V607.899H428.801V643.699C428.901 649.899 423.801 654.999 417.601 654.999Z" stroke="#442F2F" stroke-width="8" stroke-miterlimit="10" stroke-linecap="round" stroke-linejoin="round"/>
<path d="M417.601 654.999C411.401 654.999 406.301 649.999 406.301 643.699V607.899H428.801V643.699C428.901 649.899 423.801 654.999 417.601 654.999Z" fill="#D83634"/>
<path d="M456 632.2C451 632.2 446.9 628.1 446.9 623.1V607.8H465V623.1C465.1 628.2 461 632.2 456 632.2Z" fill="#D83634"/>
<path d="M456 632.2C451 632.2 446.9 628.1 446.9 623.1V607.8H465V623.1C465.1 628.2 461 632.2 456 632.2Z" stroke="#442F2F" stroke-width="8" stroke-miterlimit="10" stroke-linecap="round" stroke-linejoin="round"/>
<path d="M417.601 654.999C411.401 654.999 406.301 649.999 406.301 643.699V607.899H428.801V643.699C428.901 649.899 423.801 654.999 417.601 654.999Z" stroke="#442F2F" stroke-width="8" stroke-miterlimit="10" stroke-linecap="round" stroke-linejoin="round"/>
<path d="M565.701 661.799C556.401 661.799 548.801 654.199 548.801 644.899V607.899H582.601V644.899C582.601 654.299 575.101 661.799 565.701 661.799Z" fill="#D83634"/>
<path d="M565.701 661.799C556.401 661.799 548.801 654.199 548.801 644.899V607.899H582.601V644.899C582.601 654.299 575.101 661.799 565.701 661.799Z" stroke="#442F2F" stroke-width="8" stroke-miterlimit="10" stroke-linecap="round" stroke-linejoin="round"/>
<path d="M392.5 643.4C394.488 643.4 396.1 641.788 396.1 639.8C396.1 637.812 394.488 636.2 392.5 636.2C390.512 636.2 388.9 637.812 388.9 639.8C388.9 641.788 390.512 643.4 392.5 643.4Z" fill="#442F2F"/>
<path d="M596.1 663.8C597.205 663.8 598.1 662.904 598.1 661.8C598.1 660.695 597.205 659.8 596.1 659.8C594.995 659.8 594.1 660.695 594.1 661.8C594.1 662.904 594.995 663.8 596.1 663.8Z" fill="#442F2F"/>
<path d="M496.1 662.3C496.928 662.3 497.6 661.628 497.6 660.8C497.6 659.971 496.928 659.3 496.1 659.3C495.272 659.3 494.6 659.971 494.6 660.8C494.6 661.628 495.272 662.3 496.1 662.3Z" fill="#442F2F"/>
<path d="M483.8 640.4C485.954 640.4 487.7 638.654 487.7 636.5C487.7 634.346 485.954 632.6 483.8 632.6C481.646 632.6 479.9 634.346 479.9 636.5C479.9 638.654 481.646 640.4 483.8 640.4Z" fill="#442F2F"/>
<path d="M457.6 657.2C458.428 657.2 459.1 656.529 459.1 655.7C459.1 654.872 458.428 654.2 457.6 654.2C456.772 654.2 456.1 654.872 456.1 655.7C456.1 656.529 456.772 657.2 457.6 657.2Z" fill="#442F2F"/>
<path d="M526.401 652C529.77 652 532.501 649.269 532.501 645.9C532.501 642.531 529.77 639.8 526.401 639.8C523.032 639.8 520.301 642.531 520.301 645.9C520.301 649.269 523.032 652 526.401 652Z" fill="#442F2F"/>
<path d="M600.8 641C602.346 641 603.6 639.747 603.6 638.2C603.6 636.654 602.346 635.4 600.8 635.4C599.254 635.4 598 636.654 598 638.2C598 639.747 599.254 641 600.8 641Z" fill="#442F2F"/>
<path d="M509.401 634.2C510.561 634.2 511.501 633.26 511.501 632.1C511.501 630.94 510.561 630 509.401 630C508.241 630 507.301 630.94 507.301 632.1C507.301 633.26 508.241 634.2 509.401 634.2Z" fill="#442F2F"/>
<path d="M427.9 427.699C430.054 427.699 431.8 425.953 431.8 423.799C431.8 421.645 430.054 419.899 427.9 419.899C425.746 419.899 424 421.645 424 423.799C424 425.953 425.746 427.699 427.9 427.699Z" fill="#442F2F"/>
<path d="M487.701 442.699C489.855 442.699 491.601 440.953 491.601 438.799C491.601 436.645 489.855 434.899 487.701 434.899C485.547 434.899 483.801 436.645 483.801 438.799C483.801 440.953 485.547 442.699 487.701 442.699Z" fill="#442F2F"/>
<path d="M510.199 454.1C511.304 454.1 512.199 453.204 512.199 452.1C512.199 450.995 511.304 450.1 510.199 450.1C509.094 450.1 508.199 450.995 508.199 452.1C508.199 453.204 509.094 454.1 510.199 454.1Z" fill="#442F2F"/>
<path d="M581.699 431.499C583.356 431.499 584.699 430.156 584.699 428.499C584.699 426.842 583.356 425.499 581.699 425.499C580.042 425.499 578.699 426.842 578.699 428.499C578.699 430.156 580.042 431.499 581.699 431.499Z" fill="#442F2F"/>
<path d="M508.2 410.599C511.569 410.599 514.3 407.868 514.3 404.499C514.3 401.13 511.569 398.399 508.2 398.399C504.831 398.399 502.1 401.13 502.1 404.499C502.1 407.868 504.831 410.599 508.2 410.599Z" fill="#442F2F"/>
<path d="M554.899 421.599C557.495 421.599 559.599 419.495 559.599 416.899C559.599 414.303 557.495 412.199 554.899 412.199C552.303 412.199 550.199 414.303 550.199 416.899C550.199 419.495 552.303 421.599 554.899 421.599Z" fill="#442F2F"/>
<path d="M453.701 442.299C455.026 442.299 456.101 441.225 456.101 439.899C456.101 438.574 455.026 437.499 453.701 437.499C452.376 437.499 451.301 438.574 451.301 439.899C451.301 441.225 452.376 442.299 453.701 442.299Z" fill="#442F2F"/>
<path d="M526.4 432.499C528.609 432.499 530.4 430.708 530.4 428.499C530.4 426.29 528.609 424.499 526.4 424.499C524.191 424.499 522.4 426.29 522.4 428.499C522.4 430.708 524.191 432.499 526.4 432.499Z" fill="#442F2F"/>
<path d="M480.301 413.699C481.129 413.699 481.801 413.028 481.801 412.199C481.801 411.371 481.129 410.699 480.301 410.699C479.473 410.699 478.801 411.371 478.801 412.199C478.801 413.028 479.473 413.699 480.301 413.699Z" fill="#442F2F"/>
<path d="M437.1 456.199C437.928 456.199 438.6 455.528 438.6 454.699C438.6 453.871 437.928 453.199 437.1 453.199C436.272 453.199 435.6 453.871 435.6 454.699C435.6 455.528 436.272 456.199 437.1 456.199Z" fill="#442F2F"/>
<path d="M599.8 433.2C600.242 433.2 600.6 432.841 600.6 432.4C600.6 431.958 600.242 431.6 599.8 431.6C599.358 431.6 599 431.958 599 432.4C599 432.841 599.358 433.2 599.8 433.2Z" fill="#442F2F"/>
<path d="M456.1 412.1C456.928 412.1 457.6 411.428 457.6 410.6C457.6 409.771 456.928 409.1 456.1 409.1C455.272 409.1 454.6 409.771 454.6 410.6C454.6 411.428 455.272 412.1 456.1 412.1Z" fill="#442F2F"/>
<path d="M568.5 454.1C569.328 454.1 570 453.428 570 452.6C570 451.771 569.328 451.1 568.5 451.1C567.672 451.1 567 451.771 567 452.6C567 453.428 567.672 454.1 568.5 454.1Z" fill="#442F2F"/>
<path d="M544.8 440C545.463 440 546 439.462 546 438.8C546 438.137 545.463 437.6 544.8 437.6C544.137 437.6 543.6 438.137 543.6 438.8C543.6 439.462 544.137 440 544.8 440Z" fill="#442F2F"/>
<path d="M357.801 398.399L365.801 404.499" stroke="#F7931E" stroke-width="4" stroke-miterlimit="10" stroke-linecap="round" stroke-linejoin="round"/>
<path d="M366.801 385.899L374.301 397.399" stroke="#F7931E" stroke-width="4" stroke-miterlimit="10" stroke-linecap="round" stroke-linejoin="round"/>
<path d="M383.5 378.8V392.6" stroke="#F7931E" stroke-width="4" stroke-miterlimit="10" stroke-linecap="round" stroke-linejoin="round"/>
</g>
<defs>
<clipPath id="clip0_1_1055">
<rect width="1000" height="1000" fill="white"/>
</clipPath>
</defs>
</svg>
