<svg width="1000" height="1000" viewBox="0 0 1000 1000" fill="none" xmlns="http://www.w3.org/2000/svg">
<g clip-path="url(#clip0_1_122)">
<path d="M1000 0H0V1000H1000V0Z" fill="#1478C9"/>
<path opacity="0.5" d="M765 498.6L308.1 777.6C294 786.2 275.5 781.8 266.9 767.6L109.3 509.5C100.7 495.4 105.1 476.9 119.3 468.3L576.2 189.4C590.3 180.8 608.8 185.2 617.4 199.4L775 457.5C783.6 471.5 779.1 490 765 498.6Z" fill="#232323" stroke="#232323" stroke-width="8" stroke-miterlimit="10" stroke-linecap="round" stroke-linejoin="round"/>
<path d="M767.7 477L310.8 755.9C296.7 764.5 278.2 760.1 269.6 745.9L112 487.9C103.4 473.8 107.8 455.3 122 446.7L578.9 167.8C593 159.2 611.5 163.6 620.1 177.8L777.7 435.9C786.3 449.9 781.9 468.4 767.7 477Z" fill="#43597A"/>
<path opacity="0.7" d="M571.4 172.3L561.5 178.4C579.8 167.2 603.7 173 614.9 191.3L763.3 434.3C774.5 452.6 768.7 476.5 750.4 487.7L760.3 481.6C778.6 470.4 784.4 446.5 773.2 428.2L624.8 185.2C613.6 166.9 589.7 161.2 571.4 172.3Z" fill="#6A87AD"/>
<path d="M277.7 730.7L129.3 487.7C118.1 469.4 123.9 445.5 142.2 434.3L127.3 443.4C109 454.6 103.2 478.5 114.4 496.8L262.8 739.8C274 758.1 297.9 763.9 316.2 752.7L331.1 743.6C312.8 754.8 288.9 749 277.7 730.7Z" fill="#394E6B"/>
<path d="M767.7 477L310.8 755.9C296.7 764.5 278.2 760.1 269.6 745.9L112 487.9C103.4 473.8 107.8 455.3 122 446.7L578.9 167.8C593 159.2 611.5 163.6 620.1 177.8L777.7 435.9C786.3 449.9 781.9 468.4 767.7 477Z" stroke="#202454" stroke-width="8" stroke-miterlimit="10" stroke-linecap="round" stroke-linejoin="round"/>
<path d="M746.1 462.9L388 681.5C379.5 686.7 368.4 684 363.3 675.5L217.5 436.8C212.3 428.3 215 417.2 223.5 412.1L581.6 193.5C590.1 188.3 601.2 191 606.3 199.5L752.1 438.3C757.3 446.7 754.6 457.7 746.1 462.9Z" fill="#2F3F56"/>
<path d="M270 383.6L434.5 653.1" stroke="#283356" stroke-miterlimit="10" stroke-linecap="round" stroke-linejoin="round"/>
<path d="M323 351.3L487.5 620.8" stroke="#283356" stroke-miterlimit="10" stroke-linecap="round" stroke-linejoin="round"/>
<path d="M376 318.899L540.6 588.399" stroke="#283356" stroke-miterlimit="10" stroke-linecap="round" stroke-linejoin="round"/>
<path d="M429 286.5L593.6 556" stroke="#283356" stroke-miterlimit="10" stroke-linecap="round" stroke-linejoin="round"/>
<path d="M482.1 254.2L646.6 523.7" stroke="#283356" stroke-miterlimit="10" stroke-linecap="round" stroke-linejoin="round"/>
<path d="M535.1 221.8L699.6 491.3" stroke="#283356" stroke-miterlimit="10" stroke-linecap="round" stroke-linejoin="round"/>
<path d="M241.8 476.6L630.7 239.2" stroke="#283356" stroke-miterlimit="10" stroke-linecap="round" stroke-linejoin="round"/>
<path d="M274.2 529.6L663 292.3" stroke="#283356" stroke-miterlimit="10" stroke-linecap="round" stroke-linejoin="round"/>
<path d="M306.6 582.7L695.4 345.3" stroke="#283356" stroke-miterlimit="10" stroke-linecap="round" stroke-linejoin="round"/>
<path d="M338.899 635.7L727.799 398.3" stroke="#283356" stroke-miterlimit="10" stroke-linecap="round" stroke-linejoin="round"/>
<path d="M746.1 462.9L388 681.5C379.5 686.7 368.4 684 363.3 675.5L217.5 436.8C212.3 428.3 215 417.2 223.5 412.1L581.6 193.5C590.1 188.3 601.2 191 606.3 199.5L752.1 438.3C757.3 446.7 754.6 457.7 746.1 462.9Z" stroke="#202454" stroke-width="8" stroke-miterlimit="10" stroke-linecap="round" stroke-linejoin="round"/>
<g opacity="0.8">
<path opacity="0.8" d="M328.4 696.7L303.3 712C300.5 713.7 296.8 712.8 295.1 710L285.2 693.7C283.5 690.9 284.4 687.2 287.2 685.5L312.3 670.2C315.1 668.5 318.8 669.4 320.5 672.2L330.4 688.5C332.1 691.3 331.2 695 328.4 696.7Z" fill="#43597A"/>
<path opacity="0.8" d="M301.4 652.5L276.3 667.8C273.5 669.5 269.8 668.6 268.1 665.8L258.2 649.5C256.5 646.7 257.4 643 260.2 641.3L285.3 626C288.1 624.3 291.8 625.2 293.5 628L303.4 644.3C305.2 647.1 304.3 650.8 301.4 652.5Z" fill="#43597A"/>
</g>
<path d="M328.4 696.7L303.3 712C300.5 713.7 296.8 712.8 295.1 710L285.2 693.7C283.5 690.9 284.4 687.2 287.2 685.5L312.3 670.2C315.1 668.5 318.8 669.4 320.5 672.2L330.4 688.5C332.1 691.3 331.2 695 328.4 696.7Z" stroke="#202454" stroke-width="8" stroke-miterlimit="10" stroke-linecap="round" stroke-linejoin="round"/>
<path d="M301.4 652.5L276.3 667.8C273.5 669.5 269.8 668.6 268.1 665.8L258.2 649.5C256.5 646.7 257.4 643 260.2 641.3L285.3 626C288.1 624.3 291.8 625.2 293.5 628L303.4 644.3C305.2 647.1 304.3 650.8 301.4 652.5Z" stroke="#202454" stroke-width="8" stroke-miterlimit="10" stroke-linecap="round" stroke-linejoin="round"/>
<g opacity="0.8">
<path opacity="0.8" d="M230.4 536.2L205.3 551.5C202.5 553.2 198.8 552.3 197.1 549.5L187.2 533.2C185.5 530.4 186.4 526.7 189.2 525L214.3 509.7C217.1 508 220.8 508.9 222.5 511.7L232.4 528C234.1 530.7 233.2 534.4 230.4 536.2Z" fill="#43597A"/>
<path opacity="0.8" d="M203.4 492L178.3 507.3C175.5 509 171.8 508.1 170.1 505.3L160.2 489C158.5 486.2 159.4 482.5 162.2 480.8L187.3 465.5C190.1 463.8 193.8 464.7 195.5 467.5L205.4 483.8C207.2 486.6 206.3 490.3 203.4 492Z" fill="#43597A"/>
</g>
<path d="M230.4 536.2L205.3 551.5C202.5 553.2 198.8 552.3 197.1 549.5L187.2 533.2C185.5 530.4 186.4 526.7 189.2 525L214.3 509.7C217.1 508 220.8 508.9 222.5 511.7L232.4 528C234.1 530.7 233.2 534.4 230.4 536.2Z" stroke="#202454" stroke-width="8" stroke-miterlimit="10" stroke-linecap="round" stroke-linejoin="round"/>
<path d="M203.4 492L178.3 507.3C175.5 509 171.8 508.1 170.1 505.3L160.2 489C158.5 486.2 159.4 482.5 162.2 480.8L187.3 465.5C190.1 463.8 193.8 464.7 195.5 467.5L205.4 483.8C207.2 486.6 206.3 490.3 203.4 492Z" stroke="#202454" stroke-width="8" stroke-miterlimit="10" stroke-linecap="round" stroke-linejoin="round"/>
<path opacity="0.8" d="M248.356 619.628C265.448 617.935 277.932 602.707 276.239 585.615C274.547 568.524 259.319 556.04 242.227 557.732C225.135 559.425 212.651 574.653 214.344 591.745C216.036 608.836 231.264 621.32 248.356 619.628Z" fill="#B4C7E7"/>
<path d="M248.356 619.628C265.448 617.935 277.932 602.707 276.239 585.615C274.547 568.524 259.319 556.04 242.227 557.732C225.135 559.425 212.651 574.653 214.344 591.745C216.036 608.836 231.264 621.32 248.356 619.628Z" stroke="#22293F" stroke-width="6" stroke-miterlimit="10" stroke-linecap="round" stroke-linejoin="round"/>
<path d="M248.356 619.628C265.448 617.935 277.932 602.707 276.239 585.615C274.547 568.524 259.319 556.04 242.227 557.732C225.135 559.425 212.651 574.653 214.344 591.745C216.036 608.836 231.264 621.32 248.356 619.628Z" stroke="#202454" stroke-width="8" stroke-miterlimit="10" stroke-linecap="round" stroke-linejoin="round"/>
<path d="M232 596.8C227.5 589.5 229.9 579.9 237.2 575.5" stroke="#202454" stroke-width="5" stroke-miterlimit="10" stroke-linecap="round" stroke-linejoin="round"/>
<path d="M663.898 432.799L667.898 439.399" stroke="#707A99" stroke-width="3" stroke-miterlimit="10" stroke-linecap="round" stroke-linejoin="round"/>
<path d="M669.199 433.999L662.599 438.099" stroke="#707A99" stroke-width="3" stroke-miterlimit="10" stroke-linecap="round" stroke-linejoin="round"/>
<path d="M610.898 465.099L614.898 471.799" stroke="#707A99" stroke-width="3" stroke-miterlimit="10" stroke-linecap="round" stroke-linejoin="round"/>
<path d="M616.199 466.398L609.599 470.498" stroke="#707A99" stroke-width="3" stroke-miterlimit="10" stroke-linecap="round" stroke-linejoin="round"/>
<path d="M557.799 497.499L561.899 504.099" stroke="#707A99" stroke-width="3" stroke-miterlimit="10" stroke-linecap="round" stroke-linejoin="round"/>
<path d="M563.199 498.799L556.499 502.799" stroke="#707A99" stroke-width="3" stroke-miterlimit="10" stroke-linecap="round" stroke-linejoin="round"/>
<path d="M504.799 529.898L508.899 536.498" stroke="#707A99" stroke-width="3" stroke-miterlimit="10" stroke-linecap="round" stroke-linejoin="round"/>
<path d="M510.199 531.198L503.499 535.198" stroke="#707A99" stroke-width="3" stroke-miterlimit="10" stroke-linecap="round" stroke-linejoin="round"/>
<path d="M451.799 562.199L455.799 568.899" stroke="#707A99" stroke-width="3" stroke-miterlimit="10" stroke-linecap="round" stroke-linejoin="round"/>
<path d="M457.099 563.499L450.499 567.599" stroke="#707A99" stroke-width="3" stroke-miterlimit="10" stroke-linecap="round" stroke-linejoin="round"/>
<path d="M398.799 594.599L402.799 601.199" stroke="#707A99" stroke-width="3" stroke-miterlimit="10" stroke-linecap="round" stroke-linejoin="round"/>
<path d="M404.099 595.898L397.499 599.898" stroke="#707A99" stroke-width="3" stroke-miterlimit="10" stroke-linecap="round" stroke-linejoin="round"/>
<path d="M631.499 379.699L635.599 386.399" stroke="#707A99" stroke-width="3" stroke-miterlimit="10" stroke-linecap="round" stroke-linejoin="round"/>
<path d="M636.799 380.999L630.199 385.099" stroke="#707A99" stroke-width="3" stroke-miterlimit="10" stroke-linecap="round" stroke-linejoin="round"/>
<path d="M578.499 412.1L582.499 418.7" stroke="#707A99" stroke-width="3" stroke-miterlimit="10" stroke-linecap="round" stroke-linejoin="round"/>
<path d="M583.799 413.399L577.199 417.399" stroke="#707A99" stroke-width="3" stroke-miterlimit="10" stroke-linecap="round" stroke-linejoin="round"/>
<path d="M525.499 444.499L529.499 451.099" stroke="#707A99" stroke-width="3" stroke-miterlimit="10" stroke-linecap="round" stroke-linejoin="round"/>
<path d="M530.799 445.799L524.199 449.799" stroke="#707A99" stroke-width="3" stroke-miterlimit="10" stroke-linecap="round" stroke-linejoin="round"/>
<path d="M472.499 476.799L476.499 483.499" stroke="#707A99" stroke-width="3" stroke-miterlimit="10" stroke-linecap="round" stroke-linejoin="round"/>
<path d="M477.799 478.099L471.199 482.199" stroke="#707A99" stroke-width="3" stroke-miterlimit="10" stroke-linecap="round" stroke-linejoin="round"/>
<path d="M419.399 509.199L423.499 515.799" stroke="#707A99" stroke-width="3" stroke-miterlimit="10" stroke-linecap="round" stroke-linejoin="round"/>
<path d="M424.8 510.499L418.1 514.499" stroke="#707A99" stroke-width="3" stroke-miterlimit="10" stroke-linecap="round" stroke-linejoin="round"/>
<path d="M366.399 541.6L370.499 548.2" stroke="#707A99" stroke-width="3" stroke-miterlimit="10" stroke-linecap="round" stroke-linejoin="round"/>
<path d="M371.7 542.899L365.1 546.899" stroke="#707A99" stroke-width="3" stroke-miterlimit="10" stroke-linecap="round" stroke-linejoin="round"/>
<path d="M599.1 326.699L603.2 333.299" stroke="#707A99" stroke-width="3" stroke-miterlimit="10" stroke-linecap="round" stroke-linejoin="round"/>
<path d="M604.499 327.999L597.899 332.099" stroke="#707A99" stroke-width="3" stroke-miterlimit="10" stroke-linecap="round" stroke-linejoin="round"/>
<path d="M546.1 359.1L550.2 365.7" stroke="#707A99" stroke-width="3" stroke-miterlimit="10" stroke-linecap="round" stroke-linejoin="round"/>
<path d="M551.5 360.399L544.8 364.399" stroke="#707A99" stroke-width="3" stroke-miterlimit="10" stroke-linecap="round" stroke-linejoin="round"/>
<path d="M493.1 391.499L497.1 398.099" stroke="#707A99" stroke-width="3" stroke-miterlimit="10" stroke-linecap="round" stroke-linejoin="round"/>
<path d="M498.4 392.699L491.8 396.799" stroke="#707A99" stroke-width="3" stroke-miterlimit="10" stroke-linecap="round" stroke-linejoin="round"/>
<path d="M440.1 423.799L444.1 430.499" stroke="#707A99" stroke-width="3" stroke-miterlimit="10" stroke-linecap="round" stroke-linejoin="round"/>
<path d="M445.4 425.099L438.8 429.199" stroke="#707A99" stroke-width="3" stroke-miterlimit="10" stroke-linecap="round" stroke-linejoin="round"/>
<path d="M387.1 456.199L391.1 462.799" stroke="#707A99" stroke-width="3" stroke-miterlimit="10" stroke-linecap="round" stroke-linejoin="round"/>
<path d="M392.4 457.499L385.8 461.499" stroke="#707A99" stroke-width="3" stroke-miterlimit="10" stroke-linecap="round" stroke-linejoin="round"/>
<path d="M334 488.6L338.1 495.2" stroke="#707A99" stroke-width="3" stroke-miterlimit="10" stroke-linecap="round" stroke-linejoin="round"/>
<path d="M339.4 489.899L332.8 493.899" stroke="#707A99" stroke-width="3" stroke-miterlimit="10" stroke-linecap="round" stroke-linejoin="round"/>
<path d="M566.799 273.699L570.799 280.299" stroke="#707A99" stroke-width="3" stroke-miterlimit="10" stroke-linecap="round" stroke-linejoin="round"/>
<path d="M572.099 274.999L565.499 278.999" stroke="#707A99" stroke-width="3" stroke-miterlimit="10" stroke-linecap="round" stroke-linejoin="round"/>
<path d="M513.799 306.1L517.799 312.7" stroke="#707A99" stroke-width="3" stroke-miterlimit="10" stroke-linecap="round" stroke-linejoin="round"/>
<path d="M519.099 307.399L512.499 311.399" stroke="#707A99" stroke-width="3" stroke-miterlimit="10" stroke-linecap="round" stroke-linejoin="round"/>
<path d="M460.699 338.399L464.799 345.099" stroke="#707A99" stroke-width="3" stroke-miterlimit="10" stroke-linecap="round" stroke-linejoin="round"/>
<path d="M466.099 339.699L459.399 343.799" stroke="#707A99" stroke-width="3" stroke-miterlimit="10" stroke-linecap="round" stroke-linejoin="round"/>
<path d="M407.699 370.799L411.799 377.399" stroke="#707A99" stroke-width="3" stroke-miterlimit="10" stroke-linecap="round" stroke-linejoin="round"/>
<path d="M413.099 372.099L406.399 376.099" stroke="#707A99" stroke-width="3" stroke-miterlimit="10" stroke-linecap="round" stroke-linejoin="round"/>
<path d="M354.699 403.199L358.699 409.799" stroke="#707A99" stroke-width="3" stroke-miterlimit="10" stroke-linecap="round" stroke-linejoin="round"/>
<path d="M359.999 404.499L353.399 408.499" stroke="#707A99" stroke-width="3" stroke-miterlimit="10" stroke-linecap="round" stroke-linejoin="round"/>
<path d="M301.699 435.499L305.699 442.199" stroke="#707A99" stroke-width="3" stroke-miterlimit="10" stroke-linecap="round" stroke-linejoin="round"/>
<path d="M306.999 436.799L300.399 440.899" stroke="#707A99" stroke-width="3" stroke-miterlimit="10" stroke-linecap="round" stroke-linejoin="round"/>
<g opacity="0.4">
<path opacity="0.4" d="M362.002 402.544L347.967 435.913L584.962 535.591L598.996 502.222L362.002 402.544Z" fill="#232323" stroke="#232323" stroke-width="8.0001" stroke-miterlimit="10.0001" stroke-linecap="round" stroke-linejoin="round"/>
<path opacity="0.4" d="M597.6 505.7L586.5 532.2L597.5 535.9C599.4 536.5 601.4 535.6 602.2 533.8L609.7 515.9C610.5 514.1 609.7 512 607.9 511.1L597.6 505.7Z" fill="#232323" stroke="#232323" stroke-width="8" stroke-miterlimit="10" stroke-linecap="round" stroke-linejoin="round"/>
<path opacity="0.4" d="M545.751 477.075L529.777 515.053L571.166 532.46L587.139 494.482L545.751 477.075Z" fill="#232323" stroke="#232323" stroke-width="8.0001" stroke-miterlimit="10.0001" stroke-linecap="round" stroke-linejoin="round"/>
<path opacity="0.4" d="M470.499 450.399L469.899 451.699C468.699 454.499 465.499 455.799 462.699 454.599L395.199 426.199C392.399 424.999 391.099 421.799 392.299 418.999L392.899 417.699C394.099 414.899 397.299 413.599 400.099 414.799L467.599 443.199C470.399 444.399 471.699 447.599 470.499 450.399Z" fill="#232323" stroke="#232323" stroke-width="8" stroke-miterlimit="10" stroke-linecap="round" stroke-linejoin="round"/>
<path opacity="0.4" d="M320.4 399.2L316.5 408.5L348 435.9L362 402.5L320.4 399.2Z" fill="#232323" stroke="#232323" stroke-width="8" stroke-miterlimit="10" stroke-linecap="round" stroke-linejoin="round"/>
<path opacity="0.4" d="M317.2 406.9L309.3 400L319.7 400.9L317.2 406.9Z" fill="#232323" stroke="#232323" stroke-width="8" stroke-miterlimit="10" stroke-linecap="round" stroke-linejoin="round"/>
<path opacity="0.4" d="M301.8 396.8L309.1 399.9" stroke="#232323" stroke-width="8" stroke-miterlimit="10" stroke-linecap="round" stroke-linejoin="round"/>
</g>
<path d="M355.554 388.116L341.52 421.485L578.514 521.163L592.549 487.794L355.554 388.116Z" fill="#43597A"/>
<path d="M345.885 411.121L341.504 421.537L578.499 521.215L582.88 510.798L345.885 411.121Z" fill="#394E6B"/>
<path opacity="0.5" d="M355.571 388.064L351.19 398.48L588.185 498.158L592.566 487.742L355.571 388.064Z" fill="#6A87AD"/>
<path d="M355.554 388.116L341.52 421.485L578.514 521.163L592.549 487.794L355.554 388.116Z" stroke="#202454" stroke-width="8.0001" stroke-miterlimit="10.0001" stroke-linecap="round" stroke-linejoin="round"/>
<path d="M591.1 491.3L580 517.8L591 521.5C592.9 522.1 594.9 521.2 595.7 519.4L603.2 501.5C604 499.7 603.2 497.6 601.4 496.7L591.1 491.3Z" fill="#6A87AD"/>
<path d="M591.1 491.3L580 517.8L591 521.5C592.9 522.1 594.9 521.2 595.7 519.4L603.2 501.5C604 499.7 603.2 497.6 601.4 496.7L591.1 491.3Z" stroke="#202454" stroke-width="8" stroke-miterlimit="10" stroke-linecap="round" stroke-linejoin="round"/>
<path d="M539.194 462.667L523.221 500.646L564.61 518.053L580.583 480.075L539.194 462.667Z" fill="#334665"/>
<path d="M527.896 489.495L523.205 500.648L564.594 518.056L569.285 506.902L527.896 489.495Z" fill="#2F3F56"/>
<path opacity="0.4" d="M539.381 462.246L534.535 473.769L575.924 491.176L580.77 479.654L539.381 462.246Z" fill="#43597A"/>
<path d="M539.194 462.667L523.221 500.646L564.61 518.053L580.583 480.075L539.194 462.667Z" stroke="#202454" stroke-width="8.0001" stroke-miterlimit="10.0001" stroke-linecap="round" stroke-linejoin="round"/>
<path d="M464 435.999L463.4 437.299C462.2 440.099 459 441.399 456.2 440.199L388.7 411.799C385.9 410.599 384.6 407.399 385.8 404.599L386.4 403.299C387.6 400.499 390.8 399.199 393.6 400.399L461.1 428.799C463.8 429.999 465.2 433.199 464 435.999Z" fill="#81A0C1"/>
<path d="M464 435.999L463.4 437.299C462.2 440.099 459 441.399 456.2 440.199L388.7 411.799C385.9 410.599 384.6 407.399 385.8 404.599L386.4 403.299C387.6 400.499 390.8 399.199 393.6 400.399L461.1 428.799C463.8 429.999 465.2 433.199 464 435.999Z" stroke="#202454" stroke-width="8" stroke-miterlimit="10" stroke-linecap="round" stroke-linejoin="round"/>
<path d="M313.9 384.8L310 394.1L341.4 421.5L355.5 388.1L313.9 384.8Z" fill="#334665"/>
<path opacity="0.4" d="M310 394.099L341.4 421.499L345.8 411.099L311.9 389.399L310 394.099Z" fill="#43597A"/>
<path opacity="0.4" d="M313.9 384.8L355.5 388.1L351.1 398.5L311.9 389.4L313.9 384.8Z" fill="#43597A"/>
<path d="M313.9 384.8L310 394.1L341.4 421.5L355.5 388.1L313.9 384.8Z" stroke="#202454" stroke-width="8" stroke-miterlimit="10" stroke-linecap="round" stroke-linejoin="round"/>
<path d="M310.7 392.4L302.8 385.6L313.2 386.4L310.7 392.4Z" stroke="#202454" stroke-width="8" stroke-miterlimit="10" stroke-linecap="round" stroke-linejoin="round"/>
<path d="M295.2 382.399L302.5 385.499" stroke="#202454" stroke-width="8" stroke-miterlimit="10" stroke-linecap="round" stroke-linejoin="round"/>
<path opacity="0.5" d="M820.1 769.6H801.4C778 769.6 759 750.6 759 727.2L757.5 626.5C758.3 606.6 776.6 591 798.4 591H823C844.8 591 863.1 606.6 863.9 626.5L862.4 727.2C862.5 750.6 843.5 769.6 820.1 769.6Z" fill="#232323" stroke="#232323" stroke-width="8" stroke-miterlimit="10" stroke-linecap="round" stroke-linejoin="round"/>
<path d="M810.1 755.1H791.4C768 755.1 749 736.1 749 712.7L747.5 612C748.3 592.1 766.6 576.5 788.4 576.5H813C834.8 576.5 853.1 592.1 853.9 612L852.4 712.7C852.5 736.1 833.5 755.1 810.1 755.1Z" fill="#E2E9F2"/>
<path opacity="0.8" d="M816.8 576.7L815.4 669C815.4 692.4 796.4 711.4 773 711.4H754.3C752.5 711.4 750.7 711.3 748.9 711V712.7C748.9 736.1 767.9 755.1 791.3 755.1H810C833.4 755.1 852.4 736.1 852.4 712.7L854 612C853.2 593.3 836.9 578.4 816.8 576.7Z" fill="#B4C7E7"/>
<path d="M810.1 755.1H791.4C768 755.1 749 736.1 749 712.7L747.5 612C748.3 592.1 766.6 576.5 788.4 576.5H813C834.8 576.5 853.1 592.1 853.9 612L852.4 712.7C852.5 736.1 833.5 755.1 810.1 755.1Z" stroke="#202454" stroke-width="8" stroke-miterlimit="10" stroke-linecap="round" stroke-linejoin="round"/>
<path d="M800.7 576.5V634.7" stroke="#202454" stroke-width="8" stroke-miterlimit="10" stroke-linecap="round" stroke-linejoin="round"/>
</g>
<defs>
<clipPath id="clip0_1_122">
<rect width="1000" height="1000" fill="white"/>
</clipPath>
</defs>
</svg>
