<svg width="1000" height="1000" viewBox="0 0 1000 1000" fill="none" xmlns="http://www.w3.org/2000/svg">
<g clip-path="url(#clip0_1_1780)">
<path d="M1000 0H0V1000H1000V0Z" fill="#53BCBD"/>
<path opacity="0.41" d="M692.3 414.8H312.3C239.4 414.8 180.3 473.9 180.3 546.8C180.3 619.7 239.4 678.8 312.3 678.8C363.6 678.8 408.1 649.5 429.9 606.8H574.7C596.5 649.5 641 678.8 692.3 678.8C765.2 678.8 824.3 619.7 824.3 546.8C824.3 473.9 765.2 414.8 692.3 414.8Z" fill="black" stroke="black" stroke-width="10" stroke-miterlimit="10" stroke-linecap="round" stroke-linejoin="round"/>
<path opacity="0.41" d="M502.3 382.5V263.1C502.3 249.4 491.2 238.3 477.5 238.3H290C276.3 238.3 265.2 227.2 265.2 213.5C265.2 199.8 276.3 188.7 290 188.7H687.5C701.2 188.7 712.3 177.6 712.3 163.9C712.3 150.2 701.2 139.1 687.5 139.1H527C513.3 139.1 502.2 128 502.2 114.3V9" stroke="black" stroke-width="10" stroke-miterlimit="10" stroke-linecap="round" stroke-linejoin="round"/>
<path d="M502.3 369.2V249.8C502.3 236.1 491.2 225 477.5 225H290C276.3 225 265.2 213.9 265.2 200.2C265.2 186.5 276.3 175.4 290 175.4H687.5C701.2 175.4 712.3 164.3 712.3 150.6C712.3 136.9 701.2 125.8 687.5 125.8H527C513.3 125.8 502.2 114.7 502.2 101V0" stroke="#663C3B" stroke-width="10" stroke-miterlimit="10" stroke-linejoin="round"/>
<path d="M531.3 379H473.3V391.5H531.3V379Z" fill="#663C3B"/>
<path d="M523 372.8H481.5V382.6H523V372.8Z" fill="#663C3B"/>
<path d="M517.5 366.5H487V375.9H517.5V366.5Z" fill="#663C3B"/>
<path d="M692.3 391.8H312.3C239.4 391.8 180.3 450.9 180.3 523.8C180.3 596.7 239.4 655.8 312.3 655.8C363.6 655.8 408.1 626.5 429.9 583.8H574.7C596.5 626.5 641 655.8 692.3 655.8C765.2 655.8 824.3 596.7 824.3 523.8C824.3 450.9 765.2 391.8 692.3 391.8Z" fill="#FEC556"/>
<path d="M481.7 443.6H453.7C451.5 443.6 449.7 441.8 449.7 439.6C449.7 437.4 451.5 435.6 453.7 435.6H481.7C483.9 435.6 485.7 437.4 485.7 439.6C485.7 441.8 484 443.6 481.7 443.6Z" fill="#F29940"/>
<path d="M560.4 443.9H503.5C501.3 443.9 499.5 442.1 499.5 439.9C499.5 437.7 501.3 435.9 503.5 435.9H560.4C562.6 435.9 564.4 437.7 564.4 439.9C564.4 442.1 562.7 443.9 560.4 443.9Z" fill="#F29940"/>
<path d="M560.4 460.4H453.6C451.4 460.4 449.6 458.6 449.6 456.4C449.6 454.2 451.4 452.4 453.6 452.4H560.4C562.6 452.4 564.4 454.2 564.4 456.4C564.4 458.6 562.6 460.4 560.4 460.4Z" fill="#F29940"/>
<path d="M452.4 542.7C448.9 539.2 448.9 533.5 452.4 530L482.1 500.3C485.6 496.8 491.3 496.8 494.8 500.3C498.3 503.8 498.3 509.5 494.8 513L465.1 542.7C461.6 546.2 455.9 546.2 452.4 542.7Z" fill="#F29940"/>
<path d="M519.4 542.7C515.9 539.2 515.9 533.5 519.4 530L549.1 500.3C552.6 496.8 558.3 496.8 561.8 500.3C565.3 503.8 565.3 509.5 561.8 513L532.1 542.7C528.6 546.2 522.9 546.2 519.4 542.7Z" fill="#F29940"/>
<path d="M312.3 403.3H692.3C763.6 403.3 821.7 458.9 824.2 528.4C824.3 526.8 824.3 525.3 824.3 523.7C824.3 450.8 765.2 391.7 692.3 391.7H312.3C239.4 391.7 180.3 450.8 180.3 523.7C180.3 525.3 180.3 526.8 180.4 528.4C182.8 458.9 240.9 403.3 312.3 403.3Z" fill="#F29940"/>
<path d="M692.3 638.8C641 638.8 599.5 617.5 577.7 574.8H426.9C405.1 617.5 363.6 638.8 312.3 638.8C242.3 638.8 185 584.2 180.6 515.3C180.4 518.1 180.3 520.9 180.3 523.8C180.3 596.7 239.4 655.8 312.3 655.8C363.6 655.8 408.1 626.5 429.9 583.8H574.7C596.5 626.5 641 655.8 692.3 655.8C765.2 655.8 824.3 596.7 824.3 523.8C824.3 520.9 824.2 518.1 824 515.3C819.6 584.2 762.3 638.8 692.3 638.8Z" fill="#F29940"/>
<path d="M312.8 616C359.744 616 397.8 577.944 397.8 531C397.8 484.056 359.744 446 312.8 446C265.856 446 227.8 484.056 227.8 531C227.8 577.944 265.856 616 312.8 616Z" fill="#F29940"/>
<path d="M312.8 607.8C359.192 607.8 396.8 570.192 396.8 523.8C396.8 477.408 359.192 439.8 312.8 439.8C266.408 439.8 228.8 477.408 228.8 523.8C228.8 570.192 266.408 607.8 312.8 607.8Z" fill="#835559"/>
<path d="M312.8 594.8C352.012 594.8 383.8 563.012 383.8 523.8C383.8 484.588 352.012 452.8 312.8 452.8C273.588 452.8 241.8 484.588 241.8 523.8C241.8 563.012 273.588 594.8 312.8 594.8Z" fill="#95676B"/>
<path d="M363.2 507.8H328.8V473.4C328.8 470.9 326.7 468.8 324.2 468.8H301.4C298.9 468.8 296.8 470.9 296.8 473.4V507.8H262.4C259.9 507.8 257.8 509.9 257.8 512.4V535.2C257.8 537.7 259.9 539.8 262.4 539.8H296.8V574.2C296.8 576.7 298.9 578.8 301.4 578.8H324.2C326.7 578.8 328.8 576.7 328.8 574.2V539.8H363.2C365.7 539.8 367.8 537.7 367.8 535.2V512.4C367.8 509.8 365.7 507.8 363.2 507.8Z" fill="#663C3B"/>
<path d="M312.8 607.8C359.192 607.8 396.8 570.192 396.8 523.8C396.8 477.408 359.192 439.8 312.8 439.8C266.408 439.8 228.8 477.408 228.8 523.8C228.8 570.192 266.408 607.8 312.8 607.8Z" stroke="#663C3B" stroke-width="6" stroke-miterlimit="10" stroke-linecap="round" stroke-linejoin="round"/>
<path d="M692.8 616C739.744 616 777.8 577.944 777.8 531C777.8 484.056 739.744 446 692.8 446C645.856 446 607.8 484.056 607.8 531C607.8 577.944 645.856 616 692.8 616Z" fill="#F29940"/>
<path d="M692.8 607.8C739.192 607.8 776.8 570.192 776.8 523.8C776.8 477.408 739.192 439.8 692.8 439.8C646.408 439.8 608.8 477.408 608.8 523.8C608.8 570.192 646.408 607.8 692.8 607.8Z" fill="#835559"/>
<path d="M692.8 594.8C732.012 594.8 763.8 563.012 763.8 523.8C763.8 484.588 732.012 452.8 692.8 452.8C653.588 452.8 621.8 484.588 621.8 523.8C621.8 563.012 653.588 594.8 692.8 594.8Z" fill="#95676B"/>
<path d="M692.8 607.8C739.192 607.8 776.8 570.192 776.8 523.8C776.8 477.408 739.192 439.8 692.8 439.8C646.408 439.8 608.8 477.408 608.8 523.8C608.8 570.192 646.408 607.8 692.8 607.8Z" stroke="#663C3B" stroke-width="6" stroke-miterlimit="10" stroke-linecap="round" stroke-linejoin="round"/>
<path d="M306.3 487.2L311.8 477.6C312.2 476.9 313.2 476.9 313.6 477.6L319.1 487.2C319.5 487.9 319 488.8 318.2 488.8H307.1C306.4 488.8 305.9 487.9 306.3 487.2Z" fill="#FEC556"/>
<path d="M306.3 560.4L311.8 570C312.2 570.7 313.2 570.7 313.6 570L319.1 560.4C319.5 559.7 319 558.8 318.2 558.8H307.1C306.4 558.8 305.9 559.7 306.3 560.4Z" fill="#FEC556"/>
<path d="M363.2 507.8H328.8V473.4C328.8 470.9 326.7 468.8 324.2 468.8H301.4C298.9 468.8 296.8 470.9 296.8 473.4V507.8H262.4C259.9 507.8 257.8 509.9 257.8 512.4V535.2C257.8 537.7 259.9 539.8 262.4 539.8H296.8V574.2C296.8 576.7 298.9 578.8 301.4 578.8H324.2C326.7 578.8 328.8 576.7 328.8 574.2V539.8H363.2C365.7 539.8 367.8 537.7 367.8 535.2V512.4C367.8 509.8 365.7 507.8 363.2 507.8Z" stroke="#663C3B" stroke-width="3" stroke-miterlimit="10" stroke-linecap="round" stroke-linejoin="round"/>
<path d="M347.6 517.3L357.2 522.8C357.9 523.2 357.9 524.2 357.2 524.6L347.6 530.1C346.9 530.5 346 530 346 529.2V518.1C346 517.4 346.9 516.9 347.6 517.3Z" fill="#FEC556"/>
<path d="M276.2 517.3L266.6 522.8C265.9 523.2 265.9 524.2 266.6 524.6L276.2 530.1C276.9 530.5 277.8 530 277.8 529.2V518.1C277.8 517.4 276.9 516.9 276.2 517.3Z" fill="#FEC556"/>
<path d="M602 385.8H692.8C712.3 385.8 730.9 389.9 747.8 397.2" stroke="#663C3B" stroke-width="8" stroke-miterlimit="10" stroke-linecap="round" stroke-linejoin="round"/>
<path d="M257.8 397.2C274.7 389.8 293.3 385.8 312.8 385.8H402" stroke="#663C3B" stroke-width="8" stroke-miterlimit="10" stroke-linecap="round" stroke-linejoin="round"/>
<path d="M692.3 391.8H312.3C239.4 391.8 180.3 450.9 180.3 523.8C180.3 596.7 239.4 655.8 312.3 655.8C363.6 655.8 408.1 626.5 429.9 583.8H574.7C596.5 626.5 641 655.8 692.3 655.8C765.2 655.8 824.3 596.7 824.3 523.8C824.3 450.9 765.2 391.8 692.3 391.8Z" stroke="#663C3B" stroke-width="6" stroke-miterlimit="10" stroke-linecap="round" stroke-linejoin="round"/>
<path opacity="0.17" d="M706.3 511.5L666.7 551.1C658.1 559.7 644.2 559.7 635.6 551.1C627 542.5 627 528.6 635.6 520L675.2 480.4C683.8 471.8 697.7 471.8 706.3 480.4C714.9 488.9 714.9 502.9 706.3 511.5Z" fill="black"/>
<path d="M704.3 507.5L664.7 547.1C656.1 555.7 642.2 555.7 633.6 547.1C625 538.5 625 524.6 633.6 516L673.2 476.4C681.8 467.8 695.7 467.8 704.3 476.4C712.9 484.9 712.9 498.9 704.3 507.5Z" fill="#FEC556"/>
<path d="M704.3 507.5L664.7 547.1C656.1 555.7 642.2 555.7 633.6 547.1C625 538.5 625 524.6 633.6 516L673.2 476.4C681.8 467.8 695.7 467.8 704.3 476.4C712.9 484.9 712.9 498.9 704.3 507.5Z" stroke="#663C3B" stroke-width="3" stroke-miterlimit="10" stroke-linecap="round" stroke-linejoin="round"/>
<path d="M649.2 545.5C656.932 545.5 663.2 539.232 663.2 531.5C663.2 523.768 656.932 517.5 649.2 517.5C641.468 517.5 635.2 523.768 635.2 531.5C635.2 539.232 641.468 545.5 649.2 545.5Z" fill="#32B94D"/>
<path d="M640.2 530.7C640.6 525.7 645 522.1 650 522.5" stroke="#663C3B" stroke-width="2" stroke-miterlimit="10" stroke-linecap="round" stroke-linejoin="round"/>
<path d="M649.2 545.5C656.932 545.5 663.2 539.232 663.2 531.5C663.2 523.768 656.932 517.5 649.2 517.5C641.468 517.5 635.2 523.768 635.2 531.5C635.2 539.232 641.468 545.5 649.2 545.5Z" stroke="#663C3B" stroke-width="3" stroke-miterlimit="10" stroke-linecap="round" stroke-linejoin="round"/>
<path d="M688.8 505.9C696.532 505.9 702.8 499.632 702.8 491.9C702.8 484.168 696.532 477.9 688.8 477.9C681.068 477.9 674.8 484.168 674.8 491.9C674.8 499.632 681.068 505.9 688.8 505.9Z" fill="#8BD8F5"/>
<path d="M679.8 491.9C679.8 486.9 683.8 482.9 688.8 482.9" stroke="#663C3B" stroke-width="2" stroke-miterlimit="10" stroke-linecap="round" stroke-linejoin="round"/>
<path d="M688.8 505.9C696.532 505.9 702.8 499.632 702.8 491.9C702.8 484.168 696.532 477.9 688.8 477.9C681.068 477.9 674.8 484.168 674.8 491.9C674.8 499.632 681.068 505.9 688.8 505.9Z" stroke="#663C3B" stroke-width="3" stroke-miterlimit="10" stroke-linecap="round" stroke-linejoin="round"/>
<path opacity="0.17" d="M752.9 537.7L713.3 577.3C704.7 585.9 690.8 585.9 682.2 577.3C673.6 568.7 673.6 554.8 682.2 546.2L721.8 506.6C730.4 498 744.3 498 752.9 506.6C761.5 515.2 761.5 529.1 752.9 537.7Z" fill="black"/>
<path d="M751.9 532.7L712.3 572.3C703.7 580.9 689.8 580.9 681.2 572.3C672.6 563.7 672.6 549.8 681.2 541.2L720.8 501.6C729.4 493 743.3 493 751.9 501.6C760.5 510.2 760.5 524.1 751.9 532.7Z" fill="#FEC556"/>
<path d="M751.9 532.7L712.3 572.3C703.7 580.9 689.8 580.9 681.2 572.3C672.6 563.7 672.6 549.8 681.2 541.2L720.8 501.6C729.4 493 743.3 493 751.9 501.6C760.5 510.2 760.5 524.1 751.9 532.7Z" stroke="#663C3B" stroke-width="3" stroke-miterlimit="10" stroke-linecap="round" stroke-linejoin="round"/>
<path d="M696.8 570.8C704.532 570.8 710.8 564.532 710.8 556.8C710.8 549.068 704.532 542.8 696.8 542.8C689.068 542.8 682.8 549.068 682.8 556.8C682.8 564.532 689.068 570.8 696.8 570.8Z" fill="#FEF585"/>
<path d="M687.8 556.8C687.8 551.8 691.8 547.8 696.8 547.8" stroke="#663C3B" stroke-width="2" stroke-miterlimit="10" stroke-linecap="round" stroke-linejoin="round"/>
<path d="M696.8 570.8C704.532 570.8 710.8 564.532 710.8 556.8C710.8 549.068 704.532 542.8 696.8 542.8C689.068 542.8 682.8 549.068 682.8 556.8C682.8 564.532 689.068 570.8 696.8 570.8Z" stroke="#663C3B" stroke-width="3" stroke-miterlimit="10" stroke-linecap="round" stroke-linejoin="round"/>
<path d="M736.4 531.2C744.132 531.2 750.4 524.932 750.4 517.2C750.4 509.468 744.132 503.2 736.4 503.2C728.668 503.2 722.4 509.468 722.4 517.2C722.4 524.932 728.668 531.2 736.4 531.2Z" fill="#E7503B"/>
<path d="M727.4 517.2C727.4 512.2 731.4 508.2 736.4 508.2" stroke="#663C3B" stroke-width="2" stroke-miterlimit="10" stroke-linecap="round" stroke-linejoin="round"/>
<path d="M736.4 531.2C744.132 531.2 750.4 524.932 750.4 517.2C750.4 509.468 744.132 503.2 736.4 503.2C728.668 503.2 722.4 509.468 722.4 517.2C722.4 524.932 728.668 531.2 736.4 531.2Z" stroke="#663C3B" stroke-width="3" stroke-miterlimit="10" stroke-linecap="round" stroke-linejoin="round"/>
<path d="M452.4 538.7C448.9 535.2 448.9 529.5 452.4 526L482.1 496.3C485.6 492.8 491.3 492.8 494.8 496.3C498.3 499.8 498.3 505.5 494.8 509L465.1 538.7C461.6 542.2 455.9 542.2 452.4 538.7Z" fill="#663C3B"/>
<path d="M519.4 538.7C515.9 535.2 515.9 529.5 519.4 526L549.1 496.3C552.6 492.8 558.3 492.8 561.8 496.3C565.3 499.8 565.3 505.5 561.8 509L532.1 538.7C528.6 542.2 522.9 542.2 519.4 538.7Z" fill="#663C3B"/>
<path d="M312.8 539.8C321.637 539.8 328.8 532.637 328.8 523.8C328.8 514.963 321.637 507.8 312.8 507.8C303.963 507.8 296.8 514.963 296.8 523.8C296.8 532.637 303.963 539.8 312.8 539.8Z" fill="#FEC556"/>
<path d="M312.8 536.5C304.7 536.5 297.7 530.1 296.9 522.1C296.8 522.6 296.8 523.2 296.8 523.7C296.8 532.4 304.1 539.7 312.8 539.7C321.5 539.7 328.8 532.4 328.8 523.7C328.8 523.1 328.8 522.6 328.7 522.1C327.8 530.1 320.9 536.5 312.8 536.5Z" fill="#F29940"/>
<path d="M300.8 523.8C300.8 517.3 306.3 511.8 312.8 511.8" stroke="#663C3B" stroke-width="2" stroke-miterlimit="10" stroke-linecap="round" stroke-linejoin="round"/>
</g>
<defs>
<clipPath id="clip0_1_1780">
<rect width="1000" height="1000" fill="white"/>
</clipPath>
</defs>
</svg>
