<svg width="256" height="256" viewBox="0 0 256 256" fill="none" xmlns="http://www.w3.org/2000/svg">
<rect width="256" height="256" rx="10" fill="#686868"/>
<g clip-path="url(#clip0_1218_49538)">
<path d="M215.228 184.99C215.228 184.99 202.389 159.857 195.522 151.313C188.655 142.77 181.199 135.312 181.199 135.312C181.199 135.312 183.567 130.842 182.638 130.209C181.708 129.575 179.136 130.876 179.136 130.876C179.136 130.876 176.031 127.244 167.623 125.422C159.215 123.6 148.223 122.423 148.223 122.423L151.623 111.311C151.623 111.311 147.895 109.885 141.334 112.341C134.773 114.796 129.118 126.735 129.118 126.735C125.863 120.974 121.49 115.919 116.257 111.865C107.781 105.426 99.1118 110.734 99.1118 110.734L98.8059 121.665C98.8059 121.665 84.9699 122.084 79.3267 123.147C73.6835 124.211 68.7202 125.569 68.7202 125.569C68.7202 125.569 66.1932 121.835 62.873 123.464C59.5529 125.094 62.9297 130.107 62.9297 130.107C62.9297 130.107 57.4338 137.179 47.4279 153.362C44.3571 158.341 42.1021 166.466 40.459 175.337" fill="white"/>
<path d="M214.514 185.352C214.378 185.103 201.63 160.196 194.899 151.811C188.168 143.426 180.7 135.969 180.621 135.901L180.201 135.482L180.485 134.961C181.216 133.685 181.743 132.303 182.048 130.865C181.154 130.926 180.284 131.181 179.499 131.612L178.932 131.906L178.524 131.42C178.524 131.42 175.442 127.957 167.453 126.237C159.181 124.437 148.246 123.261 148.189 123.249L147.215 123.147L150.694 111.911C147.644 111.499 144.539 111.917 141.708 113.121C135.532 115.385 130.002 126.984 129.945 127.097L129.243 128.568L128.495 127.131C125.288 121.481 120.994 116.52 115.86 112.533C113.62 110.818 110.935 109.781 108.122 109.547C105.31 109.312 102.489 109.889 99.9956 111.209L99.6783 122.435H98.9191C98.7831 122.435 85.0831 122.853 79.5759 123.906C74.0687 124.958 69.0714 126.305 69.0148 126.316L68.4595 126.474L68.1423 125.988C68.0516 125.863 65.9439 122.865 63.3263 124.155C63.0927 124.258 62.8862 124.414 62.723 124.61C62.5598 124.806 62.4444 125.038 62.3857 125.286C62.0005 126.712 63.2016 128.941 63.6889 129.677L64.0175 130.152L63.6662 130.616C63.6096 130.684 58.0683 137.847 48.2098 153.792C45.5128 158.16 43.2012 165.458 41.3428 175.496L39.7563 175.202C41.6487 165.017 44.0397 157.481 46.8387 152.954C55.3714 139.137 60.6973 131.872 62.0458 130.073C61.4566 129.066 60.3234 126.78 60.8333 124.868C60.9551 124.407 61.1779 123.979 61.4856 123.615C61.7933 123.251 62.1782 122.96 62.6124 122.763C65.4113 121.371 67.9156 123.204 69.1281 124.675C70.5559 124.29 74.726 123.238 79.3266 122.412C84.2672 121.461 95.191 121.031 98.1712 120.929L98.4658 110.315L98.8398 110.089C98.9305 110.089 108.075 104.612 116.891 111.299C121.818 115.111 126 119.795 129.231 125.116C130.954 121.846 135.702 113.732 141.198 111.673C147.997 109.138 151.906 110.541 152.065 110.643L152.767 110.915L149.368 121.812C152.246 122.152 160.983 123.227 167.884 124.72C174.785 126.214 178.252 128.919 179.397 129.982C180.394 129.552 182.173 128.941 183.182 129.62C183.544 129.869 184.621 130.605 182.275 135.278C183.941 136.964 190.343 143.562 196.247 150.895C203.046 159.416 215.511 183.711 216.032 184.707L214.514 185.352Z" fill="black"/>
<path d="M208.678 204.873L224.644 203.911C224.644 203.911 225.336 181.55 209.381 178.404C193.426 175.258 182.672 199.486 182.672 199.486L201.29 202.417L208.678 204.873Z" fill="#FFDE15"/>
<path d="M208.576 205.676L201.041 203.186L181.505 200.12L181.935 199.158C182.389 198.151 193.12 174.353 209.528 177.657C225.936 180.962 225.461 203.752 225.393 203.979V204.714L208.576 205.676ZM183.862 198.886L201.415 201.647L208.78 204.08L223.795 203.209C223.727 199.396 222.662 181.912 209.177 179.253C195.692 176.594 186.049 194.473 183.862 198.864V198.886Z" fill="black"/>
<path d="M75.5421 182.297C75.5421 182.297 72.3806 180.905 68.4258 185.262C64.471 189.618 61.3775 202.564 61.3775 202.564H31.8584C31.2692 200.584 28.9462 186.133 33.9888 178.472C38.1151 172.149 43.3971 166.66 49.5585 162.29" fill="white"/>
<path d="M62.0231 203.368H31.2576L31.0876 202.79C30.5324 200.968 27.9941 186.122 33.354 178.031C37.5517 171.602 42.9355 166.03 49.2183 161.611L50.0909 162.969C44.0338 167.288 38.8346 172.695 34.7591 178.913C30.2264 185.828 31.9035 198.581 32.5834 201.761H60.8447C61.5246 199.079 64.3235 188.668 67.9156 184.718C72.2103 180 75.8478 181.493 75.9611 181.561L75.3152 183.032C75.2132 183.032 72.5729 181.991 69.1054 185.794C65.332 189.947 62.3064 202.621 62.3064 202.768L62.0231 203.368Z" fill="black"/>
<path d="M203.148 201.67H84.4033V206.163H203.148V201.67Z" fill="black"/>
<path d="M72.1762 181.301C72.1762 181.301 67.4735 179.706 59.4167 177.748C51.3599 175.79 55.8586 172.293 57.3997 170.958" fill="white"/>
<path d="M71.9502 182.059C71.9502 182.059 67.1908 180.464 59.2587 178.529C56.0971 177.759 54.3974 176.65 54.0348 175.134C53.5815 173.165 55.6439 171.433 56.743 170.505L56.913 170.37L57.9555 171.592L57.7856 171.739C57.0037 172.395 55.3719 173.765 55.6099 174.772C55.7232 175.247 56.3918 176.164 59.6326 176.956C67.6441 178.902 72.4148 180.509 72.4714 180.52L71.9502 182.059Z" fill="black"/>
<path d="M74.0122 191.237L86.0578 171.909L84.426 146.889" fill="white"/>
<path d="M74.6924 191.667L73.3213 190.818L85.2309 171.694L83.6218 146.945L85.2309 146.843L86.874 172.112L74.6924 191.667Z" fill="black"/>
<path d="M83.2819 144.184C83.2819 144.184 75.8937 136.942 72.1089 136.127C68.754 135.617 65.3583 135.424 61.967 135.55L50.3521 153.418C55.3212 153.762 60.1141 155.397 64.256 158.16C67.0392 160.177 69.9542 162.007 72.9814 163.637L83.2819 144.184Z" fill="#FFDE15"/>
<path d="M69.1967 165.515L68.4601 165.074C64.5204 162.74 60.4409 160.65 56.2446 158.816C49.9781 156.111 45.9894 157.548 45.9554 157.56L45.3774 156.055C45.5587 155.987 49.9668 154.357 56.8791 157.345C60.8817 159.089 64.7789 161.065 68.5508 163.263L81.7749 138.085C80.4377 136.376 74.2846 129.722 61.5138 133.106L61.1058 131.544C76.5509 127.47 83.3273 137.474 83.3953 137.576L83.6559 137.972L69.1967 165.515Z" fill="black"/>
<path d="M162.196 134.622C162.196 134.622 156.643 137.892 138.977 139.047C133.861 139.325 128.732 139.276 123.623 138.899C123.475 137.247 123.26 135.573 122.954 133.909C120.688 121.575 105.651 111.877 103.43 113.427C101.209 114.977 102.172 124.471 102.172 124.471L77.48 127.006C77.48 127.006 85.0269 130.13 88.619 132.789C90.942 134.52 91.8485 140.902 92.0185 143.754C92.4831 171.762 90.0015 179.423 90.0015 179.423C90.0015 179.423 97.9337 181.165 102.659 182.817C107.384 184.47 110.999 192.074 110.999 192.074L163.544 187.966C163.544 187.966 168.258 172.282 169.539 164.327C170.819 156.372 162.196 134.622 162.196 134.622Z" fill="#DBE5FB"/>
<path d="M91.4331 164.95L85.4365 171.419L86.6173 172.51L92.6139 166.041L91.4331 164.95Z" fill="black"/>
<path d="M111.883 178.71C97.1517 178.71 89.2875 173.663 88.9136 173.414L89.8088 172.067C89.8994 172.135 100.007 178.585 118.342 176.786L118.501 178.381C116.302 178.603 114.093 178.713 111.883 178.71V178.71Z" fill="black"/>
<path d="M73.6495 184.402C73.6495 184.402 83.1455 181.674 85.5138 182.003C87.8821 182.331 95.2477 186.393 99.3271 192.527C103.407 198.66 102.137 206.015 102.137 206.015L96.1429 204.59L82.1483 203.741L82.4429 205.042L77.2757 204.669L72.607 199.011L64.1876 204.669L49.0938 203.82C49.0938 203.82 54.499 189.279 62.2499 185.092C66.2841 182.766 70.5535 180.873 74.9867 179.445L73.6495 184.402Z" fill="#FFDE15"/>
<path d="M102.783 207L95.9843 205.37L83.2249 204.612L83.5195 205.914L76.9131 205.45L72.4824 200.063L64.4596 205.404L47.9946 204.488L48.3799 203.458C48.6066 202.858 53.9891 188.589 61.9213 184.3C66.0063 181.984 70.325 180.107 74.8054 178.698L76.1652 178.336L74.8394 183.247C77.6383 182.478 83.6668 180.928 85.6612 181.199C88.3241 181.573 95.8597 185.726 100.03 192.074C104.2 198.422 103.01 205.834 102.965 206.151L102.783 207ZM81.1285 202.87L96.1883 203.786L101.412 205.02C101.809 200.83 100.844 196.623 98.6586 193.025C94.6812 187.05 87.4743 183.134 85.4119 182.84C83.7801 182.625 77.627 184.141 73.8762 185.228L72.5051 185.624L73.8196 180.735C69.9657 182.107 66.2292 183.787 62.6465 185.76C56.4254 189.154 51.6548 199.701 50.261 203.051L63.9723 203.809L72.7771 197.958L77.6837 203.933L81.4231 204.205L81.1285 202.87Z" fill="black"/>
<path d="M91.123 191.101C92.8817 192.501 94.1834 194.392 94.8625 196.533C95.5764 199.633 96.143 204.59 96.143 204.59" fill="#FFDE15"/>
<path d="M95.3385 204.68C95.3385 204.68 94.7719 199.724 94.0807 196.759C93.457 194.807 92.2753 193.08 90.6812 191.791L91.6557 190.512C93.5715 192.016 94.9795 194.069 95.6898 196.397C96.4037 199.497 96.9589 204.318 96.9929 204.544L95.3385 204.68Z" fill="black"/>
<path d="M83.939 190.512C86.5091 192.57 88.397 195.355 89.3555 198.502C90.4887 203.243 89.9334 204.42 89.9334 204.42" fill="#FFDE15"/>
<path d="M90.6473 204.771L89.2082 204.058C89.2082 204.058 89.5821 202.824 88.5736 198.694C87.6574 195.725 85.8738 193.096 83.4517 191.146L84.4375 189.867C87.1414 192.041 89.1177 194.986 90.1034 198.309C91.2819 202.983 90.8173 204.443 90.6473 204.771Z" fill="black"/>
<path d="M76.9585 192.266C78.7942 193.964 82.1597 203.741 82.1597 203.741Z" fill="#FFDE15"/>
<path d="M81.4005 204.001C80.12 200.29 77.6497 193.986 76.4146 192.866L77.5477 191.678C79.4741 193.455 82.6016 202.462 82.9529 203.481L81.4005 204.001Z" fill="black"/>
<path d="M217.789 132.178H123.804L109.163 201.67H203.148L217.789 132.178Z" fill="white"/>
<path d="M203.794 202.474H108.211L123.203 131.363H218.831L203.794 202.474ZM110.16 200.855H202.491L216.792 132.959H124.461L110.16 200.855Z" fill="black"/>
<path d="M156.553 65.2881C157.493 72.0778 159 80.1801 156.553 84.3105L156.292 86.1437C156.292 86.1437 157.187 89.8781 154.388 98.2067C151.589 106.535 151.805 107.26 148.076 113.382C144.348 119.504 137.119 122.344 131.079 120.782C125.039 119.221 111.815 109.206 110.353 104.544C108.891 99.8815 109.345 82.1265 109.345 82.1265" fill="white"/>
<path d="M134.41 122.005C133.21 122.011 132.014 121.863 130.852 121.563C124.733 119.99 111.191 109.874 109.548 104.793C108.019 100.063 108.495 82.8734 108.517 82.1605H110.126C110.126 82.3302 109.639 99.791 111.089 104.272C112.438 108.448 125.254 118.429 131.249 119.968C137.243 121.507 143.951 118.519 147.396 112.929C149.559 109.638 151.185 106.024 152.212 102.224C152.597 101.092 153.051 99.6325 153.629 97.9125C156.292 89.9912 155.51 86.3247 155.498 86.2908V86.1437L155.884 83.8805C157.946 80.4064 156.949 73.5149 156.065 67.4382L155.77 65.3899L157.368 65.1749L157.663 67.2005C158.569 73.4809 159.6 80.5762 157.345 84.5595L157.13 86.1098C157.277 86.9472 157.719 90.8625 155.181 98.4443C154.603 100.164 154.15 101.556 153.776 102.744C152.7 106.663 151.017 110.389 148.79 113.789C147.277 116.254 145.167 118.299 142.653 119.735C140.14 121.171 137.305 121.952 134.41 122.005V122.005Z" fill="black"/>
<path d="M108.438 96.5433C109.492 102.201 116.461 91.3605 116.461 91.3605C116.461 91.3605 121.809 87.6601 118.421 78.8109C115.033 69.9617 126.75 66.6913 126.75 66.6913C137.051 64.4281 145.901 73.8884 145.901 73.8884C145.901 73.8884 153.481 67.6306 157.391 68.683L157.969 70.154C158.966 55.1149 147.181 50.2829 133.164 50.0113C119.146 49.7398 107.622 53.5646 106.659 62.1083C105.696 70.652 104.937 77.6793 108.438 96.5433Z" fill="black"/>
<path d="M147.589 84.9216C146.605 85.8727 145.841 87.0267 145.35 88.3029C144.859 89.5791 144.652 90.9469 144.745 92.311C145.039 97.0299 147.6 98.3086 146.92 100.617C146.24 102.926 143.407 103.921 140.541 101.013" fill="white"/>
<path d="M144.076 103.627C143.289 103.585 142.519 103.383 141.814 103.033C141.108 102.683 140.482 102.192 139.974 101.59L141.107 100.459C141.515 100.985 142.051 101.399 142.664 101.66C143.276 101.921 143.946 102.022 144.609 101.952C144.977 101.852 145.311 101.655 145.578 101.382C145.845 101.11 146.034 100.772 146.127 100.402C146.365 99.6213 146.127 99.0102 145.515 97.8333C144.599 96.1464 144.058 94.2822 143.929 92.3676C143.828 90.8796 144.057 89.3878 144.597 87.9975C145.137 86.6072 145.977 85.3525 147.056 84.3218L148.099 85.544C147.213 86.4209 146.53 87.4815 146.099 88.6508C145.669 89.8201 145.5 91.0696 145.606 92.311C145.721 94.0124 146.205 95.6686 147.022 97.1656C147.389 97.7073 147.642 98.3172 147.767 98.9589C147.891 99.6006 147.885 100.261 147.748 100.9C147.574 101.54 147.234 102.123 146.763 102.59C146.291 103.057 145.704 103.391 145.062 103.559C144.738 103.623 144.406 103.645 144.076 103.627V103.627Z" fill="black"/>
<path d="M130.41 82.5338C130.41 82.5338 136.835 80.2706 140.541 82.5338Z" fill="white"/>
<path d="M130.943 84.0502L129.866 81.0175C130.603 80.7573 137.152 78.5732 141.391 81.1646L139.702 83.9145C137.198 82.3755 132.529 83.4957 130.943 84.0502Z" fill="black"/>
<path d="M148.575 84.0389C148.575 84.0389 150.32 81.1646 156.507 82.2962Z" fill="white"/>
<path d="M149.923 84.9216L147.192 83.2581C147.43 82.8621 149.731 79.4672 156.836 80.7572L156.258 83.9258C151.374 82.9979 149.98 84.8423 149.923 84.9216Z" fill="black"/>
<path d="M128.744 88.3844C128.744 88.3844 136.291 86.4606 138.943 88.3844Z" fill="white"/>
<path d="M128.937 89.1651L128.541 87.6035C129.356 87.3998 136.541 85.6571 139.374 87.7393L138.422 89.0293C136.541 87.6487 130.943 88.6558 128.937 89.1651Z" fill="black"/>
<path d="M148.575 89.7648C148.575 89.7648 151.974 87.8411 154.954 88.5314Z" fill="white"/>
<path d="M149.006 90.4664L148.212 89.0633C148.36 88.984 151.884 87.0037 155.17 87.7505L154.807 89.3122C152.111 88.7124 149.006 90.4438 149.006 90.4664Z" fill="black"/>
<path d="M136.053 92.1526C136.904 92.1526 137.594 91.4635 137.594 90.6136C137.594 89.7636 136.904 89.0746 136.053 89.0746C135.202 89.0746 134.512 89.7636 134.512 90.6136C134.512 91.4635 135.202 92.1526 136.053 92.1526Z" fill="black"/>
<path d="M153.421 91.4314C153.576 90.6848 153.194 89.9747 152.569 89.8455C151.944 89.7162 151.312 90.2167 151.157 90.9633C151.002 91.7099 151.384 92.42 152.009 92.5492C152.634 92.6785 153.266 92.1781 153.421 91.4314Z" fill="black"/>
<path d="M114.002 82.5339C122.229 81.5267 121.549 100.447 127.861 103.933C134.172 107.418 140.019 101.07 142.807 105.064C142.807 105.064 146.207 102.066 149.289 104.736C149.289 104.736 151.974 105.562 153.04 102.315C154.105 99.0668 152.632 109.263 152.303 117.173C151.974 125.083 133.583 131.465 127.861 124.551C122.138 117.637 106.659 116.629 109.265 92.13C115.872 95.7059 114.195 92.1526 114.002 82.5339Z" fill="black"/>
<path d="M106.727 75.0652C102.126 75.4726 104.336 91.4623 109.934 93.0466L114.058 84.3218C115.09 79.173 111.339 74.6578 106.727 75.0652Z" fill="white"/>
<path d="M110.364 94.0084L109.718 93.8274C105.265 92.56 103.033 84.0842 103.497 79.0259C103.871 75.0992 105.639 74.3523 106.659 74.2618C107.814 74.1663 108.976 74.3429 110.05 74.7772C111.125 75.2116 112.082 75.8916 112.846 76.7627C113.756 77.8037 114.411 79.042 114.759 80.3795C115.107 81.717 115.139 83.1171 114.852 84.4689L114.795 84.6613L110.364 94.0084ZM107.305 75.9026H106.806C105.922 75.9818 105.299 77.2153 105.106 79.2182C104.676 83.8465 106.704 90.4552 109.526 92.0394L113.288 84.1181C113.508 83.0243 113.474 81.8947 113.189 80.8159C112.904 79.737 112.376 78.7377 111.645 77.8943C111.109 77.2639 110.445 76.7551 109.696 76.4019C108.948 76.0487 108.133 75.8592 107.305 75.846V75.9026Z" fill="black"/>
<path d="M163.951 176.816C163.055 176.73 162.137 176.525 161.197 176.201C160.257 175.877 159.452 175.448 158.783 174.915C158.472 174.668 158.272 174.398 158.183 174.105C158.094 173.811 158.086 173.543 158.159 173.299C158.251 173.04 158.397 172.827 158.597 172.662C158.814 172.499 159.064 172.414 159.35 172.408C159.651 172.403 159.968 172.509 160.299 172.725C160.944 173.155 161.574 173.483 162.189 173.709C162.805 173.919 163.445 174.055 164.108 174.119C164.838 174.189 165.462 174.148 165.979 173.996C166.495 173.845 166.897 173.582 167.184 173.208C167.488 172.835 167.666 172.366 167.72 171.802C167.8 170.973 167.576 170.332 167.05 169.88C166.543 169.413 165.758 169.128 164.696 169.027L163.103 168.874C162.639 168.83 162.293 168.68 162.066 168.424C161.856 168.169 161.771 167.834 161.811 167.42C161.851 167.005 161.998 166.692 162.252 166.482C162.523 166.274 162.891 166.192 163.356 166.236L164.65 166.36C165.28 166.42 165.829 166.373 166.296 166.216C166.764 166.043 167.141 165.778 167.427 165.42C167.712 165.063 167.881 164.61 167.933 164.062C168.006 163.299 167.805 162.694 167.329 162.247C166.869 161.801 166.158 161.532 165.196 161.44C164.582 161.381 163.994 161.4 163.432 161.497C162.889 161.579 162.275 161.78 161.591 162.1C161.275 162.254 160.978 162.3 160.699 162.24C160.437 162.182 160.223 162.052 160.058 161.852C159.893 161.652 159.789 161.425 159.747 161.17C159.706 160.898 159.748 160.634 159.873 160.378C159.999 160.106 160.23 159.885 160.564 159.716C161.322 159.32 162.143 159.047 163.028 158.897C163.915 158.73 164.814 158.691 165.727 158.778C166.938 158.894 167.956 159.184 168.783 159.648C169.61 160.096 170.215 160.689 170.596 161.429C170.996 162.154 171.149 163.005 171.055 163.984C170.988 164.681 170.795 165.307 170.474 165.863C170.154 166.401 169.735 166.847 169.216 167.199C168.696 167.551 168.089 167.777 167.393 167.878L167.421 167.58C168.597 167.893 169.478 168.48 170.066 169.339C170.655 170.183 170.893 171.193 170.78 172.371C170.682 173.4 170.339 174.271 169.752 174.985C169.164 175.699 168.378 176.218 167.392 176.543C166.409 176.85 165.261 176.942 163.951 176.816Z" fill="#2A3855"/>
</g>
<defs>
<clipPath id="clip0_1218_49538">
<rect width="195.449" height="157" fill="white" transform="translate(30 50)"/>
</clipPath>
</defs>
</svg>
