<svg width="256" height="256" viewBox="0 0 256 256" fill="none" xmlns="http://www.w3.org/2000/svg">
<rect width="256" height="256" rx="10" fill="#2A3855"/>
<path d="M136.881 173.138C136.881 173.138 135.986 190.723 125.081 195.136C114.848 198.961 104.38 202.13 93.7424 204.623C92.8612 204.623 76.3521 164.628 76.3521 164.628L105.185 171.997C105.185 171.997 103.257 165.508 110.1 167.268C110.1 167.268 119.642 132.497 128.427 123.052C137.212 113.607 151.834 112.053 151.834 112.053" fill="white"/>
<path d="M93.7423 205.282C93.1365 205.282 92.3654 205.283 75.7185 164.862L75.1953 163.597L104.303 171.035C104.173 170.378 104.189 169.7 104.348 169.049C104.507 168.399 104.807 167.791 105.226 167.268C105.822 166.759 106.54 166.413 107.31 166.264C108.079 166.115 108.874 166.167 109.618 166.415C110.995 161.507 119.67 131.425 127.917 122.557C136.785 113.015 151.173 111.434 151.779 111.379L151.931 112.754C151.779 112.754 137.432 114.363 128.936 123.506C120.441 132.648 110.871 167.089 110.775 167.501L110.596 168.147L109.935 167.982C108.696 167.666 107.029 167.46 106.217 168.299C105.405 169.137 105.639 171.186 105.845 171.86L106.19 173.014L77.5223 165.686C83.5945 180.384 92.4205 201.295 94.0452 203.935C104.496 201.429 114.786 198.298 124.86 194.559C135.215 190.434 136.206 173.358 136.22 173.193H137.597C137.597 173.922 136.55 191.273 125.37 195.768C115.048 199.629 104.482 202.807 93.7423 205.282V205.282Z" fill="black"/>
<path d="M196.887 116.04C196.887 116.04 213.052 144.83 209.073 178.06C205.093 211.291 203.496 217.313 203.496 217.313H132.2L133.852 195.109C132.806 191.781 137.322 182.735 137.322 182.735C135.738 180.631 136.854 173.111 136.854 173.111C134.279 170.196 133.04 162.112 133.852 155.444" fill="white"/>
<path d="M204.074 218H131.511L133.246 195.191C132.351 191.891 135.725 184.618 136.62 182.817C135.367 180.452 136.014 174.884 136.207 173.386C133.728 170.237 132.406 162.304 133.26 155.416L134.637 155.595C133.824 162.208 135.119 170.058 137.473 172.726L137.68 172.973V173.289C137.267 176.039 136.991 181.002 138.01 182.364L138.272 182.707L138.079 183.092C136.854 185.526 133.852 192.428 134.651 194.944V195.081L133.012 216.666H203.014C203.441 214.632 205.121 205.86 208.453 178.019C212.363 145.407 196.515 116.7 196.35 116.425L197.548 115.751C197.713 116.04 213.782 145.105 209.816 178.184C205.851 211.263 204.308 217.285 204.226 217.533L204.074 218Z" fill="black"/>
<path d="M162.712 212.583H63.9185V217.313H162.712V212.583Z" fill="white"/>
<path d="M163.4 218H63.23V211.896H163.4V218ZM64.6069 216.625H162.023V213.27H64.6069V216.625Z" fill="black"/>
<path d="M156.103 198.257C152.57 196.375 148.654 195.323 144.653 195.18C140.652 195.037 136.671 195.807 133.012 197.432C125.556 200.466 119.074 205.483 114.272 211.937L163.593 212.652C163.746 209.803 163.131 206.966 161.814 204.434C160.497 201.903 158.525 199.77 156.103 198.257V198.257Z" fill="white"/>
<path d="M164.213 213.284L113.005 212.542L113.694 211.497C113.928 211.126 119.807 202.244 132.75 196.731C136.503 195.045 140.595 194.246 144.707 194.396C148.819 194.546 152.841 195.642 156.461 197.597V197.597C159.013 199.174 161.086 201.414 162.459 204.079C163.832 206.743 164.453 209.731 164.254 212.721L164.213 213.284ZM115.608 211.208L162.96 211.896C162.975 209.273 162.319 206.691 161.054 204.393C159.789 202.095 157.957 200.158 155.731 198.766C152.289 196.961 148.483 195.954 144.597 195.821C140.711 195.688 136.846 196.431 133.287 197.996C126.398 200.885 120.326 205.423 115.608 211.208V211.208Z" fill="black"/>
<path d="M188.143 108.258C197.793 110.383 206.209 116.236 211.551 124.537C221.052 138.753 218.009 164.738 217.127 173.166C216.246 181.594 208.866 203.564 208.866 203.564C208.866 203.564 198.14 211.992 178.574 212.514C159.008 213.037 158.65 212.514 158.65 212.514C164.337 206.905 154.175 200.525 148.406 195.603C148.406 195.603 160.468 186.488 172.254 185.141C176.334 184.783 180.383 184.135 184.371 183.202C182.068 175.147 181.766 166.653 183.489 158.455C185.281 149.828 188.681 141.615 193.513 134.243" fill="white"/>
<path d="M164.956 213.38C158.581 213.38 158.347 213.092 158.196 212.886L157.81 212.404L158.251 211.978C158.725 211.577 159.102 211.075 159.355 210.508C159.608 209.942 159.729 209.326 159.71 208.706C159.531 205.31 154.891 201.598 150.802 198.326C149.824 197.556 148.888 196.8 148.048 196.071L147.401 195.521L148.076 194.999C148.585 194.627 160.468 185.746 172.268 184.398C176.074 184.021 179.857 183.438 183.6 182.652C181.464 174.688 181.228 166.334 182.911 158.262C184.739 149.547 188.175 141.248 193.045 133.79L194.175 134.573C189.412 141.879 186.05 150.005 184.261 158.537C182.576 166.618 182.873 174.986 185.128 182.927L185.362 183.601L184.66 183.807C180.631 184.797 176.536 185.491 172.406 185.883C162.547 187.011 152.33 193.789 149.604 195.713C150.251 196.263 150.981 196.813 151.669 197.377C155.979 200.828 160.881 204.746 161.087 208.747C161.139 209.927 160.79 211.09 160.096 212.047C161.927 212.143 166.636 212.226 178.643 211.896C196.405 211.414 206.911 204.224 208.302 203.206C209.045 200.965 215.641 180.989 216.453 173.152L216.536 172.437C217.513 163.184 220.088 138.615 211.028 124.99C205.782 116.819 197.528 111.036 188.047 108.891L188.254 107.516C188.832 107.598 202.587 109.784 212.143 124.097C221.52 138.134 218.89 163.06 217.899 172.437L217.83 173.166C216.949 181.566 209.844 202.808 209.568 203.715V203.908L209.403 204.031C208.949 204.389 198.278 212.611 178.753 213.133C172.323 213.38 167.958 213.38 164.956 213.38Z" fill="black"/>
<path d="M194.436 104.34C194.436 104.34 205.148 110.266 203.221 117.484C201.293 124.702 177.059 151.374 156.406 142.231C135.752 133.088 139.359 111.696 139.359 111.696C139.359 111.696 149.741 80.3349 194.436 104.34Z" fill="white"/>
<path d="M165.521 144.83C162.319 144.842 159.152 144.177 156.226 142.877C135.421 133.638 138.753 111.805 138.795 111.586C140.067 108.219 142.026 105.153 144.548 102.582C147.07 100.012 150.1 97.9933 153.445 96.6544C164.158 92.3786 178.064 94.7571 194.752 103.735C195.207 103.996 205.919 110.018 203.868 117.662C202.587 122.488 192.219 135.164 179.152 141.393C174.924 143.544 170.265 144.718 165.521 144.83V144.83ZM164.777 95.967C161.087 95.9239 157.423 96.5867 153.982 97.9193C150.847 99.1979 148.003 101.097 145.622 103.502C143.242 105.908 141.374 108.77 140.13 111.915C140.006 112.672 136.964 132.827 156.791 141.626C163.235 144.486 170.56 143.991 178.615 140.155C191.131 134.188 201.403 121.801 202.601 117.305C204.349 110.733 194.339 105.069 194.147 104.931C182.994 98.9642 173.176 95.967 164.777 95.967Z" fill="black"/>
<path d="M40.7588 155.457H99.3601L122.506 212.583H63.9184L40.7588 155.457Z" fill="white"/>
<path d="M123.525 213.27H63.4505L39.7539 154.784H99.8285L123.525 213.27ZM64.318 211.896H121.46L98.8647 156.159H41.7917L64.318 211.896Z" fill="black"/>
<path d="M131.181 132.676C131.181 132.676 125.357 148.899 136.468 158.111Z" fill="white"/>
<path d="M136.027 158.633C124.682 149.229 130.52 132.607 130.52 132.511L131.814 132.978C131.814 133.13 126.306 148.858 136.895 157.643L136.027 158.633Z" fill="black"/>
<path d="M212.625 142.3C212.625 142.3 204.184 128.235 199.269 134.546C194.353 140.856 185.899 152.419 187.317 168.917C188.735 185.416 185.582 188.234 185.582 188.234C185.582 188.234 172.626 187.533 165.383 189.994C161.119 191.417 157.059 193.391 153.308 195.865C153.308 195.865 160.977 202.437 162.189 205.159C162.91 207.038 163.092 209.081 162.712 211.057C162.712 211.057 195.221 210.741 203.124 203.839C211.028 196.937 216.466 168.299 212.625 142.3Z" fill="#DBE5FB"/>
<path d="M184.261 144.129C184.261 144.129 166.691 151.828 156.172 150.04C145.652 148.253 134.761 135.948 134.761 135.948C134.761 135.948 131.25 139.811 134.761 146.837C136.48 150.052 137.926 153.404 139.084 156.86C139.084 156.86 136.978 157.602 137.914 162.277C138.695 165.774 139.711 169.214 140.957 172.575C140.323 173.179 139.878 173.954 139.678 174.806C139.477 175.658 139.529 176.55 139.828 177.373C140.723 180.535 141.205 181.814 141.205 181.814C141.205 181.814 139.69 182.281 138.63 186.502C137.958 189.329 137.534 192.208 137.363 195.109C137.363 195.109 148.998 187.78 159.931 185.333C167.296 183.754 174.756 182.657 182.264 182.047C181.41 175.456 181.042 168.812 181.163 162.167C181.728 156.083 182.763 150.052 184.261 144.129V144.129Z" fill="#DBE5FB"/>
<path d="M148.433 159.266C145.328 159.31 142.223 159.149 139.139 158.785L139.332 157.41C150.003 158.95 178.491 156.186 178.767 156.159L178.904 157.533C177.996 157.63 161.032 159.266 148.433 159.266Z" fill="black"/>
<path d="M142.926 173.262C142.926 173.262 157.535 178.005 168.261 178.046Z" fill="white"/>
<path d="M168.275 178.734C157.562 178.734 142.871 173.963 142.719 173.908L143.146 172.602C143.298 172.602 157.796 177.318 168.288 177.359L168.275 178.734Z" fill="black"/>
<path d="M147.8 195.7C143.559 161.892 155.8 142.08 155.924 141.888L157.094 142.616C156.97 142.809 144.991 162.236 149.163 195.521L147.8 195.7Z" fill="black"/>
<path d="M196.804 113.249C196.804 113.249 195.193 128.235 174.375 135.948C153.556 143.661 144.083 116.04 144.083 116.04C144.083 116.04 144.881 110.788 151.862 115.82C158.843 120.852 171.593 112.507 174.388 110.321C177.183 108.135 194.34 102.319 196.804 113.249Z" fill="#FFDE15"/>
<path d="M125.439 140.513C125.439 140.513 120.688 154.866 119.807 162.868C119.463 166.811 118.819 170.723 117.88 174.568C117.88 174.568 113.831 170.003 110.995 170.003C108.159 170.003 110.995 178.046 110.995 178.046L117.577 193.871C120.29 193.86 122.93 192.987 125.114 191.378C127.297 189.769 128.911 187.507 129.721 184.921C132.998 175.613 125.962 148.418 125.439 140.513Z" fill="#DBE5FB"/>
<path d="M167.999 62.3103C167.999 62.3103 164.364 57.6495 153.197 60.9355C142.871 63.9739 139.139 72.3606 137.473 80.1836C135.807 88.0065 139.387 97.6443 137.473 104.849C135.559 112.053 135.298 112.823 135.229 116.466C135.16 120.11 151.407 112.039 151.407 112.039" fill="white"/>
<path d="M136.605 118.047C136.128 118.071 135.652 117.967 135.229 117.745C134.998 117.601 134.812 117.397 134.69 117.154C134.569 116.912 134.517 116.64 134.54 116.37C134.54 112.795 134.829 111.957 136.578 105.467L136.812 104.587C137.762 101.04 137.335 96.8745 136.881 92.4749C136.427 88.0753 135.986 83.882 136.881 79.9637C139.194 69.2122 144.481 62.7641 153.087 60.2206C164.571 56.8521 168.453 61.5955 168.619 61.843L167.531 62.6816C167.531 62.6816 163.978 58.4608 153.473 61.5405C145.294 63.9602 140.447 69.8996 138.23 80.2523C137.432 83.9645 137.872 88.2128 138.299 92.3237C138.753 96.6682 139.222 101.15 138.203 104.945L137.969 105.825C136.261 112.163 136.041 112.988 135.972 116.398C137.349 117.332 144.867 114.459 151.118 111.338L151.738 112.562C148.874 114.019 140.433 118.047 136.605 118.047Z" fill="black"/>
<path d="M141.453 86.3155C141.813 87.8698 142.302 89.3919 142.912 90.8663C137.515 102.113 149.604 111.778 149.604 111.778C150.854 113.114 152.411 114.126 154.141 114.725C155.871 115.324 157.722 115.492 159.531 115.215C170.134 114.019 176.233 99.7754 176.233 99.7754C176.674 98.5793 177.06 97.4106 177.418 96.2695C177.754 96.5747 178.161 96.792 178.602 96.902C180.584 97.3694 182.732 95.5271 183.38 92.7774C184.027 90.0277 182.953 87.3604 180.97 86.8929C180.479 86.7542 179.96 86.7542 179.469 86.8929C181.011 73.7217 175.517 65.995 166.389 64.5514" fill="white"/>
<path d="M157.948 115.985C156.296 116.024 154.654 115.713 153.13 115.073C151.607 114.434 150.236 113.479 149.108 112.273C148.199 111.503 137.101 101.92 142.155 90.8388C141.581 89.42 141.121 87.9581 140.778 86.4667L142.155 86.1506C142.49 87.6662 142.951 89.1515 143.532 90.5913L143.656 90.8801L143.518 91.155C138.41 101.796 149.907 111.146 150.017 111.242L150.127 111.352C151.302 112.598 152.764 113.539 154.386 114.093C156.009 114.646 157.742 114.796 159.435 114.528C169.514 113.387 175.531 99.6379 175.586 99.5004C175.972 98.4418 176.357 97.3007 176.743 96.0633L177.059 95.0596L177.858 95.7471C178.106 95.9798 178.409 96.1455 178.739 96.2282C180.309 96.5857 182.14 94.9221 182.691 92.5436C182.982 91.4202 182.919 90.2345 182.512 89.1478C182.38 88.7552 182.156 88.3996 181.859 88.1103C181.562 87.8211 181.201 87.6064 180.805 87.4841C180.424 87.4041 180.03 87.4278 179.662 87.5529L178.643 87.8691L178.767 86.8105C180.144 74.7529 175.517 66.6824 166.264 65.2251L166.485 63.8502C176.302 65.4038 181.397 73.6805 180.254 86.0543C180.555 86.0408 180.856 86.0686 181.149 86.1368C181.764 86.302 182.329 86.6153 182.795 87.0491C183.26 87.4829 183.612 88.0241 183.82 88.6253C184.334 89.9736 184.42 91.4471 184.068 92.8461C183.324 95.9946 180.805 98.0981 178.45 97.5619C178.232 97.5046 178.02 97.4263 177.817 97.3282C177.514 98.2631 177.211 99.143 176.894 99.9954C176.633 100.628 170.505 114.651 159.614 115.875C159.061 115.945 158.505 115.982 157.948 115.985V115.985Z" fill="black"/>
<path d="M161.693 102.388C159.349 103.171 156.932 103.714 154.478 104.01C151.421 104.23 150.347 103.323 150.347 103.323" fill="white"/>
<path d="M153.542 104.766C152.268 104.885 150.99 104.581 149.907 103.9L150.788 102.841C151.913 103.398 153.187 103.581 154.423 103.364C156.821 103.078 159.183 102.548 161.473 101.783L161.913 103.158C159.507 103.949 157.024 104.488 154.506 104.766C154.175 104.766 153.845 104.766 153.542 104.766Z" fill="black"/>
<path d="M153.253 99.0468C153.253 99.0468 150.912 99.2255 150.265 98.0706C149.618 96.9157 152.812 88.6391 152.234 87.0717" fill="white"/>
<path d="M152.895 99.7479C152.284 99.7995 151.67 99.7012 151.106 99.4616C150.542 99.222 150.045 98.8483 149.659 98.3731C149.246 97.6306 149.59 96.1183 150.54 92.5849C151.05 90.7151 151.807 87.9104 151.587 87.3329L152.881 86.838C153.239 87.7729 152.729 89.7665 151.876 92.9424C151.366 94.495 151.034 96.1 150.884 97.7269C151.187 98.2631 152.606 98.3731 153.198 98.3181L153.308 99.693L152.895 99.7479Z" fill="black"/>
<path d="M156.957 88.749C156.957 88.749 157.259 85.5181 160.013 85.2706C162.005 85.2885 163.937 85.9492 165.521 87.1542" fill="white"/>
<path d="M157.645 88.7903L156.268 88.6941C156.294 87.6836 156.677 86.7149 157.35 85.9598C158.023 85.2047 158.942 84.7122 159.944 84.5695C162.125 84.5632 164.246 85.2788 165.975 86.6043L165.122 87.6905C163.664 86.5899 161.895 85.9787 160.068 85.9444C157.865 86.1506 157.659 88.6803 157.645 88.7903Z" fill="black"/>
<path d="M164.777 82.0671C164.777 82.0671 162.327 79.3174 159.917 80.6923C158.299 81.649 156.793 82.7835 155.428 84.0745" fill="white"/>
<path d="M155.882 84.4869L154.918 83.5107C156.325 82.1751 157.882 81.0078 159.559 80.0324C162.409 78.41 165.149 81.4897 165.273 81.6134L164.24 82.5209C164.24 82.5209 162.106 80.1561 160.233 81.2285C158.668 82.1524 157.209 83.2451 155.882 84.4869V84.4869Z" fill="black"/>
<path d="M150.072 86.0405C150.072 86.0405 146.588 82.6584 144.027 86.0405Z" fill="white"/>
<path d="M149.59 86.5355C148.777 85.715 147.688 85.2251 146.533 85.1606C146.136 85.2093 145.754 85.344 145.414 85.5553C145.073 85.7667 144.784 86.0496 144.564 86.3843L143.477 85.5456C143.811 85.0548 144.249 84.6437 144.761 84.3418C145.273 84.04 145.845 83.8548 146.437 83.7995C147.976 83.8337 149.448 84.4362 150.568 85.4906L149.59 86.5355Z" fill="black"/>
<path d="M149.576 89.189C149.404 88.7121 149.081 88.304 148.656 88.0262C148.232 87.7485 147.728 87.6161 147.221 87.6491C145.39 87.7454 144.826 90.2476 144.826 90.2476" fill="white"/>
<path d="M145.5 90.4126L144.124 90.0964C144.124 89.9727 144.84 87.0854 147.153 86.9617C147.813 86.9107 148.471 87.0803 149.025 87.4436C149.578 87.8069 149.995 88.3435 150.209 88.969L148.901 89.409C148.769 89.077 148.536 88.7949 148.235 88.6025C147.933 88.4101 147.579 88.317 147.222 88.3366C145.982 88.4053 145.5 90.3851 145.5 90.4126Z" fill="black"/>
<path d="M147.307 92.1897C147.863 92.1063 148.223 91.4299 148.11 90.679C147.997 89.9281 147.454 89.3871 146.898 89.4705C146.341 89.5539 145.982 90.2303 146.095 90.9812C146.208 91.7321 146.75 92.2732 147.307 92.1897Z" fill="black"/>
<path d="M159.38 90.3937C159.936 90.3103 160.296 89.6339 160.183 88.883C160.07 88.1321 159.527 87.591 158.971 87.6745C158.414 87.7579 158.055 88.4343 158.168 89.1852C158.281 89.9361 158.823 90.4772 159.38 90.3937Z" fill="black"/>
<path d="M162.395 70.1609C162.395 70.1609 160.743 72.1819 156.034 72.1819C151.325 72.1819 147.869 76.4303 146.079 79.62C144.243 82.6088 142.238 85.4915 140.076 88.2541" fill="white"/>
<path d="M140.626 88.6665L139.539 87.8279C141.671 85.0886 143.656 82.2386 145.487 79.2899C146.795 76.9389 150.43 71.4945 156.02 71.4945C160.275 71.4945 161.817 69.7484 161.831 69.7209L162.891 70.6009C162.822 70.6971 160.991 72.8694 156.006 72.8694C151.146 72.8694 147.855 77.8327 146.671 79.9637C144.819 82.9743 142.801 85.8797 140.626 88.6665V88.6665Z" fill="black"/>
<path d="M193.183 98.2493C188.488 89.4227 184.922 91.4575 183.71 79.0012C182.498 66.545 175.917 61.4442 169.087 63.0803C162.258 64.7164 163.318 72.3881 163.318 72.3881C166.603 74.4632 169.266 77.3841 171.029 80.8435C173.851 86.5492 175.38 89.6976 175.38 89.6976C175.38 89.6976 178.891 86.1505 180.984 86.8242C183.077 87.4979 184.054 89.9176 183.393 92.7086C182.732 95.4996 180.639 97.3694 178.615 96.8332C178.174 96.7232 177.768 96.5059 177.431 96.2008C177.569 107.846 177.114 115.284 181.644 117.085C186.175 118.886 197.892 107.09 193.183 98.2493Z" fill="white"/>
<path d="M182.677 118.034C182.234 118.037 181.794 117.952 181.383 117.786C176.867 115.999 176.825 109.537 176.756 99.6792C176.756 98.5931 176.756 97.452 176.756 96.2696V94.7435L177.927 95.7471C178.175 95.9799 178.478 96.1455 178.808 96.2283C180.378 96.5858 182.209 94.9222 182.76 92.5437C183.311 90.1652 182.457 88.0066 180.818 87.4704C179.538 87.0717 176.963 89.1203 175.917 90.2202L175.228 90.9076L174.801 90.0414C174.801 90.0414 173.273 86.893 170.45 81.1873C168.754 77.8281 166.193 74.9807 163.029 72.9381L162.74 72.7731V72.4432C162.74 72.3607 161.693 64.1252 169.032 62.3654C170.507 61.986 172.048 61.9359 173.545 62.2187C175.042 62.5015 176.458 63.1102 177.693 64.0015C180.336 65.8988 183.669 70.0234 184.508 78.8913C185.238 86.728 186.932 88.6803 189.273 91.3613C191.084 93.355 192.638 95.5674 193.899 97.9469C196.777 103.323 193.982 109.496 190.415 113.469C188.13 115.889 185.101 118.034 182.677 118.034ZM178.12 97.4795C178.12 98.2219 178.12 98.9505 178.12 99.6655C178.12 108.946 178.23 115.064 181.879 116.508C183.517 117.167 186.615 115.49 189.273 112.548C192.522 108.905 195.097 103.336 192.563 98.5794C191.351 96.2906 189.852 94.1654 188.102 92.255C185.693 89.5053 183.779 87.2918 183.008 79.0151C182.402 72.4845 180.254 67.5487 176.756 65.1015C175.681 64.3349 174.45 63.8143 173.151 63.5766C171.852 63.339 170.516 63.3902 169.239 63.7266C163.731 65.1015 163.841 70.6009 163.951 71.9758C167.217 74.1321 169.861 77.1039 171.621 80.5961L175.572 88.6116C176.784 87.5255 179.29 85.6282 181.163 86.2193C183.517 86.9755 184.756 89.849 184.04 92.9149C183.324 95.9809 180.777 98.1669 178.423 97.6307L178.12 97.4795Z" fill="black"/>
<path d="M122.506 84.0332C122.502 76.2803 120.366 68.6773 116.332 62.0531C112.298 55.4289 106.52 50.0377 99.6276 46.4673C92.7356 42.8969 84.9941 41.2844 77.2472 41.8054C69.5003 42.3264 62.0453 44.9611 55.6951 49.4221C49.3448 53.8832 44.3429 59.9994 41.2347 67.104C38.1265 74.2086 37.0314 82.0289 38.0686 89.7123C39.1058 97.3957 42.2357 104.647 47.1169 110.677C51.9981 116.706 58.4433 121.281 65.7499 123.904L80.1524 138.217L94.4998 123.891C102.705 120.928 109.797 115.512 114.809 108.379C119.82 101.247 122.508 92.7458 122.506 84.0332V84.0332Z" fill="white"/>
<path d="M80.1526 139.138L65.4334 124.441C55.9086 120.984 47.9081 114.287 42.8376 105.526C37.7671 96.7645 35.9509 86.4991 37.7081 76.5333C39.4653 66.5674 44.6835 57.5385 52.4459 51.0331C60.2083 44.5276 70.0184 40.9617 80.1526 40.9617C90.2868 40.9617 100.097 44.5276 107.859 51.0331C115.622 57.5385 120.84 66.5674 122.597 76.5333C124.354 86.4991 122.538 96.7645 117.468 105.526C112.397 114.287 104.397 120.984 94.8717 124.441L80.1526 139.138ZM80.1526 42.3337C70.3254 42.3279 60.8117 45.7862 53.2881 52.0989C45.7646 58.4116 40.7142 67.1735 39.0272 76.8404C37.3401 86.5072 39.1247 96.4585 44.0663 104.94C49.0079 113.422 56.7894 119.889 66.0392 123.203L66.3009 123.354L80.1526 137.24L94.2659 123.244C103.516 119.931 111.297 113.463 116.239 104.981C121.18 96.4997 122.965 86.5484 121.278 76.8816C119.591 67.2147 114.541 58.4528 107.017 52.1401C99.4935 45.8274 89.9797 42.3691 80.1526 42.3749V42.3337Z" fill="black"/>
<path d="M85.7565 68.5798L88.2763 76.3478H96.4551C97.3686 76.3466 98.2589 76.6343 98.9984 77.1697C99.7379 77.7051 100.289 78.4606 100.571 79.3278C100.854 80.1951 100.855 81.1295 100.573 81.9971C100.291 82.8647 99.7413 83.6208 99.0024 84.157L92.3795 88.9553L94.913 96.7233C95.1979 97.5919 95.1993 98.5284 94.917 99.3979C94.6348 100.267 94.0834 101.025 93.3424 101.562C92.6014 102.098 91.7089 102.386 90.7935 102.384C89.8781 102.382 88.9871 102.089 88.2487 101.549L81.6396 96.7507L75.0166 101.549C74.278 102.084 73.3889 102.371 72.4766 102.371C71.5643 102.37 70.6756 102.081 69.9376 101.546C69.1996 101.01 68.6501 100.255 68.3679 99.3893C68.0856 98.523 68.085 97.5899 68.3662 96.7233L70.8859 88.9553L64.2767 84.157C63.5378 83.6208 62.988 82.8647 62.7061 81.9971C62.4243 81.1295 62.4248 80.1951 62.7077 79.3278C62.9905 78.4606 63.5413 77.7051 64.2808 77.1697C65.0203 76.6343 65.9106 76.3466 66.824 76.3478H74.9891L77.5226 68.5798C77.8023 67.709 78.3517 66.9493 79.0916 66.4104C79.8315 65.8715 80.7237 65.5811 81.6396 65.5811C82.5554 65.5811 83.4476 65.8715 84.1875 66.4104C84.9274 66.9493 85.4769 67.709 85.7565 68.5798V68.5798Z" fill="#FFDE15"/>
<path d="M90.796 103.075C89.734 103.076 88.7002 102.734 87.8494 102.099L81.6395 97.6032L75.4297 102.099C74.5736 102.701 73.5503 103.019 72.5035 103.011C71.4567 103.002 70.4389 102.666 69.5929 102.051C68.747 101.435 68.1153 100.57 67.7866 99.5777C67.458 98.5853 67.4487 97.515 67.7603 96.5171L70.1424 89.2303L63.9325 84.7207C63.0701 84.1033 62.4269 83.2279 62.096 82.2212C61.765 81.2145 61.7636 80.1288 62.0918 79.1212C62.4199 78.1136 63.0607 77.2364 63.9214 76.6167C64.7821 75.997 65.818 75.6669 66.879 75.6742H74.5484L76.9167 68.3736C77.2381 67.3634 77.8757 66.4828 78.7359 65.8616C79.596 65.2403 80.6331 64.9113 81.6946 64.9227V64.9227C82.7543 64.912 83.7893 65.2416 84.6471 65.863C85.5049 66.4843 86.14 67.3645 86.4587 68.3736L88.827 75.6742H96.5102C97.5669 75.6759 98.5961 76.0112 99.4505 76.632C100.305 77.2528 100.941 78.1274 101.268 79.1308C101.595 80.1342 101.596 81.2152 101.27 82.2191C100.945 83.223 100.31 84.0986 99.4567 84.7207L93.2469 89.2303L95.6152 96.5171C95.9548 97.5231 95.9614 98.6114 95.6342 99.6215C95.3069 100.632 94.663 101.51 93.7977 102.127C92.9247 102.756 91.8725 103.088 90.796 103.075ZM81.6395 95.8984L88.6618 100.999C89.2872 101.461 90.0447 101.711 90.8227 101.711C91.6007 101.711 92.3583 101.462 92.984 101C93.6097 100.539 94.0706 99.8888 94.2989 99.1461C94.5271 98.4034 94.5107 97.6072 94.252 96.8745L91.5671 88.6254L98.5893 83.5383C99.2127 83.0887 99.6771 82.4533 99.9159 81.7234C100.155 80.9936 100.156 80.2069 99.9185 79.4765C99.6813 78.7461 99.2182 78.1097 98.5959 77.6587C97.9736 77.2076 97.2241 76.9654 96.4551 76.9665H87.7806L85.0268 68.7174C84.8001 67.9826 84.3404 67.3413 83.7171 66.89C83.0938 66.4387 82.3405 66.2019 81.5707 66.2151V66.2151C80.8004 66.1996 80.046 66.4355 79.4222 66.8872C78.7984 67.3388 78.3393 67.9814 78.1146 68.7174L75.4297 76.9665H66.7551C65.985 76.9624 65.2334 77.2026 64.6089 77.6525C63.9843 78.1025 63.519 78.7389 63.2801 79.47C63.0411 80.201 63.0409 80.989 63.2794 81.7202C63.5179 82.4514 63.9829 83.088 64.6072 83.5383L71.6294 88.6254L68.9444 96.8745C68.6923 97.6079 68.681 98.4025 68.9123 99.1428C69.1437 99.883 69.6055 100.53 70.2306 100.99C70.8557 101.45 71.6115 101.699 72.3881 101.701C73.1646 101.703 73.9215 101.457 74.5484 100.999L81.6395 95.8984Z" fill="black"/>
<path d="M79.6043 191.463C79.1863 191.549 78.8606 191.52 78.6273 191.377C78.4044 191.218 78.2557 190.956 78.181 190.59C78.1357 190.368 78.1505 190.141 78.2255 189.908C78.3004 189.675 78.4249 189.418 78.5991 189.137L81.6823 184.14C82.1554 183.391 82.4705 182.734 82.6279 182.171C82.7825 181.596 82.8066 181.046 82.7 180.524C82.5667 179.871 82.2564 179.417 81.769 179.162C81.2947 178.905 80.6657 178.857 79.8818 179.017C79.4376 179.107 79.0068 179.263 78.5892 179.485C78.1691 179.693 77.761 179.994 77.365 180.387C77.1619 180.592 76.9531 180.703 76.7387 180.719C76.5374 180.733 76.3438 180.684 76.1577 180.573C75.9846 180.458 75.8507 180.302 75.7558 180.103C75.6609 179.905 75.6248 179.695 75.6474 179.472C75.6805 179.234 75.7986 179.013 76.0018 178.808C76.4863 178.315 77.0547 177.899 77.7071 177.562C78.3726 177.222 79.0581 176.98 79.7636 176.836C80.7565 176.634 81.6232 176.613 82.3639 176.775C83.1045 176.937 83.7098 177.27 84.1798 177.772C84.6498 178.275 84.9688 178.938 85.1367 179.761C85.2487 180.31 85.2665 180.864 85.1902 181.424C85.127 181.981 84.9671 182.565 84.7106 183.175C84.4671 183.783 84.1193 184.446 83.6671 185.164L80.7666 189.757L80.6306 189.09L86.392 187.915C86.7447 187.843 87.0298 187.873 87.2474 188.006C87.4649 188.138 87.6084 188.374 87.6777 188.714C87.747 189.054 87.7088 189.334 87.5632 189.554C87.4176 189.774 87.1685 189.92 86.8158 189.992L79.6043 191.463Z" fill="#2A3855"/>
</svg>
