<svg width="256" height="256" viewBox="0 0 256 256" fill="none" xmlns="http://www.w3.org/2000/svg">
<rect width="256" height="256" rx="10" fill="#7194E0"/>
<path d="M44.2322 134.675C44.2322 134.675 49.9064 137.849 49.9064 154.235C49.9064 165.356 45.9596 177.282 45.9596 177.282C45.9596 177.282 56.0125 174.577 62.0106 180.684C68.0088 186.791 69.8561 202.047 69.7002 207.613C69.5442 213.18 62.0106 221.787 62.0106 221.787C62.0106 221.787 25.1341 221.15 25.1341 188.017C25.1341 154.884 22.159 125.082 44.2322 134.675Z" fill="#FFDE15"/>
<path d="M217.47 217.423H71.6438V216.822H216.871V52.5161H52.9177V116.774H52.3179V51.915H217.47V217.423Z" fill="black"/>
<path d="M106.732 35.5891V95.4952H154.597V35.5891H106.732Z" fill="white"/>
<path d="M154.886 95.8078H106.397V35.3006H154.862L154.886 95.8078ZM107.021 95.2067H154.286V35.9017H107.021V95.2067Z" fill="#FFDE15"/>
<path d="M116.809 41.7805H115.609V88.2219H116.809V41.7805Z" fill="black"/>
<path d="M131.253 58.2988H130.053V88.2218H131.253V58.2988Z" fill="black"/>
<path d="M138.282 48.5369H137.683V88.2218H138.282V48.5369Z" fill="#FFDE15"/>
<path d="M145.913 70.2609H144.713V88.2219H145.913V70.2609Z" fill="black"/>
<path d="M123.732 64.1175H123.132V88.2218H123.732V64.1175Z" fill="#FFDE15"/>
<path d="M126.082 96.1084H106.121V72.8096H107.32V94.9062H126.082V96.1084Z" fill="black"/>
<path d="M155.186 58.2988H153.986V36.2022H135.236V35H155.186V58.2988Z" fill="black"/>
<path d="M64.2296 103.298L62.0103 111.737L68.9801 122.208H85.8348L85.223 113.913" fill="white"/>
<path d="M86.483 122.809H68.6565L61.3628 111.845L63.6541 103.141L64.8057 103.454L62.6584 111.617L69.3043 121.607H85.1874L84.6235 113.961L85.8232 113.877L86.483 122.809Z" fill="black"/>
<path d="M70.12 221.258C66.3532 221.258 27.1135 220.152 25.8898 180.083C25.1701 156.7 27.1974 129.193 31.816 123.639C36.1586 118.421 45.8876 118.914 47.6391 119.046C49.8704 117.195 55.7845 114.49 56.0365 114.37L56.5403 115.464C56.4803 115.464 50.1463 118.385 48.2509 120.116L48.0589 120.297H47.783C47.687 120.297 36.9863 119.311 32.7397 124.444C28.493 129.578 26.3937 157.421 27.0895 180.083C28.2891 220.717 69.8321 220.116 70.276 220.104L108.796 211.472H108.892C109 211.472 119.797 212.35 121.248 205.846C122.148 201.855 124.019 193.523 118.849 165.464C116.762 154.055 111.651 131.586 108.712 128.796C105.773 126.007 95.6841 123.23 95.5161 123.206L95.2642 123.134L95.1442 122.906C95.1442 122.906 92.685 118.554 89.278 118.758L89.2181 117.556C92.9729 117.315 95.4682 121.162 96.068 122.1C97.6755 122.545 106.397 125.009 109.48 127.919C113.163 131.417 118.693 158.251 119.964 165.187C125.135 193.487 123.227 201.975 122.364 206.062C120.732 213.276 110.032 212.723 108.82 212.627L70.4079 221.258H70.12Z" fill="black"/>
<path d="M70.2041 183.99C70.2041 183.99 76.2022 192.574 73.623 206.543L71.0078 220.501C71.0078 220.501 95.9841 218.866 106.121 213.793C116.258 208.719 114.266 198.741 112.995 193.295C112.069 189.649 110.733 186.12 109.012 182.776C109.012 182.776 99.7869 185.865 70.2041 183.99Z" fill="white"/>
<path d="M70.276 221.15L73.0351 206.423C75.5543 192.898 69.7721 184.423 69.7121 184.339L69.0044 183.317L70.204 183.389C99.235 185.228 108.688 182.247 108.772 182.187L109.252 182.03L109.492 182.475C111.253 185.858 112.61 189.437 113.535 193.139C114.626 197.851 117.133 208.864 106.337 214.31C96.2119 219.383 72.0274 221.018 70.9957 221.078L70.276 221.15ZM71.3197 184.663C72.8312 187.356 76.3581 195.182 74.2107 206.652L71.7395 219.876C76.0222 219.539 96.9316 217.748 105.845 213.276C115.862 208.262 113.535 198.26 112.407 193.463C111.542 190.022 110.299 186.687 108.7 183.521C106.469 184.086 96.4758 186.178 71.3197 184.663V184.663Z" fill="black"/>
<path d="M71.3439 187.897C71.3439 187.777 67.5771 176.007 55.5209 174.673C43.2127 173.29 37.4185 175.214 37.3705 175.238L36.9746 174.096C37.2145 174.012 43.0447 172.064 55.6528 173.483C68.5128 174.925 72.4476 187.44 72.4476 187.573L71.3439 187.897Z" fill="black"/>
<path d="M54.9804 174.048C54.9804 173.783 54.6445 147.599 52.3412 139.977C50.9059 135.42 47.9382 131.503 43.9438 128.893L44.5317 127.847C48.8233 130.582 52.004 134.758 53.5048 139.628C55.9041 147.419 56.1801 172.954 56.1921 174.036L54.9804 174.048Z" fill="black"/>
<path d="M105.761 140.338C105.761 140.338 111.543 161.196 111.759 166.786C111.759 166.786 107.789 172.413 109.048 182.74" fill="white"/>
<path d="M108.424 182.86C107.224 173.242 110.439 167.712 111.123 166.654C110.823 160.895 105.233 140.71 105.125 140.506L106.325 140.181C106.565 141.035 112.131 161.172 112.323 166.798V167.003L112.203 167.171C112.203 167.171 108.376 172.749 109.6 182.704L108.424 182.86Z" fill="black"/>
<path d="M159.456 178.496C159.456 178.496 158.676 193.872 149.175 197.731C140.255 201.07 131.131 203.837 121.86 206.014C121.092 206.014 106.721 171.054 106.721 171.054L131.841 177.498C131.841 177.498 130.149 171.824 136.124 173.35C136.124 173.35 144.425 142.958 152.091 134.699C159.756 126.44 172.484 125.082 172.484 125.082" fill="white"/>
<path d="M121.86 206.591C121.344 206.591 120.66 206.591 106.169 171.258L105.713 170.152L131.073 176.656C130.959 176.082 130.972 175.489 131.111 174.92C131.25 174.351 131.511 173.819 131.877 173.362C132.396 172.918 133.022 172.615 133.692 172.485C134.363 172.354 135.056 172.4 135.704 172.617C136.903 168.325 144.461 142.021 151.647 134.266C159.372 125.923 171.908 124.541 172.436 124.48L172.556 125.683C172.436 125.683 159.936 127.077 152.522 135.084C145.109 143.091 136.783 173.182 136.699 173.555L136.543 174.12L135.979 173.975C134.888 173.687 133.448 173.519 132.74 174.252C132.033 174.985 132.237 176.777 132.417 177.366L132.704 178.376L107.728 171.968C113.019 184.807 120.72 203.105 122.124 205.413C131.227 203.215 140.192 200.477 148.971 197.214C157.993 193.608 158.856 178.676 158.868 178.532L160.068 178.592C160.068 179.229 159.156 194.389 149.415 198.332C140.422 201.691 131.217 204.45 121.86 206.591Z" fill="black"/>
<path d="M211.724 128.568C211.724 128.568 225.82 153.742 222.341 182.8C218.862 211.857 217.542 217.123 217.542 217.123H155.366L156.841 197.707C155.918 194.798 159.864 186.887 159.864 186.887C158.485 185.048 159.456 178.472 159.456 178.472C157.213 175.911 156.133 168.854 156.841 163.011" fill="white"/>
<path d="M217.962 217.724H154.742L156.241 197.779C155.473 194.894 158.413 188.534 159.192 186.959C158.089 184.892 158.653 180.023 158.832 178.712C156.673 175.947 155.521 169.022 156.253 162.999L157.453 163.144C156.733 168.938 157.873 175.803 159.912 178.135L160.104 178.34V178.616C159.744 181.02 159.504 185.372 160.404 186.563L160.62 186.863L160.464 187.188C159.396 189.328 156.781 195.363 157.477 197.563V197.671V197.791L156.049 216.558H217.05C217.422 214.779 218.874 207.096 221.789 182.764C225.196 154.223 211.376 129.145 211.244 128.893L212.288 128.304C212.432 128.568 226.431 153.983 222.976 182.908C219.522 211.833 218.178 217.099 218.106 217.315L217.962 217.724Z" fill="black"/>
<path d="M181.961 212.987H95.8882V217.123H181.961V212.987Z" fill="white"/>
<path d="M182.561 217.724H95.2764V212.386H182.561V217.724ZM96.476 216.522H181.362V213.588H96.476V216.522Z" fill="black"/>
<path d="M176.203 200.388C173.124 198.746 169.712 197.829 166.226 197.706C162.74 197.583 159.272 198.258 156.085 199.679C149.588 202.337 143.939 206.722 139.747 212.362L182.729 212.987C182.863 210.494 182.328 208.011 181.18 205.796C180.033 203.58 178.314 201.713 176.203 200.388Z" fill="white"/>
<path d="M183.269 213.6L138.655 212.951L139.243 212.037C143.486 206.284 149.231 201.816 155.845 199.126C159.117 197.651 162.684 196.952 166.269 197.084C169.853 197.215 173.36 198.173 176.515 199.883C178.741 201.26 180.55 203.219 181.748 205.549C182.947 207.879 183.489 210.492 183.317 213.107L183.269 213.6ZM140.922 211.785L182.165 212.386C182.187 210.093 181.62 207.833 180.519 205.822C179.419 203.812 177.821 202.118 175.879 200.905C172.881 199.324 169.565 198.443 166.179 198.326C162.793 198.21 159.425 198.861 156.325 200.232C150.319 202.752 145.028 206.721 140.922 211.785V211.785Z" fill="black"/>
<path d="M204.119 121.776C212.526 123.634 219.858 128.751 224.512 136.01C232.778 148.441 230.138 171.162 229.311 178.52C228.483 185.877 222.113 205.113 222.113 205.113C222.113 205.113 212.768 212.482 195.721 212.939C178.674 213.396 178.363 212.939 178.363 212.939C183.317 208.022 174.464 202.456 169.425 198.152C169.425 198.152 179.946 190.169 190.203 188.991C193.761 188.683 197.293 188.121 200.772 187.308C198.758 180.265 198.495 172.836 200.004 165.668C201.566 158.122 204.528 150.936 208.737 144.485" fill="white"/>
<path d="M183.917 213.733C178.363 213.733 178.159 213.48 178.015 213.3L177.691 212.879L178.075 212.494C178.482 212.142 178.807 211.704 179.027 211.212C179.247 210.719 179.356 210.184 179.346 209.645C179.19 206.676 175.148 203.43 171.585 200.568C170.733 199.895 169.917 199.234 169.185 198.597L168.622 198.116L169.209 197.659C169.641 197.334 180.006 189.568 190.287 188.39C193.602 188.053 196.897 187.544 200.16 186.863C198.299 179.899 198.09 172.596 199.548 165.536C201.138 157.913 204.128 150.653 208.365 144.125L209.349 144.822C205.198 151.211 202.266 158.316 200.7 165.776C199.238 172.843 199.497 180.159 201.455 187.104L201.671 187.693L201.059 187.873C197.543 188.702 193.97 189.273 190.371 189.58C181.781 190.566 172.88 196.493 170.505 198.176L172.292 199.631C176.059 202.648 180.33 206.074 180.51 209.573C180.556 210.607 180.247 211.625 179.634 212.458C181.23 212.542 185.344 212.614 195.793 212.326C211.28 211.905 220.433 205.618 221.645 204.728C222.293 202.768 228.039 185.288 228.747 178.448L228.819 177.823C229.659 169.732 231.914 148.248 224.02 136.334C219.429 129.244 212.259 124.228 204.035 122.353L204.214 121.15C204.718 121.222 216.703 123.134 225.028 135.649C233.185 147.924 230.906 169.72 230.042 177.919L229.982 178.556C229.215 185.901 223.025 204.476 222.785 205.269V205.437L222.653 205.545C222.257 205.858 212.948 213.047 195.949 213.504C190.371 213.672 186.532 213.733 183.917 213.733Z" fill="black"/>
<path d="M209.624 118.337C209.624 118.337 218.969 123.519 217.29 129.83C215.611 136.142 194.497 159.465 176.503 151.47C158.508 143.475 161.663 124.757 161.663 124.757C161.663 124.757 170.661 97.3466 209.624 118.337Z" fill="white"/>
<path d="M184.372 153.742C181.583 153.754 178.823 153.172 176.275 152.035C158.148 143.956 161.052 124.865 161.076 124.673C162.185 121.728 163.894 119.046 166.094 116.798C168.293 114.551 170.935 112.786 173.852 111.617C183.185 107.878 195.301 109.958 209.84 117.808C210.248 118.037 219.581 123.302 217.794 129.987C216.666 134.206 207.645 145.291 196.261 150.737C192.573 152.619 188.51 153.647 184.372 153.742V153.742ZM183.725 111.016C180.51 110.978 177.317 111.558 174.319 112.723C171.588 113.844 169.111 115.506 167.035 117.609C164.96 119.712 163.328 122.212 162.239 124.961C162.143 125.623 159.492 143.247 176.767 150.941C182.381 153.442 188.763 153.009 195.781 149.655C206.673 144.437 215.623 133.605 216.666 129.674C218.202 123.927 209.469 118.962 209.301 118.854C199.632 113.637 191.066 111.016 183.76 111.016H183.725Z" fill="black"/>
<path d="M192.122 81.4774C192.122 81.4774 189.603 76.9691 179.55 78.3637C170.265 79.6621 165.97 86.4305 163.523 92.9465C161.076 99.4625 162.899 108.287 160.296 114.274C157.693 120.261 157.393 120.886 156.853 124.024C156.313 127.161 171.368 122.292 171.368 122.292" fill="white"/>
<path d="M158.88 125.671C158.112 125.744 157.341 125.562 156.685 125.154C156.51 125.013 156.377 124.825 156.303 124.613C156.229 124.4 156.216 124.171 156.265 123.952C156.793 120.862 157.093 120.165 159.444 114.779L159.756 114.057C161.04 111.112 161.196 107.457 161.376 103.586C161.556 99.715 161.724 96.0482 162.959 92.7662C166.33 83.7616 171.74 78.8686 179.466 77.7987C189.807 76.356 192.542 81.0086 192.662 81.2009L191.618 81.802C191.618 81.802 189.099 77.6785 179.622 78.9889C172.268 80.0107 167.314 84.519 164.027 93.187C162.827 96.2887 162.695 100.028 162.527 103.646C162.359 107.265 162.179 111.388 160.8 114.538L160.488 115.26C158.197 120.525 157.897 121.21 157.393 124.156C158.425 125.13 165.31 123.627 171.129 121.751L171.5 122.954C169.197 123.627 162.563 125.671 158.88 125.671Z" fill="black"/>
<path d="M166.15 98.7893C166.256 100.18 166.477 101.559 166.809 102.913C160.703 111.941 169.868 121.872 169.868 121.872C170.772 123.188 171.984 124.263 173.397 125.003C174.811 125.742 176.383 126.124 177.978 126.115C187.275 126.464 194.377 114.935 194.377 114.935C194.905 113.961 195.385 112.999 195.84 112.062C196.09 112.368 196.412 112.607 196.776 112.759C198.432 113.42 200.519 112.074 201.443 109.753C202.366 107.433 201.779 105.017 200.135 104.355C199.716 104.191 199.259 104.145 198.815 104.223C201.863 93.0307 198.12 85.6251 190.418 83.1966" fill="white"/>
<path d="M178.374 126.729H177.942C176.256 126.733 174.594 126.326 173.099 125.543C171.605 124.759 170.323 123.623 169.365 122.232C168.681 121.451 160.368 111.737 166.162 102.805C165.852 101.505 165.643 100.182 165.538 98.8494L166.738 98.7532C166.836 100.108 167.053 101.452 167.386 102.769L167.458 103.033L167.302 103.262C161.52 111.797 170.205 121.379 170.301 121.475L170.373 121.571C171.22 122.805 172.357 123.81 173.683 124.5C175.009 125.19 176.484 125.542 177.978 125.526H178.374C187.036 125.526 193.789 114.707 193.861 114.622C194.329 113.745 194.809 112.819 195.301 111.797L195.697 110.968L196.297 111.665C196.482 111.903 196.726 112.09 197.004 112.206C197.348 112.319 197.714 112.347 198.071 112.289C198.428 112.23 198.766 112.086 199.056 111.869C199.891 111.296 200.528 110.477 200.879 109.525C201.671 107.553 201.227 105.438 199.908 104.909C199.591 104.785 199.246 104.751 198.912 104.812L198 104.969L198.24 104.067C201.023 93.8242 198.048 86.2382 190.275 83.7737L190.634 82.6316C198.9 85.2404 202.211 93.0548 199.608 103.598C199.862 103.632 200.112 103.697 200.351 103.79C202.307 104.572 203.051 107.397 201.995 109.97C201.547 111.152 200.747 112.168 199.704 112.879C199.255 113.203 198.734 113.412 198.186 113.488C197.638 113.563 197.08 113.503 196.561 113.312C196.373 113.244 196.195 113.151 196.033 113.035C195.649 113.805 195.277 114.526 194.905 115.224C194.593 115.765 187.707 126.729 178.374 126.729Z" fill="black"/>
<path d="M181.505 115.32C179.383 115.687 177.229 115.84 175.075 115.777C172.424 115.572 171.608 114.659 171.608 114.659" fill="white"/>
<path d="M176.191 116.414C175.795 116.414 175.399 116.414 174.991 116.414C172.184 116.197 171.224 115.211 171.116 115.091L172.016 114.286C172.915 114.914 173.991 115.239 175.087 115.211C177.192 115.272 179.297 115.123 181.373 114.767L181.577 115.969C179.795 116.249 177.995 116.398 176.191 116.414V116.414Z" fill="black"/>
<path d="M174.668 111.328C174.668 111.328 172.628 111.172 172.268 110.126C171.908 109.08 175.687 102.3 175.375 100.917" fill="white"/>
<path d="M174.619 111.929C174.38 111.929 172.22 111.701 171.656 110.318C171.392 109.621 171.884 108.359 173.156 105.425C173.869 104.033 174.401 102.554 174.739 101.025L175.939 100.761C176.131 101.602 175.435 103.262 174.284 105.906C173.644 107.185 173.149 108.532 172.808 109.922C172.988 110.367 174.008 110.679 174.739 110.727L174.619 111.929Z" fill="black"/>
<path d="M179.19 102.901C179.19 102.901 179.814 100.136 182.261 100.292C183.995 100.575 185.588 101.419 186.796 102.696" fill="white"/>
<path d="M186.364 103.057C185.251 101.91 183.801 101.151 182.225 100.893C180.342 100.773 179.826 102.937 179.826 103.033L178.626 102.769C178.777 101.899 179.232 101.113 179.909 100.549C180.586 99.9848 181.441 99.6807 182.321 99.6909C184.201 99.9629 185.936 100.856 187.252 102.228L186.364 103.057Z" fill="black"/>
<path d="M186.772 98.14C186.772 98.14 185.02 95.399 182.765 96.2646C181.252 96.8823 179.812 97.6644 178.47 98.5969" fill="white"/>
<path d="M178.842 99.0899L178.146 98.104C179.53 97.1359 181.019 96.3292 182.585 95.6996C185.248 94.6777 187.216 97.6833 187.3 97.8155L186.292 98.4647C186.292 98.4647 184.78 96.1565 183.005 96.8297C181.537 97.4238 180.141 98.182 178.842 99.0899Z" fill="black"/>
<path d="M173.576 99.6668C173.576 99.6668 171.008 96.2886 168.369 98.8614Z" fill="white"/>
<path d="M173.132 100.028C172.518 99.2379 171.641 98.696 170.661 98.5008C170.314 98.4913 169.969 98.5573 169.65 98.6943C169.331 98.8313 169.046 99.036 168.814 99.2942L167.986 98.4286C168.34 98.0521 168.771 97.7563 169.249 97.5613C169.727 97.3664 170.241 97.2767 170.757 97.2986C172.077 97.5177 173.265 98.231 174.08 99.2942L173.132 100.028Z" fill="black"/>
<path d="M172.772 102.324C172.683 101.889 172.457 101.495 172.126 101.201C171.795 100.906 171.378 100.726 170.937 100.689C169.353 100.532 168.538 102.636 168.538 102.636" fill="white"/>
<path d="M169.101 102.853L167.986 102.408C167.986 102.312 169.005 99.8833 170.997 100.088C171.573 100.133 172.119 100.366 172.551 100.75C172.984 101.133 173.281 101.648 173.396 102.216L172.196 102.432C172.138 102.122 171.977 101.841 171.74 101.634C171.503 101.427 171.203 101.306 170.889 101.29C169.773 101.194 169.101 102.829 169.101 102.853Z" fill="black"/>
<path d="M171.608 103.562C172.099 103.562 172.496 103.024 172.496 102.36C172.496 101.696 172.099 101.158 171.608 101.158C171.118 101.158 170.721 101.696 170.721 102.36C170.721 103.024 171.118 103.562 171.608 103.562Z" fill="black"/>
<path d="M184.289 103.658C184.779 103.658 185.176 103.12 185.176 102.456C185.176 101.792 184.779 101.254 184.289 101.254C183.798 101.254 183.401 101.792 183.401 102.456C183.401 103.12 183.798 103.658 184.289 103.658Z" fill="black"/>
<path d="M186.28 87.5366C186.28 87.5366 184.6 89.0754 180.534 88.4622C176.467 87.8491 172.952 91.071 171.008 93.5957C169.034 95.9387 166.931 98.1703 164.71 100.28" fill="white"/>
<path d="M165.178 100.725L164.351 99.8472C166.545 97.7588 168.623 95.5515 170.577 93.235C172.004 91.3716 175.867 87.1398 180.677 87.8611C184.348 88.4262 185.92 87.1038 185.932 87.0917L186.736 87.9814C186.652 88.0535 184.792 89.7005 180.498 89.0513C176.203 88.4022 172.832 92.2853 171.524 93.9684C169.534 96.3348 167.415 98.5903 165.178 100.725V100.725Z" fill="black"/>
<path d="M75.7222 163.035H126.766L146.932 212.987H95.8879L75.7222 163.035Z" fill="white"/>
<path d="M147.82 213.588H95.4799L95.3239 213.216L74.8223 162.434H127.162L127.318 162.819L147.82 213.588ZM96.2356 212.386H145.984L126.31 163.637H76.6097L96.2356 212.386Z" fill="black"/>
<path d="M154.49 143.115C154.49 143.115 149.415 157.301 159.096 165.356Z" fill="white"/>
<path d="M158.712 165.813C148.815 157.589 153.914 143.055 153.914 142.971L155.041 143.379C155.041 143.512 150.243 157.265 159.468 164.947L158.712 165.813Z" fill="black"/>
<path d="M105.761 159.14C105.761 159.14 104.058 159.717 94.6645 160.342C85.2715 160.968 62.0108 159.753 62.0108 159.753C62.0108 159.753 60.8111 138.991 52.6177 132.271C44.4242 125.55 40.7534 124.456 40.7534 124.456L49.9065 123.074C49.9065 123.074 53.0376 118.602 57.8241 119.467C62.6106 120.333 72.2196 130.287 81.6847 130.011C91.1497 129.734 87.4908 119.371 87.4908 119.371C87.4908 119.371 91.8454 121.343 92.1334 124.505C92.4213 127.666 96.7039 125.406 100.987 127.041C105.269 128.676 106.721 130.311 106.721 130.311C106.721 130.311 100.783 131.958 101.598 137.524C102.414 143.091 105.425 149.571 105.761 159.14Z" fill="#FFDE15"/>
<path d="M84.3958 137.849C82.2605 129.073 81.0249 127.967 81.0249 127.967C81.6531 126.859 82.1984 125.706 82.6564 124.517C83.6641 122.112 83.8561 113.913 83.8561 113.913C83.8561 113.913 91.1858 116.318 93.4531 120.165C95.7204 124.012 97.9277 134.591 97.9277 134.591C97.9277 134.591 87.6468 130.371 84.3958 137.849Z" fill="white"/>
<path d="M84.2272 139.725L83.8073 137.993C81.8159 129.794 80.6523 128.448 80.6043 128.376L80.2324 128.039L80.5203 127.63C81.1119 126.541 81.6367 125.417 82.0918 124.264C83.0515 121.956 83.2075 113.961 83.2075 113.889V113.072L83.9752 113.324C84.2872 113.432 91.5569 115.885 93.9441 119.828C96.3314 123.771 98.4067 133.954 98.4907 134.387L98.7186 135.481L97.675 135.06C97.2791 134.904 87.898 131.213 84.9229 138.065L84.2272 139.725ZM81.744 127.931C82.2238 128.688 83.2075 130.756 84.5991 136.214C87.8501 131.405 94.544 132.848 97.1232 133.629C96.5114 130.888 94.7239 123.471 92.9484 120.477C91.173 117.484 86.2905 115.5 84.3951 114.767C84.3231 116.943 84.0592 122.677 83.1955 124.745C82.5117 126.428 82.0079 127.438 81.744 127.931V127.931Z" fill="black"/>
<path d="M83.7355 135.745C83.7355 135.745 79.8728 126.019 70.2878 130.191C60.7027 134.363 57.8236 134.531 57.8236 134.531C57.8236 134.531 54.0568 118.133 56.2881 114.911C58.2937 112.253 60.4909 109.745 62.8621 107.409C64.406 111.768 66.7405 115.803 69.7479 119.311C74.8103 125.286 82.6559 123.976 83.7355 135.745Z" fill="white"/>
<path d="M84.7078 139.809L83.1723 135.974C82.1192 133.502 80.2105 131.496 77.7979 130.323C76.6225 129.888 75.3702 129.701 74.1193 129.774C72.8684 129.846 71.6458 130.176 70.5282 130.744C60.9312 134.904 57.9801 135.12 57.8601 135.132H57.3443L57.2364 134.627C56.8405 132.932 53.4815 117.88 55.7968 114.538C57.8192 111.846 60.0407 109.31 62.4427 106.952L63.1505 106.255L63.4384 107.205C64.9714 111.474 67.2638 115.429 70.2043 118.878C71.8192 120.635 73.7374 122.085 75.8665 123.158C79.6694 125.358 83.5921 127.618 84.3359 135.649L84.7078 139.809ZM62.6227 108.551C60.5117 110.652 58.5589 112.906 56.7805 115.296C55.137 117.7 57.2004 129.037 58.2801 133.894C59.4797 133.665 62.8506 132.8 70.0484 129.674C71.3151 129.04 72.6991 128.675 74.1132 128.603C75.5274 128.53 76.9411 128.752 78.2658 129.253C80.0012 130.012 81.5071 131.214 82.6325 132.74C81.4328 127.811 78.5177 126.152 75.2667 124.324C73.0086 123.187 70.9761 121.647 69.2686 119.78C66.4413 116.436 64.1948 112.641 62.6227 108.551V108.551Z" fill="black"/>
<path d="M93.4046 207.673L92.2049 207.589C92.2049 207.241 94.6042 173.603 89.6978 157.938C84.7913 142.273 82.0801 131.658 82.0562 131.562L83.2558 131.261C83.2558 131.369 85.9669 141.816 90.8854 157.577C95.8038 173.338 93.4406 207.325 93.4046 207.673Z" fill="black"/>
<path d="M71.9193 111.966C73.5388 115.224 78.4332 116.943 82.0441 116.774C85.655 116.606 89.4698 111.966 91.7371 106.712C94.0044 101.458 92.001 95.0144 92.001 95.0144C92.001 95.0144 94.9881 77.426 84.8032 71.439C78.6372 67.8324 66.5209 67.8324 61.0986 75.3342C59.5173 77.5908 58.478 80.1832 58.0618 82.9089C57.6456 85.6346 57.8638 88.4199 58.6994 91.0471" fill="white"/>
<path d="M81.517 117.375C77.7021 117.375 73.0236 115.524 71.3801 112.23L72.4478 111.689C73.9473 114.683 78.5779 116.342 82.0448 116.161C85.0918 116.017 88.7747 112.11 91.21 106.459C93.3453 101.47 91.4738 95.2428 91.4498 95.1827V95.0505V94.9062C91.4498 94.7259 94.245 77.6545 84.492 71.944C78.6978 68.5538 66.8935 68.3374 61.5792 75.6829C60.0673 77.8642 59.0728 80.3629 58.6715 82.9881C58.2702 85.6134 58.4729 88.2959 59.2639 90.8307L58.1483 91.2395C57.2522 88.5289 57.0025 85.6456 57.4191 82.8208C57.8358 79.996 58.9073 77.3084 60.5475 74.9736C66.2457 67.075 78.8658 67.2914 85.0439 70.9101C95.1327 76.8129 92.8774 93.151 92.5895 94.9543C92.8774 95.9521 94.425 101.891 92.2536 106.976C90.2503 111.653 86.3755 117.183 82.0568 117.4L81.517 117.375Z" fill="black"/>
<path d="M60.8706 92.4657C60.8706 92.4657 57.7036 89.4722 56.5279 91.6482C55.3523 93.8242 58.6993 103.346 61.1465 104.981C63.5938 106.616 64.4935 106.183 64.4935 106.183C64.4935 106.183 68.0923 115.248 76.9336 113.24" fill="white"/>
<path d="M74.4389 114.105C68.0929 114.105 64.9259 108.467 64.1342 106.82C62.9201 106.702 61.766 106.234 60.8112 105.474C58.34 103.815 54.5971 93.9684 56.0127 91.3596C56.156 91.0801 56.3614 90.8372 56.613 90.6496C56.8646 90.4621 57.1559 90.3348 57.4643 90.2776C59.1197 90.0132 61.0631 91.8165 61.303 92.0208L60.4753 92.8985C59.729 92.1092 58.7327 91.6036 57.6562 91.4678C57.5267 91.49 57.405 91.5447 57.3022 91.6266C57.1995 91.7086 57.119 91.8152 57.0684 91.9367C56.0367 93.8482 59.2637 102.985 61.495 104.476C63.4984 105.81 64.2781 105.606 64.2901 105.594L64.8659 105.305L65.0699 105.942C65.2018 106.291 68.5368 114.502 76.8142 112.627L77.0781 113.829C76.2119 114.022 75.3263 114.115 74.4389 114.105V114.105Z" fill="black"/>
<path d="M83.8798 88.9551C83.8798 88.9551 83.208 92.694 83.6159 93.8481C84.0238 95.0023 86.1951 99.4865 85.7872 101.326C85.3793 103.165 83.0041 104.247 81.9124 103.237C80.8208 102.228 80.221 102.216 79.5132 102.384" fill="white"/>
<path d="M82.98 104.223C82.4346 104.242 81.904 104.043 81.5045 103.67C80.5328 102.769 80.1249 102.853 79.5971 102.973L79.3452 101.771C79.8844 101.636 80.451 101.658 80.9781 101.834C81.5052 102.011 81.9709 102.335 82.3203 102.769C82.4926 102.89 82.6925 102.967 82.9019 102.993C83.1113 103.018 83.3237 102.99 83.5199 102.913C83.9232 102.787 84.2884 102.561 84.5819 102.256C84.8754 101.952 85.0878 101.578 85.1994 101.17C85.4753 99.8953 84.1317 96.6734 83.4839 95.1586L83.0401 94.0646C82.6082 92.8624 83.172 89.5082 83.292 88.859L84.4916 89.0754C84.1568 90.5777 84.0596 92.1233 84.2037 93.6558C84.2757 93.8843 84.4316 94.2449 84.6235 94.6897C85.7032 97.2865 86.7229 99.9434 86.387 101.47C86.2296 102.086 85.9177 102.651 85.481 103.112C85.0443 103.573 84.4972 103.914 83.8918 104.103C83.5949 104.185 83.288 104.226 82.98 104.223V104.223Z" fill="black"/>
<path d="M75.8784 106.664C75.8784 106.664 84.0359 108.635 87.4908 106.183Z" fill="white"/>
<path d="M82.1404 108.01C79.9847 107.98 77.8379 107.726 75.7344 107.253L76.0103 106.051C76.0942 106.051 83.9518 107.938 87.1428 105.666L87.8386 106.652C86.1127 107.653 84.1315 108.126 82.1404 108.01V108.01Z" fill="black"/>
<path d="M71.3682 92.4656C71.3682 92.4656 75.267 90.0612 76.9344 92.694Z" fill="white"/>
<path d="M76.406 93.0066C76.2021 92.682 75.5903 91.7082 73.6349 92.165C72.9436 92.3365 72.2808 92.6078 71.6675 92.9705L71.0317 91.9607C71.7741 91.5091 72.5842 91.1802 73.431 90.9869C74.1637 90.7289 74.9616 90.7249 75.6968 90.9756C76.4321 91.2263 77.0621 91.7171 77.4857 92.3694L76.406 93.0066Z" fill="black"/>
<path d="M85.355 93.187C85.355 93.187 88.462 90.494 90.2854 92.9225Z" fill="white"/>
<path d="M85.7393 93.6438L84.9595 92.7301C85.9952 91.8292 87.3189 91.3301 88.6903 91.3235C89.1001 91.3701 89.4959 91.5009 89.853 91.7078C90.2101 91.9146 90.5208 92.1931 90.7656 92.5257L89.8059 93.247C89.6697 93.044 89.4926 92.8717 89.286 92.7412C89.0794 92.6108 88.8479 92.5251 88.6063 92.4896C87.5482 92.5397 86.538 92.9464 85.7393 93.6438V93.6438Z" fill="black"/>
<path d="M73.5986 93.8722C74.0756 93.8722 74.4623 93.3447 74.4623 92.694C74.4623 92.0434 74.0756 91.5159 73.5986 91.5159C73.1216 91.5159 72.7349 92.0434 72.7349 92.694C72.7349 93.3447 73.1216 93.8722 73.5986 93.8722Z" fill="black"/>
<path d="M87.1067 94.1607C87.4976 94.1607 87.8145 93.7247 87.8145 93.1869C87.8145 92.6491 87.4976 92.2131 87.1067 92.2131C86.7158 92.2131 86.3989 92.6491 86.3989 93.1869C86.3989 93.7247 86.7158 94.1607 87.1067 94.1607Z" fill="black"/>
<path d="M79.7407 90.1935C77.6113 88.9959 75.1629 88.4917 72.7349 88.7508Z" fill="white"/>
<path d="M79.4289 90.7105C77.415 89.5801 75.1045 89.0936 72.8069 89.3159L72.627 88.1137C75.1884 87.8547 77.7669 88.4009 80.0047 89.6766L79.4289 90.7105Z" fill="black"/>
<path d="M85.5835 90.1935C86.0998 89.7561 86.7178 89.4562 87.3804 89.3217C88.0431 89.1872 88.7288 89.2224 89.3743 89.4241" fill="white"/>
<path d="M86.003 90.6384L85.1753 89.7608C85.7706 89.2493 86.4855 88.8972 87.2533 88.7374C88.021 88.5777 88.8166 88.6154 89.5659 88.8471L89.218 90.0493C88.6755 89.8718 88.0974 89.8327 87.536 89.9355C86.9747 90.0384 86.4478 90.28 86.003 90.6384Z" fill="black"/>
<path d="M75.8782 74.2401C78.5174 75.5986 77.9056 81.3091 75.3144 83.6654C72.7232 86.0218 69.5682 83.7616 68.1167 85.8414C66.0862 88.6374 64.6379 91.8141 63.8579 95.1826L61.3267 94.1727C61.3565 93.4103 61.0992 92.6645 60.6059 92.0833C60.1126 91.5021 59.4193 91.1279 58.6636 91.035C55.9045 90.6503 51.3698 80.7681 60.511 70.7898C69.6521 60.8114 86.4829 67.3514 89.374 71.8838C91.946 76.293 93.3501 81.2881 93.4528 86.3945C93.5367 90.3738 92.4091 89.7246 92.4091 89.7246C90.1415 86.8469 87.6762 84.1314 85.0314 81.5976C82.3202 79.3134 82.2362 82.5834 83.1359 84.0021C83.6724 84.8523 84.2783 85.6565 84.9474 86.4065C83.2606 86.7476 81.5085 86.5155 79.9682 85.7469C78.4278 84.9783 77.1871 83.7171 76.4421 82.1627" fill="white"/>
<path d="M64.3256 96.0242L60.7267 94.5695V94.1247C60.7579 93.5119 60.5541 92.9104 60.1571 92.4433C59.7602 91.9761 59.2 91.6788 58.5914 91.6121C57.3198 91.4317 56.0002 89.9049 55.2085 87.7289C54.4167 85.5529 52.6772 78.4358 60.007 70.357C64.6975 65.2596 70.9116 64.6345 75.3022 65.0192C82.0801 65.6083 88.1142 68.8542 89.8297 71.5352C92.4541 76.036 93.887 81.1345 93.9923 86.3464C93.9923 88.5585 93.7404 89.7727 93.0446 90.1935C92.8937 90.2822 92.7219 90.329 92.5468 90.329C92.3718 90.329 92.1999 90.2822 92.0489 90.1935L91.881 90.0492C89.6366 87.2077 87.1996 84.5244 84.5873 82.0184C83.7716 81.3211 83.3877 81.3332 83.3877 81.3933C83.1118 81.6217 83.1358 82.86 83.6276 83.6655C84.1398 84.517 84.7258 85.3216 85.379 86.0699L86.0389 86.8153L85.0791 87.0557C83.4243 87.3881 81.7078 87.2073 80.1582 86.5371C78.6086 85.867 77.2997 84.7394 76.4058 83.3048C76.1927 83.574 75.9601 83.8271 75.71 84.0622C75.0818 84.586 74.3534 84.9757 73.5695 85.2072C72.7856 85.4387 71.9628 85.5073 71.1515 85.4087C69.8439 85.4087 69.0881 85.4087 68.5963 86.142C66.5994 88.8909 65.1756 92.0146 64.4096 95.3269L64.3256 96.0242ZM61.9263 93.752L63.4259 94.3531C64.2979 91.178 65.7234 88.1824 67.6366 85.5048C68.5123 84.2305 69.8799 84.2425 71.2354 84.3026C71.8948 84.3922 72.5653 84.3467 73.2066 84.169C73.8479 83.9913 74.4465 83.685 74.9663 83.2687C75.7307 82.4647 76.3088 81.5016 76.6592 80.448C77.0097 79.3945 77.1238 78.2764 76.9936 77.1735C76.9729 76.6967 76.8418 76.2313 76.6107 75.814C76.3796 75.3967 76.0549 75.039 75.6621 74.7691L76.2139 73.6991C76.7811 74.0414 77.2565 74.5169 77.5993 75.0845C77.9421 75.6521 78.1418 76.2948 78.1813 76.9571C78.3838 78.7766 78.037 80.6151 77.1856 82.2348C77.82 83.4397 78.785 84.4375 79.9669 85.1107C81.1487 85.7838 82.498 86.1041 83.8555 86.0338C83.4276 85.4934 83.0272 84.9317 82.6559 84.3507C82.0201 83.3409 81.6962 81.3452 82.6559 80.5277C83.1238 80.1189 83.9875 79.9025 85.463 81.1408C88.0469 83.5814 90.4523 86.205 92.6608 88.9913C92.9142 88.1548 93.0038 87.2771 92.9247 86.4065C92.8248 81.4112 91.4539 76.5242 88.9419 72.2084C87.3824 69.804 81.5402 66.7864 75.3382 66.1974C71.1994 65.8367 65.3813 66.4017 61.0266 71.1505C54.0928 78.7244 55.7363 85.4207 56.4081 87.2961C57.0799 89.1716 58.1475 90.3017 58.8073 90.3978C59.638 90.4968 60.4065 90.8885 60.9757 91.5029C61.5448 92.1173 61.8775 92.9145 61.9143 93.752H61.9263Z" fill="black"/>
<path d="M225.448 151.518C225.448 151.518 218.094 139.22 213.799 144.75C209.505 150.28 202.163 160.378 203.386 174.805C204.61 189.231 201.875 191.636 201.875 191.636C201.875 191.636 190.586 191.023 184.276 193.175C180.567 194.42 177.035 196.141 173.768 198.296C173.768 198.296 180.45 204.055 181.505 206.435C182.134 208.078 182.292 209.864 181.961 211.593C181.961 211.593 210.284 211.316 217.17 205.281C224.056 199.246 228.818 174.264 225.448 151.518Z" fill="#DBE5FB"/>
<path d="M200.735 153.129C200.735 153.129 185.428 159.862 176.251 158.287C167.073 156.712 157.596 145.976 157.596 145.976C157.596 145.976 154.537 149.354 157.596 155.498C159.098 158.304 160.362 161.232 161.375 164.25C161.375 164.25 159.54 164.911 160.356 168.998C161.038 172.056 161.924 175.064 163.007 178.003C162.454 178.531 162.067 179.209 161.892 179.954C161.718 180.699 161.763 181.479 162.023 182.199C162.803 184.964 163.223 186.082 163.223 186.082C163.223 186.082 161.891 186.49 160.979 190.181C160.394 192.653 160.02 195.171 159.864 197.707C159.864 197.707 170.013 191.299 179.526 189.159C185.942 187.78 192.442 186.82 198.983 186.286C198.246 180.518 197.929 174.704 198.036 168.89C198.529 163.575 199.431 158.305 200.735 153.129Z" fill="#DBE5FB"/>
<path d="M169.521 166.365C166.816 166.404 164.111 166.264 161.424 165.945L161.592 164.743C170.889 166.077 195.697 163.673 195.949 163.648L196.069 164.851C195.277 164.935 180.498 166.365 169.521 166.365Z" fill="black"/>
<path d="M164.71 178.604C164.71 178.604 177.451 182.752 186.796 182.776Z" fill="white"/>
<path d="M186.772 183.377C177.439 183.377 164.639 179.217 164.507 179.169L164.879 177.967C164.999 177.967 177.631 182.09 186.772 182.114V183.377Z" fill="black"/>
<path d="M168.969 198.212C165.274 168.662 175.939 151.326 176.047 151.169L177.067 151.807C176.959 151.975 166.522 168.962 170.157 198.068L168.969 198.212Z" fill="black"/>
<path d="M211.664 126.128C211.664 126.128 210.26 139.22 192.122 145.976C173.983 152.732 165.73 128.568 165.73 128.568C165.73 128.568 166.426 123.964 172.508 128.376C178.59 132.788 189.698 125.466 192.134 123.567C194.569 121.667 209.564 116.57 211.664 126.128Z" fill="#FFDE15"/>
<path d="M209.169 115.765C206.266 107.517 202.895 108.828 203.507 97.8516C204.118 86.8754 199.068 81.6578 192.974 82.2229C186.88 82.7879 186.796 89.5203 186.796 89.5203C189.365 91.7722 191.277 94.6807 192.326 97.9357C194.018 103.225 194.929 106.147 194.929 106.147C194.929 106.147 198.42 103.538 200.136 104.392C201.851 105.245 202.367 107.469 201.443 109.79C200.52 112.11 198.432 113.456 196.777 112.795C196.412 112.643 196.091 112.404 195.841 112.098C194.449 122.184 193.094 128.556 196.765 130.696C200.436 132.836 212.084 124.06 209.169 115.765Z" fill="white"/>
<path d="M198.156 131.598C197.567 131.609 196.984 131.468 196.465 131.189C192.866 129.049 193.621 123.434 194.833 114.935C194.965 113.985 195.109 112.999 195.241 111.977L195.433 110.643L196.297 111.665C196.482 111.903 196.726 112.09 197.004 112.206C197.348 112.319 197.714 112.347 198.071 112.289C198.428 112.23 198.766 112.086 199.056 111.869C199.891 111.296 200.528 110.477 200.879 109.525C201.659 107.589 201.203 105.558 199.859 104.884C198.864 104.391 196.525 105.666 195.289 106.592L194.617 107.096L194.365 106.291L191.762 98.0799C190.726 94.9615 188.884 92.174 186.424 90.001L186.196 89.8207V89.5322C186.196 89.448 186.364 82.1987 192.926 81.6337C194.238 81.5021 195.562 81.6612 196.806 82.0995C198.05 82.5379 199.182 83.2448 200.123 84.1703C202.151 86.154 204.49 90.1814 204.058 97.9236C203.674 104.8 204.886 106.7 206.553 109.333C207.857 111.29 208.913 113.402 209.696 115.62V115.62C211.472 120.645 208.269 125.623 204.682 128.592C202.727 130.251 200.171 131.598 198.156 131.598ZM196.285 113.192C196.201 113.841 196.105 114.478 196.021 115.103C194.821 123.122 194.113 128.424 197.076 130.143C198.396 130.924 201.299 129.878 203.962 127.666C207.237 124.949 210.176 120.453 208.605 116.017C207.856 113.893 206.84 111.873 205.582 110.006C203.866 107.301 202.511 105.197 202.907 97.8996C203.23 92.177 201.959 87.6207 199.308 85.06C198.48 84.2532 197.487 83.638 196.396 83.2579C195.306 82.8778 194.146 82.7419 192.998 82.8599C188.115 83.2807 187.467 88.0775 187.383 89.3038C189.917 91.58 191.811 94.4814 192.878 97.7192C194.077 101.434 194.857 103.971 195.277 105.161C196.477 104.391 198.876 103.057 200.411 103.826C202.343 104.776 203.027 107.433 202.007 109.982C201.559 111.164 200.759 112.18 199.716 112.891C199.267 113.215 198.746 113.424 198.198 113.5C197.65 113.575 197.092 113.515 196.573 113.324L196.285 113.192Z" fill="black"/>
<path d="M149.488 149.967C149.488 149.967 145.349 162.518 144.581 169.515C144.272 172.962 143.711 176.382 142.902 179.746C142.902 179.746 139.375 175.755 136.904 175.755C134.432 175.755 136.904 182.776 136.904 182.776L142.638 196.625C144.986 196.592 147.265 195.819 149.149 194.413C151.034 193.008 152.428 191.044 153.134 188.799C156.074 180.684 149.943 156.868 149.488 149.967Z" fill="#DBE5FB"/>
<path d="M110.055 196.371C109.715 196.441 109.429 196.404 109.196 196.261C108.973 196.102 108.828 195.86 108.761 195.533C108.692 195.193 108.732 194.92 108.88 194.713C109.041 194.503 109.292 194.364 109.631 194.294L111.826 193.846L109.863 184.225L111.078 183.977L108.553 186.309C108.334 186.503 108.111 186.61 107.884 186.629C107.667 186.632 107.465 186.578 107.279 186.466C107.103 186.339 106.968 186.176 106.873 185.978C106.778 185.779 106.749 185.568 106.784 185.343C106.83 185.102 106.963 184.884 107.182 184.69L109.554 182.512C109.784 182.302 110.018 182.118 110.258 181.96C110.496 181.789 110.725 181.681 110.947 181.636C111.222 181.58 111.466 181.611 111.681 181.731C111.893 181.837 112.034 182.06 112.103 182.4L114.334 193.335L116.333 192.927C116.673 192.858 116.951 192.889 117.169 193.022C117.4 193.152 117.55 193.386 117.619 193.726C117.688 194.066 117.643 194.347 117.485 194.57C117.339 194.79 117.097 194.935 116.757 195.004L110.055 196.371Z" fill="#2A3855"/>
</svg>
