<svg width="1000" height="1000" viewBox="0 0 1000 1000" fill="none" xmlns="http://www.w3.org/2000/svg">
<g clip-path="url(#clip0_1_1166)">
<path d="M1000 0H0V1000H1000V0Z" fill="#FC8E22"/>
<path opacity="0.34" d="M753.1 684H285.7C277.4 684 270.7 677.3 270.7 669C270.7 660.7 277.4 654 285.7 654H753.1C761.4 654 768.1 660.7 768.1 669C768.1 677.3 761.4 684 753.1 684Z" fill="#353535"/>
<path d="M611.7 622.7H375.7C365.8 622.7 357.7 614.6 357.7 604.7V299.9C357.7 290 365.8 281.9 375.7 281.9H611.7C621.6 281.9 629.7 290 629.7 299.9V604.7C629.7 614.6 621.6 622.7 611.7 622.7Z" fill="#F7E4CB"/>
<path d="M611.7 622.7H375.7C365.8 622.7 357.7 614.6 357.7 604.7V299.9C357.7 290 365.8 281.9 375.7 281.9H611.7C621.6 281.9 629.7 290 629.7 299.9V604.7C629.7 614.6 621.6 622.7 611.7 622.7Z" fill="#E0C5AA"/>
<path d="M369.7 589.9V309.9C369.7 304.2 374.3 299.7 379.9 299.7H607.4C613.1 299.7 617.6 304.3 617.6 309.9V589.9C617.6 595.6 613 600.1 607.4 600.1H380C374.3 600.2 369.7 595.6 369.7 589.9Z" fill="#F7E4CB"/>
<path d="M611.7 622.7H375.7C365.8 622.7 357.7 614.6 357.7 604.7V299.9C357.7 290 365.8 281.9 375.7 281.9H611.7C621.6 281.9 629.7 290 629.7 299.9V604.7C629.7 614.6 621.6 622.7 611.7 622.7Z" stroke="#353535" stroke-width="6" stroke-miterlimit="10" stroke-linecap="round" stroke-linejoin="round"/>
<path d="M394.4 498.7C389 498.7 384.7 494.4 384.7 489V326.4C384.7 321 389 316.7 394.4 316.7H593C598.4 316.7 602.7 321 602.7 326.4V489C602.7 494.4 598.4 498.7 593 498.7H394.4Z" fill="#E0C5AA"/>
<path d="M412.4 488.1C402.9 488.1 395.2 480.4 395.2 470.9V344.4C395.2 334.9 402.9 327.2 412.4 327.2H575C584.5 327.2 592.2 334.9 592.2 344.4V470.8C592.2 480.3 584.5 488 575 488H412.4V488.1Z" fill="#353535"/>
<path opacity="0.3" d="M575 327.2H554.8C558.3 334.5 560.3 342.7 560.3 351.4C560.3 409.2 513.4 456.1 455.6 456.1H419.4C410.7 456.1 402.5 454.1 395.2 450.6V470.8C395.2 480.3 402.9 488 412.4 488H575C584.5 488 592.2 480.3 592.2 470.8V344.4C592.3 334.9 584.6 327.2 575 327.2Z" fill="#282828"/>
<path d="M564.2 539.7V536.6H495.5V524.6H564.2V521.5C564.2 520.5 565 519.6 566.1 519.6H602.3C603.3 519.6 604.2 520.4 604.2 521.5V539.7C604.2 540.7 603.4 541.6 602.3 541.6H566.1C565 541.6 564.2 540.8 564.2 539.7Z" fill="#E0C5AA"/>
<path d="M599 527.6H594.7V533.6H599V527.6Z" fill="#353535"/>
<path d="M412.8 575.9H393.4C392.4 575.9 391.5 575.1 391.5 574V554.6C391.5 553.6 392.3 552.7 393.4 552.7H412.8C413.8 552.7 414.7 553.5 414.7 554.6V574C414.7 575 413.9 575.9 412.8 575.9Z" stroke="#353535" stroke-width="2" stroke-miterlimit="10" stroke-linecap="round" stroke-linejoin="round"/>
<path d="M658.4 669C658.4 659.1 668.9 651 681.9 651C694.9 651 705.4 659.1 705.4 669H658.4Z" fill="#F2EBE1"/>
<path d="M658.4 669C658.4 659.1 668.9 651 681.9 651C694.9 651 705.4 659.1 705.4 669H658.4Z" stroke="#353535" stroke-width="6" stroke-miterlimit="10" stroke-linecap="round" stroke-linejoin="round"/>
<path d="M612.7 623.9H374.7V647.9H612.7V623.9Z" fill="#E0C5AA"/>
<path d="M612.7 623.9H374.7V633.8H612.7V623.9Z" fill="#C6A485"/>
<path d="M612.7 623.9H374.7V647.9H612.7V623.9Z" stroke="#353535" stroke-width="6" stroke-miterlimit="10" stroke-linecap="round" stroke-linejoin="round"/>
<path d="M569.7 639H417.7V651H569.7V639Z" fill="#E0C5AA"/>
<path d="M627.7 639H607.7V651H627.7V639Z" fill="#E0C5AA"/>
<path d="M598.7 639H578.7V651H598.7V639Z" fill="#E0C5AA"/>
<path d="M408.7 639H388.7V651H408.7V639Z" fill="#E0C5AA"/>
<path d="M379.7 639H359.7V651H379.7V639Z" fill="#E0C5AA"/>
<path d="M647.8 651H339.5V669H647.8V651Z" fill="#F7E4CB"/>
<path d="M647.8 651H339.5V669H647.8V651Z" stroke="#353535" stroke-width="6" stroke-miterlimit="10" stroke-linecap="round" stroke-linejoin="round"/>
<path d="M569.7 639H417.7V651H569.7V639Z" stroke="#353535" stroke-width="6" stroke-miterlimit="10" stroke-linecap="round" stroke-linejoin="round"/>
<path d="M627.7 639H607.7V651H627.7V639Z" stroke="#353535" stroke-width="6" stroke-miterlimit="10" stroke-linecap="round" stroke-linejoin="round"/>
<path d="M598.7 639H578.7V651H598.7V639Z" stroke="#353535" stroke-width="6" stroke-miterlimit="10" stroke-linecap="round" stroke-linejoin="round"/>
<path d="M408.7 639H388.7V651H408.7V639Z" stroke="#353535" stroke-width="6" stroke-miterlimit="10" stroke-linecap="round" stroke-linejoin="round"/>
<path d="M379.7 639H359.7V651H379.7V639Z" stroke="#353535" stroke-width="6" stroke-miterlimit="10" stroke-linecap="round" stroke-linejoin="round"/>
<path d="M405.3 562.5C404.4 561.7 403.8 560.6 403.5 559.4H397.2C396.5 560.3 395.9 561.4 395.6 562.5H405.3Z" fill="#CF9742"/>
<path d="M403.3 558.1C403.3 557.6 403.4 557 403.5 556.6C403.4 556.6 403.2 556.6 403.1 556.6C400.7 556.6 398.6 557.7 397.2 559.4H403.5C403.4 558.9 403.3 558.5 403.3 558.1Z" fill="#6E9546"/>
<path d="M397.2 569.3H409C409.8 568.4 410.3 567.3 410.6 566.2H395.6C395.9 567.3 396.5 568.4 397.2 569.3Z" fill="#7C4D83"/>
<path d="M403.1 572C405.5 572 407.6 570.9 409 569.3H397.2C398.7 571 400.8 572 403.1 572Z" fill="#4D8DB9"/>
<path d="M395.4 564.3C395.4 564.9 395.5 565.6 395.6 566.2H410.6C410.7 565.6 410.8 565 410.8 564.3C410.8 564.2 410.8 564 410.8 563.9C410.3 564 409.8 564.1 409.3 564.1C407.7 564.1 406.3 563.5 405.3 562.5H395.7C395.5 563.1 395.4 563.7 395.4 564.3Z" fill="#CB6757"/>
<path d="M423.2 348.2H439.3" stroke="white" stroke-width="8" stroke-miterlimit="10" stroke-linecap="round" stroke-linejoin="round"/>
<path d="M456 348.2H513.4" stroke="white" stroke-width="8" stroke-miterlimit="10" stroke-linecap="round" stroke-linejoin="round"/>
<path d="M599 529.6H567.6V524.8C567.6 523.8 568.4 522.9 569.5 522.9H597.1C598.1 522.9 599 523.7 599 524.8V529.6Z" fill="#353535"/>
<path d="M597.1 538.3H569.5C568.5 538.3 567.6 537.5 567.6 536.4V530.6H599V536.4C599 537.4 598.1 538.3 597.1 538.3Z" fill="#353535"/>
<path d="M595.1 533.6H500.5C500 533.6 499.5 533.2 499.5 532.6V528.5C499.5 528 499.9 527.5 500.5 527.5H595.1C595.6 527.5 596.1 527.9 596.1 528.5V532.6C596 533.2 595.6 533.6 595.1 533.6Z" fill="#282828"/>
</g>
<defs>
<clipPath id="clip0_1_1166">
<rect width="1000" height="1000" fill="white"/>
</clipPath>
</defs>
</svg>
