<svg width="1000" height="1000" viewBox="0 0 1000 1000" fill="none" xmlns="http://www.w3.org/2000/svg">
<g clip-path="url(#clip0_1_1955)">
<path d="M1000 0H0V1000H1000V0Z" fill="#07B594"/>
<path d="M674 694H398V298H674C683.9 298 692 305.8 692 315.7V675.7C692 685.7 683.9 694 674 694Z" fill="#0A7362" stroke="#0A7362" stroke-width="8" stroke-miterlimit="10" stroke-linecap="round" stroke-linejoin="round"/>
<path d="M635 702H621C618.2 702 616 699.8 616 697V295C616 292.2 618.2 290 621 290H635C637.8 290 640 292.2 640 295V697C640 699.8 637.8 702 635 702Z" fill="#0A7362" stroke="#0A7362" stroke-width="8" stroke-miterlimit="10" stroke-linecap="round" stroke-linejoin="round"/>
<path d="M459 739.7L429 723V694H459V739.7Z" fill="#0A7362" stroke="#0A7362" stroke-width="8" stroke-miterlimit="10" stroke-linecap="round" stroke-linejoin="round"/>
<path d="M664 679H388V283H664C673.9 283 682 290.8 682 300.7V660.7C682 670.7 673.9 679 664 679Z" fill="#4C5B60"/>
<mask id="mask0_1_1955" style="mask-type:alpha" maskUnits="userSpaceOnUse" x="388" y="285" width="294" height="396">
<path d="M664 681H388V285H664C673.9 285 682 292.8 682 302.7V662.7C682 672.7 673.9 681 664 681Z" fill="white"/>
</mask>
<g mask="url(#mask0_1_1955)">
<path opacity="0.11" d="M362.4 983.601C362 983.601 361.6 983.501 361.3 983.201C360.7 982.601 360.7 981.701 361.3 981.101L705.7 636.801C706.3 636.201 707.2 636.201 707.8 636.801C708.4 637.401 708.4 638.301 707.8 638.901L363.5 983.201C363.2 983.501 362.8 983.601 362.4 983.601Z" fill="#102D3B"/>
<path opacity="0.11" d="M362.4 969.601C362 969.601 361.6 969.501 361.3 969.201C360.7 968.601 360.7 967.701 361.3 967.101L705.7 622.801C706.3 622.201 707.2 622.201 707.8 622.801C708.4 623.401 708.4 624.301 707.8 624.901L363.5 969.201C363.2 969.501 362.8 969.601 362.4 969.601Z" fill="#102D3B"/>
<path opacity="0.11" d="M362.4 955.601C362 955.601 361.6 955.501 361.3 955.201C360.7 954.601 360.7 953.701 361.3 953.101L705.7 608.801C706.3 608.201 707.2 608.201 707.8 608.801C708.4 609.401 708.4 610.301 707.8 610.901L363.5 955.201C363.2 955.501 362.8 955.601 362.4 955.601Z" fill="#102D3B"/>
<path opacity="0.11" d="M362.4 941.601C362 941.601 361.6 941.501 361.3 941.201C360.7 940.601 360.7 939.701 361.3 939.101L705.7 594.801C706.3 594.201 707.2 594.201 707.8 594.801C708.4 595.401 708.4 596.301 707.8 596.901L363.5 941.201C363.2 941.501 362.8 941.601 362.4 941.601Z" fill="#102D3B"/>
<path opacity="0.11" d="M362.4 927.601C362 927.601 361.6 927.501 361.3 927.201C360.7 926.601 360.7 925.701 361.3 925.101L705.7 580.801C706.3 580.201 707.2 580.201 707.8 580.801C708.4 581.401 708.4 582.301 707.8 582.901L363.5 927.201C363.2 927.501 362.8 927.601 362.4 927.601Z" fill="#102D3B"/>
<path opacity="0.11" d="M362.4 913.601C362 913.601 361.6 913.501 361.3 913.201C360.7 912.601 360.7 911.701 361.3 911.101L705.7 566.801C706.3 566.201 707.2 566.201 707.8 566.801C708.4 567.401 708.4 568.301 707.8 568.901L363.5 913.201C363.2 913.501 362.8 913.601 362.4 913.601Z" fill="#102D3B"/>
<path opacity="0.11" d="M362.4 899.601C362 899.601 361.6 899.501 361.3 899.201C360.7 898.601 360.7 897.701 361.3 897.101L705.7 552.801C706.3 552.201 707.2 552.201 707.8 552.801C708.4 553.401 708.4 554.301 707.8 554.901L363.5 899.201C363.2 899.501 362.8 899.601 362.4 899.601Z" fill="#102D3B"/>
<path opacity="0.11" d="M362.4 885.601C362 885.601 361.6 885.501 361.3 885.201C360.7 884.601 360.7 883.701 361.3 883.101L705.7 538.801C706.3 538.201 707.2 538.201 707.8 538.801C708.4 539.401 708.4 540.301 707.8 540.901L363.5 885.201C363.2 885.501 362.8 885.601 362.4 885.601Z" fill="#102D3B"/>
<path opacity="0.11" d="M362.4 871.601C362 871.601 361.6 871.501 361.3 871.201C360.7 870.601 360.7 869.701 361.3 869.101L705.7 524.801C706.3 524.201 707.2 524.201 707.8 524.801C708.4 525.401 708.4 526.301 707.8 526.901L363.5 871.201C363.2 871.501 362.8 871.601 362.4 871.601Z" fill="#102D3B"/>
<path opacity="0.11" d="M362.4 857.601C362 857.601 361.6 857.501 361.3 857.201C360.7 856.601 360.7 855.701 361.3 855.101L705.7 510.801C706.3 510.201 707.2 510.201 707.8 510.801C708.4 511.401 708.4 512.301 707.8 512.901L363.5 857.201C363.2 857.501 362.8 857.601 362.4 857.601Z" fill="#102D3B"/>
<path opacity="0.11" d="M362.4 843.601C362 843.601 361.6 843.501 361.3 843.201C360.7 842.601 360.7 841.701 361.3 841.101L705.7 496.801C706.3 496.201 707.2 496.201 707.8 496.801C708.4 497.401 708.4 498.301 707.8 498.901L363.5 843.201C363.2 843.501 362.8 843.601 362.4 843.601Z" fill="#102D3B"/>
<path opacity="0.11" d="M362.4 829.601C362 829.601 361.6 829.501 361.3 829.201C360.7 828.601 360.7 827.701 361.3 827.101L705.7 482.801C706.3 482.201 707.2 482.201 707.8 482.801C708.4 483.401 708.4 484.301 707.8 484.901L363.5 829.201C363.2 829.501 362.8 829.601 362.4 829.601Z" fill="#102D3B"/>
<path opacity="0.11" d="M362.4 815.601C362 815.601 361.6 815.501 361.3 815.201C360.7 814.601 360.7 813.701 361.3 813.101L705.7 468.801C706.3 468.201 707.2 468.201 707.8 468.801C708.4 469.401 708.4 470.301 707.8 470.901L363.5 815.201C363.2 815.501 362.8 815.601 362.4 815.601Z" fill="#102D3B"/>
<path opacity="0.11" d="M362.4 801.601C362 801.601 361.6 801.501 361.3 801.201C360.7 800.601 360.7 799.701 361.3 799.101L705.7 454.801C706.3 454.201 707.2 454.201 707.8 454.801C708.4 455.401 708.4 456.301 707.8 456.901L363.5 801.201C363.2 801.501 362.8 801.601 362.4 801.601Z" fill="#102D3B"/>
<path opacity="0.11" d="M362.4 787.601C362 787.601 361.6 787.501 361.3 787.201C360.7 786.601 360.7 785.701 361.3 785.101L705.7 440.801C706.3 440.201 707.2 440.201 707.8 440.801C708.4 441.401 708.4 442.301 707.8 442.901L363.5 787.201C363.2 787.501 362.8 787.601 362.4 787.601Z" fill="#102D3B"/>
<path opacity="0.11" d="M362.4 773.601C362 773.601 361.6 773.501 361.3 773.201C360.7 772.601 360.7 771.701 361.3 771.101L705.7 426.801C706.3 426.201 707.2 426.201 707.8 426.801C708.4 427.401 708.4 428.301 707.8 428.901L363.5 773.201C363.2 773.501 362.8 773.601 362.4 773.601Z" fill="#102D3B"/>
<path opacity="0.11" d="M362.4 759.601C362 759.601 361.6 759.501 361.3 759.201C360.7 758.601 360.7 757.701 361.3 757.101L705.7 412.801C706.3 412.201 707.2 412.201 707.8 412.801C708.4 413.401 708.4 414.301 707.8 414.901L363.5 759.201C363.2 759.501 362.8 759.601 362.4 759.601Z" fill="#102D3B"/>
<path opacity="0.11" d="M362.4 745.601C362 745.601 361.6 745.501 361.3 745.201C360.7 744.601 360.7 743.701 361.3 743.101L705.7 398.801C706.3 398.201 707.2 398.201 707.8 398.801C708.4 399.401 708.4 400.301 707.8 400.901L363.5 745.201C363.2 745.501 362.8 745.601 362.4 745.601Z" fill="#102D3B"/>
<path opacity="0.11" d="M362.4 731.601C362 731.601 361.6 731.501 361.3 731.201C360.7 730.601 360.7 729.701 361.3 729.101L705.7 384.801C706.3 384.201 707.2 384.201 707.8 384.801C708.4 385.401 708.4 386.301 707.8 386.901L363.5 731.201C363.2 731.501 362.8 731.601 362.4 731.601Z" fill="#102D3B"/>
<path opacity="0.11" d="M362.4 717.601C362 717.601 361.6 717.501 361.3 717.201C360.7 716.601 360.7 715.701 361.3 715.101L705.7 370.801C706.3 370.201 707.2 370.201 707.8 370.801C708.4 371.401 708.4 372.301 707.8 372.901L363.5 717.201C363.2 717.501 362.8 717.601 362.4 717.601Z" fill="#102D3B"/>
<path opacity="0.11" d="M362.4 703.601C362 703.601 361.6 703.501 361.3 703.201C360.7 702.601 360.7 701.701 361.3 701.101L705.7 356.801C706.3 356.201 707.2 356.201 707.8 356.801C708.4 357.401 708.4 358.301 707.8 358.901L363.5 703.201C363.2 703.501 362.8 703.601 362.4 703.601Z" fill="#102D3B"/>
<path opacity="0.11" d="M362.4 689.601C362 689.601 361.6 689.501 361.3 689.201C360.7 688.601 360.7 687.701 361.3 687.101L705.7 342.801C706.3 342.201 707.2 342.201 707.8 342.801C708.4 343.401 708.4 344.301 707.8 344.901L363.5 689.201C363.2 689.501 362.8 689.601 362.4 689.601Z" fill="#102D3B"/>
<path opacity="0.11" d="M362.4 675.601C362 675.601 361.6 675.501 361.3 675.201C360.7 674.601 360.7 673.701 361.3 673.101L705.7 328.801C706.3 328.201 707.2 328.201 707.8 328.801C708.4 329.401 708.4 330.301 707.8 330.901L363.5 675.201C363.2 675.501 362.8 675.601 362.4 675.601Z" fill="#102D3B"/>
<path opacity="0.11" d="M362.4 661.601C362 661.601 361.6 661.501 361.3 661.201C360.7 660.601 360.7 659.701 361.3 659.101L705.7 314.801C706.3 314.201 707.2 314.201 707.8 314.801C708.4 315.401 708.4 316.301 707.8 316.901L363.5 661.201C363.2 661.501 362.8 661.601 362.4 661.601Z" fill="#102D3B"/>
<path opacity="0.11" d="M362.4 647.601C362 647.601 361.6 647.501 361.3 647.201C360.7 646.601 360.7 645.701 361.3 645.101L705.7 300.801C706.3 300.201 707.2 300.201 707.8 300.801C708.4 301.401 708.4 302.301 707.8 302.901L363.5 647.201C363.2 647.501 362.8 647.601 362.4 647.601Z" fill="#102D3B"/>
<path opacity="0.11" d="M362.4 633.601C362 633.601 361.6 633.501 361.3 633.201C360.7 632.601 360.7 631.701 361.3 631.101L705.7 286.801C706.3 286.201 707.2 286.201 707.8 286.801C708.4 287.401 708.4 288.301 707.8 288.901L363.5 633.201C363.2 633.501 362.8 633.601 362.4 633.601Z" fill="#102D3B"/>
<path opacity="0.11" d="M362.4 619.601C362 619.601 361.6 619.501 361.3 619.201C360.7 618.601 360.7 617.701 361.3 617.101L705.7 272.801C706.3 272.201 707.2 272.201 707.8 272.801C708.4 273.401 708.4 274.301 707.8 274.901L363.5 619.201C363.2 619.501 362.8 619.601 362.4 619.601Z" fill="#102D3B"/>
<path opacity="0.11" d="M362.4 605.601C362 605.601 361.6 605.501 361.3 605.201C360.7 604.601 360.7 603.701 361.3 603.101L705.7 258.801C706.3 258.201 707.2 258.201 707.8 258.801C708.4 259.401 708.4 260.301 707.8 260.901L363.5 605.201C363.2 605.501 362.8 605.601 362.4 605.601Z" fill="#102D3B"/>
<path opacity="0.11" d="M362.4 591.601C362 591.601 361.6 591.501 361.3 591.201C360.7 590.601 360.7 589.701 361.3 589.101L705.7 244.801C706.3 244.201 707.2 244.201 707.8 244.801C708.4 245.401 708.4 246.301 707.8 246.901L363.5 591.201C363.2 591.501 362.8 591.601 362.4 591.601Z" fill="#102D3B"/>
<path opacity="0.11" d="M362.4 577.601C362 577.601 361.6 577.501 361.3 577.201C360.7 576.601 360.7 575.701 361.3 575.101L705.7 230.801C706.3 230.201 707.2 230.201 707.8 230.801C708.4 231.401 708.4 232.301 707.8 232.901L363.5 577.201C363.2 577.501 362.8 577.601 362.4 577.601Z" fill="#102D3B"/>
<path opacity="0.11" d="M362.4 563.601C362 563.601 361.6 563.501 361.3 563.201C360.7 562.601 360.7 561.701 361.3 561.101L705.7 216.801C706.3 216.201 707.2 216.201 707.8 216.801C708.4 217.401 708.4 218.301 707.8 218.901L363.5 563.201C363.2 563.501 362.8 563.601 362.4 563.601Z" fill="#102D3B"/>
<path opacity="0.11" d="M362.4 549.601C362 549.601 361.6 549.501 361.3 549.201C360.7 548.601 360.7 547.701 361.3 547.101L705.7 202.801C706.3 202.201 707.2 202.201 707.8 202.801C708.4 203.401 708.4 204.301 707.8 204.901L363.5 549.201C363.2 549.501 362.8 549.601 362.4 549.601Z" fill="#102D3B"/>
<path opacity="0.11" d="M362.4 535.601C362 535.601 361.6 535.501 361.3 535.201C360.7 534.601 360.7 533.701 361.3 533.101L705.7 188.801C706.3 188.201 707.2 188.201 707.8 188.801C708.4 189.401 708.4 190.301 707.8 190.901L363.5 535.201C363.2 535.501 362.8 535.601 362.4 535.601Z" fill="#102D3B"/>
<path opacity="0.11" d="M362.4 521.601C362 521.601 361.6 521.501 361.3 521.201C360.7 520.601 360.7 519.701 361.3 519.101L705.7 174.801C706.3 174.201 707.2 174.201 707.8 174.801C708.4 175.401 708.4 176.301 707.8 176.901L363.5 521.201C363.2 521.501 362.8 521.601 362.4 521.601Z" fill="#102D3B"/>
<path opacity="0.11" d="M362.4 507.601C362 507.601 361.6 507.501 361.3 507.201C360.7 506.601 360.7 505.701 361.3 505.101L705.7 160.801C706.3 160.201 707.2 160.201 707.8 160.801C708.4 161.401 708.4 162.301 707.8 162.901L363.5 507.201C363.2 507.501 362.8 507.601 362.4 507.601Z" fill="#102D3B"/>
<path opacity="0.11" d="M362.4 493.601C362 493.601 361.6 493.501 361.3 493.201C360.7 492.601 360.7 491.701 361.3 491.101L705.7 146.801C706.3 146.201 707.2 146.201 707.8 146.801C708.4 147.401 708.4 148.301 707.8 148.901L363.5 493.201C363.2 493.501 362.8 493.601 362.4 493.601Z" fill="#102D3B"/>
<path opacity="0.11" d="M362.4 479.601C362 479.601 361.6 479.501 361.3 479.201C360.7 478.601 360.7 477.701 361.3 477.101L705.7 132.801C706.3 132.201 707.2 132.201 707.8 132.801C708.4 133.401 708.4 134.301 707.8 134.901L363.5 479.201C363.2 479.501 362.8 479.601 362.4 479.601Z" fill="#102D3B"/>
<path opacity="0.11" d="M362.4 465.6C362 465.6 361.6 465.5 361.3 465.2C360.7 464.6 360.7 463.7 361.3 463.1L705.7 118.7C706.3 118.1 707.2 118.1 707.8 118.7C708.4 119.3 708.4 120.2 707.8 120.8L363.5 465.2C363.2 465.5 362.8 465.6 362.4 465.6Z" fill="#102D3B"/>
<path opacity="0.11" d="M362.4 451.6C362 451.6 361.6 451.5 361.3 451.2C360.7 450.6 360.7 449.7 361.3 449.1L705.7 104.7C706.3 104.1 707.2 104.1 707.8 104.7C708.4 105.3 708.4 106.2 707.8 106.8L363.5 451.2C363.2 451.5 362.8 451.6 362.4 451.6Z" fill="#102D3B"/>
<path opacity="0.11" d="M362.4 437.6C362 437.6 361.6 437.5 361.3 437.2C360.7 436.6 360.7 435.7 361.3 435.1L705.7 90.6004C706.3 90.0004 707.2 90.0004 707.8 90.6004C708.4 91.2004 708.4 92.1004 707.8 92.7004L363.5 437.2C363.2 437.5 362.8 437.6 362.4 437.6Z" fill="#102D3B"/>
<path opacity="0.11" d="M362.4 423.6C362 423.6 361.6 423.5 361.3 423.2C360.7 422.6 360.7 421.7 361.3 421.1L705.7 76.6004C706.3 76.0004 707.2 76.0004 707.8 76.6004C708.4 77.2004 708.4 78.1004 707.8 78.7004L363.5 423.2C363.2 423.5 362.8 423.6 362.4 423.6Z" fill="#102D3B"/>
<path opacity="0.11" d="M362.4 409.6C362 409.6 361.6 409.5 361.3 409.2C360.7 408.6 360.7 407.7 361.3 407.1L705.7 62.6004C706.3 62.0004 707.2 62.0004 707.8 62.6004C708.4 63.2004 708.4 64.1004 707.8 64.7004L363.5 409.2C363.2 409.5 362.8 409.6 362.4 409.6Z" fill="#102D3B"/>
<path opacity="0.11" d="M362.4 395.6C362 395.6 361.6 395.5 361.3 395.2C360.7 394.6 360.7 393.7 361.3 393.1L705.7 48.6004C706.3 48.0004 707.2 48.0004 707.8 48.6004C708.4 49.2004 708.4 50.1004 707.8 50.7004L363.5 395.2C363.2 395.5 362.8 395.6 362.4 395.6Z" fill="#102D3B"/>
<path opacity="0.11" d="M362.4 381.6C362 381.6 361.6 381.5 361.3 381.2C360.7 380.6 360.7 379.7 361.3 379.1L705.7 34.6004C706.3 34.0004 707.2 34.0004 707.8 34.6004C708.4 35.2004 708.4 36.1004 707.8 36.7004L363.5 381.2C363.2 381.5 362.8 381.6 362.4 381.6Z" fill="#102D3B"/>
<path opacity="0.11" d="M362.4 367.6C362 367.6 361.6 367.5 361.3 367.2C360.7 366.6 360.7 365.7 361.3 365.1L705.7 20.6004C706.3 20.0004 707.2 20.0004 707.8 20.6004C708.4 21.2004 708.4 22.1004 707.8 22.7004L363.5 367.2C363.2 367.5 362.8 367.6 362.4 367.6Z" fill="#102D3B"/>
<path opacity="0.11" d="M362.4 353.6C362 353.6 361.6 353.5 361.3 353.2C360.7 352.6 360.7 351.7 361.3 351.1L705.7 6.60039C706.3 6.00039 707.2 6.00039 707.8 6.60039C708.4 7.20039 708.4 8.10039 707.8 8.70039L363.5 353.2C363.2 353.5 362.8 353.6 362.4 353.6Z" fill="#102D3B"/>
<path opacity="0.11" d="M362.4 339.6C362 339.6 361.6 339.5 361.3 339.2C360.7 338.6 360.7 337.7 361.3 337.1L674.1 24.1004C674.7 23.5004 675.6 23.5004 676.2 24.1004C676.8 24.7004 676.8 25.6004 676.2 26.2004L363.5 339.2C363.2 339.5 362.8 339.6 362.4 339.6Z" fill="#102D3B"/>
<path opacity="0.11" d="M362.4 325.6C362 325.6 361.6 325.5 361.3 325.2C360.7 324.6 360.7 323.7 361.3 323.1L654.7 29.6004C655.3 29.0004 656.2 29.0004 656.8 29.6004C657.4 30.2004 657.4 31.1004 656.8 31.7004L363.5 325.2C363.2 325.5 362.8 325.6 362.4 325.6Z" fill="#102D3B"/>
</g>
<path d="M641 283H617V679H641V283Z" fill="#3E4B4F"/>
<path opacity="0.3" d="M405 283H388V679H405V283Z" fill="#CCDDE5"/>
<path d="M664 679H388V283H664C673.9 283 682 290.8 682 300.7V660.7C682 670.7 673.9 679 664 679Z" stroke="#102D3B" stroke-width="8" stroke-miterlimit="10" stroke-linecap="round" stroke-linejoin="round"/>
<path d="M422 283H388V679H422V283Z" stroke="#102D3B" stroke-width="8" stroke-miterlimit="10" stroke-linecap="round" stroke-linejoin="round"/>
<path d="M682 397H388V509H682V397Z" fill="#FF9852"/>
<path d="M519.2 431.4C519.2 433.5 518.8 435.2 518 436.5C517.2 437.8 516.3 438.8 515.3 439.6C513.8 440.8 511.8 441.3 509.1 441.3H498V420.7H506.6C507.9 420.7 509 420.8 509.9 420.9C510.8 421 511.6 421.2 512.4 421.5C513.2 421.8 513.8 422 514.3 422.3C514.8 422.6 515.3 422.9 515.7 423.3C516.4 423.9 517 424.6 517.5 425.3C518 426 518.5 427 518.8 428C519.1 429.1 519.2 430.2 519.2 431.4ZM512.9 431.2C512.9 429.5 512.6 428.2 511.9 427.3C511.3 426.4 510.5 425.7 509.6 425.4C508.7 425.1 507.8 424.9 506.9 424.9H504.3V437.1H506.9C508.5 437.1 509.9 436.7 511.1 435.9C512.3 435.1 512.9 433.6 512.9 431.2Z" fill="#D85639"/>
<path d="M545.1 431C545.1 432.9 544.7 434.7 543.8 436.3C542.9 437.9 541.6 439.2 539.8 440.1C538 441 535.9 441.5 533.4 441.5C530.9 441.5 528.7 441 526.9 440C525.1 439 523.8 437.7 523 436.1C522.1 434.5 521.7 432.8 521.7 430.9C521.7 429 522.1 427.3 523 425.7C523.9 424.1 525.2 422.8 526.9 421.8C528.7 420.8 530.8 420.3 533.4 420.3C535.3 420.3 537 420.6 538.5 421.1C540 421.6 541.2 422.4 542.2 423.4C543.2 424.4 543.9 425.5 544.4 426.8C544.9 428.1 545.1 429.6 545.1 431ZM538.8 431C538.8 430.2 538.7 429.5 538.5 428.9C538.3 428.3 537.9 427.7 537.5 427.2C537 426.7 536.5 426.4 535.8 426.1C535.1 425.8 534.4 425.7 533.5 425.7C531.8 425.7 530.5 426.2 529.6 427.2C528.7 428.2 528.2 429.4 528.2 431C528.2 432.6 528.7 433.8 529.6 434.8C530.6 435.8 531.9 436.3 533.5 436.3C534.6 436.3 535.6 436.1 536.4 435.6C537.2 435.1 537.8 434.5 538.2 433.7C538.5 433 538.8 432.1 538.8 431Z" fill="#D85639"/>
<path d="M566.9 425.8H559.4V441.4H553.2V425.8H545.7V420.8H567L566.9 425.8Z" fill="#D85639"/>
<path d="M517.5 464.4C517.1 464.6 516.7 464.7 516.4 464.8C516.1 464.9 515.8 465 515.5 465.1C515.2 465.2 514.8 465.3 514.2 465.4C513.3 465.6 512.3 465.8 511.4 465.9C510.5 466 509.5 466.1 508.4 466.1C506.3 466.1 504.4 465.7 502.6 465C500.8 464.2 499.4 463.1 498.3 461.5C497.2 459.9 496.7 457.9 496.7 455.6C496.7 454.1 497 452.6 497.5 451.2C498 449.8 498.9 448.6 500 447.7C500.9 447 501.9 446.4 502.8 446C503.8 445.6 504.7 445.4 505.6 445.2C506.5 445.1 507.5 445 508.6 445C510.4 445 511.9 445.1 513.1 445.4C514.3 445.7 515.6 446 517 446.5V451.4C516.1 450.9 515.1 450.4 514 450C513 449.6 511.7 449.5 510.1 449.5C508.3 449.5 506.9 449.8 505.8 450.5C504.7 451.2 504 452 503.6 452.9C503.2 453.8 503 454.8 503 455.6C503 456.6 503.2 457.6 503.7 458.5C504.2 459.4 504.9 460.1 505.9 460.6C506.9 461.1 508.1 461.4 509.4 461.4C510.2 461.4 511 461.3 511.9 461.1V458.7H509.1V454.6H517.3V464.4H517.5Z" fill="#D85639"/>
<path d="M542.3 465.9H535.6L534 462.2C533.4 460.9 532.9 459.9 532.4 459.3C531.9 458.7 531.5 458.3 531 458.1C530.5 457.9 530 457.8 529.3 457.8H528.6V465.8H522.4V445.2H533C534.7 445.2 536.1 445.5 537.2 446.2C538.3 446.9 539.1 447.7 539.6 448.7C540.1 449.7 540.3 450.6 540.3 451.5C540.3 452.5 540.1 453.4 539.7 454.1C539.3 454.8 538.9 455.3 538.4 455.7C538 456 537.5 456.3 536.9 456.6C537.6 457 538.1 457.4 538.5 458C538.9 458.6 539.5 459.6 540.3 461.2L542.3 465.9ZM533.9 451.8C533.9 450.8 533.6 450.2 533 449.8C532.4 449.4 531.4 449.2 530 449.2H528.7V454.2H530C531.5 454.2 532.6 454 533.1 453.7C533.6 453.4 533.9 452.7 533.9 451.8Z" fill="#D85639"/>
<path d="M551.301 465.9H545.101V445.3H551.301V465.9Z" fill="#D85639"/>
<path d="M577.7 455.9C577.7 458 577.3 459.7 576.5 461C575.7 462.3 574.8 463.3 573.8 464.1C572.3 465.3 570.3 465.8 567.6 465.8H556.5V445.2H565.1C566.4 445.2 567.5 445.3 568.4 445.4C569.3 445.5 570.1 445.7 570.9 446C571.7 446.3 572.3 446.5 572.8 446.8C573.3 447.1 573.8 447.4 574.2 447.8C574.9 448.4 575.5 449.1 576 449.8C576.5 450.5 577 451.5 577.3 452.5C577.5 453.6 577.7 454.7 577.7 455.9ZM571.4 455.7C571.4 454 571.1 452.7 570.4 451.8C569.8 450.9 569 450.2 568.1 449.9C567.2 449.6 566.3 449.4 565.4 449.4H562.8V461.6H565.4C567 461.6 568.4 461.2 569.6 460.4C570.8 459.6 571.4 458.1 571.4 455.7Z" fill="#D85639"/>
<path d="M516.901 484.5C516.901 486.3 516.301 487.7 515.101 488.7C513.901 489.8 512.201 490.3 510.001 490.3H498.101V469.7H508.001C509.301 469.7 510.401 469.8 511.401 470.1C512.401 470.3 513.101 470.7 513.701 471.1C514.301 471.5 514.701 472 515.001 472.6C515.301 473.2 515.401 473.8 515.401 474.5C515.401 475.3 515.301 475.9 515.001 476.6C514.701 477.3 514.301 477.8 513.901 478.2C513.501 478.6 513.001 478.9 512.601 479.1C514.001 479.7 515.101 480.4 515.801 481.2C516.501 482 516.901 483.2 516.901 484.5ZM509.601 475.7C509.601 474.7 509.301 474.1 508.601 473.7C507.901 473.3 506.901 473.2 505.501 473.2H504.201V478.1H505.501C506.901 478.1 507.901 477.9 508.601 477.6C509.301 477.4 509.601 476.7 509.601 475.7ZM510.601 484.3C510.601 482.5 509.301 481.7 506.801 481.7H504.301V487H506.801C509.401 486.9 510.601 486 510.601 484.3Z" fill="#D85639"/>
<path d="M542.9 480.099C542.9 481.999 542.5 483.799 541.6 485.399C540.7 486.999 539.4 488.299 537.6 489.199C535.8 490.099 533.7 490.599 531.2 490.599C528.7 490.599 526.5 490.099 524.7 489.099C522.9 488.099 521.6 486.799 520.8 485.199C519.9 483.599 519.5 481.899 519.5 479.999C519.5 478.099 519.9 476.399 520.8 474.799C521.7 473.199 523 471.899 524.7 470.899C526.5 469.899 528.6 469.399 531.2 469.399C533.1 469.399 534.8 469.699 536.3 470.199C537.8 470.699 539 471.499 540 472.499C541 473.499 541.7 474.599 542.2 475.899C542.7 477.199 542.9 478.599 542.9 480.099ZM536.5 480.099C536.5 479.299 536.4 478.599 536.2 477.999C536 477.399 535.6 476.799 535.2 476.299C534.7 475.799 534.2 475.499 533.5 475.199C532.8 474.899 532.1 474.799 531.2 474.799C529.5 474.799 528.2 475.299 527.3 476.299C526.4 477.299 525.9 478.499 525.9 480.099C525.9 481.699 526.4 482.899 527.3 483.899C528.3 484.899 529.6 485.399 531.2 485.399C532.3 485.399 533.3 485.199 534.1 484.699C534.9 484.199 535.5 483.599 535.9 482.799C536.3 481.999 536.5 481.099 536.5 480.099Z" fill="#D85639"/>
<path d="M568.7 480.099C568.7 481.999 568.3 483.799 567.4 485.399C566.5 486.999 565.2 488.299 563.4 489.199C561.6 490.099 559.5 490.599 557 490.599C554.5 490.599 552.3 490.099 550.5 489.099C548.7 488.099 547.4 486.799 546.6 485.199C545.7 483.599 545.3 481.899 545.3 479.999C545.3 478.099 545.7 476.399 546.6 474.799C547.5 473.199 548.8 471.899 550.5 470.899C552.3 469.899 554.4 469.399 557 469.399C558.9 469.399 560.6 469.699 562.1 470.199C563.6 470.699 564.8 471.499 565.8 472.499C566.8 473.499 567.5 474.599 568 475.899C568.5 477.199 568.7 478.599 568.7 480.099ZM562.4 480.099C562.4 479.299 562.3 478.599 562.1 477.999C561.9 477.399 561.5 476.799 561.1 476.299C560.6 475.799 560.1 475.499 559.4 475.199C558.7 474.899 558 474.799 557.1 474.799C555.4 474.799 554.1 475.299 553.2 476.299C552.3 477.299 551.8 478.499 551.8 480.099C551.8 481.699 552.3 482.899 553.2 483.899C554.2 484.899 555.5 485.399 557.1 485.399C558.2 485.399 559.2 485.199 560 484.699C560.8 484.199 561.4 483.599 561.8 482.799C562.2 481.999 562.4 481.099 562.4 480.099Z" fill="#D85639"/>
<path d="M594.2 490.4H586.6L578.7 480.8V490.4H572.5V469.8H578.7V479L586.2 469.8H592.9L585.2 479.4L594.2 490.4Z" fill="#D85639"/>
<path opacity="0.6" d="M422 397V509" stroke="#D85639" stroke-width="8" stroke-miterlimit="10"/>
<path d="M405 397H388V509H405V397Z" fill="#FDBA5D"/>
<path opacity="0.61" d="M641 397H624V509H641V397Z" fill="#D85639"/>
<path d="M682 397H388V509H682V397Z" stroke="#102D3B" stroke-width="8" stroke-miterlimit="10" stroke-linecap="round" stroke-linejoin="round"/>
<path d="M624.2 687H611.9C608.7 687 606.1 684.4 606.1 681.2V280.8C606.1 277.6 608.7 275 611.9 275H624.2C627.4 275 630 277.6 630 280.8V681.1C630 684.4 627.4 687 624.2 687Z" fill="#B7C8CE"/>
<path d="M624.2 687H611.9C608.7 687 606.1 684.4 606.1 681.2V280.8C606.1 277.6 608.7 275 611.9 275H624.2C627.4 275 630 277.6 630 280.8V681.1C630 684.4 627.4 687 624.2 687Z" stroke="#102D3B" stroke-width="8" stroke-miterlimit="10" stroke-linecap="round" stroke-linejoin="round"/>
<path d="M449 724.7L419 708V679H449V724.7Z" fill="#EA3939"/>
<path opacity="0.62" d="M449 679H419V690.3H449V679Z" fill="#EA3939"/>
<path d="M449 724.7L419 708V679H449V724.7Z" stroke="#102D3B" stroke-width="8" stroke-miterlimit="10" stroke-linecap="round" stroke-linejoin="round"/>
<path d="M329 367H297V518H329V367Z" fill="#0A7362" stroke="#0A7362" stroke-width="8" stroke-miterlimit="10" stroke-linecap="round" stroke-linejoin="round"/>
<path d="M329.4 620C318.6 620 307.7 620 296.9 620C294.8 598 294.8 575 296.9 552C307.7 552 318.6 552 329.4 552C331.5 575 331.5 598 329.4 620Z" fill="#0A7362" stroke="#0A7362" stroke-width="8" stroke-miterlimit="10" stroke-linecap="round" stroke-linejoin="round"/>
<path d="M329.4 552C318.6 552 307.7 552 296.9 552C303.6 542 303.6 529 296.9 518C307.7 518 318.6 518 329.4 518C322.7 529 322.7 542 329.4 552Z" fill="#0A7362" stroke="#0A7362" stroke-width="8" stroke-miterlimit="10" stroke-linecap="round" stroke-linejoin="round"/>
<path d="M317.3 667C322.7 651 329.2 636 329.4 620H296.9C297.1 636 303.6 651 309 667H317.3Z" fill="#0A7362" stroke="#0A7362" stroke-width="8" stroke-miterlimit="10" stroke-linecap="round" stroke-linejoin="round"/>
<path d="M317 667H309V673H317V667Z" fill="#0A7362" stroke="#0A7362" stroke-width="8" stroke-miterlimit="10" stroke-linecap="round" stroke-linejoin="round"/>
<path d="M313 674V687" stroke="#0A7362" stroke-width="8" stroke-miterlimit="10" stroke-linecap="round" stroke-linejoin="round"/>
<path d="M325 345H301V367H325V345Z" fill="#0A7362" stroke="#0A7362" stroke-width="8" stroke-miterlimit="10" stroke-linecap="round" stroke-linejoin="round"/>
<path d="M322 345H304V319.3C304 315.8 307.2 313 310.7 313H315.7C319.2 313 322 315.8 322 319.3V345Z" fill="#0A7362" stroke="#0A7362" stroke-width="8" stroke-miterlimit="10" stroke-linecap="round" stroke-linejoin="round"/>
<path d="M340 381H309V399H340V381Z" fill="#0A7362" stroke="#0A7362" stroke-width="8" stroke-miterlimit="10" stroke-linecap="round" stroke-linejoin="round"/>
<path d="M340 460.3L329 445.8V399H340V460.3Z" fill="#0A7362" stroke="#0A7362" stroke-width="8" stroke-miterlimit="10" stroke-linecap="round" stroke-linejoin="round"/>
<path d="M322.4 547C311.6 547 300.7 547 289.9 547C296.6 537 296.6 524 289.9 513C300.7 513 311.6 513 322.4 513C315.7 524 315.7 537 322.4 547Z" fill="#102D3B"/>
<path d="M322 362H290V513H322V362Z" fill="#526066"/>
<path d="M322 362H290V513H322V362Z" fill="#526066"/>
<path opacity="0.64" d="M300 362H290V513H300V362Z" fill="#526066"/>
<path opacity="0.3" d="M322 362H313V513H322V362Z" fill="#526066"/>
<path d="M322 362H290V513H322V362Z" stroke="#102D3B" stroke-width="8" stroke-miterlimit="10" stroke-linecap="round" stroke-linejoin="round"/>
<path d="M322.4 615C311.6 615 300.7 615 289.9 615C287.8 593 287.8 570 289.9 547C300.7 547 311.6 547 322.4 547C324.5 570 324.5 593 322.4 615Z" fill="#42708A"/>
<path d="M322.4 615C311.6 615 300.7 615 289.9 615C287.8 593 287.8 570 289.9 547C300.7 547 311.6 547 322.4 547C324.5 570 324.5 593 322.4 615Z" fill="#526066"/>
<path opacity="0.3" d="M322.4 547C319.8 547 317.2 547 314.6 547C316.7 570 316.7 593 314.6 615C317.2 615 319.8 615 322.4 615C324.5 593 324.5 570 322.4 547Z" fill="#526066"/>
<path opacity="0.73" d="M301.4 614C299.8 614 298.3 614 296.7 614C294.6 592.3 294.6 569.7 296.6 547C298.2 547 299.8 547 301.4 547C299.4 569.7 299.4 592.3 301.4 614Z" fill="#CCDDE5"/>
<path d="M322.4 615C311.6 615 300.7 615 289.9 615C287.8 593 287.8 570 289.9 547C300.7 547 311.6 547 322.4 547C324.5 570 324.5 593 322.4 615Z" stroke="#102D3B" stroke-width="8" stroke-miterlimit="10" stroke-linecap="round" stroke-linejoin="round"/>
<path d="M324 571H288V592H324V571Z" stroke="#102D3B" stroke-width="8" stroke-miterlimit="10" stroke-linecap="round" stroke-linejoin="round"/>
<path d="M322.4 547C311.6 547 300.7 547 289.9 547C296.6 537 296.6 524 289.9 513C300.7 513 311.6 513 322.4 513C315.7 524 315.7 537 322.4 547Z" stroke="#102D3B" stroke-width="8" stroke-miterlimit="10" stroke-linecap="round" stroke-linejoin="round"/>
<path d="M310.3 662C315.7 646 322.2 631 322.4 615H289.9C290.1 631 296.6 646 302 662H310.3Z" fill="#CCDDE5"/>
<path d="M322.4 615C322.4 615.3 322.4 615.7 322.4 616H301C301.1 631.7 303.9 646.7 307.2 662H302C296.6 646 290.1 631 289.9 615H322.4Z" fill="white"/>
<path d="M310.3 662C315.7 646 322.2 631 322.4 615H289.9C290.1 631 296.6 646 302 662H310.3Z" stroke="#102D3B" stroke-width="8" stroke-miterlimit="10" stroke-linecap="round" stroke-linejoin="round"/>
<path d="M310 662H302V668H310V662Z" stroke="#102D3B" stroke-width="8" stroke-miterlimit="10" stroke-linecap="round" stroke-linejoin="round"/>
<path d="M306 669V682" stroke="#102D3B" stroke-width="8" stroke-miterlimit="10" stroke-linecap="round" stroke-linejoin="round"/>
<path d="M318 340H294V362H318V340Z" stroke="#102D3B" stroke-width="8" stroke-miterlimit="10" stroke-linecap="round" stroke-linejoin="round"/>
<path d="M318 340H294V362H318V340Z" fill="#102D3B"/>
<path d="M315 340H297V314.3C297 310.8 300.2 308 303.7 308H308.7C312.2 308 315 310.8 315 314.3V340Z" fill="#CCDDE5"/>
<path d="M315 340H297V314.3C297 310.8 300.2 308 303.7 308H308.7C312.2 308 315 310.8 315 314.3V340Z" stroke="#102D3B" stroke-width="8" stroke-miterlimit="10" stroke-linecap="round" stroke-linejoin="round"/>
<path d="M333 376H302V394H333V376Z" fill="#CCDDE5"/>
<path d="M333 376H302V394H333V376Z" stroke="#102D3B" stroke-width="8" stroke-miterlimit="10" stroke-linecap="round" stroke-linejoin="round"/>
<path d="M333 455.3L322 440.8V394H333V455.3Z" fill="#CCDDE5"/>
<path d="M333 455.3L322 440.8V394H333V455.3Z" stroke="#102D3B" stroke-width="8" stroke-miterlimit="10" stroke-linecap="round" stroke-linejoin="round"/>
</g>
<defs>
<clipPath id="clip0_1_1955">
<rect width="1000" height="1000" fill="white"/>
</clipPath>
</defs>
</svg>
