<svg width="1000" height="1000" viewBox="0 0 1000 1000" fill="none" xmlns="http://www.w3.org/2000/svg">
<g clip-path="url(#clip0_1_1567)">
<path d="M1000 0H0V1000H1000V0Z" fill="#3A60A6"/>
<path d="M582.2 466.1L650.4 465.2C651.2 465.2 651.9 464.6 652.2 463.7L657.2 449.5C657.8 447.9 656.8 446 655.4 446H588.2C587.4 446 586.7 446.5 586.4 447.4L580.4 462.5C579.7 464.1 580.7 466.1 582.2 466.1Z" fill="#32539A" stroke="#32539A" stroke-width="6" stroke-miterlimit="10" stroke-linecap="round" stroke-linejoin="round"/>
<path d="M654.4 474H571.4C566.7 474 562.9 477.8 562.9 482.5C562.9 487.2 566.7 491 571.4 491H654.4C659.1 491 662.9 487.2 662.9 482.5C662.9 477.8 659.1 474 654.4 474Z" fill="#32539A" stroke="#32539A" stroke-width="6" stroke-miterlimit="10" stroke-linecap="round" stroke-linejoin="round"/>
<path d="M372 687.1C372 693 376.3 698 382.1 698.8C468.2 711.4 555.7 711.4 641.8 698.8C647.6 697.9 651.9 693 651.9 687.1V494.3H372V687.1Z" fill="#32539A" stroke="#32539A" stroke-width="6" stroke-miterlimit="10" stroke-linecap="round" stroke-linejoin="round"/>
<path d="M360 480V672.8C360 678.7 364.3 683.7 370.1 684.5C456.2 697.1 543.7 697.1 629.8 684.5C635.6 683.6 639.9 678.7 639.9 672.8V480H360Z" fill="#B4CAE9"/>
<path d="M360 480V672.8C360 678.7 364.3 683.7 370.1 684.5C456.2 697.1 543.7 697.1 629.8 684.5C635.6 683.6 639.9 678.7 639.9 672.8V480H360Z" stroke="#31306B" stroke-width="6" stroke-miterlimit="10" stroke-linecap="round" stroke-linejoin="round"/>
<path d="M500 684C457.1 684 413.8 680.8 371.3 674.6C369.4 674.3 368 672.7 368 670.8V490.8C368 488.2 370.1 486 372.8 486H627.3C629.9 486 632.1 488.1 632.1 490.8V670.9C632.1 672.8 630.7 674.4 628.8 674.7C586.2 680.8 542.9 684 500 684Z" fill="#F3F8FF"/>
<path d="M360 456C360 456 354.6 341.3 352.2 291.1C352 287.8 351.9 284.4 351.7 281.1C449.7 267.6 550.2 267.6 648.3 281.1C648.1 284.4 648 287.8 647.8 291.1C645.4 341.3 640 456 640 456H360Z" fill="#334684"/>
<path opacity="0.3" d="M397.7 425.3C393.3 425.3 389.7 421.8 389.6 417.4L387 305.5C386.9 303.3 387.8 301.2 389.3 299.7C390.8 298.1 392.9 297.3 395.1 297.3H604.8C607 297.3 609 298.2 610.6 299.7C612.1 301.3 613 303.3 612.9 305.5L610.3 417.3C610.2 421.7 606.6 425.2 602.2 425.2H397.7V425.3Z" fill="#2B3F77"/>
<path d="M602.3 420.3H397.7C396 420.3 394.7 419 394.6 417.3L392 305.4C392 303.7 393.4 302.2 395.1 302.2H604.8C606.5 302.2 607.9 303.6 607.9 305.4L605.3 417.3C605.3 419 604 420.3 602.3 420.3Z" fill="#31306B"/>
<path d="M568.8 302.3C567.2 302.3 565.9 303.5 565.7 305C557.9 356 513.9 395.1 460.8 395.1H397.3C395.6 395.1 394.2 396.5 394.2 398.3L394.6 417.4C394.6 419.1 396 420.4 397.7 420.4H602.3C604 420.4 605.3 419.1 605.4 417.4L608 305.5C608 303.8 606.6 302.3 604.9 302.3H568.8Z" fill="#2B2B60"/>
<path d="M360 456C360 456 354.6 341.3 352.2 291.1C352 287.8 351.9 284.4 351.7 281.1C449.7 267.6 550.2 267.6 648.3 281.1C648.1 284.4 648 287.8 647.8 291.1C645.4 341.3 640 456 640 456H360Z" stroke="#31306B" stroke-width="6" stroke-miterlimit="10" stroke-linecap="round" stroke-linejoin="round"/>
<path d="M531.6 608.3C511.6 598.9 488.4 598.9 468.4 608.3C468.4 613.2 468.4 618 468.4 622.9H531.6C531.6 618.1 531.6 613.2 531.6 608.3Z" fill="#B4CAE9"/>
<path d="M468.4 609.3C468.4 610.6 468.4 611.9 468.4 613.2C488.4 604.6 511.6 604.5 531.6 613.2C531.6 611.9 531.6 610.6 531.6 609.3C511.6 599.9 488.4 599.9 468.4 609.3Z" fill="#C4D9F2"/>
<path d="M531.6 608.3C511.8 601.2 488.7 600.5 468.4 608.3C468.4 613.2 468.4 618 468.4 622.9H531.6C531.6 618.1 531.6 613.2 531.6 608.3Z" stroke="#31306B" stroke-width="4" stroke-miterlimit="10" stroke-linecap="round" stroke-linejoin="round"/>
<path d="M500 633.5C506.848 633.5 512.4 627.948 512.4 621.1C512.4 614.252 506.848 608.7 500 608.7C493.151 608.7 487.6 614.252 487.6 621.1C487.6 627.948 493.151 633.5 500 633.5Z" fill="#94B7E0"/>
<path d="M500 633.5C506.848 633.5 512.4 627.948 512.4 621.1C512.4 614.252 506.848 608.7 500 608.7C493.151 608.7 487.6 614.252 487.6 621.1C487.6 627.948 493.151 633.5 500 633.5Z" stroke="#31306B" stroke-width="3" stroke-miterlimit="10" stroke-linecap="round" stroke-linejoin="round"/>
<path d="M511.9 645C508.4 647 504.3 648.1 500 648.1C495.7 648.1 491.6 647 488.1 645H468.4C468.4 649.9 468.4 654.7 468.4 659.6C488.4 669 511.6 669 531.6 659.6C531.6 654.7 531.6 649.9 531.6 645H511.9Z" fill="#C4D9F2"/>
<path d="M468.4 654.1C468.4 655.9 468.4 657.8 468.4 659.6C488.4 669 511.6 669 531.6 659.6C531.6 657.8 531.6 655.9 531.6 654.1C511.6 663.5 488.4 663.5 468.4 654.1Z" fill="#A2BDDD"/>
<path d="M511.9 645C508.4 647 504.3 648.1 500 648.1C495.7 648.1 491.6 647 488.1 645H468.4C468.4 649.9 468.4 654.7 468.4 659.6C488.4 669 511.6 669 531.6 659.6C531.6 654.7 531.6 649.9 531.6 645H511.9Z" stroke="#31306B" stroke-width="4" stroke-miterlimit="10" stroke-linecap="round" stroke-linejoin="round"/>
<path d="M500 630.9C505.413 630.9 509.8 626.513 509.8 621.1C509.8 615.688 505.413 611.3 500 611.3C494.588 611.3 490.2 615.688 490.2 621.1C490.2 626.513 494.588 630.9 500 630.9Z" fill="#31306B"/>
<path d="M505.9 613.4C506.1 614.2 506.2 615.1 506.2 616C506.2 622.6 500.9 627.9 494.3 627.9C493.8 627.9 493.2 627.9 492.7 627.8C494.5 629.8 497.1 631 499.9 631C505.3 631 509.7 626.6 509.7 621.2C509.8 618 508.3 615.1 505.9 613.4Z" fill="#28285B"/>
<path d="M494.4 621.1C494.4 618 496.9 615.5 500 615.5" stroke="#F8F8FF" stroke-width="2" stroke-miterlimit="10" stroke-linecap="round" stroke-linejoin="round"/>
<path d="M487.7 675.3H512.3" stroke="#31306B" stroke-width="6" stroke-miterlimit="10" stroke-linecap="round" stroke-linejoin="round"/>
<path d="M641.5 480H358.5C354.1 480 350.5 476.4 350.5 472C350.5 467.6 354.1 464 358.5 464H641.5C645.9 464 649.5 467.6 649.5 472C649.5 476.4 645.9 480 641.5 480Z" fill="#94B7E0"/>
<path d="M641.5 464H358.5C354.1 464 350.5 467.6 350.5 472H649.5C649.5 467.6 645.9 464 641.5 464Z" fill="#81AAD3"/>
<path d="M641.5 480H358.5C354.1 480 350.5 476.4 350.5 472C350.5 467.6 354.1 464 358.5 464H641.5C645.9 464 649.5 467.6 649.5 472C649.5 476.4 645.9 480 641.5 480Z" stroke="#31306B" stroke-width="6" stroke-miterlimit="10" stroke-linecap="round" stroke-linejoin="round"/>
<path d="M563.7 448.8C568.395 448.8 572.2 444.995 572.2 440.3C572.2 435.606 568.395 431.8 563.7 431.8C559.006 431.8 555.2 435.606 555.2 440.3C555.2 444.995 559.006 448.8 563.7 448.8Z" fill="#2B2B60"/>
<path d="M563.7 447.8C567.842 447.8 571.2 444.442 571.2 440.3C571.2 436.158 567.842 432.8 563.7 432.8C559.558 432.8 556.2 436.158 556.2 440.3C556.2 444.442 559.558 447.8 563.7 447.8Z" fill="#3A4F89"/>
<path d="M586.3 448.8C590.994 448.8 594.8 444.995 594.8 440.3C594.8 435.606 590.994 431.8 586.3 431.8C581.605 431.8 577.8 435.606 577.8 440.3C577.8 444.995 581.605 448.8 586.3 448.8Z" fill="#2B2B60"/>
<path d="M586.3 447.8C590.442 447.8 593.8 444.442 593.8 440.3C593.8 436.158 590.442 432.8 586.3 432.8C582.158 432.8 578.8 436.158 578.8 440.3C578.8 444.442 582.158 447.8 586.3 447.8Z" fill="#3A4F89"/>
<path d="M443.2 456H399.2V480H443.2V456Z" fill="#3A4F89"/>
<path d="M443.2 456H399.2V468H443.2V456Z" fill="#334684"/>
<path d="M597 456H553V480H597V456Z" fill="#3A4F89"/>
<path d="M597 456H553V468H597V456Z" fill="#334684"/>
<path d="M443.2 456H399.2V480H443.2V456Z" stroke="#31306B" stroke-width="6" stroke-miterlimit="10" stroke-linecap="round" stroke-linejoin="round"/>
<path d="M597 456H553V480H597V456Z" stroke="#31306B" stroke-width="6" stroke-miterlimit="10" stroke-linecap="round" stroke-linejoin="round"/>
<path d="M414.3 322.3H428" stroke="#D4E3F4" stroke-width="8" stroke-miterlimit="10" stroke-linecap="round" stroke-linejoin="round"/>
<path d="M446.5 322.3H499" stroke="#D4E3F4" stroke-width="8" stroke-miterlimit="10" stroke-linecap="round" stroke-linejoin="round"/>
<path d="M617 498H383V588H617V498Z" stroke="#31306B" stroke-width="6" stroke-miterlimit="10" stroke-linecap="round" stroke-linejoin="round"/>
<path d="M617 498H599V516H617V498Z" fill="#B4CAE9"/>
<path d="M599 498H581V516H599V498Z" fill="#B4CAE9"/>
<path d="M581 498H563V516H581V498Z" fill="#B4CAE9"/>
<path d="M563 498H545V516H563V498Z" fill="#B4CAE9"/>
<path d="M545 498H527V516H545V498Z" fill="#B4CAE9"/>
<path d="M527 498H509V516H527V498Z" fill="#B4CAE9"/>
<path d="M509 498H491V516H509V498Z" fill="#B4CAE9"/>
<path d="M491 498H473V516H491V498Z" fill="#B4CAE9"/>
<path d="M473 498H455V516H473V498Z" fill="#B4CAE9"/>
<path d="M455 498H437V516H455V498Z" fill="#B4CAE9"/>
<path d="M437 498H419V516H437V498Z" fill="#B4CAE9"/>
<path d="M419 498H401V516H419V498Z" fill="#B4CAE9"/>
<path d="M401 498H383V516H401V498Z" fill="#B4CAE9"/>
<path d="M617 516H590V534H617V516Z" fill="#B4CAE9"/>
<path d="M590 516H572V534H590V516Z" fill="#B4CAE9"/>
<path d="M572 516H554V534H572V516Z" fill="#B4CAE9"/>
<path d="M554 516H536V534H554V516Z" fill="#B4CAE9"/>
<path d="M536 516H518V534H536V516Z" fill="#B4CAE9"/>
<path d="M518 516H500V534H518V516Z" fill="#B4CAE9"/>
<path d="M500 516H482V534H500V516Z" fill="#B4CAE9"/>
<path d="M482 516H464V534H482V516Z" fill="#B4CAE9"/>
<path d="M464 516H446V534H464V516Z" fill="#B4CAE9"/>
<path d="M446 516H428V534H446V516Z" fill="#B4CAE9"/>
<path d="M428 516H410V534H428V516Z" fill="#B4CAE9"/>
<path d="M410 516H383V534H410V516Z" fill="#B4CAE9"/>
<path d="M617 552H572V570H617V552Z" fill="#B4CAE9"/>
<path d="M572 552H554V570H572V552Z" fill="#B4CAE9"/>
<path d="M554 552H536V570H554V552Z" fill="#B4CAE9"/>
<path d="M536 552H518V570H536V552Z" fill="#B4CAE9"/>
<path d="M518 552H500V570H518V552Z" fill="#B4CAE9"/>
<path d="M500 552H482V570H500V552Z" fill="#B4CAE9"/>
<path d="M482 552H464V570H482V552Z" fill="#B4CAE9"/>
<path d="M464 552H446V570H464V552Z" fill="#B4CAE9"/>
<path d="M446 552H428V570H446V552Z" fill="#B4CAE9"/>
<path d="M428 552H383V570H428V552Z" fill="#B4CAE9"/>
<path d="M617 534H581V552H617V534Z" fill="#B4CAE9"/>
<path d="M581 534H563V552H581V534Z" fill="#B4CAE9"/>
<path d="M563 534H545V552H563V534Z" fill="#B4CAE9"/>
<path d="M545 534H527V552H545V534Z" fill="#B4CAE9"/>
<path d="M527 534H509V552H527V534Z" fill="#B4CAE9"/>
<path d="M509 534H491V552H509V534Z" fill="#B4CAE9"/>
<path d="M491 534H473V552H491V534Z" fill="#B4CAE9"/>
<path d="M473 534H455V552H473V534Z" fill="#B4CAE9"/>
<path d="M455 534H437V552H455V534Z" fill="#B4CAE9"/>
<path d="M437 534H419V552H437V534Z" fill="#B4CAE9"/>
<path d="M419 534H383V552H419V534Z" fill="#B4CAE9"/>
<path d="M617 570H599V588H617V570Z" fill="#B4CAE9"/>
<path d="M599 570H581V588H599V570Z" fill="#B4CAE9"/>
<path d="M581 570H563V588H581V570Z" fill="#B4CAE9"/>
<path d="M563 570H545V588H563V570Z" fill="#B4CAE9"/>
<path d="M545 570H451.2V588H545V570Z" fill="#B4CAE9"/>
<path d="M451.2 570H419V588H451.2V570Z" fill="#B4CAE9"/>
<path d="M419 570H401V588H419V570Z" fill="#B4CAE9"/>
<path d="M401 570H383V588H401V570Z" fill="#B4CAE9"/>
<path d="M617 498H599V516H617V498Z" stroke="#31306B" stroke-width="4" stroke-miterlimit="10" stroke-linecap="round" stroke-linejoin="round"/>
<path d="M599 498H581V516H599V498Z" stroke="#31306B" stroke-width="4" stroke-miterlimit="10" stroke-linecap="round" stroke-linejoin="round"/>
<path d="M581 498H563V516H581V498Z" stroke="#31306B" stroke-width="4" stroke-miterlimit="10" stroke-linecap="round" stroke-linejoin="round"/>
<path d="M563 498H545V516H563V498Z" stroke="#31306B" stroke-width="4" stroke-miterlimit="10" stroke-linecap="round" stroke-linejoin="round"/>
<path d="M545 498H527V516H545V498Z" stroke="#31306B" stroke-width="4" stroke-miterlimit="10" stroke-linecap="round" stroke-linejoin="round"/>
<path d="M527 498H509V516H527V498Z" stroke="#31306B" stroke-width="4" stroke-miterlimit="10" stroke-linecap="round" stroke-linejoin="round"/>
<path d="M509 498H491V516H509V498Z" stroke="#31306B" stroke-width="4" stroke-miterlimit="10" stroke-linecap="round" stroke-linejoin="round"/>
<path d="M491 498H473V516H491V498Z" stroke="#31306B" stroke-width="4" stroke-miterlimit="10" stroke-linecap="round" stroke-linejoin="round"/>
<path d="M473 498H455V516H473V498Z" stroke="#31306B" stroke-width="4" stroke-miterlimit="10" stroke-linecap="round" stroke-linejoin="round"/>
<path d="M455 498H437V516H455V498Z" stroke="#31306B" stroke-width="4" stroke-miterlimit="10" stroke-linecap="round" stroke-linejoin="round"/>
<path d="M437 498H419V516H437V498Z" stroke="#31306B" stroke-width="4" stroke-miterlimit="10" stroke-linecap="round" stroke-linejoin="round"/>
<path d="M419 498H401V516H419V498Z" stroke="#31306B" stroke-width="4" stroke-miterlimit="10" stroke-linecap="round" stroke-linejoin="round"/>
<path d="M401 498H383V516H401V498Z" stroke="#31306B" stroke-width="4" stroke-miterlimit="10" stroke-linecap="round" stroke-linejoin="round"/>
<path d="M617 516H590V534H617V516Z" stroke="#31306B" stroke-width="4" stroke-miterlimit="10" stroke-linecap="round" stroke-linejoin="round"/>
<path d="M590 516H572V534H590V516Z" stroke="#31306B" stroke-width="4" stroke-miterlimit="10" stroke-linecap="round" stroke-linejoin="round"/>
<path d="M572 516H554V534H572V516Z" stroke="#31306B" stroke-width="4" stroke-miterlimit="10" stroke-linecap="round" stroke-linejoin="round"/>
<path d="M554 516H536V534H554V516Z" stroke="#31306B" stroke-width="4" stroke-miterlimit="10" stroke-linecap="round" stroke-linejoin="round"/>
<path d="M536 516H518V534H536V516Z" stroke="#31306B" stroke-width="4" stroke-miterlimit="10" stroke-linecap="round" stroke-linejoin="round"/>
<path d="M518 516H500V534H518V516Z" stroke="#31306B" stroke-width="4" stroke-miterlimit="10" stroke-linecap="round" stroke-linejoin="round"/>
<path d="M500 516H482V534H500V516Z" stroke="#31306B" stroke-width="4" stroke-miterlimit="10" stroke-linecap="round" stroke-linejoin="round"/>
<path d="M482 516H464V534H482V516Z" stroke="#31306B" stroke-width="4" stroke-miterlimit="10" stroke-linecap="round" stroke-linejoin="round"/>
<path d="M464 516H446V534H464V516Z" stroke="#31306B" stroke-width="4" stroke-miterlimit="10" stroke-linecap="round" stroke-linejoin="round"/>
<path d="M446 516H428V534H446V516Z" stroke="#31306B" stroke-width="4" stroke-miterlimit="10" stroke-linecap="round" stroke-linejoin="round"/>
<path d="M428 516H410V534H428V516Z" stroke="#31306B" stroke-width="4" stroke-miterlimit="10" stroke-linecap="round" stroke-linejoin="round"/>
<path d="M410 516H383V534H410V516Z" stroke="#31306B" stroke-width="4" stroke-miterlimit="10" stroke-linecap="round" stroke-linejoin="round"/>
<path d="M617 552H572V570H617V552Z" stroke="#31306B" stroke-width="4" stroke-miterlimit="10" stroke-linecap="round" stroke-linejoin="round"/>
<path d="M572 552H554V570H572V552Z" stroke="#31306B" stroke-width="4" stroke-miterlimit="10" stroke-linecap="round" stroke-linejoin="round"/>
<path d="M554 552H536V570H554V552Z" stroke="#31306B" stroke-width="4" stroke-miterlimit="10" stroke-linecap="round" stroke-linejoin="round"/>
<path d="M536 552H518V570H536V552Z" stroke="#31306B" stroke-width="4" stroke-miterlimit="10" stroke-linecap="round" stroke-linejoin="round"/>
<path d="M518 552H500V570H518V552Z" stroke="#31306B" stroke-width="4" stroke-miterlimit="10" stroke-linecap="round" stroke-linejoin="round"/>
<path d="M500 552H482V570H500V552Z" stroke="#31306B" stroke-width="4" stroke-miterlimit="10" stroke-linecap="round" stroke-linejoin="round"/>
<path d="M482 552H464V570H482V552Z" stroke="#31306B" stroke-width="4" stroke-miterlimit="10" stroke-linecap="round" stroke-linejoin="round"/>
<path d="M464 552H446V570H464V552Z" stroke="#31306B" stroke-width="4" stroke-miterlimit="10" stroke-linecap="round" stroke-linejoin="round"/>
<path d="M446 552H428V570H446V552Z" stroke="#31306B" stroke-width="4" stroke-miterlimit="10" stroke-linecap="round" stroke-linejoin="round"/>
<path d="M428 552H383V570H428V552Z" stroke="#31306B" stroke-width="4" stroke-miterlimit="10" stroke-linecap="round" stroke-linejoin="round"/>
<path d="M617 534H581V552H617V534Z" stroke="#31306B" stroke-width="4" stroke-miterlimit="10" stroke-linecap="round" stroke-linejoin="round"/>
<path d="M581 534H563V552H581V534Z" stroke="#31306B" stroke-width="4" stroke-miterlimit="10" stroke-linecap="round" stroke-linejoin="round"/>
<path d="M563 534H545V552H563V534Z" stroke="#31306B" stroke-width="4" stroke-miterlimit="10" stroke-linecap="round" stroke-linejoin="round"/>
<path d="M545 534H527V552H545V534Z" stroke="#31306B" stroke-width="4" stroke-miterlimit="10" stroke-linecap="round" stroke-linejoin="round"/>
<path d="M527 534H509V552H527V534Z" stroke="#31306B" stroke-width="4" stroke-miterlimit="10" stroke-linecap="round" stroke-linejoin="round"/>
<path d="M509 534H491V552H509V534Z" stroke="#31306B" stroke-width="4" stroke-miterlimit="10" stroke-linecap="round" stroke-linejoin="round"/>
<path d="M491 534H473V552H491V534Z" stroke="#31306B" stroke-width="4" stroke-miterlimit="10" stroke-linecap="round" stroke-linejoin="round"/>
<path d="M473 534H455V552H473V534Z" stroke="#31306B" stroke-width="4" stroke-miterlimit="10" stroke-linecap="round" stroke-linejoin="round"/>
<path d="M455 534H437V552H455V534Z" stroke="#31306B" stroke-width="4" stroke-miterlimit="10" stroke-linecap="round" stroke-linejoin="round"/>
<path d="M437 534H419V552H437V534Z" stroke="#31306B" stroke-width="4" stroke-miterlimit="10" stroke-linecap="round" stroke-linejoin="round"/>
<path d="M419 534H383V552H419V534Z" stroke="#31306B" stroke-width="4" stroke-miterlimit="10" stroke-linecap="round" stroke-linejoin="round"/>
<path d="M617 570H599V588H617V570Z" stroke="#31306B" stroke-width="4" stroke-miterlimit="10" stroke-linecap="round" stroke-linejoin="round"/>
<path d="M599 570H581V588H599V570Z" stroke="#31306B" stroke-width="4" stroke-miterlimit="10" stroke-linecap="round" stroke-linejoin="round"/>
<path d="M581 570H563V588H581V570Z" stroke="#31306B" stroke-width="4" stroke-miterlimit="10" stroke-linecap="round" stroke-linejoin="round"/>
<path d="M563 570H545V588H563V570Z" stroke="#31306B" stroke-width="4" stroke-miterlimit="10" stroke-linecap="round" stroke-linejoin="round"/>
<path d="M545 570H451.2V588H545V570Z" stroke="#31306B" stroke-width="4" stroke-miterlimit="10" stroke-linecap="round" stroke-linejoin="round"/>
<path d="M451.2 570H419V588H451.2V570Z" stroke="#31306B" stroke-width="4" stroke-miterlimit="10" stroke-linecap="round" stroke-linejoin="round"/>
<path d="M419 570H401V588H419V570Z" stroke="#31306B" stroke-width="4" stroke-miterlimit="10" stroke-linecap="round" stroke-linejoin="round"/>
<path d="M401 570H383V588H401V570Z" stroke="#31306B" stroke-width="4" stroke-miterlimit="10" stroke-linecap="round" stroke-linejoin="round"/>
<g opacity="0.59">
<path opacity="0.59" d="M602 510V502C602 501.4 602.4 501 603 501H611C611.6 501 612 501.4 612 502V510C612 510.6 611.6 511 611 511H603C602.4 511 602 510.6 602 510Z" fill="#F3F8FF"/>
<path opacity="0.59" d="M584 510V502C584 501.4 584.4 501 585 501H593C593.6 501 594 501.4 594 502V510C594 510.6 593.6 511 593 511H585C584.4 511 584 510.6 584 510Z" fill="#F3F8FF"/>
<path opacity="0.59" d="M566 510V502C566 501.4 566.4 501 567 501H575C575.6 501 576 501.4 576 502V510C576 510.6 575.6 511 575 511H567C566.4 511 566 510.6 566 510Z" fill="#F3F8FF"/>
<path opacity="0.59" d="M548 510V502C548 501.4 548.4 501 549 501H557C557.6 501 558 501.4 558 502V510C558 510.6 557.6 511 557 511H549C548.4 511 548 510.6 548 510Z" fill="#F3F8FF"/>
<path opacity="0.59" d="M530 510V502C530 501.4 530.4 501 531 501H539C539.6 501 540 501.4 540 502V510C540 510.6 539.6 511 539 511H531C530.4 511 530 510.6 530 510Z" fill="#F3F8FF"/>
<path opacity="0.59" d="M512 510V502C512 501.4 512.4 501 513 501H521C521.6 501 522 501.4 522 502V510C522 510.6 521.6 511 521 511H513C512.4 511 512 510.6 512 510Z" fill="#F3F8FF"/>
<path opacity="0.59" d="M494 510V502C494 501.4 494.4 501 495 501H503C503.6 501 504 501.4 504 502V510C504 510.6 503.6 511 503 511H495C494.4 511 494 510.6 494 510Z" fill="#F3F8FF"/>
<path opacity="0.59" d="M476 510V502C476 501.4 476.4 501 477 501H485C485.6 501 486 501.4 486 502V510C486 510.6 485.6 511 485 511H477C476.4 511 476 510.6 476 510Z" fill="#F3F8FF"/>
<path opacity="0.59" d="M458 510V502C458 501.4 458.4 501 459 501H467C467.6 501 468 501.4 468 502V510C468 510.6 467.6 511 467 511H459C458.4 511 458 510.6 458 510Z" fill="#F3F8FF"/>
<path opacity="0.59" d="M440 510V502C440 501.4 440.4 501 441 501H449C449.6 501 450 501.4 450 502V510C450 510.6 449.6 511 449 511H441C440.4 511 440 510.6 440 510Z" fill="#F3F8FF"/>
<path opacity="0.59" d="M422 510V502C422 501.4 422.4 501 423 501H431C431.6 501 432 501.4 432 502V510C432 510.6 431.6 511 431 511H423C422.4 511 422 510.6 422 510Z" fill="#F3F8FF"/>
<path opacity="0.59" d="M404 510V502C404 501.4 404.4 501 405 501H413C413.6 501 414 501.4 414 502V510C414 510.6 413.6 511 413 511H405C404.4 511 404 510.6 404 510Z" fill="#F3F8FF"/>
<path opacity="0.59" d="M386 510V502C386 501.4 386.4 501 387 501H395C395.6 501 396 501.4 396 502V510C396 510.6 395.6 511 395 511H387C386.4 511 386 510.6 386 510Z" fill="#F3F8FF"/>
<path opacity="0.59" d="M593 528V520C593 519.4 593.4 519 594 519H611C611.6 519 612 519.4 612 520V528C612 528.6 611.6 529 611 529H594C593.4 529 593 528.6 593 528Z" fill="#F3F8FF"/>
<path opacity="0.59" d="M575 528V520C575 519.4 575.4 519 576 519H584C584.6 519 585 519.4 585 520V528C585 528.6 584.6 529 584 529H576C575.4 529 575 528.6 575 528Z" fill="#F3F8FF"/>
<path opacity="0.59" d="M557 528V520C557 519.4 557.4 519 558 519H566C566.6 519 567 519.4 567 520V528C567 528.6 566.6 529 566 529H558C557.4 529 557 528.6 557 528Z" fill="#F3F8FF"/>
<path opacity="0.59" d="M539 528V520C539 519.4 539.4 519 540 519H548C548.6 519 549 519.4 549 520V528C549 528.6 548.6 529 548 529H540C539.4 529 539 528.6 539 528Z" fill="#F3F8FF"/>
<path opacity="0.59" d="M521 528V520C521 519.4 521.4 519 522 519H530C530.6 519 531 519.4 531 520V528C531 528.6 530.6 529 530 529H522C521.4 529 521 528.6 521 528Z" fill="#F3F8FF"/>
<path opacity="0.59" d="M503 528V520C503 519.4 503.4 519 504 519H512C512.6 519 513 519.4 513 520V528C513 528.6 512.6 529 512 529H504C503.4 529 503 528.6 503 528Z" fill="#F3F8FF"/>
<path opacity="0.59" d="M485 528V520C485 519.4 485.4 519 486 519H494C494.6 519 495 519.4 495 520V528C495 528.6 494.6 529 494 529H486C485.4 529 485 528.6 485 528Z" fill="#F3F8FF"/>
<path opacity="0.59" d="M467 528V520C467 519.4 467.4 519 468 519H476C476.6 519 477 519.4 477 520V528C477 528.6 476.6 529 476 529H468C467.4 529 467 528.6 467 528Z" fill="#F3F8FF"/>
<path opacity="0.59" d="M449 528V520C449 519.4 449.4 519 450 519H458C458.6 519 459 519.4 459 520V528C459 528.6 458.6 529 458 529H450C449.4 529 449 528.6 449 528Z" fill="#F3F8FF"/>
<path opacity="0.59" d="M431 528V520C431 519.4 431.4 519 432 519H440C440.6 519 441 519.4 441 520V528C441 528.6 440.6 529 440 529H432C431.4 529 431 528.6 431 528Z" fill="#F3F8FF"/>
<path opacity="0.59" d="M413 528V520C413 519.4 413.4 519 414 519H422C422.6 519 423 519.4 423 520V528C423 528.6 422.6 529 422 529H414C413.4 529 413 528.6 413 528Z" fill="#F3F8FF"/>
<path opacity="0.59" d="M386 528V520C386 519.4 386.4 519 387 519H404C404.6 519 405 519.4 405 520V528C405 528.6 404.6 529 404 529H387C386.4 529 386 528.6 386 528Z" fill="#F3F8FF"/>
<path opacity="0.59" d="M575 564V556C575 555.4 575.4 555 576 555H611C611.6 555 612 555.4 612 556V564C612 564.6 611.6 565 611 565H576C575.4 565 575 564.6 575 564Z" fill="#F3F8FF"/>
<path opacity="0.59" d="M557 564V556C557 555.4 557.4 555 558 555H566C566.6 555 567 555.4 567 556V564C567 564.6 566.6 565 566 565H558C557.4 565 557 564.6 557 564Z" fill="#F3F8FF"/>
<path opacity="0.59" d="M539 564V556C539 555.4 539.4 555 540 555H548C548.6 555 549 555.4 549 556V564C549 564.6 548.6 565 548 565H540C539.4 565 539 564.6 539 564Z" fill="#F3F8FF"/>
<path opacity="0.59" d="M521 564V556C521 555.4 521.4 555 522 555H530C530.6 555 531 555.4 531 556V564C531 564.6 530.6 565 530 565H522C521.4 565 521 564.6 521 564Z" fill="#F3F8FF"/>
<path opacity="0.59" d="M503 564V556C503 555.4 503.4 555 504 555H512C512.6 555 513 555.4 513 556V564C513 564.6 512.6 565 512 565H504C503.4 565 503 564.6 503 564Z" fill="#F3F8FF"/>
<path opacity="0.59" d="M485 564V556C485 555.4 485.4 555 486 555H494C494.6 555 495 555.4 495 556V564C495 564.6 494.6 565 494 565H486C485.4 565 485 564.6 485 564Z" fill="#F3F8FF"/>
<path opacity="0.59" d="M467 564V556C467 555.4 467.4 555 468 555H476C476.6 555 477 555.4 477 556V564C477 564.6 476.6 565 476 565H468C467.4 565 467 564.6 467 564Z" fill="#F3F8FF"/>
<path opacity="0.59" d="M449 564V556C449 555.4 449.4 555 450 555H458C458.6 555 459 555.4 459 556V564C459 564.6 458.6 565 458 565H450C449.4 565 449 564.6 449 564Z" fill="#F3F8FF"/>
<path opacity="0.59" d="M431 564V556C431 555.4 431.4 555 432 555H440C440.6 555 441 555.4 441 556V564C441 564.6 440.6 565 440 565H432C431.4 565 431 564.6 431 564Z" fill="#F3F8FF"/>
<path opacity="0.59" d="M386 564V556C386 555.4 386.4 555 387 555H422C422.6 555 423 555.4 423 556V564C423 564.6 422.6 565 422 565H387C386.4 565 386 564.6 386 564Z" fill="#F3F8FF"/>
<path opacity="0.59" d="M584 546V538C584 537.4 584.4 537 585 537H611C611.6 537 612 537.4 612 538V546C612 546.6 611.6 547 611 547H585C584.4 547 584 546.6 584 546Z" fill="#F3F8FF"/>
<path opacity="0.59" d="M566 546V538C566 537.4 566.4 537 567 537H575C575.6 537 576 537.4 576 538V546C576 546.6 575.6 547 575 547H567C566.4 547 566 546.6 566 546Z" fill="#F3F8FF"/>
<path opacity="0.59" d="M548 546V538C548 537.4 548.4 537 549 537H557C557.6 537 558 537.4 558 538V546C558 546.6 557.6 547 557 547H549C548.4 547 548 546.6 548 546Z" fill="#F3F8FF"/>
<path opacity="0.59" d="M530 546V538C530 537.4 530.4 537 531 537H539C539.6 537 540 537.4 540 538V546C540 546.6 539.6 547 539 547H531C530.4 547 530 546.6 530 546Z" fill="#F3F8FF"/>
<path opacity="0.59" d="M512 546V538C512 537.4 512.4 537 513 537H521C521.6 537 522 537.4 522 538V546C522 546.6 521.6 547 521 547H513C512.4 547 512 546.6 512 546Z" fill="#F3F8FF"/>
<path opacity="0.59" d="M494 546V538C494 537.4 494.4 537 495 537H503C503.6 537 504 537.4 504 538V546C504 546.6 503.6 547 503 547H495C494.4 547 494 546.6 494 546Z" fill="#F3F8FF"/>
<path opacity="0.59" d="M476 546V538C476 537.4 476.4 537 477 537H485C485.6 537 486 537.4 486 538V546C486 546.6 485.6 547 485 547H477C476.4 547 476 546.6 476 546Z" fill="#F3F8FF"/>
<path opacity="0.59" d="M458 546V538C458 537.4 458.4 537 459 537H467C467.6 537 468 537.4 468 538V546C468 546.6 467.6 547 467 547H459C458.4 547 458 546.6 458 546Z" fill="#F3F8FF"/>
<path opacity="0.59" d="M440 546V538C440 537.4 440.4 537 441 537H449C449.6 537 450 537.4 450 538V546C450 546.6 449.6 547 449 547H441C440.4 547 440 546.6 440 546Z" fill="#F3F8FF"/>
<path opacity="0.59" d="M422 546V538C422 537.4 422.4 537 423 537H431C431.6 537 432 537.4 432 538V546C432 546.6 431.6 547 431 547H423C422.4 547 422 546.6 422 546Z" fill="#F3F8FF"/>
<path opacity="0.59" d="M386 546V538C386 537.4 386.4 537 387 537H413C413.6 537 414 537.4 414 538V546C414 546.6 413.6 547 413 547H387C386.4 547 386 546.6 386 546Z" fill="#F3F8FF"/>
<path opacity="0.59" d="M602 582V574C602 573.4 602.4 573 603 573H611C611.6 573 612 573.4 612 574V582C612 582.6 611.6 583 611 583H603C602.4 583 602 582.6 602 582Z" fill="#F3F8FF"/>
<path opacity="0.59" d="M584 582V574C584 573.4 584.4 573 585 573H593C593.6 573 594 573.4 594 574V582C594 582.6 593.6 583 593 583H585C584.4 583 584 582.6 584 582Z" fill="#F3F8FF"/>
<path opacity="0.59" d="M566 582V574C566 573.4 566.4 573 567 573H575C575.6 573 576 573.4 576 574V582C576 582.6 575.6 583 575 583H567C566.4 583 566 582.6 566 582Z" fill="#F3F8FF"/>
<path opacity="0.59" d="M548 582V574C548 573.4 548.4 573 549 573H557C557.6 573 558 573.4 558 574V582C558 582.6 557.6 583 557 583H549C548.4 583 548 582.6 548 582Z" fill="#F3F8FF"/>
<path opacity="0.59" d="M454.2 582V574C454.2 573.4 454.6 573 455.2 573H539C539.6 573 540 573.4 540 574V582C540 582.6 539.6 583 539 583H455.2C454.6 583 454.2 582.6 454.2 582Z" fill="#F3F8FF"/>
<path opacity="0.59" d="M422 582V574C422 573.4 422.4 573 423 573H445.2C445.8 573 446.2 573.4 446.2 574V582C446.2 582.6 445.8 583 445.2 583H423C422.4 583 422 582.6 422 582Z" fill="#F3F8FF"/>
<path opacity="0.59" d="M404 582V574C404 573.4 404.4 573 405 573H413C413.6 573 414 573.4 414 574V582C414 582.6 413.6 583 413 583H405C404.4 583 404 582.6 404 582Z" fill="#F3F8FF"/>
<path opacity="0.59" d="M386 582V574C386 573.4 386.4 573 387 573H395C395.6 573 396 573.4 396 574V582C396 582.6 395.6 583 395 583H387C386.4 583 386 582.6 386 582Z" fill="#F3F8FF"/>
</g>
<path d="M412.6 430.1C412.4 430.1 412.2 430.1 411.9 430.1C409.7 430.1 407.7 431.1 406.4 432.8H413.3C413 432 412.7 431.1 412.6 430.1Z" fill="#8DE57A"/>
<path d="M416.3 435.6C415.1 435 414.1 434 413.4 432.7H406.5C405.9 433.5 405.4 434.5 405.2 435.6H416.3Z" fill="#FFD261"/>
<path d="M416.3 435.6H405.1C405 436.1 405 436.5 405 437C405 437.5 405.1 438 405.2 438.4H418.8C418.9 437.9 419 437.5 419 437C419 436.8 419 436.6 419 436.3C418 436.3 417.1 436 416.3 435.6Z" fill="#FF795A"/>
<path d="M417.4 441.4C418.1 440.6 418.5 439.6 418.7 438.5H405.1C405.3 439.6 405.8 440.5 406.4 441.4H417.4Z" fill="#D856C9"/>
<path d="M412 444C414.2 444 416.2 443 417.5 441.3H406.6C407.8 443 409.7 444 412 444Z" fill="#6388E1"/>
<path d="M426.6 435.6H456.3" stroke="#31306B" stroke-width="4" stroke-miterlimit="10" stroke-linecap="round" stroke-linejoin="round"/>
<path d="M425.7 441.9H441.4" stroke="#31306B" stroke-width="2" stroke-miterlimit="10" stroke-linecap="round" stroke-linejoin="round"/>
<path d="M527 280.3C518 280.1 509 280 500 280C491 280 482 280.1 473 280.3" stroke="#31306B" stroke-width="6" stroke-miterlimit="10" stroke-linecap="round" stroke-linejoin="round"/>
<path d="M505.8 286.2H494.2C492.6 286.2 491.4 284.9 491.4 283.4V281.8C491.4 280.2 492.7 279 494.2 279H505.8C507.4 279 508.6 280.3 508.6 281.8V283.4C508.6 285 507.4 286.2 505.8 286.2Z" fill="#31306B"/>
</g>
<defs>
<clipPath id="clip0_1_1567">
<rect width="1000" height="1000" fill="white"/>
</clipPath>
</defs>
</svg>
