<svg width="1000" height="1000" viewBox="0 0 1000 1000" fill="none" xmlns="http://www.w3.org/2000/svg">
<g clip-path="url(#clip0_1_1498)">
<path d="M1000 0H0V1000H1000V0Z" fill="#94C474"/>
<path d="M768.9 535.8H717.5C715.3 535.8 713.5 534 713.5 531.8V440.8C713.5 438.6 715.3 436.8 717.5 436.8H768.9C771.1 436.8 772.9 438.6 772.9 440.8V531.8C772.9 534 771.1 535.8 768.9 535.8Z" fill="#F8F8F8"/>
<path opacity="0.81" d="M729.6 519.7L746.9 535.9H768.8C771 535.9 772.8 534.1 772.8 531.9V501.7L757 492.4L729.6 519.7Z" fill="#C1C1C1"/>
<path opacity="0.85" d="M753.1 481.3H732.5C730.3 481.3 728.5 479.5 728.5 477.3V456.7C728.5 454.5 730.3 452.7 732.5 452.7H753.1C755.3 452.7 757.1 454.5 757.1 456.7V477.3C757.1 479.5 755.3 481.3 753.1 481.3Z" fill="#DDDDDD"/>
<path d="M756.1 520.9H735.5C733.3 520.9 731.5 519.1 731.5 516.9V496.3C731.5 494.1 733.3 492.3 735.5 492.3H756.1C758.3 492.3 760.1 494.1 760.1 496.3V516.9C760.1 519.1 758.3 520.9 756.1 520.9Z" fill="#030303"/>
<path d="M745.1 512V553.1C745.1 559.6 750.4 564.9 756.9 564.9H770.6C777.1 564.9 782.4 570.2 782.4 576.7C782.4 583.2 777.1 588.5 770.6 588.5H621" stroke="black" stroke-width="8" stroke-miterlimit="10" stroke-linecap="round" stroke-linejoin="round"/>
<path d="M788.799 639.3H236.099C230.099 639.3 225.199 634.4 225.199 628.4V603.9C225.199 597.9 230.099 593 236.099 593H788.899C794.899 593 799.799 597.9 799.799 603.9V628.4C799.699 634.4 794.799 639.3 788.799 639.3Z" fill="#D17F4D"/>
<path d="M788.799 639.3H236.099C230.099 639.3 225.199 634.4 225.199 628.4V603.9C225.199 597.9 230.099 593 236.099 593H788.899C794.899 593 799.799 597.9 799.799 603.9V628.4C799.699 634.4 794.799 639.3 788.799 639.3Z" fill="#D17F4D"/>
<path d="M587.701 438.8H389.801V378C389.801 372.5 394.301 368 399.801 368H577.601C583.101 368 587.601 372.5 587.601 378V438.8H587.701Z" fill="#B3B3B3"/>
<path d="M581 438.8H383.1V378C383.1 372.5 387.6 368 393.1 368H571C576.5 368 581 372.5 581 378V438.8Z" fill="#D7D7D7"/>
<path d="M581 420.7L562.9 408.2V451H581V420.7Z" fill="#C1C1C1"/>
<path d="M553.801 438.8H414.801V338.9C414.801 335 417.901 331.9 421.801 331.9H547.801C551.101 331.9 553.801 334.6 553.801 337.9V438.8Z" fill="#E7E7E7"/>
<path d="M549.9 438.8H409V338.9C409 335 412.1 331.9 416 331.9H543.9C547.2 331.9 549.9 334.6 549.9 337.9V438.8Z" fill="#F8F8F8"/>
<path d="M398.3 451H368.9V420.2C368.9 413.6 374.3 408.2 380.9 408.2H398.3V451Z" fill="#DFE1E0"/>
<path d="M408.5 451H379.1V420.2C379.1 413.6 384.5 408.2 391.1 408.2H408.5V451Z" fill="#B3B3B3"/>
<path d="M552.701 451H523.301V420.2C523.301 413.6 528.701 408.2 535.301 408.2H552.701V451Z" fill="#DFE1E0"/>
<path d="M562.9 451H533.5V420.2C533.5 413.6 538.9 408.2 545.5 408.2H562.9V451Z" fill="#B3B3B3"/>
<path d="M408.5 408.2L470.3 451H426.6H408.5V408.2Z" fill="#C1C1C1"/>
<path d="M678.601 534.2H297.801V567.7H678.601V534.2Z" fill="#030303"/>
<path d="M569.1 493.4H300.6V574.8H569.1V493.4Z" fill="#272727"/>
<path d="M529.3 590.4H363.5V524.3H517.4V560.1L529.3 567.5V590.4Z" fill="black"/>
<path d="M523.1 510.1H391.6C380.8 510.1 372.1 518.8 372.1 529.6V568.6H390V534.7C390 529.9 393.9 526 398.7 526H415.6C418.3 526 420.5 528.2 420.5 530.9V533.2H439.9C441.2 533.2 442.2 532.1 442.2 530.9C442.2 528.2 444.4 526 447.1 526H467.8C470.5 526 472.7 528.2 472.7 530.9V533.2H492.1C493.4 533.2 494.4 532.1 494.4 530.9C494.4 528.2 496.6 526 499.3 526H516.2C521 526 524.9 529.9 524.9 534.7V544.7H542.8V529.6C542.6 518.8 533.9 510.1 523.1 510.1Z" fill="#212121"/>
<path d="M507.301 510.1H375.801C365.001 510.1 356.301 518.8 356.301 529.6V568.6H374.201V534.7C374.201 529.9 378.101 526 382.901 526H399.801C402.501 526 404.701 528.2 404.701 530.9C404.701 532.2 405.801 533.2 407.001 533.2H424.001C425.301 533.2 426.301 532.1 426.301 530.9C426.301 528.2 428.501 526 431.201 526H451.901C454.601 526 456.801 528.2 456.801 530.9C456.801 532.2 457.901 533.2 459.101 533.2H476.101C477.401 533.2 478.401 532.1 478.401 530.9C478.401 528.2 480.601 526 483.301 526H500.201C505.001 526 508.901 529.9 508.901 534.7V544.7H526.801V529.6C526.801 518.8 518.001 510.1 507.301 510.1Z" fill="#4C4C4C"/>
<path d="M506.001 564.6H346.801V593H509.701H544.901C528.901 593 510.801 581.7 506.001 564.6Z" fill="#272727"/>
<path d="M503.699 568.8L505.899 564.6H481.299L478.699 570.4L503.699 568.8Z" fill="#212121"/>
<path d="M503.699 568.8H345.699V593H508.599H543.799C527.799 593 508.499 583.4 503.699 568.8Z" fill="#4C4C4C"/>
<path opacity="0.2" d="M488.4 558.2H371.5C358.3 558.2 347.5 568.9 347.5 582.2V600.8V618.6C347.5 623.6 351.6 627.7 356.6 627.7H470.8C480.5 627.7 488.4 619.8 488.4 610.1V587.1C488.4 573.9 499.1 563.1 512.4 563.1H520.1V558.2H488.4Z" fill="#020202"/>
<path d="M652.2 438.9H324.2C304.8 438.9 289 454.7 289 474.1V547.8H345.9V528C345.9 518.3 353.8 510.4 363.5 510.4H491.2C500.9 510.4 508.8 518.3 508.8 528V547.8H687.4V474.1C687.4 454.7 671.6 438.9 652.2 438.9Z" fill="#3E3E3E"/>
<path d="M687.4 547.9V474.2C687.4 454.8 671.6 439 652.2 439H601.6C582.2 439 566.4 454.8 566.4 474.2V547.9H687.4Z" fill="#2C2C2C"/>
<path d="M679.699 547.9V474.2C679.699 460.8 668.799 450 655.499 450H604.899C591.499 450 580.699 460.9 580.699 474.2V547.9H679.699Z" fill="#3E3E3E"/>
<path d="M676.4 547.9V474.2C676.4 460.8 665.5 450 652.2 450H601.6C588.2 450 577.4 460.9 577.4 474.2V547.9H676.4Z" fill="#121212"/>
<path d="M788.801 639.3H636.701C630.701 639.3 625.801 634.4 625.801 628.4V603.9C625.801 597.9 630.701 593 636.701 593H788.801C794.801 593 799.701 597.9 799.701 603.9V628.4C799.701 634.4 794.801 639.3 788.801 639.3Z" fill="#A55137"/>
<path d="M422.8 542.2H407.9V550.5H422.8V542.2Z" fill="#212121"/>
<path d="M483.8 542.2H468.9V550.5H483.8V542.2Z" fill="#212121"/>
<path d="M409.599 542.2H394.699V550.5H409.599V542.2Z" fill="#4C4C4C"/>
<path d="M470.5 542.2H455.6V547.9H470.5V542.2Z" fill="#4C4C4C"/>
<path d="M470.5 547.4H409.6V550.5H470.5V547.4Z" fill="#4C4C4C"/>
<path d="M547.999 438.9H321.699V442C321.699 460.6 336.799 475.7 355.399 475.7H514.199C532.799 475.7 547.899 460.6 547.899 442V438.9H547.999Z" fill="#4C4C4C"/>
<path d="M355.4 468.1H514.2C531.3 468.1 545.4 455.4 547.6 438.9H322C324.2 455.4 338.3 468.1 355.4 468.1Z" fill="#0E0E0E"/>
<path d="M368.9 460.2H359.8C358.6 460.2 357.6 459.2 357.6 458V457.6C357.6 456.4 358.6 455.4 359.8 455.4H368.9C370.1 455.4 371.1 456.4 371.1 457.6V458C371.1 459.2 370.1 460.2 368.9 460.2Z" fill="#17E09C"/>
<path d="M379 460.2H376.7C375.5 460.2 374.5 459.2 374.5 458V457.6C374.5 456.4 375.5 455.4 376.7 455.4H379C380.2 455.4 381.2 456.4 381.2 457.6V458C381.2 459.2 380.2 460.2 379 460.2Z" fill="#932B3A"/>
<path d="M509.1 457.4H433.7C430.9 457.4 428.6 455.1 428.6 452.3V451.3C428.6 448.5 430.9 446.2 433.7 446.2H509.1C511.9 446.2 514.2 448.5 514.2 451.3V452.3C514.1 455.1 511.9 457.4 509.1 457.4Z" fill="#1F1F1F"/>
<path d="M449 457.4H433.7C430.9 457.4 428.6 455.1 428.6 452.3V451.3C428.6 448.5 430.9 446.2 433.7 446.2H449C451.8 446.2 454.1 448.5 454.1 451.3V452.3C454.1 455.1 451.8 457.4 449 457.4Z" fill="#313131"/>
<path d="M453.9 475.8H382.6C380.7 475.8 379.1 474.2 379.1 472.3V471.6C379.1 469.7 380.7 468.1 382.6 468.1H453.9C455.8 468.1 457.4 469.7 457.4 471.6V472.3C457.4 474.2 455.8 475.8 453.9 475.8Z" fill="#5A5A5A"/>
<path d="M410.2 475.8H392.6C390.7 475.8 389.1 474.2 389.1 472.3V471.6C389.1 469.7 390.7 468.1 392.6 468.1H410.2C412.1 468.1 413.7 469.7 413.7 471.6V472.3C413.7 474.2 412.1 475.8 410.2 475.8Z" fill="#676767"/>
<path d="M345.9 553.4H289V557.8C289 577.2 304.8 593 324.2 593H345.8V553.4H345.9Z" fill="#3E3E3E"/>
<path d="M336.199 564.4H298.699C296.799 564.4 295.199 562.8 295.199 560.9V560.2C295.199 558.3 296.799 556.7 298.699 556.7H336.199C338.099 556.7 339.699 558.3 339.699 560.2V560.9C339.699 562.8 338.099 564.4 336.199 564.4Z" fill="#4D4D4D"/>
<path d="M523.3 455.9C525.344 455.9 527 454.243 527 452.2C527 450.157 525.344 448.5 523.3 448.5C521.257 448.5 519.6 450.157 519.6 452.2C519.6 454.243 521.257 455.9 523.3 455.9Z" fill="#BA8F1C"/>
<path d="M477.4 550.4H360.5C347.3 550.4 336.5 561.1 336.5 574.4V593H407.9V620H459.7C469.4 620 477.3 612.1 477.3 602.4V579.4C477.3 566.2 488 555.4 501.3 555.4H517.5V550.5H477.4V550.4Z" fill="#F8F8F8"/>
<path opacity="0.85" d="M396.7 563.3H363.6C362.2 563.3 361.1 562.2 361.1 560.8V560.3C361.1 558.9 362.2 557.8 363.6 557.8H396.7C398.1 557.8 399.2 558.9 399.2 560.3V560.8C399.2 562.2 398.1 563.3 396.7 563.3Z" fill="#DDDDDD"/>
<path opacity="0.85" d="M421.099 563.3H404.699C403.299 563.3 402.199 562.2 402.199 560.8V560.3C402.199 558.9 403.299 557.8 404.699 557.8H421.099C422.499 557.8 423.599 558.9 423.599 560.3V560.8C423.599 562.2 422.499 563.3 421.099 563.3Z" fill="#DDDDDD"/>
<path opacity="0.85" d="M449.8 563.3H433.4C432 563.3 430.9 562.2 430.9 560.8V560.3C430.9 558.9 432 557.8 433.4 557.8H449.8C451.2 557.8 452.3 558.9 452.3 560.3V560.8C452.3 562.2 451.1 563.3 449.8 563.3Z" fill="#DDDDDD"/>
<path opacity="0.85" d="M406.8 574.8H357.6C356.2 574.8 355.1 573.7 355.1 572.3V571.8C355.1 570.4 356.2 569.3 357.6 569.3H406.8C408.2 569.3 409.3 570.4 409.3 571.8V572.3C409.3 573.7 408.2 574.8 406.8 574.8Z" fill="#DDDDDD"/>
<path opacity="0.85" d="M443.4 574.8H422C420.6 574.8 419.5 573.7 419.5 572.3V571.8C419.5 570.4 420.6 569.3 422 569.3H443.4C444.8 569.3 445.9 570.4 445.9 571.8V572.3C445.9 573.7 444.8 574.8 443.4 574.8Z" fill="#DDDDDD"/>
<path d="M445.501 602.4V597.5C445.501 593.6 442.301 590.5 438.501 590.5H328.801C324.901 590.5 321.801 593.7 321.801 597.5V602.4C321.801 612.1 329.701 620 339.401 620H462.701C453.101 619.7 445.501 611.9 445.501 602.4Z" fill="#E7E7E7"/>
<path d="M788.801 639.3H636.701C630.701 639.3 625.801 634.4 625.801 628.4V603.9C625.801 597.9 630.701 593 636.701 593H788.801C794.801 593 799.701 597.9 799.701 603.9V628.4C799.701 634.4 794.801 639.3 788.801 639.3Z" fill="#A55137"/>
<path d="M508.699 553.4V557.8C508.699 577.2 524.499 593 543.899 593H652.099C671.499 593 687.299 577.2 687.299 557.8V553.4H508.699Z" fill="#3E3E3E"/>
<path d="M566.301 553.4V557.8C566.301 577.2 582.101 593 601.501 593H652.101C671.501 593 687.301 577.2 687.301 557.8V553.4H566.301Z" fill="#2C2C2C"/>
<path d="M580.6 553.4V557.8C580.6 571.2 591.5 582 604.8 582H655.4C668.8 582 679.6 571.1 679.6 557.8V553.4H580.6Z" fill="#3E3E3E"/>
<path d="M577.301 553.4V557.8C577.301 571.2 588.201 582 601.501 582H652.101C665.501 582 676.301 571.1 676.301 557.8V553.4H577.301Z" fill="#121212"/>
<path d="M555.5 564.4H518C516.1 564.4 514.5 562.8 514.5 560.9V560.2C514.5 558.3 516.1 556.7 518 556.7H555.5C557.4 556.7 559 558.3 559 560.2V560.9C559 562.8 557.4 564.4 555.5 564.4Z" fill="#4D4D4D"/>
<path d="M434.7 502.9H422C420.1 502.9 418.6 501.4 418.6 499.5V489.7C418.6 487.8 420.1 486.3 422 486.3H434.7C436.6 486.3 438.1 487.8 438.1 489.7V499.5C438.1 501.4 436.6 502.9 434.7 502.9Z" fill="#0E0E0E"/>
<path d="M431.401 502.9H418.701C416.801 502.9 415.301 501.4 415.301 499.5V489.7C415.301 487.8 416.801 486.3 418.701 486.3H431.401C433.301 486.3 434.801 487.8 434.801 489.7V499.5C434.801 501.4 433.301 502.9 431.401 502.9Z" fill="#B3B3B3"/>
<g opacity="0.54">
<path opacity="0.54" d="M739.8 472H736.4C735.9 472 735.6 471.6 735.6 471.2V469.8C735.6 469.3 736 469 736.4 469H739.8C740.3 469 740.6 469.4 740.6 469.8V471.2C740.6 471.7 740.2 472 739.8 472Z" fill="#0E0E0E"/>
<path opacity="0.54" d="M749.2 472H745.8C745.3 472 745 471.6 745 471.2V469.8C745 469.3 745.4 469 745.8 469H749.2C749.7 469 750 469.4 750 469.8V471.2C750.1 471.7 749.7 472 749.2 472Z" fill="#0E0E0E"/>
</g>
<path opacity="0.54" d="M743.799 460.6H741.699V463.5H743.799V460.6Z" fill="#0E0E0E"/>
<path d="M753.1 520.9H732.5C730.3 520.9 728.5 519.1 728.5 516.9V496.3C728.5 494.1 730.3 492.3 732.5 492.3H753.1C755.3 492.3 757.1 494.1 757.1 496.3V516.9C757.1 519.1 755.3 520.9 753.1 520.9Z" fill="#121212"/>
</g>
<defs>
<clipPath id="clip0_1_1498">
<rect width="1000" height="1000" fill="white"/>
</clipPath>
</defs>
</svg>
