<svg width="375" height="251" viewBox="0 0 375 251" fill="none" xmlns="http://www.w3.org/2000/svg">
<g filter="url(#filter0_d_1853_51594)">
<rect x="192.698" width="95.6022" height="95.6022" rx="30" transform="rotate(20 192.698 0)" fill="#512DED"/>
<rect x="251.702" y="128.465" width="95.6022" height="95.6022" rx="30" transform="rotate(20 251.702 128.465)" fill="#5ED1BC"/>
<rect x="284.565" y="35.1039" width="95.6022" height="95.6022" rx="30" transform="rotate(20 284.565 35.1039)" fill="url(#paint0_linear_1853_51594)"/>
<path d="M62.207 134.516C62.207 138.845 61.084 142.735 58.8379 146.186C56.6243 149.636 53.3691 152.338 49.0723 154.291C44.7754 156.244 39.681 157.221 33.7891 157.221C26.7253 157.221 20.8984 155.886 16.3086 153.217C13.0534 151.296 10.4004 148.741 8.34961 145.551C6.33138 142.328 5.32227 139.203 5.32227 136.176C5.32227 134.418 5.92448 132.921 7.12891 131.684C8.36589 130.414 9.92839 129.779 11.8164 129.779C13.3464 129.779 14.6322 130.268 15.6738 131.244C16.748 132.221 17.6595 133.669 18.4082 135.59C19.3197 137.868 20.2962 139.773 21.3379 141.303C22.4121 142.833 23.9095 144.102 25.8301 145.111C27.7507 146.088 30.2734 146.576 33.3984 146.576C37.6953 146.576 41.1784 145.583 43.8477 143.598C46.5495 141.579 47.9004 139.073 47.9004 136.078C47.9004 133.702 47.168 131.781 45.7031 130.316C44.2708 128.819 42.3991 127.68 40.0879 126.898C37.8092 126.117 34.7493 125.287 30.9082 124.408C25.765 123.204 21.4518 121.804 17.9688 120.209C14.5182 118.581 11.7676 116.384 9.7168 113.617C7.69857 110.818 6.68945 107.351 6.68945 103.217C6.68945 99.278 7.76367 95.7786 9.91211 92.7188C12.0605 89.6589 15.1693 87.3151 19.2383 85.6875C23.3073 84.0273 28.0924 83.1973 33.5938 83.1973C37.9883 83.1973 41.7806 83.7507 44.9707 84.8574C48.1934 85.9316 50.8626 87.3802 52.9785 89.2031C55.0944 90.9935 56.6406 92.8815 57.6172 94.8672C58.5938 96.8529 59.082 98.7897 59.082 100.678C59.082 102.403 58.4635 103.965 57.2266 105.365C56.0221 106.732 54.5085 107.416 52.6855 107.416C51.0254 107.416 49.7559 107.009 48.877 106.195C48.0306 105.349 47.1029 103.982 46.0938 102.094C44.7917 99.3919 43.2292 97.2923 41.4062 95.7949C39.5833 94.265 36.6536 93.5 32.6172 93.5C28.8737 93.5 25.8464 94.3301 23.5352 95.9902C21.2565 97.6178 20.1172 99.5872 20.1172 101.898C20.1172 103.331 20.5078 104.568 21.2891 105.609C22.0703 106.651 23.1445 107.546 24.5117 108.295C25.8789 109.044 27.2624 109.63 28.6621 110.053C30.0618 110.476 32.373 111.094 35.5957 111.908C39.6322 112.852 43.278 113.894 46.5332 115.033C49.821 116.173 52.6042 117.556 54.8828 119.184C57.194 120.811 58.9844 122.878 60.2539 125.385C61.556 127.859 62.207 130.902 62.207 134.516ZM85.6934 110.395V112.006C88.0371 108.913 90.5924 106.651 93.3594 105.219C96.1589 103.754 99.3652 103.021 102.979 103.021C106.494 103.021 109.635 103.786 112.402 105.316C115.169 106.846 117.236 109.011 118.604 111.811C119.482 113.438 120.052 115.196 120.312 117.084C120.573 118.972 120.703 121.381 120.703 124.311V149.115C120.703 151.785 120.085 153.803 118.848 155.17C117.643 156.537 116.064 157.221 114.111 157.221C112.126 157.221 110.514 156.521 109.277 155.121C108.04 153.721 107.422 151.719 107.422 149.115V126.898C107.422 122.504 106.803 119.151 105.566 116.84C104.362 114.496 101.937 113.324 98.291 113.324C95.9147 113.324 93.75 114.04 91.7969 115.473C89.8438 116.872 88.4115 118.809 87.5 121.283C86.849 123.269 86.5234 126.98 86.5234 132.416V149.115C86.5234 151.817 85.8887 153.852 84.6191 155.219C83.3822 156.553 81.7708 157.221 79.7852 157.221C77.8646 157.221 76.2858 156.521 75.0488 155.121C73.8118 153.721 73.1934 151.719 73.1934 149.115V110.59C73.1934 108.051 73.7467 106.163 74.8535 104.926C75.9603 103.656 77.474 103.021 79.3945 103.021C80.5664 103.021 81.6243 103.298 82.5684 103.852C83.5124 104.405 84.2611 105.235 84.8145 106.342C85.4004 107.449 85.6934 108.799 85.6934 110.395ZM183.936 130.121C183.936 134.092 183.317 137.755 182.08 141.107C180.843 144.46 179.053 147.341 176.709 149.75C174.365 152.159 171.566 154.014 168.311 155.316C165.055 156.586 161.393 157.221 157.324 157.221C153.288 157.221 149.658 156.57 146.436 155.268C143.213 153.965 140.413 152.11 138.037 149.701C135.693 147.26 133.903 144.395 132.666 141.107C131.462 137.787 130.859 134.125 130.859 130.121C130.859 126.085 131.478 122.39 132.715 119.037C133.952 115.684 135.726 112.82 138.037 110.443C140.348 108.067 143.148 106.244 146.436 104.975C149.723 103.673 153.353 103.021 157.324 103.021C161.361 103.021 165.023 103.673 168.311 104.975C171.598 106.277 174.414 108.132 176.758 110.541C179.102 112.95 180.876 115.814 182.08 119.135C183.317 122.455 183.936 126.117 183.936 130.121ZM170.557 130.121C170.557 124.685 169.352 120.453 166.943 117.426C164.567 114.398 161.361 112.885 157.324 112.885C154.72 112.885 152.425 113.568 150.439 114.936C148.454 116.27 146.924 118.256 145.85 120.893C144.775 123.529 144.238 126.605 144.238 130.121C144.238 133.604 144.759 136.648 145.801 139.252C146.875 141.856 148.389 143.858 150.342 145.258C152.327 146.625 154.655 147.309 157.324 147.309C161.361 147.309 164.567 145.795 166.943 142.768C169.352 139.708 170.557 135.492 170.557 130.121ZM238.818 131.098V148.822C238.818 151.622 238.184 153.721 236.914 155.121C235.645 156.521 233.968 157.221 231.885 157.221C229.867 157.221 228.223 156.521 226.953 155.121C225.716 153.721 225.098 151.622 225.098 148.822V127.582C225.098 124.229 224.984 121.625 224.756 119.77C224.528 117.914 223.91 116.4 222.9 115.229C221.891 114.024 220.296 113.422 218.115 113.422C213.753 113.422 210.872 114.919 209.473 117.914C208.105 120.909 207.422 125.206 207.422 130.805V148.822C207.422 151.589 206.787 153.689 205.518 155.121C204.281 156.521 202.637 157.221 200.586 157.221C198.568 157.221 196.908 156.521 195.605 155.121C194.336 153.689 193.701 151.589 193.701 148.822V110.688C193.701 108.181 194.271 106.277 195.41 104.975C196.582 103.673 198.112 103.021 200 103.021C201.823 103.021 203.337 103.64 204.541 104.877C205.778 106.081 206.396 107.758 206.396 109.906V111.176C208.708 108.409 211.182 106.374 213.818 105.072C216.455 103.77 219.385 103.119 222.607 103.119C225.96 103.119 228.841 103.786 231.25 105.121C233.659 106.456 235.645 108.474 237.207 111.176C239.453 108.441 241.862 106.423 244.434 105.121C247.005 103.786 249.854 103.119 252.979 103.119C256.624 103.119 259.766 103.835 262.402 105.268C265.039 106.7 267.008 108.751 268.311 111.42C269.45 113.829 270.02 117.621 270.02 122.797V148.822C270.02 151.622 269.385 153.721 268.115 155.121C266.846 156.521 265.169 157.221 263.086 157.221C261.068 157.221 259.408 156.521 258.105 155.121C256.836 153.689 256.201 151.589 256.201 148.822V126.41C256.201 123.546 256.071 121.251 255.811 119.525C255.583 117.8 254.932 116.352 253.857 115.18C252.783 114.008 251.156 113.422 248.975 113.422C247.217 113.422 245.54 113.943 243.945 114.984C242.383 116.026 241.162 117.426 240.283 119.184C239.307 121.43 238.818 125.401 238.818 131.098Z" fill="white"/>
<path d="M58.8379 146.186L56.3236 144.549L56.3182 144.557L56.3128 144.566L58.8379 146.186ZM16.3086 153.217L14.7841 155.801L14.7923 155.805L14.8004 155.81L16.3086 153.217ZM8.34961 145.551L5.80706 147.143L5.81648 147.158L5.82607 147.173L8.34961 145.551ZM7.12891 131.684L4.98022 129.59L4.97949 129.591L7.12891 131.684ZM15.6738 131.244L13.622 133.433L13.6388 133.448L13.6558 133.464L15.6738 131.244ZM18.4082 135.59L15.6131 136.679L15.6179 136.692L15.6228 136.704L18.4082 135.59ZM21.3379 141.303L18.8581 142.991L18.8702 143.009L18.8827 143.027L21.3379 141.303ZM25.8301 145.111L24.4347 147.767L24.4525 147.776L24.4703 147.785L25.8301 145.111ZM43.8477 143.598L45.6383 146.005L45.643 146.001L43.8477 143.598ZM45.7031 130.316L43.5352 132.39L43.5582 132.414L43.5818 132.438L45.7031 130.316ZM40.0879 126.898L39.1149 129.736L39.1272 129.74L40.0879 126.898ZM30.9082 124.408L30.2242 127.329L30.2316 127.331L30.2391 127.333L30.9082 124.408ZM17.9688 120.209L16.6889 122.922L16.7042 122.93L16.7197 122.937L17.9688 120.209ZM9.7168 113.617L7.28327 115.372L7.29484 115.388L7.30663 115.404L9.7168 113.617ZM9.91211 92.7188L12.3673 94.4426L9.91211 92.7188ZM19.2383 85.6875L20.3525 88.4729L20.362 88.4691L20.3716 88.4652L19.2383 85.6875ZM44.9707 84.8574L43.9874 87.6917L44.0047 87.6977L44.022 87.7035L44.9707 84.8574ZM52.9785 89.2031L51.0204 91.476L51.0305 91.4847L51.0407 91.4933L52.9785 89.2031ZM57.2266 105.365L54.9786 103.379L54.9755 103.382L57.2266 105.365ZM48.877 106.195L46.7556 108.317L46.7964 108.357L46.8387 108.397L48.877 106.195ZM46.0938 102.094L43.3912 103.396L43.4184 103.453L43.448 103.508L46.0938 102.094ZM41.4062 95.7949L39.4776 98.0928L39.4898 98.103L39.502 98.1131L41.4062 95.7949ZM23.5352 95.9902L25.2789 98.4314L25.2854 98.4268L23.5352 95.9902ZM21.2891 105.609L23.6891 103.809L21.2891 105.609ZM35.5957 111.908L34.8612 114.817L34.8868 114.823L34.9125 114.829L35.5957 111.908ZM46.5332 115.033L45.5421 117.865L45.5509 117.868L46.5332 115.033ZM54.8828 119.184L53.1391 121.625L53.1473 121.631L53.1555 121.636L54.8828 119.184ZM60.2539 125.385L57.5776 126.74L57.5882 126.761L57.5992 126.782L60.2539 125.385ZM59.207 134.516C59.207 138.295 58.236 141.611 56.3236 144.549L61.3521 147.822C63.932 143.859 65.207 139.395 65.207 134.516H59.207ZM56.3128 144.566C54.4563 147.46 51.6833 149.809 47.8309 151.56L50.3137 157.022C55.055 154.867 58.7924 151.812 61.363 147.805L56.3128 144.566ZM47.8309 151.56C44.008 153.298 39.356 154.221 33.7891 154.221V160.221C40.006 160.221 45.5427 159.191 50.3137 157.022L47.8309 151.56ZM33.7891 154.221C27.0856 154.221 21.8215 152.952 17.8168 150.623L14.8004 155.81C19.9754 158.82 26.3649 160.221 33.7891 160.221V154.221ZM17.833 150.633C14.9828 148.951 12.6715 146.726 10.8731 143.929L5.82607 147.173C8.12933 150.756 11.124 153.641 14.7841 155.801L17.833 150.633ZM10.8922 143.958C9.09678 141.092 8.32227 138.512 8.32227 136.176H2.32227C2.32227 139.894 3.56598 143.565 5.80706 147.143L10.8922 143.958ZM8.32227 136.176C8.32227 135.184 8.63024 134.442 9.27832 133.776L4.97949 129.591C3.21871 131.399 2.32227 133.652 2.32227 136.176H8.32227ZM9.27759 133.777C9.9102 133.128 10.6789 132.779 11.8164 132.779V126.779C9.17792 126.779 6.82157 127.7 4.98022 129.59L9.27759 133.777ZM11.8164 132.779C12.6439 132.779 13.1785 133.017 13.622 133.433L17.7257 129.056C16.0859 127.518 14.0488 126.779 11.8164 126.779V132.779ZM13.6558 133.464C14.2742 134.026 14.9666 135.021 15.6131 136.679L21.2033 134.5C20.3524 132.317 19.2219 130.415 17.6918 129.024L13.6558 133.464ZM15.6228 136.704C16.5906 139.123 17.6619 141.234 18.8581 142.991L23.8177 139.614C22.9306 138.311 22.0488 136.613 21.1936 134.476L15.6228 136.704ZM18.8827 143.027C20.272 145.005 22.1597 146.572 24.4347 147.767L27.2255 142.456C25.6593 141.633 24.5522 140.66 23.7931 139.579L18.8827 143.027ZM24.4703 147.785C26.9587 149.051 29.9985 149.576 33.3984 149.576V143.576C30.5484 143.576 28.5426 143.125 27.1898 142.437L24.4703 147.785ZM33.3984 149.576C38.1517 149.576 42.3181 148.475 45.6382 146.005L42.0571 141.191C40.0387 142.692 37.2389 143.576 33.3984 143.576V149.576ZM45.643 146.001C48.9933 143.498 50.9004 140.148 50.9004 136.078H44.9004C44.9004 137.998 44.1056 139.66 42.0523 141.194L45.643 146.001ZM50.9004 136.078C50.9004 133.033 49.9358 130.306 47.8244 128.195L43.5818 132.438C44.4002 133.256 44.9004 134.37 44.9004 136.078H50.9004ZM47.8711 128.243C46.0496 126.338 43.737 124.965 41.0486 124.056L39.1272 129.74C41.0611 130.394 42.4921 131.3 43.5352 132.39L47.8711 128.243ZM41.0609 124.061C38.6402 123.231 35.4656 122.373 31.5774 121.484L30.2391 127.333C34.0331 128.201 36.9783 129.004 39.1149 129.736L41.0609 124.061ZM31.5922 121.487C26.576 120.313 22.4659 118.969 19.2178 117.481L16.7197 122.937C20.4378 124.639 24.9539 126.095 30.2242 127.329L31.5922 121.487ZM19.2486 117.496C16.1964 116.056 13.8524 114.159 12.127 111.831L7.30663 115.404C9.68271 118.609 12.8401 121.107 16.6889 122.922L19.2486 117.496ZM12.1503 111.863C10.5686 109.669 9.68945 106.849 9.68945 103.217H3.68945C3.68945 107.853 4.82853 111.967 7.28327 115.372L12.1503 111.863ZM9.68945 103.217C9.68945 99.86 10.593 96.9697 12.3673 94.4426L7.45687 90.9949C4.93432 94.5876 3.68945 98.696 3.68945 103.217H9.68945ZM12.3673 94.4426C14.127 91.9365 16.7291 89.9223 20.3525 88.4729L18.1241 82.9021C13.6095 84.7079 9.99412 87.3812 7.45687 90.9949L12.3673 94.4426ZM20.3716 88.4652C24.0026 86.9837 28.3867 86.1973 33.5938 86.1973V80.1973C27.7982 80.1973 22.6119 81.071 18.105 82.9098L20.3716 88.4652ZM33.5938 86.1973C37.7489 86.1973 41.1926 86.7221 43.9874 87.6917L45.954 82.0232C42.3686 80.7792 38.2276 80.1973 33.5938 80.1973V86.1973ZM44.022 87.7035C46.9521 88.6802 49.257 89.9567 51.0204 91.476L54.9366 86.9303C52.4683 84.8037 49.4346 83.1831 45.9194 82.0114L44.022 87.7035ZM51.0407 91.4933C52.9184 93.0821 54.1706 94.657 54.9251 96.1911L60.3092 93.5432C59.1106 91.106 57.2704 88.9049 54.9163 86.913L51.0407 91.4933ZM54.9251 96.1911C55.7338 97.8354 56.082 99.3214 56.082 100.678H62.082C62.082 98.258 61.4537 95.8703 60.3092 93.5432L54.9251 96.1911ZM56.082 100.678C56.082 101.608 55.7744 102.478 54.9786 103.379L59.4745 107.352C61.1527 105.453 62.082 103.198 62.082 100.678H56.082ZM54.9755 103.382C54.3409 104.102 53.6474 104.416 52.6855 104.416V110.416C55.3696 110.416 57.7034 109.362 59.4776 107.348L54.9755 103.382ZM52.6855 104.416C51.4874 104.416 51.0562 104.125 50.9152 103.994L46.8387 108.397C48.4555 109.894 50.5634 110.416 52.6855 110.416V104.416ZM50.9983 104.074C50.4635 103.539 49.7007 102.478 48.7395 100.68L43.448 103.508C44.505 105.486 45.5977 107.159 46.7556 108.317L50.9983 104.074ZM48.7963 100.791C47.3546 97.7999 45.5485 95.3151 43.3105 93.4767L39.502 98.1131C40.9099 99.2695 42.2287 100.984 43.3912 103.396L48.7963 100.791ZM43.3349 93.497C40.7058 91.2905 36.9094 90.5 32.6172 90.5V96.5C36.3979 96.5 38.4609 97.2395 39.4776 98.0928L43.3349 93.497ZM32.6172 90.5C28.4424 90.5 24.7456 91.427 21.785 93.5537L25.2854 98.4268C26.9471 97.2331 29.305 96.5 32.6172 96.5V90.5ZM21.7914 93.549C18.913 95.605 17.1172 98.4077 17.1172 101.898H23.1172C23.1172 100.767 23.6 99.6306 25.2789 98.4314L21.7914 93.549ZM17.1172 101.898C17.1172 103.911 17.6792 105.796 18.8891 107.409L23.6891 103.809C23.3365 103.339 23.1172 102.75 23.1172 101.898H17.1172ZM18.8891 107.409C19.9726 108.854 21.4011 110.012 23.0708 110.926L25.9527 105.664C24.888 105.081 24.168 104.448 23.6891 103.809L18.8891 107.409ZM23.0708 110.926C24.6081 111.768 26.1829 112.437 27.7939 112.924L29.5303 107.181C28.3419 106.822 27.1497 106.319 25.9527 105.664L23.0708 110.926ZM27.7939 112.924C29.2657 113.369 31.6354 114.002 34.8612 114.817L36.3302 109C33.1107 108.187 30.858 107.583 29.5303 107.181L27.7939 112.924ZM34.9125 114.829C38.8649 115.754 42.4056 116.767 45.5422 117.865L47.5243 112.202C44.1504 111.021 40.3995 109.951 36.2789 108.987L34.9125 114.829ZM45.5509 117.868C48.6302 118.935 51.1427 120.199 53.1391 121.625L56.6265 116.742C54.0657 114.913 51.0117 113.41 47.5155 112.199L45.5509 117.868ZM53.1555 121.636C55.0679 122.983 56.5313 124.674 57.5776 126.74L62.9302 124.029C61.4375 121.082 59.3201 118.639 56.6101 116.731L53.1555 121.636ZM57.5992 126.782C58.6179 128.718 59.207 131.251 59.207 134.516H65.207C65.207 130.554 64.4941 127 62.9087 123.988L57.5992 126.782ZM85.6934 112.006H82.6934V120.931L88.0843 113.818L85.6934 112.006ZM93.3594 105.219L94.7385 107.883L94.7502 107.877L93.3594 105.219ZM112.402 105.316L113.854 102.691L112.402 105.316ZM118.604 111.811L115.908 113.127L115.935 113.182L115.964 113.236L118.604 111.811ZM118.848 155.17L116.623 153.157L116.61 153.172L116.597 153.187L118.848 155.17ZM105.566 116.84L102.898 118.211L102.91 118.233L102.921 118.255L105.566 116.84ZM91.7969 115.473L93.5444 117.911L93.5578 117.902L93.571 117.892L91.7969 115.473ZM87.5 121.283L84.685 120.246L84.6662 120.297L84.6493 120.349L87.5 121.283ZM84.6191 155.219L82.4208 153.177L82.4188 153.179L84.6191 155.219ZM74.8535 104.926L77.0892 106.926L77.1021 106.912L77.1148 106.897L74.8535 104.926ZM82.5684 103.852L84.0855 101.263L82.5684 103.852ZM84.8145 106.342L82.1312 107.683L82.1468 107.715L82.1631 107.745L84.8145 106.342ZM82.6934 110.395V112.006H88.6934V110.395H82.6934ZM88.0843 113.818C90.2229 110.996 92.4531 109.066 94.7385 107.883L91.9803 102.555C88.7318 104.236 85.8513 106.831 83.3025 110.194L88.0843 113.818ZM94.7502 107.877C97.0624 106.667 99.7796 106.021 102.979 106.021V100.021C98.9509 100.021 95.2553 100.841 91.9685 102.561L94.7502 107.877ZM102.979 106.021C106.044 106.021 108.676 106.684 110.951 107.942L113.854 102.691C110.595 100.889 106.944 100.021 102.979 100.021V106.021ZM110.951 107.942C113.187 109.178 114.815 110.89 115.908 113.127L121.299 110.494C119.657 107.132 117.152 104.514 113.854 102.691L110.951 107.942ZM115.964 113.236C116.667 114.538 117.128 115.951 117.341 117.494L123.284 116.674C122.976 114.441 122.298 112.338 121.243 110.385L115.964 113.236ZM117.341 117.494C117.575 119.194 117.703 121.454 117.703 124.311H123.703C123.703 121.308 123.571 118.75 123.284 116.674L117.341 117.494ZM117.703 124.311V149.115H123.703V124.311H117.703ZM117.703 149.115C117.703 151.37 117.177 152.545 116.623 153.157L121.072 157.183C122.992 155.061 123.703 152.199 123.703 149.115H117.703ZM116.597 153.187C116.006 153.857 115.273 154.221 114.111 154.221V160.221C116.856 160.221 119.28 159.217 121.099 157.153L116.597 153.187ZM114.111 154.221C112.924 154.221 112.153 153.845 111.525 153.134L107.029 157.108C108.875 159.196 111.327 160.221 114.111 160.221V154.221ZM111.525 153.134C110.935 152.466 110.422 151.276 110.422 149.115H104.422C104.422 152.163 105.146 154.977 107.029 157.108L111.525 153.134ZM110.422 149.115V126.898H104.422V149.115H110.422ZM110.422 126.898C110.422 122.304 109.789 118.372 108.211 115.424L102.921 118.255C103.818 119.93 104.422 122.704 104.422 126.898H110.422ZM108.235 115.469C106.324 111.75 102.566 110.324 98.291 110.324V116.324C101.307 116.324 102.4 117.242 102.898 118.211L108.235 115.469ZM98.291 110.324C95.2636 110.324 92.4798 111.252 90.0228 113.053L93.571 117.892C95.0202 116.829 96.5659 116.324 98.291 116.324V110.324ZM90.0493 113.034C87.5609 114.818 85.7829 117.266 84.685 120.246L90.315 122.32C91.04 120.353 92.1266 118.927 93.5444 117.911L90.0493 113.034ZM84.6493 120.349C83.8298 122.848 83.5234 127.013 83.5234 132.416H89.5234C89.5234 126.947 89.8681 123.69 90.3507 122.218L84.6493 120.349ZM83.5234 132.416V149.115H89.5234V132.416H83.5234ZM83.5234 149.115C83.5234 151.396 82.9845 152.57 82.4208 153.177L86.8175 157.26C88.7928 155.133 89.5234 152.238 89.5234 149.115H83.5234ZM82.4188 153.179C81.8049 153.842 81.0206 154.221 79.7852 154.221V160.221C82.5211 160.221 84.9595 159.265 86.8194 157.258L82.4188 153.179ZM79.7852 154.221C78.6969 154.221 77.9463 153.869 77.2968 153.134L72.8008 157.108C74.6253 159.172 77.0323 160.221 79.7852 160.221V154.221ZM77.2968 153.134C76.7061 152.466 76.1934 151.276 76.1934 149.115H70.1934C70.1934 152.163 70.9176 154.977 72.8008 157.108L77.2968 153.134ZM76.1934 149.115V110.59H70.1934V149.115H76.1934ZM76.1934 110.59C76.1934 108.412 76.6785 107.385 77.0892 106.926L72.6178 102.925C70.815 104.94 70.1934 107.69 70.1934 110.59H76.1934ZM77.1148 106.897C77.5686 106.377 78.2057 106.021 79.3945 106.021V100.021C76.7422 100.021 74.352 100.936 72.5922 102.954L77.1148 106.897ZM79.3945 106.021C80.0723 106.021 80.6 106.175 81.0512 106.44L84.0855 101.263C82.6487 100.421 81.0605 100.021 79.3945 100.021V106.021ZM81.0512 106.44C81.4305 106.662 81.8026 107.026 82.1312 107.683L87.4977 105C86.7196 103.444 85.5943 102.148 84.0855 101.263L81.0512 106.44ZM82.1631 107.745C82.4659 108.317 82.6934 109.158 82.6934 110.395H88.6934C88.6934 108.441 88.3349 106.58 87.4658 104.938L82.1631 107.745ZM168.311 155.316L169.401 158.111L169.413 158.107L169.425 158.102L168.311 155.316ZM138.037 149.701L135.873 151.779L135.887 151.793L135.901 151.808L138.037 149.701ZM132.666 141.107L129.846 142.13L129.852 142.147L129.858 142.164L132.666 141.107ZM132.715 119.037L129.9 117.999L132.715 119.037ZM146.436 104.975L147.516 107.773L147.528 107.769L147.54 107.764L146.436 104.975ZM168.311 104.975L167.206 107.764L168.311 104.975ZM182.08 119.135L179.26 120.158L179.264 120.17L179.269 120.182L182.08 119.135ZM166.943 117.426L164.584 119.278L164.59 119.286L164.596 119.294L166.943 117.426ZM150.439 114.936L152.113 117.425L152.127 117.416L152.141 117.406L150.439 114.936ZM145.801 139.252L143.015 140.366L143.021 140.381L143.027 140.396L145.801 139.252ZM150.342 145.258L148.594 147.696L148.617 147.713L148.64 147.729L150.342 145.258ZM166.943 142.768L164.586 140.912L164.584 140.915L166.943 142.768ZM180.936 130.121C180.936 133.777 180.367 137.084 179.266 140.069L184.895 142.146C186.267 138.426 186.936 134.408 186.936 130.121H180.936ZM179.266 140.069C178.164 143.053 176.592 145.569 174.559 147.658L178.859 151.842C181.514 149.114 183.522 145.867 184.895 142.146L179.266 140.069ZM174.559 147.658C172.521 149.753 170.079 151.378 167.196 152.531L169.425 158.102C173.053 156.651 176.21 154.565 178.859 151.842L174.559 147.658ZM167.221 152.521C164.365 153.635 161.081 154.221 157.324 154.221V160.221C161.706 160.221 165.746 159.537 169.401 158.111L167.221 152.521ZM157.324 154.221C153.612 154.221 150.372 153.623 147.559 152.486L145.312 158.049C148.944 159.517 152.964 160.221 157.324 160.221V154.221ZM147.559 152.486C144.706 151.333 142.254 149.704 140.173 147.594L135.901 151.808C138.573 154.517 141.72 156.598 145.312 158.049L147.559 152.486ZM140.201 147.624C138.15 145.487 136.573 142.973 135.474 140.051L129.858 142.164C131.233 145.817 133.237 149.033 135.873 151.779L140.201 147.624ZM135.486 140.084C134.415 137.133 133.859 133.822 133.859 130.121H127.859C127.859 134.428 128.508 138.441 129.846 142.13L135.486 140.084ZM133.859 130.121C133.859 126.394 134.43 123.056 135.529 120.075L129.9 117.999C128.526 121.724 127.859 125.776 127.859 130.121H133.859ZM135.529 120.075C136.633 117.085 138.191 114.588 140.188 112.535L135.887 108.352C133.26 111.052 131.271 114.283 129.9 117.999L135.529 120.075ZM140.188 112.535C142.179 110.488 144.606 108.897 147.516 107.773L145.355 102.176C141.69 103.591 138.518 105.646 135.887 108.352L140.188 112.535ZM147.54 107.764C150.436 106.617 153.685 106.021 157.324 106.021V100.021C153.021 100.021 149.011 100.728 145.331 102.185L147.54 107.764ZM157.324 106.021C161.035 106.021 164.316 106.619 167.206 107.764L169.415 102.185C165.73 100.726 161.686 100.021 157.324 100.021V106.021ZM167.206 107.764C170.121 108.918 172.575 110.544 174.608 112.633L178.908 108.449C176.254 105.721 173.076 103.635 169.415 102.185L167.206 107.764ZM174.608 112.633C176.64 114.722 178.193 117.216 179.26 120.158L184.9 118.112C183.558 114.412 181.563 111.178 178.908 108.449L174.608 112.633ZM179.269 120.182C180.366 123.127 180.936 126.429 180.936 130.121H186.936C186.936 125.806 186.268 121.783 184.891 118.087L179.269 120.182ZM173.557 130.121C173.557 124.276 172.264 119.295 169.291 115.558L164.596 119.294C166.44 121.612 167.557 125.094 167.557 130.121H173.557ZM169.303 115.573C166.327 111.782 162.23 109.885 157.324 109.885V115.885C160.492 115.885 162.807 117.015 164.584 119.278L169.303 115.573ZM157.324 109.885C154.164 109.885 151.265 110.725 148.738 112.465L152.141 117.406C153.585 116.412 155.276 115.885 157.324 115.885V109.885ZM148.766 112.446C146.197 114.172 144.327 116.678 143.071 119.761L148.628 122.024C149.521 119.833 150.71 118.368 152.113 117.425L148.766 112.446ZM143.071 119.761C141.821 122.83 141.238 126.306 141.238 130.121H147.238C147.238 126.905 147.73 124.228 148.628 122.024L143.071 119.761ZM141.238 130.121C141.238 133.897 141.802 137.333 143.015 140.366L148.586 138.138C147.716 135.962 147.238 133.312 147.238 130.121H141.238ZM143.027 140.396C144.278 143.428 146.111 145.917 148.594 147.696L152.089 142.819C150.666 141.799 149.472 140.284 148.574 138.108L143.027 140.396ZM148.64 147.729C151.18 149.477 154.115 150.309 157.324 150.309V144.309C155.195 144.309 153.475 143.773 152.043 142.787L148.64 147.729ZM157.324 150.309C162.23 150.309 166.327 148.412 169.303 144.62L164.584 140.915C162.807 143.178 160.492 144.309 157.324 144.309V150.309ZM169.301 144.623C172.259 140.866 173.557 135.913 173.557 130.121H167.557C167.557 135.071 166.446 138.55 164.586 140.912L169.301 144.623ZM226.953 155.121L224.705 157.108L224.718 157.122L224.731 157.137L226.953 155.121ZM222.9 115.229L220.601 117.155L220.614 117.171L220.627 117.186L222.9 115.229ZM209.473 117.914L206.755 116.644L206.749 116.656L206.744 116.668L209.473 117.914ZM205.518 155.121L203.273 153.131L203.27 153.134L205.518 155.121ZM195.605 155.121L193.36 157.111L193.384 157.138L193.409 157.164L195.605 155.121ZM195.41 104.975L193.18 102.968L193.166 102.983L193.152 102.999L195.41 104.975ZM204.541 104.877L202.392 106.97L202.42 106.998L202.448 107.026L204.541 104.877ZM206.396 111.176H203.396V119.447L208.699 113.099L206.396 111.176ZM213.818 105.072L215.147 107.762L213.818 105.072ZM231.25 105.121L232.704 102.497L231.25 105.121ZM237.207 111.176L234.61 112.678L236.777 116.425L239.525 113.08L237.207 111.176ZM244.434 105.121L245.789 107.798L245.802 107.791L245.816 107.784L244.434 105.121ZM262.402 105.268L263.834 102.631L262.402 105.268ZM268.311 111.42L271.022 110.137L271.015 110.121L271.007 110.105L268.311 111.42ZM258.105 155.121L255.86 157.111L255.884 157.138L255.909 157.164L258.105 155.121ZM255.811 119.525L252.836 119.918L252.84 119.946L252.844 119.973L255.811 119.525ZM243.945 114.984L242.305 112.473L242.293 112.48L242.281 112.488L243.945 114.984ZM240.283 119.184L237.6 117.842L237.564 117.914L237.532 117.987L240.283 119.184ZM235.818 131.098V148.822H241.818V131.098H235.818ZM235.818 148.822C235.818 151.228 235.267 152.472 234.692 153.106L239.136 157.137C241.101 154.971 241.818 152.016 241.818 148.822H235.818ZM234.692 153.106C234.053 153.81 233.218 154.221 231.885 154.221V160.221C234.718 160.221 237.236 159.232 239.136 157.137L234.692 153.106ZM231.885 154.221C230.648 154.221 229.834 153.832 229.175 153.106L224.731 157.137C226.611 159.21 229.085 160.221 231.885 160.221V154.221ZM229.201 153.134C228.641 152.5 228.098 151.244 228.098 148.822H222.098C222.098 151.999 222.792 154.942 224.705 157.108L229.201 153.134ZM228.098 148.822V127.582H222.098V148.822H228.098ZM228.098 127.582C228.098 124.186 227.984 121.44 227.733 119.404L221.778 120.135C221.984 121.81 222.098 124.272 222.098 127.582H228.098ZM227.733 119.404C227.449 117.084 226.644 114.979 225.174 113.271L220.627 117.186C221.175 117.822 221.607 118.744 221.778 120.135L227.733 119.404ZM225.2 113.302C223.424 111.182 220.823 110.422 218.115 110.422V116.422C219.77 116.422 220.359 116.866 220.601 117.155L225.2 113.302ZM218.115 110.422C213.031 110.422 208.811 112.244 206.755 116.644L212.19 119.184C212.934 117.594 214.476 116.422 218.115 116.422V110.422ZM206.744 116.668C205.115 120.237 204.422 125.036 204.422 130.805H210.422C210.422 125.375 211.096 121.581 212.202 119.16L206.744 116.668ZM204.422 130.805V148.822H210.422V130.805H204.422ZM204.422 148.822C204.422 151.178 203.878 152.448 203.273 153.131L207.763 157.111C209.696 154.929 210.422 152.001 210.422 148.822H204.422ZM203.27 153.134C202.662 153.822 201.871 154.221 200.586 154.221V160.221C203.402 160.221 205.899 159.219 207.766 157.108L203.27 153.134ZM200.586 154.221C199.349 154.221 198.502 153.83 197.802 153.078L193.409 157.164C195.313 159.211 197.787 160.221 200.586 160.221V154.221ZM197.851 153.131C197.245 152.448 196.701 151.178 196.701 148.822H190.701C190.701 152.001 191.427 154.929 193.36 157.111L197.851 153.131ZM196.701 148.822V110.688H190.701V148.822H196.701ZM196.701 110.688C196.701 108.587 197.183 107.505 197.668 106.95L193.152 102.999C191.359 105.049 190.701 107.775 190.701 110.688H196.701ZM197.64 106.982C198.195 106.365 198.888 106.021 200 106.021V100.021C197.336 100.021 194.969 100.98 193.18 102.968L197.64 106.982ZM200 106.021C201.064 106.021 201.786 106.348 202.392 106.97L206.69 102.784C204.887 100.932 202.582 100.021 200 100.021V106.021ZM202.448 107.026C202.97 107.535 203.396 108.357 203.396 109.906H209.396C209.396 107.158 208.586 104.628 206.634 102.728L202.448 107.026ZM203.396 109.906V111.176H209.396V109.906H203.396ZM208.699 113.099C210.801 110.582 212.959 108.842 215.147 107.762L212.49 102.382C209.404 103.906 206.614 106.236 204.094 109.253L208.699 113.099ZM215.147 107.762C217.332 106.683 219.801 106.119 222.607 106.119V100.119C218.969 100.119 215.578 100.857 212.49 102.382L215.147 107.762ZM222.607 106.119C225.561 106.119 227.919 106.705 229.796 107.745L232.704 102.497C229.763 100.868 226.359 100.119 222.607 100.119V106.119ZM229.796 107.745C231.668 108.783 233.283 110.382 234.61 112.678L239.804 109.674C238.006 106.565 235.649 104.129 232.704 102.497L229.796 107.745ZM239.525 113.08C241.566 110.596 243.663 108.874 245.789 107.798L243.078 102.445C240.061 103.972 237.34 106.287 234.889 109.272L239.525 113.08ZM245.816 107.784C247.927 106.688 250.296 106.119 252.979 106.119V100.119C249.411 100.119 246.083 100.885 243.052 102.458L245.816 107.784ZM252.979 106.119C256.231 106.119 258.858 106.756 260.97 107.904L263.834 102.631C260.673 100.914 257.018 100.119 252.979 100.119V106.119ZM260.97 107.904C263.065 109.041 264.589 110.633 265.614 112.735L271.007 110.105C269.428 106.868 267.014 104.358 263.834 102.631L260.97 107.904ZM265.599 112.703C266.443 114.487 267.02 117.724 267.02 122.797H273.02C273.02 117.519 272.457 113.17 271.022 110.137L265.599 112.703ZM267.02 122.797V148.822H273.02V122.797H267.02ZM267.02 148.822C267.02 151.228 266.468 152.472 265.893 153.106L270.337 157.137C272.302 154.971 273.02 152.016 273.02 148.822H267.02ZM265.893 153.106C265.254 153.81 264.42 154.221 263.086 154.221V160.221C265.919 160.221 268.437 159.232 270.337 157.137L265.893 153.106ZM263.086 154.221C261.849 154.221 261.002 153.83 260.302 153.078L255.909 157.164C257.813 159.211 260.287 160.221 263.086 160.221V154.221ZM260.35 153.131C259.745 152.448 259.201 151.178 259.201 148.822H253.201C253.201 152.001 253.927 154.929 255.86 157.111L260.35 153.131ZM259.201 148.822V126.41H253.201V148.822H259.201ZM259.201 126.41C259.201 123.478 259.069 121.015 258.777 119.078L252.844 119.973C253.073 121.487 253.201 123.613 253.201 126.41H259.201ZM258.785 119.133C258.484 116.858 257.598 114.821 256.069 113.153L251.646 117.207C252.265 117.882 252.681 118.743 252.836 119.918L258.785 119.133ZM256.069 113.153C254.239 111.156 251.672 110.422 248.975 110.422V116.422C250.639 116.422 251.327 116.859 251.646 117.207L256.069 113.153ZM248.975 110.422C246.585 110.422 244.345 111.14 242.305 112.473L245.586 117.496C246.736 116.745 247.848 116.422 248.975 116.422V110.422ZM242.281 112.488C240.264 113.833 238.701 115.64 237.6 117.842L242.966 120.525C243.623 119.212 244.502 118.219 245.609 117.481L242.281 112.488ZM237.532 117.987C236.284 120.859 235.818 125.394 235.818 131.098H241.818C241.818 125.408 242.33 122 243.034 120.38L237.532 117.987Z" fill="url(#paint1_linear_1853_51594)"/>
</g>
<defs>
<filter id="filter0_d_1853_51594" x="1.32227" y="8.44324" width="368.637" height="242.114" filterUnits="userSpaceOnUse" color-interpolation-filters="sRGB">
<feFlood flood-opacity="0" result="BackgroundImageFix"/>
<feColorMatrix in="SourceAlpha" type="matrix" values="0 0 0 0 0 0 0 0 0 0 0 0 0 0 0 0 0 0 127 0" result="hardAlpha"/>
<feOffset dy="4"/>
<feGaussianBlur stdDeviation="2"/>
<feComposite in2="hardAlpha" operator="out"/>
<feColorMatrix type="matrix" values="0 0 0 0 0 0 0 0 0 0 0 0 0 0 0 0 0 0 0.2 0"/>
<feBlend mode="normal" in2="BackgroundImageFix" result="effect1_dropShadow_1853_51594"/>
<feBlend mode="normal" in="SourceGraphic" in2="effect1_dropShadow_1853_51594" result="shape"/>
</filter>
<linearGradient id="paint0_linear_1853_51594" x1="332.367" y1="35.1039" x2="332.367" y2="130.706" gradientUnits="userSpaceOnUse">
<stop stop-color="#512DED"/>
<stop offset="1" stop-color="#5ED1BC"/>
</linearGradient>
<linearGradient id="paint1_linear_1853_51594" x1="140" y1="61" x2="140" y2="164" gradientUnits="userSpaceOnUse">
<stop offset="0.203125" stop-color="#5ED1BC"/>
<stop offset="1" stop-color="#512DED"/>
</linearGradient>
</defs>
</svg>
