<svg width="426" height="336" viewBox="0 0 426 336" fill="none" xmlns="http://www.w3.org/2000/svg">
<rect x="181.779" width="128" height="128" rx="30" transform="rotate(20 181.779 0)" fill="#512DED"/>
<rect x="260.779" y="171" width="128" height="128" rx="30" transform="rotate(20 260.779 171)" fill="#5ED1BC"/>
<rect x="304.779" y="47" width="128" height="128" rx="30" transform="rotate(20 304.779 47)" fill="url(#paint0_linear_2969_51791)"/>
<path d="M79.625 175.5C79.625 181.042 78.1875 186.021 75.3125 190.438C72.4792 194.854 68.3125 198.312 62.8125 200.812C57.3125 203.312 50.7917 204.562 43.25 204.562C34.2083 204.562 26.75 202.854 20.875 199.438C16.7083 196.979 13.3125 193.708 10.6875 189.625C8.10417 185.5 6.8125 181.5 6.8125 177.625C6.8125 175.375 7.58333 173.458 9.125 171.875C10.7083 170.25 12.7083 169.438 15.125 169.438C17.0833 169.438 18.7292 170.062 20.0625 171.312C21.4375 172.562 22.6042 174.417 23.5625 176.875C24.7292 179.792 25.9792 182.229 27.3125 184.188C28.6875 186.146 30.6042 187.771 33.0625 189.062C35.5208 190.312 38.75 190.938 42.75 190.938C48.25 190.938 52.7083 189.667 56.125 187.125C59.5833 184.542 61.3125 181.333 61.3125 177.5C61.3125 174.458 60.375 172 58.5 170.125C56.6667 168.208 54.2708 166.75 51.3125 165.75C48.3958 164.75 44.4792 163.688 39.5625 162.562C32.9792 161.021 27.4583 159.229 23 157.188C18.5833 155.104 15.0625 152.292 12.4375 148.75C9.85417 145.167 8.5625 140.729 8.5625 135.438C8.5625 130.396 9.9375 125.917 12.6875 122C15.4375 118.083 19.4167 115.083 24.625 113C29.8333 110.875 35.9583 109.812 43 109.812C48.625 109.812 53.4792 110.521 57.5625 111.938C61.6875 113.312 65.1042 115.167 67.8125 117.5C70.5208 119.792 72.5 122.208 73.75 124.75C75 127.292 75.625 129.771 75.625 132.188C75.625 134.396 74.8333 136.396 73.25 138.188C71.7083 139.938 69.7708 140.812 67.4375 140.812C65.3125 140.812 63.6875 140.292 62.5625 139.25C61.4792 138.167 60.2917 136.417 59 134C57.3333 130.542 55.3333 127.854 53 125.938C50.6667 123.979 46.9167 123 41.75 123C36.9583 123 33.0833 124.062 30.125 126.188C27.2083 128.271 25.75 130.792 25.75 133.75C25.75 135.583 26.25 137.167 27.25 138.5C28.25 139.833 29.625 140.979 31.375 141.938C33.125 142.896 34.8958 143.646 36.6875 144.188C38.4792 144.729 41.4375 145.521 45.5625 146.562C50.7292 147.771 55.3958 149.104 59.5625 150.562C63.7708 152.021 67.3333 153.792 70.25 155.875C73.2083 157.958 75.5 160.604 77.125 163.812C78.7917 166.979 79.625 170.875 79.625 175.5ZM109.688 144.625V146.688C112.688 142.729 115.958 139.833 119.5 138C123.083 136.125 127.188 135.188 131.812 135.188C136.312 135.188 140.333 136.167 143.875 138.125C147.417 140.083 150.062 142.854 151.812 146.438C152.938 148.521 153.667 150.771 154 153.188C154.333 155.604 154.5 158.688 154.5 162.438V194.188C154.5 197.604 153.708 200.188 152.125 201.938C150.583 203.688 148.562 204.562 146.062 204.562C143.521 204.562 141.458 203.667 139.875 201.875C138.292 200.083 137.5 197.521 137.5 194.188V165.75C137.5 160.125 136.708 155.833 135.125 152.875C133.583 149.875 130.479 148.375 125.812 148.375C122.771 148.375 120 149.292 117.5 151.125C115 152.917 113.167 155.396 112 158.562C111.167 161.104 110.75 165.854 110.75 172.812V194.188C110.75 197.646 109.938 200.25 108.312 202C106.729 203.708 104.667 204.562 102.125 204.562C99.6667 204.562 97.6458 203.667 96.0625 201.875C94.4792 200.083 93.6875 197.521 93.6875 194.188V144.875C93.6875 141.625 94.3958 139.208 95.8125 137.625C97.2292 136 99.1667 135.188 101.625 135.188C103.125 135.188 104.479 135.542 105.688 136.25C106.896 136.958 107.854 138.021 108.562 139.438C109.312 140.854 109.688 142.583 109.688 144.625ZM235.438 169.875C235.438 174.958 234.646 179.646 233.062 183.938C231.479 188.229 229.188 191.917 226.188 195C223.188 198.083 219.604 200.458 215.438 202.125C211.271 203.75 206.583 204.562 201.375 204.562C196.208 204.562 191.562 203.729 187.438 202.062C183.312 200.396 179.729 198.021 176.688 194.938C173.688 191.812 171.396 188.146 169.812 183.938C168.271 179.688 167.5 175 167.5 169.875C167.5 164.708 168.292 159.979 169.875 155.688C171.458 151.396 173.729 147.729 176.688 144.688C179.646 141.646 183.229 139.312 187.438 137.688C191.646 136.021 196.292 135.188 201.375 135.188C206.542 135.188 211.229 136.021 215.438 137.688C219.646 139.354 223.25 141.729 226.25 144.812C229.25 147.896 231.521 151.562 233.062 155.812C234.646 160.062 235.438 164.75 235.438 169.875ZM218.312 169.875C218.312 162.917 216.771 157.5 213.688 153.625C210.646 149.75 206.542 147.812 201.375 147.812C198.042 147.812 195.104 148.688 192.562 150.438C190.021 152.146 188.062 154.688 186.688 158.062C185.312 161.438 184.625 165.375 184.625 169.875C184.625 174.333 185.292 178.229 186.625 181.562C188 184.896 189.938 187.458 192.438 189.25C194.979 191 197.958 191.875 201.375 191.875C206.542 191.875 210.646 189.938 213.688 186.062C216.771 182.146 218.312 176.75 218.312 169.875ZM305.688 171.125V193.812C305.688 197.396 304.875 200.083 303.25 201.875C301.625 203.667 299.479 204.562 296.812 204.562C294.229 204.562 292.125 203.667 290.5 201.875C288.917 200.083 288.125 197.396 288.125 193.812V166.625C288.125 162.333 287.979 159 287.688 156.625C287.396 154.25 286.604 152.312 285.312 150.812C284.021 149.271 281.979 148.5 279.188 148.5C273.604 148.5 269.917 150.417 268.125 154.25C266.375 158.083 265.5 163.583 265.5 170.75V193.812C265.5 197.354 264.688 200.042 263.062 201.875C261.479 203.667 259.375 204.562 256.75 204.562C254.167 204.562 252.042 203.667 250.375 201.875C248.75 200.042 247.938 197.354 247.938 193.812V145C247.938 141.792 248.667 139.354 250.125 137.688C251.625 136.021 253.583 135.188 256 135.188C258.333 135.188 260.271 135.979 261.812 137.562C263.396 139.104 264.188 141.25 264.188 144V145.625C267.146 142.083 270.312 139.479 273.688 137.812C277.062 136.146 280.812 135.312 284.938 135.312C289.229 135.312 292.917 136.167 296 137.875C299.083 139.583 301.625 142.167 303.625 145.625C306.5 142.125 309.583 139.542 312.875 137.875C316.167 136.167 319.812 135.312 323.812 135.312C328.479 135.312 332.5 136.229 335.875 138.062C339.25 139.896 341.771 142.521 343.438 145.938C344.896 149.021 345.625 153.875 345.625 160.5V193.812C345.625 197.396 344.812 200.083 343.188 201.875C341.562 203.667 339.417 204.562 336.75 204.562C334.167 204.562 332.042 203.667 330.375 201.875C328.75 200.042 327.938 197.354 327.938 193.812V165.125C327.938 161.458 327.771 158.521 327.438 156.312C327.146 154.104 326.312 152.25 324.938 150.75C323.562 149.25 321.479 148.5 318.688 148.5C316.438 148.5 314.292 149.167 312.25 150.5C310.25 151.833 308.688 153.625 307.562 155.875C306.312 158.75 305.688 163.833 305.688 171.125Z" fill="white"/>
<defs>
<linearGradient id="paint0_linear_2969_51791" x1="368.779" y1="47" x2="368.779" y2="175" gradientUnits="userSpaceOnUse">
<stop stop-color="#512DED"/>
<stop offset="1" stop-color="#5ED1BC"/>
</linearGradient>
</defs>
</svg>
